<?xml version="1.0" encoding="utf-8"?>
<!-- Generator: Adobe Illustrator 23.0.3, SVG Export Plug-In . SVG Version: 6.00 Build 0)  -->
<svg version="1.1" id="Layer_1" xmlns="http://www.w3.org/2000/svg" xmlns:xlink="http://www.w3.org/1999/xlink" x="0px" y="0px"
	 viewBox="0 0 432 432" style="enable-background:new 0 0 432 432;" xml:space="preserve">
<style type="text/css">
	.st0{fill:#FEEDA2;}
	.st1{fill:#FEE496;}
	.st2{fill:#FCF6B7;}
	.st3{fill:#F89C49;}
	.st4{fill:#FCB764;}
	.st5{fill:#FECB79;}
	.st6{fill:#FEF6AD;}
	.st7{fill:#F7943F;}
	.st8{fill:#F57E26;}
	.st9{fill:#F68C36;}
	.st10{fill:#FCBB68;}
	.st11{fill:#F37021;}
	.st12{fill:#F9A44E;}
	.st13{fill:#FEEA9D;}
	.st14{fill:#FDC270;}
	.st15{fill:url(#SVGID_1_);}
	.st16{fill:url(#SVGID_2_);}
	.st17{fill:#FFF1A6;}
	.st18{fill:#FCF6B3;}
	.st19{fill:#FEE092;}
	.st20{fill:url(#SVGID_3_);}
	.st21{fill:url(#SVGID_4_);}
	.st22{fill:url(#SVGID_5_);}
	.st23{fill:url(#SVGID_6_);}
	.st24{fill:url(#SVGID_7_);}
	.st25{fill:url(#SVGID_8_);}
	.st26{fill:url(#SVGID_9_);}
	.st27{fill:url(#SVGID_10_);}
	.st28{fill:url(#SVGID_11_);}
	.st29{fill:url(#SVGID_12_);}
	.st30{fill:url(#SVGID_13_);}
	.st31{fill:#FFFFFF;}
	.st32{fill:#F79C8F;}
	.st33{fill:#F9B7AC;}
	.st34{fill:#FBCAC3;}
	.st35{fill:#FFF7F5;}
	.st36{fill:#F69485;}
	.st37{fill:#F47D6B;}
	.st38{fill:#F58B7D;}
	.st39{fill:#F9BAB0;}
	.st40{fill:#F36F5B;}
	.st41{fill:#F7A396;}
	.st42{fill:#FEEBE9;}
	.st43{fill:#FAC1B9;}
	.st44{fill:url(#SVGID_14_);}
	.st45{fill:url(#SVGID_15_);}
	.st46{fill:#FEF2F0;}
	.st47{fill:#FFFCFC;}
	.st48{fill:#FDE1DB;}
	.st49{fill:url(#SVGID_16_);}
	.st50{fill:url(#SVGID_17_);}
	.st51{fill:url(#SVGID_18_);}
	.st52{fill:url(#SVGID_19_);}
	.st53{fill:url(#SVGID_20_);}
	.st54{fill:url(#SVGID_21_);}
	.st55{fill:url(#SVGID_22_);}
	.st56{fill:url(#SVGID_23_);}
	.st57{fill:url(#SVGID_24_);}
	.st58{fill:url(#SVGID_25_);}
	.st59{fill:url(#SVGID_26_);}
</style>
<g>
	<g>
		<g>
			<path class="st0" d="M249.8,354.2c-4.3,0-8.7,0.4-13.1,1.1c-9.5,1.4-20.2,3.9-30.6,4.3c3.8,1.2,7.7,1.7,11.7,1.7
				C228.4,361.3,239.5,357.7,249.8,354.2 M21.4,328.7c1.3,5.9,3.7,11.4,7.3,16.3c5.4,7.3,12.8,12.9,21,16.8
				c11.1,5.3,22.9,7.2,34.8,7.2c9.2,0,18.6-1.2,27.7-2.8c21.9-4,43.8-10,66.3-10c1.3,0,2.5,0,3.8,0c0.8,0,1.6,0.1,2.4,0.1
				c-1.2-0.5-2.3-1.1-3.4-1.7c-7-2.5-14.1-4.7-21.4-6c-9.7-1.8-19.5-2.4-29.3-2.4c-13.8,0-27.7,1.1-41.5,1.5c-1.8,0-3.7,0.1-5.5,0.1
				c-19.5,0-39.1-2.8-55.6-14C25.7,332.2,23.5,330.5,21.4,328.7 M399.4,186.1c-0.1,0.3-0.2,0.7-0.2,1c-2.6,11.7,0.2,23.6,3.5,34.8
				c3.4,11.6,6.8,23.1,8.8,35c3.7,22.6,3.2,46.7-6,68c-0.7,1.7-1.5,3.4-2.4,5c8.7-9.9,14.9-22,18.3-34.7c5.9-22.4,2.7-46.4-4.4-68.1
				c-3.8-11.5-8.9-22.3-14.1-33.2C401.7,191.2,400.5,188.7,399.4,186.1 M40.8,66c-12,9.9-19.4,24.5-22.3,40
				c-6.7,36.1,9.6,70.1,16.4,105c7.7-44.6-14-90.9,1.4-134.8C37.6,72.7,39.1,69.3,40.8,66 M357.2,44.8c-11.3,0-22.8,2.2-33.4,4.8
				c-23.8,5.7-46.9,13.9-70.7,19.9c-9.9,2.5-20,4.5-30.1,5.7c8.9,1.4,18,2,27.1,2c7.9,0,15.8-0.4,23.7-1.2
				c24.4-2.2,48.5-6.8,72.9-8.8c5.5-0.4,11.2-0.8,16.9-0.8c16.1,0,32.5,2.6,45.2,12.8C405,68.4,398,58.7,388.1,52.6
				C378.6,46.8,368,44.8,357.2,44.8"/>
			<path class="st0" d="M184.6,356.4c5.7,2.4,11.9,3.3,18.2,3.3c1.1,0,2.1,0,3.2-0.1c-0.6-0.2-1.2-0.4-1.8-0.6
				C197.8,357.7,191.2,356.7,184.6,356.4 M403.2,329.8c-3.9,4.5-8.4,8.4-13.3,11.8c-8.5,5.8-18.1,9.2-28.3,10.5
				c-3.9,0.5-7.8,0.7-11.7,0.7c-7.2,0-14.5-0.7-21.7-1.7c-11.5-1.5-23-3.5-34.6-4.2c-2-0.1-4.1-0.2-6.1-0.2
				c-9.6,0-18.9,1.3-28.2,4.3c-3.1,1-6.2,2-9.5,3.2c0.3,0,0.5,0,0.8,0c6.9,0,13.8,0.8,20.7,2.3c11.4,2.4,22.4,6.2,33.5,9.5
				c10.7,3.1,21.6,5.8,32.8,6c0.6,0,1.2,0,1.8,0c9.6,0,19.1-1.9,27.8-6.1C382.8,358.5,395.3,345.2,403.2,329.8 M35,211
				c-0.6,3.6-1.4,7.2-2.5,10.8C26.1,244,9.6,262.5,5.7,285.5c-1.6,9.6-0.5,19.7,4.1,28.4c2.9,5.6,6.9,10.5,11.6,14.7
				c-0.8-3.6-1.2-7.4-1.1-11.1c0.3-23.4,13.7-44.1,16.7-67.1C38.7,237.1,37.5,224,35,211 M408.7,79.2c2.2,6.4,3.3,13.2,3.2,19.9
				c-0.1,10.1-3.2,19.4-7.1,28.6c-4.5,10.3-10,20.8-10.7,32.2c-0.6,9.1,1.9,17.8,5.4,26.1c2.7-10.8,9.5-20,15.3-29.2
				c5.3-8.5,9.8-17.2,11.4-27.2c2.9-17.9-2.4-37.7-16.5-49.6C409.4,79.8,409,79.5,408.7,79.2 M96.6,32c-7,0-13.9,0.9-20.6,3
				c-15.9,4.9-27.8,16.7-35.2,31c3.2-2.6,6.7-4.9,10.6-6.8c10.5-5.1,22.1-7.1,33.8-7.1c8.7,0,17.4,1.1,25.7,2.9
				c23.8,5,46.1,15.3,70,19.6c7.5,1.3,15,1.9,22.6,1.9c6.5,0,13-0.4,19.5-1.2c-7.2-1.2-14.3-2.8-21.3-5.2
				c-23-7.9-43.5-21.4-66.2-30.1C123.2,35.3,109.9,32,96.6,32"/>
			<path class="st1" d="M85.1,52c-11.7,0-23.3,2-33.8,7.1c-3.9,1.9-7.4,4.2-10.6,6.8c-1.7,3.3-3.2,6.7-4.4,10.3
				C21,120.2,42.7,166.5,35,211c2.5,13,3.8,26.1,2,39.4c-3,22.9-16.4,43.7-16.7,67.1c0,3.7,0.3,7.5,1.1,11.1
				c2.1,1.8,4.3,3.6,6.6,5.1c16.6,11.2,36.1,14,55.6,14c1.8,0,3.7,0,5.5-0.1c13.8-0.3,27.6-1.5,41.5-1.5c9.8,0,19.6,0.6,29.3,2.4
				c7.3,1.4,14.4,3.5,21.4,6c1.1,0.6,2.3,1.2,3.4,1.7c6.6,0.4,13.2,1.3,19.7,2.6c0.6,0.2,1.2,0.4,1.8,0.6
				c10.4-0.4,21.1-2.9,30.6-4.3c4.4-0.7,8.7-1,13.1-1.1c3.2-1.1,6.4-2.2,9.5-3.2c9.3-2.9,18.6-4.3,28.2-4.3c2,0,4,0.1,6.1,0.2
				c11.6,0.7,23.1,2.7,34.6,4.2c7.2,0.9,14.4,1.7,21.7,1.7c3.9,0,7.8-0.2,11.7-0.7c10.1-1.3,19.8-4.8,28.3-10.5
				c4.9-3.4,9.4-7.4,13.3-11.8c0.8-1.6,1.6-3.3,2.4-5c9.3-21.3,9.8-45.4,6-68c-2-11.9-5.4-23.4-8.8-35c-3.3-11.2-6.2-23.1-3.5-34.8
				c0.1-0.3,0.1-0.7,0.2-1c-3.5-8.3-6-17.1-5.4-26.1c0.8-11.5,6.3-21.9,10.7-32.2c4-9.2,7-18.5,7.1-28.6c0-6.7-1-13.5-3.2-19.9
				c-12.7-10.1-29.1-12.8-45.2-12.8c-5.7,0-11.4,0.3-16.9,0.8c-24.4,2-48.5,6.6-72.9,8.8c-7.9,0.7-15.8,1.2-23.7,1.2
				c-9.1,0-18.1-0.6-27.1-2c-6.5,0.8-13,1.2-19.5,1.2c-7.5,0-15.1-0.6-22.6-1.9c-23.9-4.2-46.3-14.5-70-19.6
				C102.5,53.1,93.8,52,85.1,52"/>
		</g>
		<path class="st2" d="M360.1,107.9H73.4c-3.8,0-6.8,3.1-6.8,6.8v190.1c0,3.8,3.1,6.8,6.8,6.8h286.8c3.8,0,6.8-3.1,6.8-6.8V114.7
			C367,110.9,363.9,107.9,360.1,107.9z"/>
		<path class="st3" d="M360,107.8H73.5c-3.8,0-7,3.1-7,7v8.9H367v-8.9C367,110.9,363.9,107.8,360,107.8z"/>
		<circle class="st2" cx="333.1" cy="115.7" r="2.3"/>
		<circle class="st4" cx="342.4" cy="115.7" r="2.3"/>
		<circle class="st5" cx="351.7" cy="115.7" r="2.3"/>
		<g>
			<rect x="292.4" y="143.8" class="st6" width="66.9" height="41"/>
			<rect x="295.4" y="153" class="st7" width="11.9" height="11.9"/>
			<rect x="311.8" y="153" class="st5" width="11.9" height="11.9"/>
			<rect x="328.3" y="153" class="st8" width="11.9" height="11.9"/>
			<rect x="295.4" y="168.3" class="st9" width="11.9" height="11.9"/>
			<rect x="311.8" y="168.3" class="st10" width="11.9" height="11.9"/>
			<rect x="328.3" y="168.3" class="st11" width="11.9" height="11.9"/>
			<rect x="344.4" y="153" class="st4" width="11.9" height="11.9"/>
			<rect x="344.4" y="168.3" class="st12" width="11.9" height="11.9"/>
			<rect x="292.4" y="143.8" class="st13" width="66.9" height="5.7"/>
			<circle class="st2" cx="348.3" cy="146.9" r="0.8"/>
			<circle class="st2" cx="352" cy="146.9" r="0.8"/>
			<circle class="st2" cx="355.7" cy="146.9" r="0.8"/>
		</g>
		<g>
			<rect x="151.4" y="144.9" class="st6" width="129.9" height="103.8"/>
			<rect x="151.4" y="144.9" class="st13" width="129.9" height="7.5"/>
			<circle class="st2" cx="265.5" cy="149.3" r="1.1"/>
			<circle class="st2" cx="270.1" cy="149.3" r="1.1"/>
			<circle class="st2" cx="274.8" cy="149.3" r="1.1"/>
			<g>
				<g>
					<rect x="171.8" y="168.5" class="st7" width="89.7" height="63"/>
					<path class="st8" d="M171.8,205.6c1.8,1.4,4,2.1,6.7,1.8c4.9-0.6,9.3-4.4,14.3-4c4.9,0.4,8,5.3,12.7,6.4c3.8,0.9,7-1,8.5-4.5
						c1.6-3.7,1-8.1,3.1-11.6c3.3-5.4,10.1-1.4,14.2,0.6c2.3,1.1,4.5,2.3,6.8,3.4c2.4,1.2,4.7,2.5,7.3,3.3c3.8,1.2,8,0.4,9.8-3.5
						c0.7-1.5,1-3.1,1.6-4.6c0.9-2.3,2.6-3,4.7-3.5v-20.9h-89.7V205.6z"/>
					<circle class="st5" cx="191.7" cy="219.1" r="6.4"/>
					
						<ellipse transform="matrix(0.3162 -0.9487 0.9487 0.3162 -37.1192 351.4611)" class="st5" cx="225.3" cy="201.5" rx="3.8" ry="3.8"/>
					<circle class="st5" cx="249.5" cy="219.1" r="6.4"/>
				</g>
				<g>
					<path class="st7" d="M268,237.8h-1c-0.1,0-0.1-0.1-0.1-0.1s0.1-0.1,0.1-0.1h0.9v-0.9c0-0.1,0.1-0.1,0.1-0.1s0.1,0.1,0.1,0.1v1
						C268.2,237.7,268.1,237.8,268,237.8z"/>
					<path class="st7" d="M264.4,237.8h-2.1c-0.1,0-0.1-0.1-0.1-0.1s0.1-0.1,0.1-0.1h2.1c0.1,0,0.1,0.1,0.1,0.1
						S264.5,237.8,264.4,237.8z M259.8,237.8h-2.1c-0.1,0-0.1-0.1-0.1-0.1s0.1-0.1,0.1-0.1h2.1c0.1,0,0.1,0.1,0.1,0.1
						S259.8,237.8,259.8,237.8z M255.1,237.8H253c-0.1,0-0.1-0.1-0.1-0.1s0.1-0.1,0.1-0.1h2.1c0.1,0,0.1,0.1,0.1,0.1
						S255.2,237.8,255.1,237.8z M250.5,237.8h-2.1c-0.1,0-0.1-0.1-0.1-0.1s0.1-0.1,0.1-0.1h2.1c0.1,0,0.1,0.1,0.1,0.1
						S250.5,237.8,250.5,237.8z M245.8,237.8h-2.1c-0.1,0-0.1-0.1-0.1-0.1s0.1-0.1,0.1-0.1h2.1c0.1,0,0.1,0.1,0.1,0.1
						S245.9,237.8,245.8,237.8z M241.2,237.8h-2.1c-0.1,0-0.1-0.1-0.1-0.1s0.1-0.1,0.1-0.1h2.1c0.1,0,0.1,0.1,0.1,0.1
						S241.2,237.8,241.2,237.8z M236.5,237.8h-2.1c-0.1,0-0.1-0.1-0.1-0.1s0.1-0.1,0.1-0.1h2.1c0.1,0,0.1,0.1,0.1,0.1
						S236.6,237.8,236.5,237.8z M231.9,237.8h-2.1c-0.1,0-0.1-0.1-0.1-0.1s0.1-0.1,0.1-0.1h2.1c0.1,0,0.1,0.1,0.1,0.1
						S231.9,237.8,231.9,237.8z M227.2,237.8h-2.1c-0.1,0-0.1-0.1-0.1-0.1s0.1-0.1,0.1-0.1h2.1c0.1,0,0.1,0.1,0.1,0.1
						S227.3,237.8,227.2,237.8z M222.6,237.8h-2.1c-0.1,0-0.1-0.1-0.1-0.1s0.1-0.1,0.1-0.1h2.1c0.1,0,0.1,0.1,0.1,0.1
						S222.6,237.8,222.6,237.8z M217.9,237.8h-2.1c-0.1,0-0.1-0.1-0.1-0.1s0.1-0.1,0.1-0.1h2.1c0.1,0,0.1,0.1,0.1,0.1
						S218,237.8,217.9,237.8z M213.3,237.8h-2.1c-0.1,0-0.1-0.1-0.1-0.1s0.1-0.1,0.1-0.1h2.1c0.1,0,0.1,0.1,0.1,0.1
						S213.3,237.8,213.3,237.8z M208.6,237.8h-2.1c-0.1,0-0.1-0.1-0.1-0.1s0.1-0.1,0.1-0.1h2.1c0.1,0,0.1,0.1,0.1,0.1
						S208.7,237.8,208.6,237.8z M204,237.8h-2.1c-0.1,0-0.1-0.1-0.1-0.1s0.1-0.1,0.1-0.1h2.1c0.1,0,0.1,0.1,0.1,0.1
						S204,237.8,204,237.8z M199.3,237.8h-2.1c-0.1,0-0.1-0.1-0.1-0.1s0.1-0.1,0.1-0.1h2.1c0.1,0,0.1,0.1,0.1,0.1
						S199.4,237.8,199.3,237.8z M194.7,237.8h-2.1c-0.1,0-0.1-0.1-0.1-0.1s0.1-0.1,0.1-0.1h2.1c0.1,0,0.1,0.1,0.1,0.1
						S194.7,237.8,194.7,237.8z M190,237.8h-2.1c-0.1,0-0.1-0.1-0.1-0.1s0.1-0.1,0.1-0.1h2.1c0.1,0,0.1,0.1,0.1,0.1
						S190.1,237.8,190,237.8z M185.4,237.8h-2.1c-0.1,0-0.1-0.1-0.1-0.1s0.1-0.1,0.1-0.1h2.1c0.1,0,0.1,0.1,0.1,0.1
						S185.4,237.8,185.4,237.8z M180.7,237.8h-2.1c-0.1,0-0.1-0.1-0.1-0.1s0.1-0.1,0.1-0.1h2.1c0.1,0,0.1,0.1,0.1,0.1
						S180.8,237.8,180.7,237.8z M176.1,237.8H174c-0.1,0-0.1-0.1-0.1-0.1s0.1-0.1,0.1-0.1h2.1c0.1,0,0.1,0.1,0.1,0.1
						S176.1,237.8,176.1,237.8z M171.4,237.8h-2.1c-0.1,0-0.1-0.1-0.1-0.1s0.1-0.1,0.1-0.1h2.1c0.1,0,0.1,0.1,0.1,0.1
						S171.5,237.8,171.4,237.8z"/>
					<path class="st7" d="M166.8,237.8h-1c-0.1,0-0.1-0.1-0.1-0.1v-1c0-0.1,0.1-0.1,0.1-0.1s0.1,0.1,0.1,0.1v0.9h0.9
						c0.1,0,0.1,0.1,0.1,0.1S166.8,237.8,166.8,237.8z"/>
					<path class="st7" d="M165.7,234.1c-0.1,0-0.1-0.1-0.1-0.1v-2.1c0-0.1,0.1-0.1,0.1-0.1s0.1,0.1,0.1,0.1v2.1
						C165.8,234.1,165.8,234.1,165.7,234.1z M165.7,229.5c-0.1,0-0.1-0.1-0.1-0.1v-2.1c0-0.1,0.1-0.1,0.1-0.1s0.1,0.1,0.1,0.1v2.1
						C165.8,229.4,165.8,229.5,165.7,229.5z M165.7,224.8c-0.1,0-0.1-0.1-0.1-0.1v-2.1c0-0.1,0.1-0.1,0.1-0.1s0.1,0.1,0.1,0.1v2.1
						C165.8,224.7,165.8,224.8,165.7,224.8z M165.7,220.1c-0.1,0-0.1-0.1-0.1-0.1v-2.1c0-0.1,0.1-0.1,0.1-0.1s0.1,0.1,0.1,0.1v2.1
						C165.8,220.1,165.8,220.1,165.7,220.1z M165.7,215.4c-0.1,0-0.1-0.1-0.1-0.1v-2.1c0-0.1,0.1-0.1,0.1-0.1s0.1,0.1,0.1,0.1v2.1
						C165.8,215.4,165.8,215.4,165.7,215.4z M165.7,210.7c-0.1,0-0.1-0.1-0.1-0.1v-2.1c0-0.1,0.1-0.1,0.1-0.1s0.1,0.1,0.1,0.1v2.1
						C165.8,210.7,165.8,210.7,165.7,210.7z M165.7,206c-0.1,0-0.1-0.1-0.1-0.1v-2.1c0-0.1,0.1-0.1,0.1-0.1s0.1,0.1,0.1,0.1v2.1
						C165.8,206,165.8,206,165.7,206z M165.7,201.4c-0.1,0-0.1-0.1-0.1-0.1v-2.1c0-0.1,0.1-0.1,0.1-0.1s0.1,0.1,0.1,0.1v2.1
						C165.8,201.3,165.8,201.4,165.7,201.4z M165.7,196.7c-0.1,0-0.1-0.1-0.1-0.1v-2.1c0-0.1,0.1-0.1,0.1-0.1s0.1,0.1,0.1,0.1v2.1
						C165.8,196.6,165.8,196.7,165.7,196.7z M165.7,192c-0.1,0-0.1-0.1-0.1-0.1v-2.1c0-0.1,0.1-0.1,0.1-0.1s0.1,0.1,0.1,0.1v2.1
						C165.8,191.9,165.8,192,165.7,192z M165.7,187.3c-0.1,0-0.1-0.1-0.1-0.1v-2.1c0-0.1,0.1-0.1,0.1-0.1s0.1,0.1,0.1,0.1v2.1
						C165.8,187.3,165.8,187.3,165.7,187.3z M165.7,182.6c-0.1,0-0.1-0.1-0.1-0.1v-2.1c0-0.1,0.1-0.1,0.1-0.1s0.1,0.1,0.1,0.1v2.1
						C165.8,182.6,165.8,182.6,165.7,182.6z M165.7,178c-0.1,0-0.1-0.1-0.1-0.1v-2.1c0-0.1,0.1-0.1,0.1-0.1s0.1,0.1,0.1,0.1v2.1
						C165.8,177.9,165.8,178,165.7,178z M165.7,173.3c-0.1,0-0.1-0.1-0.1-0.1v-2.1c0-0.1,0.1-0.1,0.1-0.1s0.1,0.1,0.1,0.1v2.1
						C165.8,173.2,165.8,173.3,165.7,173.3z M165.7,168.6c-0.1,0-0.1-0.1-0.1-0.1v-2.1c0-0.1,0.1-0.1,0.1-0.1s0.1,0.1,0.1,0.1v2.1
						C165.8,168.5,165.8,168.6,165.7,168.6z"/>
					<path class="st7" d="M165.7,163.9c-0.1,0-0.1-0.1-0.1-0.1v-1c0-0.1,0.1-0.1,0.1-0.1h1c0.1,0,0.1,0.1,0.1,0.1s-0.1,0.1-0.1,0.1
						h-0.9v0.9C165.8,163.8,165.8,163.9,165.7,163.9z"/>
					<path class="st7" d="M264.4,162.9h-2.1c-0.1,0-0.1-0.1-0.1-0.1s0.1-0.1,0.1-0.1h2.1c0.1,0,0.1,0.1,0.1,0.1
						S264.5,162.9,264.4,162.9z M259.8,162.9h-2.1c-0.1,0-0.1-0.1-0.1-0.1s0.1-0.1,0.1-0.1h2.1c0.1,0,0.1,0.1,0.1,0.1
						S259.8,162.9,259.8,162.9z M255.1,162.9H253c-0.1,0-0.1-0.1-0.1-0.1s0.1-0.1,0.1-0.1h2.1c0.1,0,0.1,0.1,0.1,0.1
						S255.2,162.9,255.1,162.9z M250.5,162.9h-2.1c-0.1,0-0.1-0.1-0.1-0.1s0.1-0.1,0.1-0.1h2.1c0.1,0,0.1,0.1,0.1,0.1
						S250.5,162.9,250.5,162.9z M245.8,162.9h-2.1c-0.1,0-0.1-0.1-0.1-0.1s0.1-0.1,0.1-0.1h2.1c0.1,0,0.1,0.1,0.1,0.1
						S245.9,162.9,245.8,162.9z M241.2,162.9h-2.1c-0.1,0-0.1-0.1-0.1-0.1s0.1-0.1,0.1-0.1h2.1c0.1,0,0.1,0.1,0.1,0.1
						S241.2,162.9,241.2,162.9z M236.5,162.9h-2.1c-0.1,0-0.1-0.1-0.1-0.1s0.1-0.1,0.1-0.1h2.1c0.1,0,0.1,0.1,0.1,0.1
						S236.6,162.9,236.5,162.9z M231.9,162.9h-2.1c-0.1,0-0.1-0.1-0.1-0.1s0.1-0.1,0.1-0.1h2.1c0.1,0,0.1,0.1,0.1,0.1
						S231.9,162.9,231.9,162.9z M227.2,162.9h-2.1c-0.1,0-0.1-0.1-0.1-0.1s0.1-0.1,0.1-0.1h2.1c0.1,0,0.1,0.1,0.1,0.1
						S227.3,162.9,227.2,162.9z M222.6,162.9h-2.1c-0.1,0-0.1-0.1-0.1-0.1s0.1-0.1,0.1-0.1h2.1c0.1,0,0.1,0.1,0.1,0.1
						S222.6,162.9,222.6,162.9z M217.9,162.9h-2.1c-0.1,0-0.1-0.1-0.1-0.1s0.1-0.1,0.1-0.1h2.1c0.1,0,0.1,0.1,0.1,0.1
						S218,162.9,217.9,162.9z M213.3,162.9h-2.1c-0.1,0-0.1-0.1-0.1-0.1s0.1-0.1,0.1-0.1h2.1c0.1,0,0.1,0.1,0.1,0.1
						S213.3,162.9,213.3,162.9z M208.6,162.9h-2.1c-0.1,0-0.1-0.1-0.1-0.1s0.1-0.1,0.1-0.1h2.1c0.1,0,0.1,0.1,0.1,0.1
						S208.7,162.9,208.6,162.9z M204,162.9h-2.1c-0.1,0-0.1-0.1-0.1-0.1s0.1-0.1,0.1-0.1h2.1c0.1,0,0.1,0.1,0.1,0.1
						S204,162.9,204,162.9z M199.3,162.9h-2.1c-0.1,0-0.1-0.1-0.1-0.1s0.1-0.1,0.1-0.1h2.1c0.1,0,0.1,0.1,0.1,0.1
						S199.4,162.9,199.3,162.9z M194.7,162.9h-2.1c-0.1,0-0.1-0.1-0.1-0.1s0.1-0.1,0.1-0.1h2.1c0.1,0,0.1,0.1,0.1,0.1
						S194.7,162.9,194.7,162.9z M190,162.9h-2.1c-0.1,0-0.1-0.1-0.1-0.1s0.1-0.1,0.1-0.1h2.1c0.1,0,0.1,0.1,0.1,0.1
						S190.1,162.9,190,162.9z M185.4,162.9h-2.1c-0.1,0-0.1-0.1-0.1-0.1s0.1-0.1,0.1-0.1h2.1c0.1,0,0.1,0.1,0.1,0.1
						S185.4,162.9,185.4,162.9z M180.7,162.9h-2.1c-0.1,0-0.1-0.1-0.1-0.1s0.1-0.1,0.1-0.1h2.1c0.1,0,0.1,0.1,0.1,0.1
						S180.8,162.9,180.7,162.9z M176.1,162.9H174c-0.1,0-0.1-0.1-0.1-0.1s0.1-0.1,0.1-0.1h2.1c0.1,0,0.1,0.1,0.1,0.1
						S176.1,162.9,176.1,162.9z M171.4,162.9h-2.1c-0.1,0-0.1-0.1-0.1-0.1s0.1-0.1,0.1-0.1h2.1c0.1,0,0.1,0.1,0.1,0.1
						S171.5,162.9,171.4,162.9z"/>
					<path class="st7" d="M268,163.9c-0.1,0-0.1-0.1-0.1-0.1v-0.9H267c-0.1,0-0.1-0.1-0.1-0.1s0.1-0.1,0.1-0.1h1
						c0.1,0,0.1,0.1,0.1,0.1v1C268.2,163.8,268.1,163.9,268,163.9z"/>
					<path class="st7" d="M268,234.1c-0.1,0-0.1-0.1-0.1-0.1v-2.1c0-0.1,0.1-0.1,0.1-0.1s0.1,0.1,0.1,0.1v2.1
						C268.2,234.1,268.1,234.1,268,234.1z M268,229.5c-0.1,0-0.1-0.1-0.1-0.1v-2.1c0-0.1,0.1-0.1,0.1-0.1s0.1,0.1,0.1,0.1v2.1
						C268.2,229.4,268.1,229.5,268,229.5z M268,224.8c-0.1,0-0.1-0.1-0.1-0.1v-2.1c0-0.1,0.1-0.1,0.1-0.1s0.1,0.1,0.1,0.1v2.1
						C268.2,224.7,268.1,224.8,268,224.8z M268,220.1c-0.1,0-0.1-0.1-0.1-0.1v-2.1c0-0.1,0.1-0.1,0.1-0.1s0.1,0.1,0.1,0.1v2.1
						C268.2,220.1,268.1,220.1,268,220.1z M268,215.4c-0.1,0-0.1-0.1-0.1-0.1v-2.1c0-0.1,0.1-0.1,0.1-0.1s0.1,0.1,0.1,0.1v2.1
						C268.2,215.4,268.1,215.4,268,215.4z M268,210.7c-0.1,0-0.1-0.1-0.1-0.1v-2.1c0-0.1,0.1-0.1,0.1-0.1s0.1,0.1,0.1,0.1v2.1
						C268.2,210.7,268.1,210.7,268,210.7z M268,206c-0.1,0-0.1-0.1-0.1-0.1v-2.1c0-0.1,0.1-0.1,0.1-0.1s0.1,0.1,0.1,0.1v2.1
						C268.2,206,268.1,206,268,206z M268,201.4c-0.1,0-0.1-0.1-0.1-0.1v-2.1c0-0.1,0.1-0.1,0.1-0.1s0.1,0.1,0.1,0.1v2.1
						C268.2,201.3,268.1,201.4,268,201.4z M268,196.7c-0.1,0-0.1-0.1-0.1-0.1v-2.1c0-0.1,0.1-0.1,0.1-0.1s0.1,0.1,0.1,0.1v2.1
						C268.2,196.6,268.1,196.7,268,196.7z M268,192c-0.1,0-0.1-0.1-0.1-0.1v-2.1c0-0.1,0.1-0.1,0.1-0.1s0.1,0.1,0.1,0.1v2.1
						C268.2,191.9,268.1,192,268,192z M268,187.3c-0.1,0-0.1-0.1-0.1-0.1v-2.1c0-0.1,0.1-0.1,0.1-0.1s0.1,0.1,0.1,0.1v2.1
						C268.2,187.3,268.1,187.3,268,187.3z M268,182.6c-0.1,0-0.1-0.1-0.1-0.1v-2.1c0-0.1,0.1-0.1,0.1-0.1s0.1,0.1,0.1,0.1v2.1
						C268.2,182.6,268.1,182.6,268,182.6z M268,178c-0.1,0-0.1-0.1-0.1-0.1v-2.1c0-0.1,0.1-0.1,0.1-0.1s0.1,0.1,0.1,0.1v2.1
						C268.2,177.9,268.1,178,268,178z M268,173.3c-0.1,0-0.1-0.1-0.1-0.1v-2.1c0-0.1,0.1-0.1,0.1-0.1s0.1,0.1,0.1,0.1v2.1
						C268.2,173.2,268.1,173.3,268,173.3z M268,168.6c-0.1,0-0.1-0.1-0.1-0.1v-2.1c0-0.1,0.1-0.1,0.1-0.1s0.1,0.1,0.1,0.1v2.1
						C268.2,168.5,268.1,168.6,268,168.6z"/>
				</g>
				<rect x="163.2" y="160.2" class="st14" width="5" height="5"/>
				<rect x="163.2" y="235.2" class="st14" width="5" height="5"/>
				<g>
					<rect x="214.4" y="160.2" class="st14" width="5" height="5"/>
					<rect x="214.4" y="235.2" class="st14" width="5" height="5"/>
				</g>
				<g>
					<rect x="265.6" y="160.2" class="st14" width="5" height="5"/>
					<rect x="265.6" y="235.2" class="st14" width="5" height="5"/>
				</g>
				<g>
					<rect x="163.2" y="197.7" class="st14" width="5" height="5"/>
					<rect x="266.5" y="197.7" class="st14" width="5" height="5"/>
				</g>
			</g>
		</g>
		<g>
			<circle class="st6" cx="340.2" cy="211.8" r="22.8"/>
			<g>
				<circle class="st7" cx="340.2" cy="211.8" r="20.9"/>
				<path class="st7" d="M319.3,213.1c0,0.2,0,0.5,0.1,0.7c0,0.1,0,0.2,0,0.3c0,0.3,0.1,0.6,0.1,0.9c0,0.1,0,0.1,0,0.2
					c0.1,0.3,0.1,0.5,0.1,0.7c0,0.1,0.1,0.2,0.1,0.3c0.1,0.2,0.1,0.4,0.1,0.6c0,0.1,0.1,0.2,0.1,0.3c0.1,0.3,0.2,0.5,0.2,0.8
					c0,0.1,0.1,0.2,0.1,0.4c0.1,0.2,0.1,0.3,0.2,0.5c0.1,0.1,0.1,0.3,0.2,0.4c0.1,0.1,0.1,0.3,0.2,0.4s0.1,0.3,0.2,0.4
					c0.1,0.2,0.2,0.4,0.3,0.5c0.1,0.2,0.2,0.4,0.3,0.6c0.1,0.1,0.1,0.2,0.2,0.3c0.1,0.2,0.2,0.3,0.3,0.5c0.1,0.1,0.1,0.2,0.2,0.3
					c0.2,0.4,0.4,0.7,0.7,1.1l17.4-11.6v-20.9c-11.6,0-20.9,9.4-20.9,20.9c0,0.3,0,0.6,0,1C319.3,212.9,319.3,213,319.3,213.1z"/>
				<path class="st5" d="M357.6,223.4c2.2-3.3,3.5-7.3,3.5-11.6c0-11.6-9.4-20.9-20.9-20.9v20.9L357.6,223.4z"/>
			</g>
			<path class="st2" d="M340.2,219.8c-4.4,0-8-3.6-8-8s3.6-8,8-8c4.4,0,8,3.6,8,8S344.6,219.8,340.2,219.8z M340.2,205.1
				c-3.7,0-6.7,3-6.7,6.7c0,3.7,3,6.7,6.7,6.7c3.7,0,6.7-3,6.7-6.7S343.9,205.1,340.2,205.1z"/>
		</g>
		<rect x="162.6" y="267.6" class="st2" width="0.4" height="4.7"/>
		<rect x="164.7" y="267.6" class="st2" width="0.4" height="4.7"/>
		<rect x="165.8" y="267.6" class="st2" width="0.4" height="4.7"/>
		<rect x="161" y="275.2" class="st2" width="0.4" height="4.7"/>
		<g>
			<rect x="151.3" y="258.9" class="st6" width="129.9" height="26.8"/>
			<rect x="151.3" y="258.9" class="st13" width="129.9" height="6.7"/>
			<circle class="st2" cx="266.2" cy="262.4" r="1"/>
			<circle class="st2" cx="270.4" cy="262.4" r="1"/>
			<circle class="st2" cx="274.4" cy="262.4" r="1"/>
			
				<linearGradient id="SVGID_1_" gradientUnits="userSpaceOnUse" x1="156.626" y1="-1115.953" x2="275.7917" y2="-1115.953" gradientTransform="matrix(1 0 0 1 0 1388)">
				<stop  offset="0" style="stop-color:#F57E26"/>
				<stop  offset="0.341" style="stop-color:#F7943F"/>
				<stop  offset="0.749" style="stop-color:#FCB764"/>
				<stop  offset="0.9895" style="stop-color:#FBB05D"/>
			</linearGradient>
			<rect x="156.6" y="269.7" class="st15" width="119.2" height="4.7"/>
			
				<linearGradient id="SVGID_2_" gradientUnits="userSpaceOnUse" x1="-3868.552" y1="3821.2366" x2="-3749.3604" y2="3821.2366" gradientTransform="matrix(-1 0 0 -1 -3592.7344 4100.8481)">
				<stop  offset="0" style="stop-color:#F57E26"/>
				<stop  offset="0.341" style="stop-color:#F7943F"/>
				<stop  offset="0.7113" style="stop-color:#F7943F"/>
				<stop  offset="0.9895" style="stop-color:#FECB79"/>
			</linearGradient>
			<polygon class="st16" points="156.6,277.3 275.8,277.3 275.8,282 156.6,282 			"/>
			<rect x="192.4" y="269.7" class="st2" width="0.4" height="4.7"/>
			<rect x="193.7" y="269.7" class="st2" width="0.4" height="4.7"/>
			<rect x="210.3" y="277.3" class="st2" width="0.4" height="4.7"/>
			<rect x="216" y="277.3" class="st2" width="0.4" height="4.7"/>
			<rect x="267.7" y="269.7" class="st2" width="0.4" height="4.7"/>
			<rect x="265.6" y="269.7" class="st2" width="0.4" height="4.7"/>
			<rect x="271.3" y="277.3" class="st2" width="0.4" height="4.7"/>
			<rect x="270.2" y="277.3" class="st2" width="0.4" height="4.7"/>
			<rect x="217.6" y="277.3" class="st2" width="0.4" height="4.7"/>
		</g>
		<g>
			<rect x="78.2" y="145.2" class="st6" width="60.6" height="39.2"/>
			<rect x="78.2" y="145.2" class="st13" width="60.6" height="6.6"/>
			<circle class="st2" cx="127.9" cy="148.6" r="0.7"/>
			<circle class="st2" cx="131.2" cy="148.6" r="0.7"/>
			<circle class="st2" cx="134.5" cy="148.6" r="0.7"/>
			<g>
				<rect x="84" y="158" class="st17" width="6.7" height="6.7"/>
				<rect x="94.6" y="158" class="st18" width="6.7" height="6.7"/>
				<rect x="105.2" y="158" class="st17" width="6.7" height="6.7"/>
				<rect x="115.8" y="158" class="st18" width="6.7" height="6.7"/>
				<rect x="126.4" y="158" class="st17" width="6.7" height="6.7"/>
				<rect x="84" y="168" class="st18" width="6.7" height="6.7"/>
				<rect x="94.6" y="168" class="st17" width="6.7" height="6.7"/>
				<rect x="105.2" y="168" class="st18" width="6.7" height="6.7"/>
				<rect x="115.8" y="168" class="st17" width="6.7" height="6.7"/>
				<rect x="126.4" y="168" class="st18" width="6.7" height="6.7"/>
			</g>
		</g>
		<path class="st19" d="M304.6,193.7c0,0,1.2,6.1,0,6.5c-1.2,0.4-6.3-2.5-12.9-2.5c-6.6,0-21.4-3-22.3-4c-1-1-11.2-21.8-13.2-25.6
			c-2.1-3.9,0.6-11.7-3.4-11.4c-4,0.3-8.3,4.1-4.3,9.5c4,5.4,6.8,14,9.4,22.2c2.6,8.1,4.5,12.9,8.7,15.3c4.1,2.4,25.9,5.9,27.1,10.2
			c1.2,4.3-2.4,9.2-0.1,14.7c2.2,5.5,11,10.7,9.5,23.8c-1.2,10.4-3.2,55.1-4.2,73.6s-0.7,56.5-2.6,60.2c-1.8,3.7-9.3,6.4-14.3,7.4
			c-5,1-10.5,3.9-7.2,5.2c3.3,1.2,28.8,1.7,30.5,0c1.7-1.7,4.2-3.3,1.3-10.5c-2.9-7.2,5-28.3,5.4-39.7c0.4-11.4,1-16.6,1.6-22.6
			c0.6-6,5.5-41.1,8.8-42.3s7.8,38.4,10.3,43.6c2.5,5.1,25.4,42.2,26.9,46.7c1.5,4.5,2.7,14.7,0,16.5s-11.2,8.6-5.4,9.4
			c5.8,0.7,13.2-3,16.3-9.4c3.1-6.4,7.7-14,2.3-15.5c-5.4-1.5-5.8-1.8-11.2-14.7c-5.4-12.8-12.2-31-16.5-37.2
			c-4.3-6.2,0.6-22.5-1-38.8s-11.2-24.4-14.3-32.2c-3.1-7.8,1.7-40.9,1-43.6c-0.6-2.7-17.2-7.7-17.2-7.7l-1.7-11.4L304.6,193.7z"/>
		<path class="st19" d="M330.6,208.5c0,0,6.1,3.6,11.3,11s14.3,17.2,14.9,21.1s-12.5,26-15.7,28.5c-3.2,2.5-6.2,0-6.2,0
			s13.2-23,12.3-27.6c-1-4.5-20.5-19.6-20.5-19.6L330.6,208.5z"/>
		
			<linearGradient id="SVGID_3_" gradientUnits="userSpaceOnUse" x1="321.0014" y1="-1075.9951" x2="311.9742" y2="-1119.7314" gradientTransform="matrix(1 0 0 1 0 1388)">
			<stop  offset="0" style="stop-color:#F57E26"/>
			<stop  offset="1" style="stop-color:#F37021"/>
		</linearGradient>
		<path class="st20" d="M343.8,283.6c-0.1-0.6-0.1-1.1-0.2-1.6c0-0.1,0-0.1,0-0.1c-0.1-1.3-0.4-2.5-0.7-3.6
			c-3-12.4-10.5-19.4-13.2-26.2c-0.2-0.6-0.4-1.4-0.6-2.3c-7.6,1.7-18.2,1-25.9,0.1c0,0-3,29.2-8.6,50c-1.6,5.7-6.4,16.3-6.4,16.3
			s9.3,8.3,16.3,6.7c7-1.7,11.5-2.9,15.7,0c4.1,2.9,14.9-0.1,16.1-1.8s6.7-4,11.9-0.9c5.2,3.1,8-2.1,8-2.1S346.1,298.9,343.8,283.6z
			"/>
		<path class="st7" d="M288,395.7c-3.2,0.3-4.1-1.1-4.2-2.5c-0.7,0.2-1.3,0.3-2,0.5c-5,1-10.5,3.9-7.2,5.2c3.3,1.2,28.8,1.7,30.5,0
			c1.6-1.6,3.9-3.1,1.7-9.4c-0.8,0.1-1.8,0.3-2.9,0.6C298.4,391.7,294.5,395.1,288,395.7z"/>
		<path class="st7" d="M372.6,375c-1.5-0.4-2.5-0.7-3.5-1.2c-0.4,2.4-1.2,6.5-2.3,10.3c-1.7,5.9-4.2,8.8-9.4,7.8l0,0
			c-3.4,2.7-8.2,7.3-3.5,7.9c5.8,0.7,13.2-3,16.3-9.4C373.4,384.1,378,376.5,372.6,375z"/>
		
			<linearGradient id="SVGID_4_" gradientUnits="userSpaceOnUse" x1="348.4353" y1="-1146.8219" x2="327.6697" y2="-1167.5309" gradientTransform="matrix(1 0 0 1 0 1388)">
			<stop  offset="0" style="stop-color:#FECB79"/>
			<stop  offset="1" style="stop-color:#FCBB68"/>
		</linearGradient>
		<path class="st21" d="M347.2,241.5c0.4,1.7-1.3,6.2-3.6,11c1.6,1.3,4,2.7,6.8,2.7c3.6-6.3,6.7-12.8,6.4-14.7
			c-0.6-3.9-9.6-13.7-14.9-21.1c-5.2-7.4-12-12-12-12l-3.2,14.5C326.6,221.9,346.2,237,347.2,241.5z"/>
		<path class="st19" d="M257.7,188.3c2.6,8.1,4.5,12.9,8.7,15.3c2.4,1.3,10.7,3.1,17.5,5.2l7.3-11.1c-6.8-0.1-21-3-22-4
			c-1-1-11.2-21.8-13.2-25.6s0.6-11.7-3.4-11.4c-4,0.3-8.3,4.1-4.3,9.5C252.4,171.5,255.1,180.2,257.7,188.3z"/>
		
			<linearGradient id="SVGID_5_" gradientUnits="userSpaceOnUse" x1="287.5964" y1="-1169.2214" x2="315.1373" y2="-1179.9048" gradientTransform="matrix(1 0 0 1 0 1388)">
			<stop  offset="0" style="stop-color:#FECB79"/>
			<stop  offset="1" style="stop-color:#FCBB68"/>
		</linearGradient>
		<path class="st22" d="M330.6,208.5c-0.4-2-9.3-5.1-14.1-6.7l0,0c0,0-0.1,0-0.1,0c-0.1,0-0.1,0-0.2-0.1c-0.1,0-0.2-0.1-0.3-0.1
			c-0.1,0-0.2-0.1-0.2-0.1c-0.1,0-0.2-0.1-0.3-0.1c-0.1,0-0.1,0-0.2-0.1c-0.1,0-0.2-0.1-0.3-0.1c0,0-0.1,0-0.1,0
			c-0.1,0-0.2-0.1-0.2-0.1c0,0,0,0-0.1,0l0,0c-0.7-0.2-1.1-0.3-1.1-0.3l-1.1-7.3c-1,0-5.1,0.1-7.8,0.3c0.1,0.7,1.1,6,0,6.4
			c-0.3,0.1-0.8,0-1.6-0.2l0,0c-0.1,0-0.1,0-0.2-0.1c-0.1,0-0.2-0.1-0.3-0.1c-0.1,0-0.2-0.1-0.4-0.1c-0.1,0-0.1,0-0.1-0.1
			c-0.5-0.2-1.1-0.3-1.8-0.6c0,0,0,0-0.1,0l0,0c-2.3-0.7-5.2-1.4-8.5-1.4c-6.6,0-21.4-3-22.3-4c-0.6-0.6-4.1-7.6-7.5-14.3
			c-2.2,1.3-4.5,2-6.2,2.5c0.7,2.1,1.4,4.3,2.1,6.4c2.6,8.1,4.5,12.9,8.7,15.3c4.1,2.4,25.9,5.9,27.1,10.2c1.2,4.3-2.4,9.2-0.1,14.7
			c2.2,5.5,11,10.7,9.5,23.8c0,0.3-0.1,0.6-0.1,0.8c10.7,2.7,21.1,0.5,26.7-1.3C326.5,244,331.2,211.1,330.6,208.5z"/>
		<path class="st19" d="M314.5,173.4c-2.3-1.3-5-1.4-7.4-0.4c-1.7,0.7-3.5,1.8-4.6,3.6c-2.6,4-5.5,15.5-2.3,17.4
			c5.5,3.2,11.5,1.9,15.2-2.7C318.6,187.2,323.8,178.5,314.5,173.4z"/>
		
			<linearGradient id="SVGID_6_" gradientUnits="userSpaceOnUse" x1="317.3354" y1="-1177.3696" x2="310.0302" y2="-1212.7626" gradientTransform="matrix(1 0 0 1 0 1388)">
			<stop  offset="0" style="stop-color:#F57E26"/>
			<stop  offset="1" style="stop-color:#F37021"/>
		</linearGradient>
		<path class="st23" d="M325.3,194.1c-1.1-1.4-2.1-3-2.7-4.6c0-0.2,0-0.5,0-0.7c0-3,0.5-6-0.5-9c-1.7-5.1-6.5-8.4-11.8-8.6
			c-1.6,0.1-2.1,0.3-2.1,0.3c-1.1,0.3-2.2,0.9-3.1,1.7c-3.1,2.4-4.3,6.6-2.7,10.4c1.4,3.3,5.2,6.7,5.8,10.5c0,0.2,0,0.3-0.1,0.5
			c-0.6,3-2.5,5.6-3.7,8.4c-0.6,1.4-1,2.8-1,4.1c0,0.4-0.1,0.8-0.1,1.2c-0.5,3.9,1.5,7.8,4.9,9.9c2.2,1.3,4.8,1.9,7.3,1.8
			c2-0.1,3.1-1.2,3.5-2.7c0.6-0.7,0.8-1.5,0.7-2.6c-0.1-1.3-0.8-2.5-0.9-3.8c-0.1-2.4,2.4-2.4,4.1-2.9c1,0.1,1.9,0,2.8-0.4
			c2.4-1,3.9-3.5,3.8-6.1C329.4,198.4,327.2,196.4,325.3,194.1z M302.2,178.6c0.2-1,0.6-2,1.1-2.8c-1.6,3.6-0.2,7.5,2,10.6
			c1.4,2,2.8,4,3,6.4c-0.8-2.4-2.6-4.6-3.9-6.6C302.8,183.9,301.7,181.4,302.2,178.6z M317.6,218.9c-1,0.8-2.4,0.8-3.6,0.7
			c-2.2-0.1-4.4-0.8-6.2-2.1c-2.5-1.7-4.1-4.5-4.3-7.5c0.3,1.4,0.9,2.8,1.8,4.1c0,0.1,0,0.1,0.1,0.2c0.2,0.2,0.4,0.5,0.6,0.7
			c0.1,0.1,0.1,0.1,0.1,0.2c0,0,0.1,0.1,0.1,0.1c2.6,2.8,7.2,4.4,10.9,3.3c0.5-0.2,0.9-0.4,1.3-0.6
			C318.2,218.2,318,218.6,317.6,218.9z M327.4,206.1c-1,1-2.1,1.5-3.3,1.6c3.8-1.8,5-6.7,2.5-10.2c-0.8-1.1-1.8-1.9-2.6-3
			c-0.8-1.1-1.2-2.4-1.4-3.8c0.3,0.7,0.7,1.3,1.1,1.9c1.8,2.9,5,5,5.3,8.6C329.2,203,328.7,204.8,327.4,206.1z"/>
		<g>
			<path class="st7" d="M334.5,312.1c3.4-1.6,7-1.1,10.5-0.2c2.7,0.7,5.8,1.4,8.7,1.5c-0.3-0.6-0.6-1.3-0.9-2
				c-4.3-0.3-9-2.2-12.8-2.4c-3.2-0.1-6,0.9-8.8,2.5c-3.1,1.8-6,3.6-9.6,1.9c-2.5-1.2-4.6-3.3-7.4-4.1c-3.3-0.9-6.5,0.4-9.7,0.9
				c-4.5,0.8-9.1-0.3-12.9-2.7c-0.3,0.7-0.5,1.3-0.8,1.9c2,1.2,4.1,2.1,6.4,2.6c2.4,0.5,4.8,0.6,7.2,0.3c3.2-0.5,6.6-2,9.8-0.8
				c2.5,0.9,4.5,2.9,6.9,3.9c2.2,1,4.4,1,6.7,0.2C330.3,314.7,332.3,313.1,334.5,312.1z"/>
			<path class="st7" d="M303.5,307.5c3.4-0.3,6.8-1.1,10.2-0.8c1.8,0.2,3.6,0.7,5.1,1.7c1.2,0.8,2.4,1.8,3.8,2.3
				c3.1,1,6-0.6,8.6-2.1c3.8-2.2,7.2-2.2,11.4-1.6c2.7,0.4,5.7,0.8,8.5,0.3c-0.3-0.6-0.5-1.2-0.8-1.9c-3.4,0.4-7.4-0.6-10.5-0.9
				c-2.7-0.2-5.3,0-7.8,1.2c-3.1,1.5-6.3,4.4-9.8,2.5c-2.3-1.3-4-2.8-6.6-3.4c-2.6-0.5-5.3-0.3-7.9,0c-4.4,0.6-11,1.7-14.4-1.9
				c-0.2,0.6-0.5,1.3-0.7,2C295.6,307.3,299.8,307.8,303.5,307.5z"/>
		</g>
		
			<linearGradient id="SVGID_7_" gradientUnits="userSpaceOnUse" x1="95.196" y1="-1061.5428" x2="131.5593" y2="-1061.5428" gradientTransform="matrix(1 0 0 1 0 1388)">
			<stop  offset="0" style="stop-color:#FFCD7C"/>
			<stop  offset="1" style="stop-color:#F9A450"/>
		</linearGradient>
		<path class="st24" d="M99.7,255.6c0,0-4.5,13.4-3.2,25.7s5,38.8,4.7,45.4c-0.3,6.6-2.2,36.7-2.5,46.1c-0.3,9.4,0.3,5.8-1.3,11.2
			c-1.6,5.3-4,11.5,0,12.5c4,1,33.2,1.6,34.1-1.8c1-3.4-18.4-3.4-20.1-15.2c-1.6-11.8,6-40.6,6.8-53.1c0.8-12.5,3.4-42.5,3.4-42.5
			L99.7,255.6z"/>
		<path class="st11" d="M97.4,396.5c4,1,33.2,1.6,34.1-1.8c1-3.4-18.4-3.4-20.1-15.2c-0.1-0.4-0.1-0.8-0.1-1.3l-12.8-1.1
			c0,4,0.1,2.6-1.2,6.8C95.8,389.4,93.3,395.5,97.4,396.5z"/>
		
			<linearGradient id="SVGID_8_" gradientUnits="userSpaceOnUse" x1="109.8136" y1="-1038.7402" x2="107.875" y2="-1091.4813" gradientTransform="matrix(1 0 0 1 0 1388)">
			<stop  offset="0" style="stop-color:#F57E26"/>
			<stop  offset="1" style="stop-color:#F37021"/>
		</linearGradient>
		<path class="st25" d="M115.2,377.1c0.1-1.5,0.1-3-0.1-4.5c-0.9-12.3,3.9-34.3,4.6-46.1c0.8-12.5,2-42.5,2-42.5l-22-28.3l0,0
			c0,0-4.5,13.4-3.2,25.7c1.3,12.3,4,38.5,3.7,45.1c-0.3,6.6-1.8,34.7-2.9,44c-0.4,3.8-0.5,7.3-0.5,8.4c3,1,13.3,2.8,18.3,1.2
			C115,380,115.1,378.5,115.2,377.1z"/>
		<path class="st19" d="M122.9,177.8c0,0-1.5,5.5-1.3,8.1c0.2,2.6,41.6,8.2,41.6,8.2s12.6-13.8,15.1-18.6c2.4-4.9,2.9-10.5,5-13.3
			c2.1-2.7,4.9-7.1,6.2-3.9c1.3,3.2,1.3,13.6-1.8,15.8c-3.1,2.3-12.1,29.6-17.8,32.2c-5.7,2.6-27.8,0.3-29.3,2.9
			c-1.5,2.6-4.3,47.7-2.4,56.3c2,8.6,18.3,48.3,18.5,54.6s-20.6,51.9-22,57.1c-1.2,4.4,4.8,12.5,7.1,13.4c2.4,0.9,10.4,4.1,8.6,6.9
			c-1.7,2.8-13.9,2.1-17.9,0s-6.4-5.8-10.9-7c-4.5-1.2-6.1-11.2,2.7-18.3c5.8-4.7,12.1-46.6,12.3-49.8c0.2-3.7-31.3-31.3-35.9-59.2
			c-3.2-19.2-4.3-47.2-4.3-47.2L95.5,195c0,0,11.4-5.2,12.9-9.3c1.5-4.1,3.4-13.9,3.4-13.9L122.9,177.8z"/>
		<path class="st19" d="M183.3,162.3c-2.1,2.7-2.6,8.4-5,13.3c-2.4,4.9-15.1,18.6-15.1,18.6s-5.8-0.8-13-1.9l-2,15.7
			c7.4-0.2,17.9,0.2,21.6-1.5c5.7-2.6,14.7-29.9,17.8-32.2c3.1-2.3,3.1-12.6,1.8-15.8C188.1,155.2,185.4,159.5,183.3,162.3z"/>
		
			<linearGradient id="SVGID_9_" gradientUnits="userSpaceOnUse" x1="82.6904" y1="-1166.095" x2="108.8134" y2="-1166.095" gradientTransform="matrix(1 0 0 1 0 1388)">
			<stop  offset="0" style="stop-color:#FFCD7C"/>
			<stop  offset="1" style="stop-color:#F9A450"/>
		</linearGradient>
		<path class="st26" d="M95.5,195.1c0,0-3.8,0.5-6.4,7.8c-2.6,7.2-7.6,38.9-6.2,41.5c1.4,2.6,25.9,4.4,25.9,4.4L95.5,195.1z"/>
		
			<linearGradient id="SVGID_10_" gradientUnits="userSpaceOnUse" x1="76.6915" y1="-1152.397" x2="99.6604" y2="-1164.8444" gradientTransform="matrix(1 0 0 1 0 1388)">
			<stop  offset="0" style="stop-color:#F7943F"/>
			<stop  offset="1" style="stop-color:#F68C36"/>
		</linearGradient>
		<path class="st27" d="M95.5,195.1c0,0-3.8,0.5-6.4,7.8c-2.6,7.2-7.6,38.9-6.2,41.5c1.4,2.6,25.9,4.4,25.9,4.4L95.5,195.1z"/>
		<path class="st19" d="M113.1,153.6c0,0,9.6-3,14.1,7.4c0.3,0.6,0.5,1.2,0.7,1.8c1.1,1.4,4.3,5.7,3.9,6.1c-0.3,0.4-1.6,1-2,1.1
			c0.8,5.3-0.3,8.7-1.5,9.4c-1.7,1.1-16.2,3.7-21.3-6.7C101.9,162.3,104,156.2,113.1,153.6z"/>
		
			<linearGradient id="SVGID_11_" gradientUnits="userSpaceOnUse" x1="986.4632" y1="420.4655" x2="1013.1845" y2="420.4655" gradientTransform="matrix(0.9213 -0.3889 0.3889 0.9213 -966.2766 168.6104)">
			<stop  offset="0" style="stop-color:#F57E26"/>
			<stop  offset="1" style="stop-color:#F37021"/>
		</linearGradient>
		<path class="st28" d="M109.7,154.3c2.6-2,4.1-2.5,7.4-3c0.9-0.2,1.7-0.2,2.6-0.2c0.4,0,0.9-0.1,1.3-0.4l0,0c1.1-1,2.2-1.8,3.8-1.1
			c1.7,0.7,2.4,3.7,1.4,5.4c-0.1,0.1-0.1,0.3-0.2,0.4c-0.4,1.9-1.2,1.3-3,1.8c-1.3,0.4-2.4,1-3.1,2.3c-0.7,1.2-1.1,2.6-1.4,3.9
			c-0.7,2.8-0.4,5.8,2.1,7.5c1.1,0.8,2.6,1,3.9,0.8c1.4-0.2,2.4-1.1,3.7-1.5c0.9-0.3,1.6-0.5,2.1,0.4c0.5,1.2,0.4,1.9,0.2,3
			c-0.3,1.5-0.4,3-0.8,4.5c-0.3,1-0.4,1.3-1.3,1.9c-1.1,0.7-2.3,0.8-3.5,0.6c-1.4-0.3-2.2-0.2-3.5-0.7c-2.3-1-4.4-2.5-5.7-4.6
			c-0.8-1.4-1.2-2.9-1.8-4.4c-0.2-0.5-0.5-1.2-1.1-1.4c-0.8-0.2-1.2,0.9-1.3,1.5c-0.4,2.7,1.3,5.6-0.8,7.9c-0.4,0.4-1.3,0.4-1.4-0.3
			c-0.3-3.4-3.2-5.7-4.3-8.8c-1.1-3-1.8-6.4-0.6-9.3C105.6,157.5,107.2,156.2,109.7,154.3z"/>
		
			<linearGradient id="SVGID_12_" gradientUnits="userSpaceOnUse" x1="122.4937" y1="-1137.1797" x2="133.551" y2="-1180.9006" gradientTransform="matrix(1 0 0 1 0 1388)">
			<stop  offset="0" style="stop-color:#F7943F"/>
			<stop  offset="1" style="stop-color:#F68C36"/>
		</linearGradient>
		<path class="st29" d="M170.2,186.3c-3.6,4.2-6.9,7.9-6.9,7.9s-32-4.4-39.8-7.2c0.8-0.5,1.3-1.3,1.3-2.4c0-1.5-1.3-3.1-2.9-2.9
			c-4.1,0.4-8.1,0.1-12.1-1.1c-3.6-1.1-5.1,4.5-1.6,5.6c0,0,0.1,0,0.1,0c-2.1,4-12.8,8.8-12.8,8.8l1.1,21.1c0,0,1,24.7,3.7,43.6
			h37.4c-0.6-15,1.6-48.2,2.9-50.5c1.5-2.6,23.7-0.3,29.3-2.9c2.4-1.1,5.4-6.5,8.2-12.7C174.3,191.8,171.5,188.3,170.2,186.3z"/>
		<path class="st11" d="M141.8,390.7c-2.4-0.9-8.3-9-7.1-13.4c0.3-1,1.3-3.6,2.8-7.2l-9.8-3.7l-0.2,0.2c-1,2.8-2.1,4.8-3.1,5.7
			c-8.8,7.1-7.2,17.1-2.7,18.3c4.5,1.2,6.9,5,10.9,7c4,2.1,16.2,2.8,17.9,0C152.2,394.8,144.2,391.5,141.8,390.7z"/>
		
			<linearGradient id="SVGID_13_" gradientUnits="userSpaceOnUse" x1="136.2402" y1="-1047.8035" x2="123.5684" y2="-1129.9188" gradientTransform="matrix(1 0 0 1 0 1388)">
			<stop  offset="0" style="stop-color:#F57E26"/>
			<stop  offset="1" style="stop-color:#F37021"/>
		</linearGradient>
		<path class="st30" d="M137.5,255.6L137.5,255.6c-15.7,4.3-37.8,0-37.8,0c0.3,2.7,0.7,5.3,1.1,7.8c4.6,27.9,35.3,55.3,35.1,59
			c-0.2,3.1-9.2,41.9-15,47.8c2.9,3.2,14,9,16.8,9.9c0-0.2,2.2-6.1,2.3-6.3c1.4-5.2,16.9-47.4,16.7-53.6
			c-0.2-6.3-16.6-45.9-18.5-54.6C137.7,263.7,137.5,260.1,137.5,255.6z"/>
	</g>
	<g>
		<path class="st31" d="M359.9,107.7H73.2c-3.8,0-6.8,3.1-6.8,6.8v190.1c0,3.8,3.1,6.8,6.8,6.8H360c3.8,0,6.8-3.1,6.8-6.8V114.5
			C366.8,110.7,363.7,107.7,359.9,107.7z"/>
		<path class="st32" d="M359.8,107.6H73.3c-3.8,0-7,3.1-7,7v8.9h300.5v-8.9C366.8,110.7,363.7,107.6,359.8,107.6z"/>
		<circle class="st31" cx="332.9" cy="115.5" r="2.3"/>
		<circle class="st33" cx="342.2" cy="115.5" r="2.3"/>
		<circle class="st34" cx="351.4" cy="115.5" r="2.3"/>
		<g>
			<rect x="292.2" y="143.6" class="st35" width="66.9" height="41"/>
			<rect x="295.1" y="152.8" class="st36" width="11.9" height="11.9"/>
			<rect x="311.6" y="152.8" class="st34" width="11.9" height="11.9"/>
			<rect x="328.1" y="152.8" class="st37" width="11.9" height="11.9"/>
			<rect x="295.2" y="168.1" class="st38" width="11.9" height="11.9"/>
			<rect x="311.6" y="168.1" class="st39" width="11.9" height="11.9"/>
			<rect x="328.1" y="168.1" class="st40" width="11.9" height="11.9"/>
			<rect x="344.2" y="152.8" class="st33" width="11.9" height="11.9"/>
			<rect x="344.2" y="168.1" class="st41" width="11.9" height="11.9"/>
			<rect x="292.2" y="143.6" class="st42" width="66.9" height="5.7"/>
			<circle class="st31" cx="348.1" cy="146.7" r="0.8"/>
			<circle class="st31" cx="351.8" cy="146.7" r="0.8"/>
			<circle class="st31" cx="355.5" cy="146.7" r="0.8"/>
		</g>
		<g>
			<rect x="151.2" y="144.7" class="st35" width="129.9" height="103.8"/>
			<rect x="151.2" y="144.7" class="st42" width="129.9" height="7.5"/>
			<circle class="st31" cx="265.3" cy="149.1" r="1.1"/>
			<circle class="st31" cx="269.9" cy="149.1" r="1.1"/>
			<circle class="st31" cx="274.6" cy="149.1" r="1.1"/>
			<g>
				<g>
					<rect x="171.6" y="168.3" class="st36" width="89.7" height="63"/>
					<path class="st37" d="M171.6,205.4c1.8,1.4,4,2.1,6.7,1.8c4.9-0.6,9.3-4.4,14.3-4c4.9,0.4,8,5.3,12.7,6.4c3.8,0.9,7-1,8.5-4.5
						c1.6-3.7,1-8.1,3.1-11.6c3.3-5.4,10.1-1.4,14.2,0.6c2.3,1.1,4.5,2.3,6.8,3.4c2.4,1.2,4.7,2.5,7.3,3.3c3.8,1.2,8,0.4,9.8-3.5
						c0.7-1.5,1-3.1,1.6-4.6c0.9-2.3,2.6-3,4.7-3.5v-20.9h-89.7V205.4z"/>
					<circle class="st34" cx="191.4" cy="218.9" r="6.4"/>
					
						<ellipse transform="matrix(0.3162 -0.9487 0.9487 0.3162 -37.0651 351.1278)" class="st34" cx="225.1" cy="201.3" rx="3.8" ry="3.8"/>
					<circle class="st34" cx="249.3" cy="218.9" r="6.4"/>
				</g>
				<g>
					<path class="st36" d="M267.8,237.6h-1c-0.1,0-0.1-0.1-0.1-0.1c0-0.1,0.1-0.1,0.1-0.1h0.9v-0.9c0-0.1,0.1-0.1,0.1-0.1
						s0.1,0.1,0.1,0.1v1C268,237.5,267.9,237.6,267.8,237.6z"/>
					<path class="st36" d="M264.2,237.6h-2.1c-0.1,0-0.1-0.1-0.1-0.1c0-0.1,0.1-0.1,0.1-0.1h2.1c0.1,0,0.1,0.1,0.1,0.1
						C264.3,237.5,264.3,237.6,264.2,237.6z M259.6,237.6h-2.1c-0.1,0-0.1-0.1-0.1-0.1c0-0.1,0.1-0.1,0.1-0.1h2.1
						c0.1,0,0.1,0.1,0.1,0.1C259.7,237.5,259.6,237.6,259.6,237.6z M254.9,237.6h-2.1c-0.1,0-0.1-0.1-0.1-0.1c0-0.1,0.1-0.1,0.1-0.1
						h2.1c0.1,0,0.1,0.1,0.1,0.1C255,237.5,255,237.6,254.9,237.6z M250.3,237.6h-2.1c-0.1,0-0.1-0.1-0.1-0.1c0-0.1,0.1-0.1,0.1-0.1
						h2.1c0.1,0,0.1,0.1,0.1,0.1C250.4,237.5,250.3,237.6,250.3,237.6z M245.6,237.6h-2.1c-0.1,0-0.1-0.1-0.1-0.1
						c0-0.1,0.1-0.1,0.1-0.1h2.1c0.1,0,0.1,0.1,0.1,0.1C245.7,237.5,245.7,237.6,245.6,237.6z M241,237.6h-2.1
						c-0.1,0-0.1-0.1-0.1-0.1c0-0.1,0.1-0.1,0.1-0.1h2.1c0.1,0,0.1,0.1,0.1,0.1C241.1,237.5,241,237.6,241,237.6z M236.3,237.6h-2.1
						c-0.1,0-0.1-0.1-0.1-0.1c0-0.1,0.1-0.1,0.1-0.1h2.1c0.1,0,0.1,0.1,0.1,0.1C236.4,237.5,236.4,237.6,236.3,237.6z M231.7,237.6
						h-2.1c-0.1,0-0.1-0.1-0.1-0.1c0-0.1,0.1-0.1,0.1-0.1h2.1c0.1,0,0.1,0.1,0.1,0.1C231.8,237.5,231.7,237.6,231.7,237.6z
						 M227,237.6h-2.1c-0.1,0-0.1-0.1-0.1-0.1c0-0.1,0.1-0.1,0.1-0.1h2.1c0.1,0,0.1,0.1,0.1,0.1C227.1,237.5,227.1,237.6,227,237.6z
						 M222.4,237.6h-2.1c-0.1,0-0.1-0.1-0.1-0.1c0-0.1,0.1-0.1,0.1-0.1h2.1c0.1,0,0.1,0.1,0.1,0.1
						C222.5,237.5,222.4,237.6,222.4,237.6z M217.7,237.6h-2.1c-0.1,0-0.1-0.1-0.1-0.1c0-0.1,0.1-0.1,0.1-0.1h2.1
						c0.1,0,0.1,0.1,0.1,0.1C217.8,237.5,217.8,237.6,217.7,237.6z M213.1,237.6H211c-0.1,0-0.1-0.1-0.1-0.1c0-0.1,0.1-0.1,0.1-0.1
						h2.1c0.1,0,0.1,0.1,0.1,0.1C213.2,237.5,213.1,237.6,213.1,237.6z M208.4,237.6h-2.1c-0.1,0-0.1-0.1-0.1-0.1
						c0-0.1,0.1-0.1,0.1-0.1h2.1c0.1,0,0.1,0.1,0.1,0.1C208.5,237.5,208.5,237.6,208.4,237.6z M203.8,237.6h-2.1
						c-0.1,0-0.1-0.1-0.1-0.1c0-0.1,0.1-0.1,0.1-0.1h2.1c0.1,0,0.1,0.1,0.1,0.1C203.9,237.5,203.8,237.6,203.8,237.6z M199.1,237.6
						H197c-0.1,0-0.1-0.1-0.1-0.1c0-0.1,0.1-0.1,0.1-0.1h2.1c0.1,0,0.1,0.1,0.1,0.1C199.2,237.5,199.2,237.6,199.1,237.6z
						 M194.5,237.6h-2.1c-0.1,0-0.1-0.1-0.1-0.1c0-0.1,0.1-0.1,0.1-0.1h2.1c0.1,0,0.1,0.1,0.1,0.1
						C194.6,237.5,194.5,237.6,194.5,237.6z M189.8,237.6h-2.1c-0.1,0-0.1-0.1-0.1-0.1c0-0.1,0.1-0.1,0.1-0.1h2.1
						c0.1,0,0.1,0.1,0.1,0.1C189.9,237.5,189.9,237.6,189.8,237.6z M185.2,237.6h-2.1c-0.1,0-0.1-0.1-0.1-0.1c0-0.1,0.1-0.1,0.1-0.1
						h2.1c0.1,0,0.1,0.1,0.1,0.1C185.3,237.5,185.2,237.6,185.2,237.6z M180.5,237.6h-2.1c-0.1,0-0.1-0.1-0.1-0.1
						c0-0.1,0.1-0.1,0.1-0.1h2.1c0.1,0,0.1,0.1,0.1,0.1C180.6,237.5,180.6,237.6,180.5,237.6z M175.9,237.6h-2.1
						c-0.1,0-0.1-0.1-0.1-0.1c0-0.1,0.1-0.1,0.1-0.1h2.1c0.1,0,0.1,0.1,0.1,0.1C176,237.5,175.9,237.6,175.9,237.6z M171.2,237.6
						h-2.1c-0.1,0-0.1-0.1-0.1-0.1c0-0.1,0.1-0.1,0.1-0.1h2.1c0.1,0,0.1,0.1,0.1,0.1C171.3,237.5,171.3,237.6,171.2,237.6z"/>
					<path class="st36" d="M166.6,237.6h-1c-0.1,0-0.1-0.1-0.1-0.1v-1c0-0.1,0.1-0.1,0.1-0.1s0.1,0.1,0.1,0.1v0.9h0.9
						c0.1,0,0.1,0.1,0.1,0.1C166.7,237.5,166.6,237.6,166.6,237.6z"/>
					<path class="st36" d="M165.5,233.9c-0.1,0-0.1-0.1-0.1-0.1v-2.1c0-0.1,0.1-0.1,0.1-0.1s0.1,0.1,0.1,0.1v2.1
						C165.6,233.9,165.6,233.9,165.5,233.9z M165.5,229.3c-0.1,0-0.1-0.1-0.1-0.1v-2.1c0-0.1,0.1-0.1,0.1-0.1s0.1,0.1,0.1,0.1v2.1
						C165.6,229.2,165.6,229.3,165.5,229.3z M165.5,224.6c-0.1,0-0.1-0.1-0.1-0.1v-2.1c0-0.1,0.1-0.1,0.1-0.1s0.1,0.1,0.1,0.1v2.1
						C165.6,224.5,165.6,224.6,165.5,224.6z M165.5,219.9c-0.1,0-0.1-0.1-0.1-0.1v-2.1c0-0.1,0.1-0.1,0.1-0.1s0.1,0.1,0.1,0.1v2.1
						C165.6,219.9,165.6,219.9,165.5,219.9z M165.5,215.2c-0.1,0-0.1-0.1-0.1-0.1V213c0-0.1,0.1-0.1,0.1-0.1s0.1,0.1,0.1,0.1v2.1
						C165.6,215.2,165.6,215.2,165.5,215.2z M165.5,210.5c-0.1,0-0.1-0.1-0.1-0.1v-2.1c0-0.1,0.1-0.1,0.1-0.1s0.1,0.1,0.1,0.1v2.1
						C165.6,210.5,165.6,210.5,165.5,210.5z M165.5,205.8c-0.1,0-0.1-0.1-0.1-0.1v-2.1c0-0.1,0.1-0.1,0.1-0.1s0.1,0.1,0.1,0.1v2.1
						C165.6,205.8,165.6,205.8,165.5,205.8z M165.5,201.2c-0.1,0-0.1-0.1-0.1-0.1V199c0-0.1,0.1-0.1,0.1-0.1s0.1,0.1,0.1,0.1v2.1
						C165.6,201.1,165.6,201.2,165.5,201.2z M165.5,196.5c-0.1,0-0.1-0.1-0.1-0.1v-2.1c0-0.1,0.1-0.1,0.1-0.1s0.1,0.1,0.1,0.1v2.1
						C165.6,196.4,165.6,196.5,165.5,196.5z M165.5,191.8c-0.1,0-0.1-0.1-0.1-0.1v-2.1c0-0.1,0.1-0.1,0.1-0.1s0.1,0.1,0.1,0.1v2.1
						C165.6,191.7,165.6,191.8,165.5,191.8z M165.5,187.1c-0.1,0-0.1-0.1-0.1-0.1v-2.1c0-0.1,0.1-0.1,0.1-0.1s0.1,0.1,0.1,0.1v2.1
						C165.6,187.1,165.6,187.1,165.5,187.1z M165.5,182.4c-0.1,0-0.1-0.1-0.1-0.1v-2.1c0-0.1,0.1-0.1,0.1-0.1s0.1,0.1,0.1,0.1v2.1
						C165.6,182.4,165.6,182.4,165.5,182.4z M165.5,177.8c-0.1,0-0.1-0.1-0.1-0.1v-2.1c0-0.1,0.1-0.1,0.1-0.1s0.1,0.1,0.1,0.1v2.1
						C165.6,177.7,165.6,177.8,165.5,177.8z M165.5,173.1c-0.1,0-0.1-0.1-0.1-0.1v-2.1c0-0.1,0.1-0.1,0.1-0.1s0.1,0.1,0.1,0.1v2.1
						C165.6,173,165.6,173.1,165.5,173.1z M165.5,168.4c-0.1,0-0.1-0.1-0.1-0.1v-2.1c0-0.1,0.1-0.1,0.1-0.1s0.1,0.1,0.1,0.1v2.1
						C165.6,168.3,165.6,168.4,165.5,168.4z"/>
					<path class="st36" d="M165.5,163.7c-0.1,0-0.1-0.1-0.1-0.1v-1c0-0.1,0.1-0.1,0.1-0.1h1c0.1,0,0.1,0.1,0.1,0.1s-0.1,0.1-0.1,0.1
						h-0.9v0.9C165.6,163.6,165.6,163.7,165.5,163.7z"/>
					<path class="st36" d="M264.2,162.7h-2.1c-0.1,0-0.1-0.1-0.1-0.1s0.1-0.1,0.1-0.1h2.1c0.1,0,0.1,0.1,0.1,0.1
						S264.3,162.7,264.2,162.7z M259.6,162.7h-2.1c-0.1,0-0.1-0.1-0.1-0.1s0.1-0.1,0.1-0.1h2.1c0.1,0,0.1,0.1,0.1,0.1
						S259.6,162.7,259.6,162.7z M254.9,162.7h-2.1c-0.1,0-0.1-0.1-0.1-0.1s0.1-0.1,0.1-0.1h2.1c0.1,0,0.1,0.1,0.1,0.1
						S255,162.7,254.9,162.7z M250.3,162.7h-2.1c-0.1,0-0.1-0.1-0.1-0.1s0.1-0.1,0.1-0.1h2.1c0.1,0,0.1,0.1,0.1,0.1
						S250.3,162.7,250.3,162.7z M245.6,162.7h-2.1c-0.1,0-0.1-0.1-0.1-0.1s0.1-0.1,0.1-0.1h2.1c0.1,0,0.1,0.1,0.1,0.1
						S245.7,162.7,245.6,162.7z M241,162.7h-2.1c-0.1,0-0.1-0.1-0.1-0.1s0.1-0.1,0.1-0.1h2.1c0.1,0,0.1,0.1,0.1,0.1
						S241,162.7,241,162.7z M236.3,162.7h-2.1c-0.1,0-0.1-0.1-0.1-0.1s0.1-0.1,0.1-0.1h2.1c0.1,0,0.1,0.1,0.1,0.1
						S236.4,162.7,236.3,162.7z M231.7,162.7h-2.1c-0.1,0-0.1-0.1-0.1-0.1s0.1-0.1,0.1-0.1h2.1c0.1,0,0.1,0.1,0.1,0.1
						S231.7,162.7,231.7,162.7z M227,162.7h-2.1c-0.1,0-0.1-0.1-0.1-0.1s0.1-0.1,0.1-0.1h2.1c0.1,0,0.1,0.1,0.1,0.1
						S227.1,162.7,227,162.7z M222.4,162.7h-2.1c-0.1,0-0.1-0.1-0.1-0.1s0.1-0.1,0.1-0.1h2.1c0.1,0,0.1,0.1,0.1,0.1
						S222.4,162.7,222.4,162.7z M217.7,162.7h-2.1c-0.1,0-0.1-0.1-0.1-0.1s0.1-0.1,0.1-0.1h2.1c0.1,0,0.1,0.1,0.1,0.1
						S217.8,162.7,217.7,162.7z M213.1,162.7H211c-0.1,0-0.1-0.1-0.1-0.1s0.1-0.1,0.1-0.1h2.1c0.1,0,0.1,0.1,0.1,0.1
						S213.1,162.7,213.1,162.7z M208.4,162.7h-2.1c-0.1,0-0.1-0.1-0.1-0.1s0.1-0.1,0.1-0.1h2.1c0.1,0,0.1,0.1,0.1,0.1
						S208.5,162.7,208.4,162.7z M203.8,162.7h-2.1c-0.1,0-0.1-0.1-0.1-0.1s0.1-0.1,0.1-0.1h2.1c0.1,0,0.1,0.1,0.1,0.1
						S203.8,162.7,203.8,162.7z M199.1,162.7H197c-0.1,0-0.1-0.1-0.1-0.1s0.1-0.1,0.1-0.1h2.1c0.1,0,0.1,0.1,0.1,0.1
						S199.2,162.7,199.1,162.7z M194.5,162.7h-2.1c-0.1,0-0.1-0.1-0.1-0.1s0.1-0.1,0.1-0.1h2.1c0.1,0,0.1,0.1,0.1,0.1
						S194.5,162.7,194.5,162.7z M189.8,162.7h-2.1c-0.1,0-0.1-0.1-0.1-0.1s0.1-0.1,0.1-0.1h2.1c0.1,0,0.1,0.1,0.1,0.1
						S189.9,162.7,189.8,162.7z M185.2,162.7h-2.1c-0.1,0-0.1-0.1-0.1-0.1s0.1-0.1,0.1-0.1h2.1c0.1,0,0.1,0.1,0.1,0.1
						S185.2,162.7,185.2,162.7z M180.5,162.7h-2.1c-0.1,0-0.1-0.1-0.1-0.1s0.1-0.1,0.1-0.1h2.1c0.1,0,0.1,0.1,0.1,0.1
						S180.6,162.7,180.5,162.7z M175.9,162.7h-2.1c-0.1,0-0.1-0.1-0.1-0.1s0.1-0.1,0.1-0.1h2.1c0.1,0,0.1,0.1,0.1,0.1
						S175.9,162.7,175.9,162.7z M171.2,162.7h-2.1c-0.1,0-0.1-0.1-0.1-0.1s0.1-0.1,0.1-0.1h2.1c0.1,0,0.1,0.1,0.1,0.1
						S171.3,162.7,171.2,162.7z"/>
					<path class="st36" d="M267.8,163.7c-0.1,0-0.1-0.1-0.1-0.1v-0.9h-0.9c-0.1,0-0.1-0.1-0.1-0.1s0.1-0.1,0.1-0.1h1
						c0.1,0,0.1,0.1,0.1,0.1v1C268,163.6,267.9,163.7,267.8,163.7z"/>
					<path class="st36" d="M267.8,233.9c-0.1,0-0.1-0.1-0.1-0.1v-2.1c0-0.1,0.1-0.1,0.1-0.1s0.1,0.1,0.1,0.1v2.1
						C268,233.9,267.9,233.9,267.8,233.9z M267.8,229.3c-0.1,0-0.1-0.1-0.1-0.1v-2.1c0-0.1,0.1-0.1,0.1-0.1s0.1,0.1,0.1,0.1v2.1
						C268,229.2,267.9,229.3,267.8,229.3z M267.8,224.6c-0.1,0-0.1-0.1-0.1-0.1v-2.1c0-0.1,0.1-0.1,0.1-0.1s0.1,0.1,0.1,0.1v2.1
						C268,224.5,267.9,224.6,267.8,224.6z M267.8,219.9c-0.1,0-0.1-0.1-0.1-0.1v-2.1c0-0.1,0.1-0.1,0.1-0.1s0.1,0.1,0.1,0.1v2.1
						C268,219.9,267.9,219.9,267.8,219.9z M267.8,215.2c-0.1,0-0.1-0.1-0.1-0.1V213c0-0.1,0.1-0.1,0.1-0.1s0.1,0.1,0.1,0.1v2.1
						C268,215.2,267.9,215.2,267.8,215.2z M267.8,210.5c-0.1,0-0.1-0.1-0.1-0.1v-2.1c0-0.1,0.1-0.1,0.1-0.1s0.1,0.1,0.1,0.1v2.1
						C268,210.5,267.9,210.5,267.8,210.5z M267.8,205.8c-0.1,0-0.1-0.1-0.1-0.1v-2.1c0-0.1,0.1-0.1,0.1-0.1s0.1,0.1,0.1,0.1v2.1
						C268,205.8,267.9,205.8,267.8,205.8z M267.8,201.2c-0.1,0-0.1-0.1-0.1-0.1V199c0-0.1,0.1-0.1,0.1-0.1s0.1,0.1,0.1,0.1v2.1
						C268,201.1,267.9,201.2,267.8,201.2z M267.8,196.5c-0.1,0-0.1-0.1-0.1-0.1v-2.1c0-0.1,0.1-0.1,0.1-0.1s0.1,0.1,0.1,0.1v2.1
						C268,196.4,267.9,196.5,267.8,196.5z M267.8,191.8c-0.1,0-0.1-0.1-0.1-0.1v-2.1c0-0.1,0.1-0.1,0.1-0.1s0.1,0.1,0.1,0.1v2.1
						C268,191.7,267.9,191.8,267.8,191.8z M267.8,187.1c-0.1,0-0.1-0.1-0.1-0.1v-2.1c0-0.1,0.1-0.1,0.1-0.1s0.1,0.1,0.1,0.1v2.1
						C268,187.1,267.9,187.1,267.8,187.1z M267.8,182.4c-0.1,0-0.1-0.1-0.1-0.1v-2.1c0-0.1,0.1-0.1,0.1-0.1s0.1,0.1,0.1,0.1v2.1
						C268,182.4,267.9,182.4,267.8,182.4z M267.8,177.8c-0.1,0-0.1-0.1-0.1-0.1v-2.1c0-0.1,0.1-0.1,0.1-0.1s0.1,0.1,0.1,0.1v2.1
						C268,177.7,267.9,177.8,267.8,177.8z M267.8,173.1c-0.1,0-0.1-0.1-0.1-0.1v-2.1c0-0.1,0.1-0.1,0.1-0.1s0.1,0.1,0.1,0.1v2.1
						C268,173,267.9,173.1,267.8,173.1z M267.8,168.4c-0.1,0-0.1-0.1-0.1-0.1v-2.1c0-0.1,0.1-0.1,0.1-0.1s0.1,0.1,0.1,0.1v2.1
						C268,168.3,267.9,168.4,267.8,168.4z"/>
				</g>
				<rect x="163" y="160" class="st43" width="5" height="5"/>
				<rect x="163" y="235" class="st43" width="5" height="5"/>
				<g>
					<rect x="214.2" y="160" class="st43" width="5" height="5"/>
					<rect x="214.2" y="235" class="st43" width="5" height="5"/>
				</g>
				<g>
					<rect x="265.4" y="160" class="st43" width="5" height="5"/>
					<rect x="265.4" y="235" class="st43" width="5" height="5"/>
				</g>
				<g>
					<rect x="163" y="197.5" class="st43" width="5" height="5"/>
					<rect x="266.3" y="197.5" class="st43" width="5" height="5"/>
				</g>
			</g>
		</g>
		<g>
			<circle class="st35" cx="340" cy="211.6" r="22.8"/>
			<g>
				<circle class="st36" cx="340" cy="211.6" r="20.9"/>
				<path class="st36" d="M319.1,212.9c0,0.2,0,0.5,0.1,0.7c0,0.1,0,0.2,0,0.3c0,0.3,0.1,0.6,0.1,0.9c0,0.1,0,0.1,0,0.2
					c0.1,0.3,0.1,0.5,0.1,0.7c0,0.1,0.1,0.2,0.1,0.3c0.1,0.2,0.1,0.4,0.1,0.6c0,0.1,0.1,0.2,0.1,0.3c0.1,0.3,0.2,0.5,0.2,0.8
					c0,0.1,0.1,0.2,0.1,0.4c0.1,0.2,0.1,0.3,0.2,0.5c0.1,0.1,0.1,0.3,0.2,0.4c0.1,0.1,0.1,0.3,0.2,0.4c0.1,0.1,0.1,0.3,0.2,0.4
					c0.1,0.2,0.2,0.4,0.3,0.5c0.1,0.2,0.2,0.4,0.3,0.6c0.1,0.1,0.1,0.2,0.2,0.3c0.1,0.2,0.2,0.3,0.3,0.5c0.1,0.1,0.1,0.2,0.2,0.3
					c0.2,0.4,0.4,0.7,0.7,1.1l17.4-11.6v-20.9c-11.6,0-20.9,9.4-20.9,20.9c0,0.3,0,0.6,0,1C319.1,212.7,319.1,212.8,319.1,212.9z"/>
				<path class="st34" d="M357.4,223.2c2.2-3.3,3.5-7.3,3.5-11.6c0-11.6-9.4-20.9-20.9-20.9v20.9L357.4,223.2z"/>
			</g>
			<path class="st31" d="M340,219.6c-4.4,0-8-3.6-8-8s3.6-8,8-8c4.4,0,8,3.6,8,8S344.4,219.6,340,219.6z M340,204.9
				c-3.7,0-6.7,3-6.7,6.7c0,3.7,3,6.7,6.7,6.7c3.7,0,6.7-3,6.7-6.7S343.7,204.9,340,204.9z"/>
		</g>
		<rect x="162.4" y="267.4" class="st31" width="0.4" height="4.7"/>
		<rect x="164.5" y="267.4" class="st31" width="0.4" height="4.7"/>
		<rect x="165.6" y="267.4" class="st31" width="0.4" height="4.7"/>
		<rect x="160.8" y="275" class="st31" width="0.4" height="4.7"/>
		<g>
			<rect x="151.1" y="258.7" class="st35" width="129.9" height="26.8"/>
			<rect x="151.1" y="258.7" class="st42" width="129.9" height="6.7"/>
			<circle class="st31" cx="266" cy="262.2" r="1"/>
			<circle class="st31" cx="270.1" cy="262.2" r="1"/>
			<circle class="st31" cx="274.2" cy="262.2" r="1"/>
			
				<linearGradient id="SVGID_14_" gradientUnits="userSpaceOnUse" x1="156.4218" y1="-1116.1572" x2="275.5876" y2="-1116.1572" gradientTransform="matrix(1 0 0 1 0 1388)">
				<stop  offset="0" style="stop-color:#F47D6B"/>
				<stop  offset="0.341" style="stop-color:#F69485"/>
				<stop  offset="0.749" style="stop-color:#F9B7AC"/>
				<stop  offset="0.9895" style="stop-color:#F8AFA5"/>
			</linearGradient>
			<rect x="156.4" y="269.5" class="st44" width="119.2" height="4.7"/>
			
				<linearGradient id="SVGID_15_" gradientUnits="userSpaceOnUse" x1="-3868.3479" y1="3821.4409" x2="-3749.156" y2="3821.4409" gradientTransform="matrix(-1 0 0 -1 -3592.7344 4100.8481)">
				<stop  offset="0" style="stop-color:#F47D6B"/>
				<stop  offset="0.341" style="stop-color:#F69485"/>
				<stop  offset="0.7113" style="stop-color:#F69485"/>
				<stop  offset="0.9895" style="stop-color:#FBCAC3"/>
			</linearGradient>
			<polygon class="st45" points="156.4,277 275.6,277 275.6,281.8 156.4,281.8 			"/>
			<rect x="192.2" y="269.5" class="st31" width="0.4" height="4.7"/>
			<rect x="193.5" y="269.5" class="st31" width="0.4" height="4.7"/>
			<rect x="210" y="277" class="st31" width="0.4" height="4.7"/>
			<rect x="215.8" y="277" class="st31" width="0.4" height="4.7"/>
			<rect x="267.5" y="269.5" class="st31" width="0.4" height="4.7"/>
			<rect x="265.4" y="269.5" class="st31" width="0.4" height="4.7"/>
			<rect x="271.1" y="277" class="st31" width="0.4" height="4.7"/>
			<rect x="270" y="277" class="st31" width="0.4" height="4.7"/>
			<rect x="217.4" y="277" class="st31" width="0.4" height="4.7"/>
		</g>
		<g>
			<rect x="78" y="145" class="st35" width="60.6" height="39.2"/>
			<rect x="78" y="145" class="st42" width="60.6" height="6.6"/>
			<circle class="st31" cx="127.7" cy="148.4" r="0.7"/>
			<circle class="st31" cx="131" cy="148.4" r="0.7"/>
			<circle class="st31" cx="134.3" cy="148.4" r="0.7"/>
			<g>
				<rect x="83.8" y="157.8" class="st46" width="6.7" height="6.7"/>
				<rect x="94.4" y="157.8" class="st47" width="6.7" height="6.7"/>
				<rect x="105" y="157.8" class="st46" width="6.7" height="6.7"/>
				<rect x="115.6" y="157.8" class="st47" width="6.7" height="6.7"/>
				<rect x="126.2" y="157.8" class="st46" width="6.7" height="6.7"/>
				<rect x="83.8" y="167.8" class="st47" width="6.7" height="6.7"/>
				<rect x="94.4" y="167.8" class="st46" width="6.7" height="6.7"/>
				<rect x="105" y="167.8" class="st47" width="6.7" height="6.7"/>
				<rect x="115.6" y="167.8" class="st46" width="6.7" height="6.7"/>
				<rect x="126.2" y="167.8" class="st47" width="6.7" height="6.7"/>
			</g>
		</g>
		<path class="st48" d="M304.4,193.5c0,0,1.2,6.1,0,6.5c-1.2,0.4-6.3-2.5-12.9-2.5s-21.4-3-22.3-4c-1-1-11.2-21.8-13.2-25.6
			c-2.1-3.9,0.6-11.7-3.4-11.4c-4,0.3-8.3,4.1-4.3,9.5c4,5.4,6.8,14,9.4,22.2c2.6,8.1,4.5,12.9,8.7,15.3c4.1,2.4,25.9,5.9,27.1,10.2
			c1.2,4.3-2.4,9.2-0.1,14.7c2.2,5.5,11,10.7,9.5,23.8c-1.2,10.4-3.2,55.1-4.2,73.6c-1,18.5-0.7,56.5-2.6,60.2
			c-1.8,3.7-9.3,6.4-14.3,7.4c-5,1-10.5,3.9-7.2,5.2c3.3,1.2,28.8,1.7,30.5,0c1.7-1.7,4.2-3.3,1.3-10.5c-2.9-7.2,5-28.3,5.4-39.7
			c0.4-11.4,1-16.6,1.6-22.6c0.6-6,5.5-41.1,8.8-42.3c3.3-1.2,7.8,38.4,10.3,43.6c2.5,5.1,25.4,42.2,26.9,46.7
			c1.5,4.5,2.7,14.7,0,16.5c-2.7,1.8-11.2,8.6-5.4,9.4c5.8,0.7,13.2-3,16.3-9.4c3.1-6.4,7.7-14,2.3-15.5c-5.4-1.5-5.8-1.8-11.2-14.7
			c-5.4-12.8-12.2-31-16.5-37.2s0.6-22.5-1-38.8s-11.2-24.4-14.3-32.2s1.7-40.9,1-43.6c-0.6-2.7-17.2-7.7-17.2-7.7l-1.7-11.4
			L304.4,193.5z"/>
		<path class="st48" d="M330.4,208.2c0,0,6.1,3.6,11.3,11c5.2,7.4,14.3,17.2,14.9,21.1c0.6,3.9-12.5,26-15.7,28.5
			c-3.2,2.5-6.2,0-6.2,0s13.2-23,12.3-27.6c-1-4.5-20.5-19.6-20.5-19.6L330.4,208.2z"/>
		
			<linearGradient id="SVGID_16_" gradientUnits="userSpaceOnUse" x1="320.7972" y1="-1076.1993" x2="311.77" y2="-1119.9357" gradientTransform="matrix(1 0 0 1 0 1388)">
			<stop  offset="0" style="stop-color:#F47D6B"/>
			<stop  offset="1" style="stop-color:#F36F5B"/>
		</linearGradient>
		<path class="st49" d="M343.6,283.4c-0.1-0.6-0.1-1.1-0.2-1.6c0-0.1,0-0.1,0-0.1c-0.1-1.3-0.4-2.5-0.7-3.6
			c-3-12.4-10.5-19.4-13.2-26.2c-0.2-0.6-0.4-1.4-0.6-2.3c-7.6,1.7-18.2,1-25.9,0.1c0,0-3,29.2-8.6,50c-1.6,5.7-6.4,16.3-6.4,16.3
			s9.3,8.3,16.3,6.7c7-1.7,11.5-2.9,15.7,0c4.1,2.9,14.9-0.1,16.1-1.8c1.2-1.7,6.7-4,11.9-0.9c5.2,3.1,8-2.1,8-2.1
			S345.9,298.7,343.6,283.4z"/>
		<path class="st36" d="M287.8,395.5c-3.2,0.3-4.1-1.1-4.2-2.5c-0.7,0.2-1.3,0.3-2,0.5c-5,1-10.5,3.9-7.2,5.2s28.8,1.7,30.5,0
			c1.6-1.6,3.9-3.1,1.7-9.4c-0.8,0.1-1.8,0.3-2.9,0.6C298.2,391.5,294.3,394.9,287.8,395.5z"/>
		<path class="st36" d="M372.4,374.8c-1.5-0.4-2.5-0.7-3.5-1.2c-0.4,2.4-1.2,6.5-2.3,10.3c-1.7,5.9-4.2,8.8-9.4,7.8l0,0
			c-3.4,2.7-8.2,7.3-3.5,7.9c5.8,0.7,13.2-3,16.3-9.4C373.2,383.9,377.8,376.3,372.4,374.8z"/>
		
			<linearGradient id="SVGID_17_" gradientUnits="userSpaceOnUse" x1="348.2311" y1="-1147.026" x2="327.4655" y2="-1167.7351" gradientTransform="matrix(1 0 0 1 0 1388)">
			<stop  offset="0" style="stop-color:#FBCAC3"/>
			<stop  offset="1" style="stop-color:#F9BAB0"/>
		</linearGradient>
		<path class="st50" d="M347,241.3c0.4,1.7-1.3,6.2-3.6,11c1.6,1.3,4,2.7,6.8,2.7c3.6-6.3,6.7-12.8,6.4-14.7
			c-0.6-3.9-9.6-13.7-14.9-21.1c-5.2-7.4-12-12-12-12l-3.2,14.5C326.4,221.7,346,236.8,347,241.3z"/>
		<path class="st48" d="M257.5,188.1c2.6,8.1,4.5,12.9,8.7,15.3c2.4,1.3,10.7,3.1,17.5,5.2l7.3-11.1c-6.8-0.1-21-3-22-4
			c-1-1-11.2-21.8-13.2-25.6c-2.1-3.9,0.6-11.7-3.4-11.4c-4,0.3-8.3,4.1-4.3,9.5C252.2,171.3,254.9,180,257.5,188.1z"/>
		
			<linearGradient id="SVGID_18_" gradientUnits="userSpaceOnUse" x1="287.3922" y1="-1169.4255" x2="314.9331" y2="-1180.109" gradientTransform="matrix(1 0 0 1 0 1388)">
			<stop  offset="0" style="stop-color:#FBCAC3"/>
			<stop  offset="1" style="stop-color:#F9BAB0"/>
		</linearGradient>
		<path class="st51" d="M330.4,208.2c-0.4-2-9.3-5.1-14.1-6.7l0,0c0,0-0.1,0-0.1,0c-0.1,0-0.1,0-0.2-0.1c-0.1,0-0.2-0.1-0.3-0.1
			c-0.1,0-0.2-0.1-0.2-0.1c-0.1,0-0.2-0.1-0.3-0.1c-0.1,0-0.1,0-0.2-0.1c-0.1,0-0.2-0.1-0.3-0.1c0,0-0.1,0-0.1,0
			c-0.1,0-0.2-0.1-0.2-0.1c0,0,0,0-0.1,0l0,0c-0.7-0.2-1.1-0.3-1.1-0.3l-1.1-7.3c-1,0-5.1,0.1-7.8,0.3c0.1,0.7,1.1,6,0,6.4
			c-0.3,0.1-0.8,0-1.6-0.2l0,0c-0.1,0-0.1,0-0.2-0.1c-0.1,0-0.2-0.1-0.3-0.1c-0.1,0-0.2-0.1-0.4-0.1c-0.1,0-0.1,0-0.1-0.1
			c-0.5-0.2-1.1-0.3-1.8-0.6c0,0,0,0-0.1,0l0,0c-2.3-0.7-5.2-1.4-8.5-1.4c-6.6,0-21.4-3-22.3-4c-0.6-0.6-4.1-7.6-7.5-14.3
			c-2.2,1.3-4.5,2-6.2,2.5c0.7,2.1,1.4,4.3,2.1,6.4c2.6,8.1,4.5,12.9,8.7,15.3c4.1,2.4,25.9,5.9,27.1,10.2c1.2,4.3-2.4,9.2-0.1,14.7
			c2.2,5.5,11,10.7,9.5,23.8c0,0.3-0.1,0.6-0.1,0.8c10.7,2.7,21.1,0.5,26.7-1.3C326.3,243.8,331,210.9,330.4,208.2z"/>
		<path class="st48" d="M314.3,173.2c-2.3-1.3-5-1.4-7.4-0.4c-1.7,0.7-3.5,1.8-4.6,3.6c-2.6,4-5.5,15.5-2.3,17.4
			c5.5,3.2,11.5,1.9,15.2-2.7C318.4,187,323.6,178.3,314.3,173.2z"/>
		
			<linearGradient id="SVGID_19_" gradientUnits="userSpaceOnUse" x1="317.1312" y1="-1177.5739" x2="309.826" y2="-1212.9668" gradientTransform="matrix(1 0 0 1 0 1388)">
			<stop  offset="0" style="stop-color:#F47D6B"/>
			<stop  offset="1" style="stop-color:#F36F5B"/>
		</linearGradient>
		<path class="st52" d="M325.1,193.9c-1.1-1.4-2.1-3-2.7-4.6c0-0.2,0-0.5,0-0.7c0-3,0.5-6-0.5-9c-1.7-5.1-6.5-8.4-11.8-8.6
			c-1.6,0.1-2.1,0.3-2.1,0.3c-1.1,0.3-2.2,0.9-3.1,1.7c-3.1,2.4-4.3,6.6-2.7,10.4c1.4,3.3,5.2,6.7,5.8,10.5c0,0.2,0,0.3-0.1,0.5
			c-0.6,3-2.5,5.6-3.7,8.4c-0.6,1.4-1,2.8-1,4.1c0,0.4-0.1,0.8-0.1,1.2c-0.5,3.9,1.5,7.8,4.9,9.9c2.2,1.3,4.8,1.9,7.3,1.8
			c2-0.1,3.1-1.2,3.5-2.7c0.6-0.7,0.8-1.5,0.7-2.6c-0.1-1.3-0.8-2.5-0.9-3.8c-0.1-2.4,2.4-2.4,4.1-2.9c1,0.1,1.9,0,2.8-0.4
			c2.4-1,3.9-3.5,3.8-6.1C329.2,198.2,327,196.2,325.1,193.9z M302,178.4c0.2-1,0.6-2,1.1-2.8c-1.6,3.6-0.2,7.5,2,10.6
			c1.4,2,2.8,4,3,6.4c-0.8-2.4-2.6-4.6-3.9-6.6C302.6,183.7,301.5,181.2,302,178.4z M317.4,218.7c-1,0.8-2.4,0.8-3.6,0.7
			c-2.2-0.1-4.4-0.8-6.2-2.1c-2.5-1.7-4.1-4.5-4.3-7.5c0.3,1.4,0.9,2.8,1.8,4.1c0,0.1,0,0.1,0.1,0.2c0.2,0.2,0.4,0.5,0.6,0.7
			c0.1,0.1,0.1,0.1,0.1,0.2c0,0,0.1,0.1,0.1,0.1c2.6,2.8,7.2,4.4,10.9,3.3c0.5-0.2,0.9-0.4,1.3-0.6C318,218,317.8,218.4,317.4,218.7
			z M327.2,205.9c-1,1-2.1,1.5-3.3,1.6c3.8-1.8,5-6.7,2.5-10.2c-0.8-1.1-1.8-1.9-2.6-3c-0.8-1.1-1.2-2.4-1.4-3.8
			c0.3,0.7,0.7,1.3,1.1,1.9c1.8,2.9,5,5,5.3,8.6C329,202.8,328.4,204.6,327.2,205.9z"/>
		<g>
			<path class="st36" d="M334.3,311.9c3.4-1.6,7-1.1,10.5-0.2c2.7,0.7,5.8,1.4,8.7,1.5c-0.3-0.6-0.6-1.3-0.9-2
				c-4.3-0.3-9-2.2-12.8-2.4c-3.2-0.1-6,0.9-8.8,2.5c-3.1,1.8-6,3.6-9.6,1.9c-2.5-1.2-4.6-3.3-7.4-4.1c-3.3-0.9-6.5,0.4-9.7,0.9
				c-4.5,0.8-9.1-0.3-12.9-2.7c-0.3,0.7-0.5,1.3-0.8,1.9c2,1.2,4.1,2.1,6.4,2.6c2.4,0.5,4.8,0.6,7.2,0.3c3.2-0.5,6.6-2,9.8-0.8
				c2.5,0.9,4.5,2.9,6.9,3.9c2.2,1,4.4,1,6.7,0.2C330.1,314.5,332.1,312.9,334.3,311.9z"/>
			<path class="st36" d="M303.3,307.2c3.4-0.3,6.8-1.1,10.2-0.8c1.8,0.2,3.6,0.7,5.1,1.7c1.2,0.8,2.4,1.8,3.8,2.3
				c3.1,1,6-0.6,8.6-2.1c3.8-2.2,7.2-2.2,11.4-1.6c2.7,0.4,5.7,0.8,8.5,0.3c-0.3-0.6-0.5-1.2-0.8-1.9c-3.4,0.4-7.4-0.6-10.5-0.9
				c-2.7-0.2-5.3,0-7.8,1.2c-3.1,1.5-6.3,4.4-9.8,2.5c-2.3-1.3-4-2.8-6.6-3.4c-2.6-0.5-5.3-0.3-7.9,0c-4.4,0.6-11,1.7-14.4-1.9
				c-0.2,0.6-0.5,1.3-0.7,2C295.4,307.1,299.6,307.6,303.3,307.2z"/>
		</g>
		
			<linearGradient id="SVGID_20_" gradientUnits="userSpaceOnUse" x1="94.9918" y1="-1061.7471" x2="131.3551" y2="-1061.7471" gradientTransform="matrix(1 0 0 1 0 1388)">
			<stop  offset="0" style="stop-color:#FBCCC5"/>
			<stop  offset="1" style="stop-color:#F7A497"/>
		</linearGradient>
		<path class="st53" d="M99.5,255.4c0,0-4.5,13.4-3.2,25.7c1.3,12.3,5,38.8,4.7,45.4c-0.3,6.6-2.2,36.7-2.5,46.1
			c-0.3,9.4,0.3,5.8-1.3,11.2c-1.6,5.3-4,11.5,0,12.5c4,1,33.2,1.6,34.1-1.8c1-3.4-18.4-3.4-20.1-15.2c-1.6-11.8,6-40.6,6.8-53.1
			c0.8-12.5,3.4-42.5,3.4-42.5L99.5,255.4z"/>
		<path class="st40" d="M97.2,396.3c4,1,33.2,1.6,34.1-1.8c1-3.4-18.4-3.4-20.1-15.2c-0.1-0.4-0.1-0.8-0.1-1.3L98.4,377
			c0,4,0.1,2.6-1.2,6.8C95.6,389.2,93.1,395.3,97.2,396.3z"/>
		
			<linearGradient id="SVGID_21_" gradientUnits="userSpaceOnUse" x1="109.6094" y1="-1038.9445" x2="107.6708" y2="-1091.6855" gradientTransform="matrix(1 0 0 1 0 1388)">
			<stop  offset="0" style="stop-color:#F47D6B"/>
			<stop  offset="1" style="stop-color:#F36F5B"/>
		</linearGradient>
		<path class="st54" d="M114.9,376.9c0.1-1.5,0.1-3-0.1-4.5c-0.9-12.3,3.9-34.3,4.6-46.1c0.8-12.5,2-42.5,2-42.5l-22-28.3l0,0
			c0,0-4.5,13.4-3.2,25.7c1.3,12.3,4,38.5,3.7,45.1c-0.3,6.6-1.8,34.7-2.9,44c-0.4,3.8-0.5,7.3-0.5,8.4c3,1,13.3,2.8,18.3,1.2
			C114.8,379.8,114.9,378.3,114.9,376.9z"/>
		<path class="st48" d="M122.7,177.6c0,0-1.5,5.5-1.3,8.1c0.2,2.6,41.6,8.2,41.6,8.2s12.6-13.8,15.1-18.6c2.4-4.9,2.9-10.5,5-13.3
			s4.9-7.1,6.2-3.9c1.3,3.2,1.3,13.6-1.8,15.8c-3.1,2.3-12.1,29.6-17.8,32.2c-5.7,2.6-27.8,0.3-29.3,2.9c-1.5,2.6-4.3,47.7-2.4,56.3
			c2,8.6,18.3,48.3,18.5,54.6c0.2,6.3-20.6,51.9-22,57.1c-1.2,4.4,4.8,12.5,7.1,13.4c2.4,0.9,10.4,4.1,8.6,6.9
			c-1.7,2.8-13.9,2.1-17.9,0c-4-2.1-6.4-5.8-10.9-7c-4.5-1.2-6.1-11.2,2.7-18.3c5.8-4.7,12.1-46.6,12.3-49.8
			c0.2-3.7-31.3-31.3-35.9-59.2c-3.2-19.2-4.3-47.2-4.3-47.2l-1.1-21.1c0,0,11.4-5.2,12.9-9.3s3.4-13.9,3.4-13.9L122.7,177.6z"/>
		<path class="st48" d="M183.1,162.1c-2.1,2.7-2.6,8.4-5,13.3c-2.4,4.9-15.1,18.6-15.1,18.6s-5.8-0.8-13-1.9l-2,15.7
			c7.4-0.2,17.9,0.2,21.6-1.5c5.7-2.6,14.7-29.9,17.8-32.2c3.1-2.3,3.1-12.6,1.8-15.8C187.9,155,185.2,159.3,183.1,162.1z"/>
		
			<linearGradient id="SVGID_22_" gradientUnits="userSpaceOnUse" x1="82.4862" y1="-1166.2992" x2="108.6092" y2="-1166.2992" gradientTransform="matrix(1 0 0 1 0 1388)">
			<stop  offset="0" style="stop-color:#FBCCC5"/>
			<stop  offset="1" style="stop-color:#F7A497"/>
		</linearGradient>
		<path class="st55" d="M95.2,194.9c0,0-3.8,0.5-6.4,7.8s-7.6,38.9-6.2,41.5c1.4,2.6,25.9,4.4,25.9,4.4L95.2,194.9z"/>
		
			<linearGradient id="SVGID_23_" gradientUnits="userSpaceOnUse" x1="76.4873" y1="-1152.6011" x2="99.4562" y2="-1165.0485" gradientTransform="matrix(1 0 0 1 0 1388)">
			<stop  offset="0" style="stop-color:#F69485"/>
			<stop  offset="1" style="stop-color:#F58B7D"/>
		</linearGradient>
		<path class="st56" d="M95.2,194.9c0,0-3.8,0.5-6.4,7.8s-7.6,38.9-6.2,41.5c1.4,2.6,25.9,4.4,25.9,4.4L95.2,194.9z"/>
		<path class="st48" d="M112.9,153.3c0,0,9.6-3,14.1,7.4c0.3,0.6,0.5,1.2,0.7,1.8c1.1,1.4,4.3,5.7,3.9,6.1c-0.3,0.4-1.6,1-2,1.1
			c0.8,5.3-0.3,8.7-1.5,9.4c-1.7,1.1-16.2,3.7-21.3-6.7C101.7,162.1,103.8,156,112.9,153.3z"/>
		
			<linearGradient id="SVGID_24_" gradientUnits="userSpaceOnUse" x1="986.3544" y1="420.198" x2="1013.0757" y2="420.198" gradientTransform="matrix(0.9213 -0.3889 0.3889 0.9213 -966.2766 168.6104)">
			<stop  offset="0" style="stop-color:#F47D6B"/>
			<stop  offset="1" style="stop-color:#F36F5B"/>
		</linearGradient>
		<path class="st57" d="M109.5,154.1c2.6-2,4.1-2.5,7.4-3c0.9-0.2,1.7-0.2,2.6-0.2c0.4,0,0.9-0.1,1.3-0.4l0,0c1.1-1,2.2-1.8,3.8-1.1
			c1.7,0.7,2.4,3.7,1.4,5.4c-0.1,0.1-0.1,0.3-0.2,0.4c-0.4,1.9-1.2,1.3-3,1.8c-1.3,0.4-2.4,1-3.1,2.3c-0.7,1.2-1.1,2.6-1.4,3.9
			c-0.7,2.8-0.4,5.8,2.1,7.5c1.1,0.8,2.6,1,3.9,0.8s2.4-1.1,3.7-1.5c0.9-0.3,1.6-0.5,2.1,0.4c0.5,1.2,0.4,1.9,0.2,3
			c-0.3,1.5-0.4,3-0.8,4.5c-0.3,1-0.4,1.3-1.3,1.9c-1.1,0.7-2.3,0.8-3.5,0.6c-1.4-0.3-2.2-0.2-3.5-0.7c-2.3-1-4.4-2.5-5.7-4.6
			c-0.8-1.4-1.2-2.9-1.8-4.4c-0.2-0.5-0.5-1.2-1.1-1.4c-0.8-0.2-1.2,0.9-1.3,1.5c-0.4,2.7,1.3,5.6-0.8,7.9c-0.4,0.4-1.3,0.4-1.4-0.3
			c-0.3-3.4-3.2-5.7-4.3-8.8c-1.1-3-1.8-6.4-0.6-9.3C105.4,157.3,107,156,109.5,154.1z"/>
		
			<linearGradient id="SVGID_25_" gradientUnits="userSpaceOnUse" x1="122.2895" y1="-1137.3838" x2="133.3468" y2="-1181.1049" gradientTransform="matrix(1 0 0 1 0 1388)">
			<stop  offset="0" style="stop-color:#F69485"/>
			<stop  offset="1" style="stop-color:#F58B7D"/>
		</linearGradient>
		<path class="st58" d="M170,186.1c-3.6,4.2-6.9,7.9-6.9,7.9s-32-4.4-39.8-7.2c0.8-0.5,1.3-1.3,1.3-2.4c0-1.5-1.3-3.1-2.9-2.9
			c-4.1,0.4-8.1,0.1-12.1-1.1c-3.6-1.1-5.1,4.5-1.6,5.6c0,0,0.1,0,0.1,0c-2.1,4-12.8,8.8-12.8,8.8l1.1,21.1c0,0,1,24.7,3.7,43.6
			h37.4c-0.6-15,1.6-48.2,2.9-50.5c1.5-2.6,23.7-0.3,29.3-2.9c2.4-1.1,5.4-6.5,8.2-12.7C174,191.6,171.3,188.1,170,186.1z"/>
		<path class="st40" d="M141.6,390.5c-2.4-0.9-8.3-9-7.1-13.4c0.3-1,1.3-3.6,2.8-7.2l-9.8-3.7l-0.2,0.2c-1,2.8-2.1,4.8-3.1,5.7
			c-8.8,7.1-7.2,17.1-2.7,18.3c4.5,1.2,6.9,5,10.9,7c4,2.1,16.2,2.8,17.9,0C152,394.5,144,391.3,141.6,390.5z"/>
		
			<linearGradient id="SVGID_26_" gradientUnits="userSpaceOnUse" x1="136.036" y1="-1048.0077" x2="123.3641" y2="-1130.1229" gradientTransform="matrix(1 0 0 1 0 1388)">
			<stop  offset="0" style="stop-color:#F47D6B"/>
			<stop  offset="1" style="stop-color:#F36F5B"/>
		</linearGradient>
		<path class="st59" d="M137.3,255.4L137.3,255.4c-15.7,4.3-37.8,0-37.8,0c0.3,2.7,0.7,5.3,1.1,7.8c4.6,27.9,35.3,55.3,35.1,59
			c-0.2,3.1-9.2,41.9-15,47.8c2.9,3.2,14,9,16.8,9.9c0-0.2,2.2-6.1,2.3-6.3c1.4-5.2,16.9-47.4,16.7-53.6
			c-0.2-6.3-16.6-45.9-18.5-54.6C137.5,263.5,137.3,259.9,137.3,255.4z"/>
	</g>
</g>
</svg>
