<?xml version="1.0" encoding="utf-8"?>
<!-- Generator: Adobe Illustrator 23.0.3, SVG Export Plug-In . SVG Version: 6.00 Build 0)  -->
<svg version="1.1" id="Layer_1" xmlns="http://www.w3.org/2000/svg" xmlns:xlink="http://www.w3.org/1999/xlink" x="0px" y="0px"
	 viewBox="0 0 360 360" style="enable-background:new 0 0 360 360;" xml:space="preserve">
<style type="text/css">
	.st0{fill:#D4494B;}
	.st1{fill:none;stroke:#D4494B;stroke-width:6.0812;stroke-linecap:round;stroke-miterlimit:10;stroke-dasharray:21.2855;}
</style>
<g id="Group_719" transform="translate(974.626 22.409)">
	<g id="Group_718" transform="translate(11.583 23.462)">
		<path id="Path_1109" class="st0" d="M-843.7,70.3l53.9,111.5c1.8,3.1,3,6.6,3.4,10.2c0,4.8-3.9,9.1-11.6,13
			c-3.5,2-7.4,3.1-11.4,3.4c-2,0-4-0.6-5.7-1.8c-1.5-1-2.7-2.3-3.6-3.8c-0.7-1.3-1.8-3.3-3.1-6l-10.4-21.6h-55.3l-10.4,21.6
			c-1.3,2.7-2.4,4.6-3.1,5.8c-1,1.4-2.2,2.7-3.6,3.7c-1.6,1.3-3.6,1.9-5.7,1.9c-4-0.3-7.9-1.4-11.4-3.4c-7.7-3.7-11.6-8-11.6-12.8
			c0.4-3.6,1.6-7.1,3.4-10.2l53.9-111.7c1.5-3.1,3.8-5.6,6.7-7.4c2.8-1.8,6.1-2.8,9.5-2.8C-852.7,59.7-846.4,63.9-843.7,70.3z
			 M-859.9,118.2l-13.2,27.4h26.6L-859.9,118.2z"/>
		<path id="Path_1110" class="st0" d="M-697.7,101c3.4-0.1,6.7,0.3,10,1.2c2.3,0.6,4.2,2.1,5.3,4.2c0.9,1.7,1.5,3.4,1.8,5.3
			c0.2,2.3,0.3,4.6,0.3,6.9v69.9c0,2.3-0.1,4.6-0.3,6.9c-0.3,1.8-0.9,3.6-1.8,5.2c-1.1,2-3,3.5-5.3,4.1c-3.3,0.9-6.8,1.3-10.2,1.2
			c-4.4,0.4-8.8-0.6-12.7-2.7c-2.5-1.9-4.1-4.8-4.3-7.9c-4.9,7.1-12.9,10.6-24,10.6c-12,0-22.9-5.3-32.8-15.8
			c-9.6-9.9-14.9-23.2-14.8-37c-0.1-13.6,5.3-26.6,14.9-36.3c9.9-10.5,20.8-15.7,32.7-15.7c4.2-0.1,8.5,0.8,12.4,2.4
			c2.8,1.1,5.5,2.6,7.8,4.5c1.3,1.2,2.5,2.6,3.6,4.1c0.2-3.3,1.7-6.3,4.3-8.4C-708.3,102-703.9,101-697.7,101z M-733.4,170.9
			c4.6,0.1,9-1.9,12.1-5.4c3.1-3.2,4.9-7.5,4.9-12c-0.1-4.4-1.7-8.7-4.7-12c-3.1-3.7-7.8-5.8-12.7-5.6c-4.9-0.1-9.5,1.9-12.7,5.6
			c-3.1,3.3-4.8,7.7-4.9,12.2c0,4.5,1.9,8.8,5.2,11.9C-742.9,169.1-738.2,171.1-733.4,170.9z"/>
	</g>
	<rect id="Rectangle_878" x="-955.6" y="14.5" class="st1" width="320.8" height="286.1"/>
</g>
</svg>
