<?xml version="1.0" encoding="utf-8"?>
<!-- Generator: Adobe Illustrator 23.0.3, SVG Export Plug-In . SVG Version: 6.00 Build 0)  -->
<svg version="1.1" id="Layer_1" xmlns="http://www.w3.org/2000/svg" xmlns:xlink="http://www.w3.org/1999/xlink" x="0px" y="0px"
	 viewBox="0 0 360 360" style="enable-background:new 0 0 360 360;" xml:space="preserve">
<style type="text/css">
	.st0{fill:#D4494B;}
	.st1{fill:#EAEEF3;}
	.st2{fill:#9CAECA;}
	.st3{fill:#859CB1;}
	.st4{fill:#FFB73C;}
</style>
<g id="Group_467">
	<path id="Rectangle_557" class="st0" d="M31.8,49.3h294.6c11,0,19.9,8.9,19.9,19.9v219.6c0,11-8.9,19.9-19.9,19.9H31.8
		c-11,0-19.9-8.9-19.9-19.9V69.2C11.8,58.2,20.8,49.3,31.8,49.3z"/>
	<path id="Path_595" class="st1" d="M128.1,155.6l37.5,58.6l63.7-99.7c8-12.5,28-12.5,36,0l56.3,87.9V81.3c0-6.8-6.1-12.4-13.7-12.4
		H49.9c-7.6,0-13.7,5.5-13.7,12.4v177.6l66-103.3c5-7.1,14.8-8.9,21.9-3.9C125.7,152.7,127,154.1,128.1,155.6L128.1,155.6z
		 M58.9,111.2c0-14,12.6-25.4,28.1-25.4s28.1,11.4,28.1,25.4s-12.6,25.4-28.1,25.4S58.9,125.2,58.9,111.2z"/>
	<path id="Path_596" class="st2" d="M229.3,114.5l-63.7,99.7l46,71.9h96.3c7.6,0,13.7-5.5,13.7-12.4v-71.3l-56.3-87.9
		C257.3,102,237.3,102,229.3,114.5z"/>
	<path id="Path_597" class="st3" d="M119.6,286.1l46-71.9l-37.5-58.6c-5-7.1-14.8-8.9-21.9-3.9c-1.5,1.1-2.8,2.4-3.9,3.9L36.2,258.9
		v14.9c0,6.8,6.1,12.4,13.7,12.4L119.6,286.1z"/>
	<path id="Path_598" class="st3" d="M119.6,286.1h92l-46-71.9L119.6,286.1z"/>
	<ellipse id="Ellipse_188" class="st1" cx="87.1" cy="111.2" rx="32.4" ry="29.6"/>
	<ellipse id="Ellipse_189" class="st4" cx="76.5" cy="101.6" rx="22.1" ry="20"/>
</g>
</svg>
