<?xml version="1.0" encoding="utf-8"?>
<!-- Generator: Adobe Illustrator 23.0.3, SVG Export Plug-In . SVG Version: 6.00 Build 0)  -->
<svg version="1.1" id="Layer_1" xmlns="http://www.w3.org/2000/svg" xmlns:xlink="http://www.w3.org/1999/xlink" x="0px" y="0px"
	 viewBox="0 0 360 360" style="enable-background:new 0 0 360 360;" xml:space="preserve">
<style type="text/css">
	.st0{fill:#D4494B;}
	.st1{fill:none;stroke:#B23338;stroke-width:8.3888;stroke-linecap:round;stroke-miterlimit:10;}
</style>
<g id="Group_720" transform="translate(312.933 10.402)">
	<path id="Rectangle_879" class="st0" d="M-38.7,187.6H0.8c6.7,0,12.2,5.4,12.2,12.2c0,0,0,0,0,0v86.1l0,0h-63.8l0,0v-86.1
		C-50.9,193-45.4,187.6-38.7,187.6z"/>
	<path id="Rectangle_880" class="st0" d="M-277.5,50.1h39.5c6.7,0,12.2,5.4,12.2,12.2c0,0,0,0,0,0v223.5l0,0h-63.8l0,0V62.3
		C-289.6,55.6-284.2,50.1-277.5,50.1z"/>
	<path id="Rectangle_881" class="st0" d="M-196.3,104.3h39.5c6.7,0,12.2,5.4,12.2,12.2c0,0,0,0,0,0v169.4l0,0h-63.8l0,0V116.5
		C-208.4,109.8-203,104.3-196.3,104.3z"/>
	<path id="Rectangle_882" class="st0" d="M-114,152.4h39.5c6.7,0,12.2,5.4,12.2,12.2c0,0,0,0,0,0v121.2l0,0h-63.8l0,0V164.6
		C-126.2,157.9-120.7,152.4-114,152.4z"/>
	<line id="Line_14" class="st1" x1="-301.4" y1="285.8" x2="33.4" y2="285.8"/>
</g>
</svg>
