<?xml version="1.0" encoding="utf-8"?>
<!-- Generator: Adobe Illustrator 23.0.3, SVG Export Plug-In . SVG Version: 6.00 Build 0)  -->
<svg version="1.1" id="Layer_1" xmlns="http://www.w3.org/2000/svg" xmlns:xlink="http://www.w3.org/1999/xlink" x="0px" y="0px"
	 viewBox="0 0 432 432" style="enable-background:new 0 0 432 432;" xml:space="preserve">
<style type="text/css">
	.st0{fill:#FEEDA2;}
	.st1{fill:#FEE496;}
	.st2{fill:#FCF6B7;}
	.st3{fill:#F89C49;}
	.st4{fill:#FCB764;}
	.st5{fill:#FECB79;}
	.st6{fill:#FFF1A6;}
	.st7{fill:#FFDE8F;}
	.st8{fill:#F9A44E;}
	.st9{fill:#F89843;}
	.st10{fill:#F47925;}
	.st11{fill:#F37321;}
	.st12{fill:#FFD282;}
	.st13{fill:#FBB462;}
	.st14{fill:#FEE092;}
	.st15{fill:#FFCC7A;}
	.st16{fill:#F36D21;}
	.st17{fill:url(#SVGID_1_);}
	.st18{fill:url(#SVGID_2_);}
	.st19{fill:url(#SVGID_3_);}
	.st20{fill:#F5842F;}
	.st21{fill:url(#SVGID_4_);}
	.st22{fill:url(#SVGID_5_);}
	.st23{fill:url(#SVGID_6_);}
	.st24{fill:url(#SVGID_7_);}
	.st25{fill:#F7943F;}
	.st26{fill:url(#SVGID_8_);}
	.st27{fill:#F57E26;}
	.st28{fill:#FFFFFF;}
	.st29{fill:#F79C8F;}
	.st30{fill:#F9B7AC;}
	.st31{fill:#FBCAC3;}
	.st32{fill:#FEF2F0;}
	.st33{fill:#FDDED9;}
	.st34{fill:#F7A396;}
	.st35{fill:#F69689;}
	.st36{fill:#F37967;}
	.st37{fill:#F3725E;}
	.st38{fill:#FCD1CB;}
	.st39{fill:#F9B3A9;}
	.st40{fill:#FDE1DB;}
	.st41{fill:#FBCBC4;}
	.st42{fill:#F26B57;}
	.st43{fill:url(#SVGID_9_);}
	.st44{fill:url(#SVGID_10_);}
	.st45{fill:url(#SVGID_11_);}
	.st46{fill:#F48472;}
	.st47{fill:url(#SVGID_12_);}
	.st48{fill:url(#SVGID_13_);}
	.st49{fill:url(#SVGID_14_);}
	.st50{fill:url(#SVGID_15_);}
	.st51{fill:#F69485;}
	.st52{fill:url(#SVGID_16_);}
	.st53{fill:#F47D6B;}
</style>
<g>
	<g>
		<g>
			<path class="st0" d="M248.7,363.4c-4.3,0-8.7,0.4-13.1,1.1c-9.5,1.4-20.2,3.9-30.6,4.3c3.8,1.2,7.7,1.7,11.7,1.7
				C227.3,370.5,238.4,366.9,248.7,363.4 M20.3,337.8c1.3,5.9,3.7,11.4,7.3,16.3c5.4,7.3,12.8,12.9,21,16.8
				c11.1,5.3,22.9,7.2,34.8,7.2c9.2,0,18.6-1.2,27.7-2.8c21.9-4,43.8-10,66.3-10c1.3,0,2.5,0,3.8,0c0.8,0,1.6,0.1,2.4,0.1
				c-1.2-0.5-2.3-1.1-3.4-1.7c-7-2.5-14.1-4.7-21.4-6c-9.7-1.8-19.5-2.4-29.3-2.4c-13.8,0-27.7,1.1-41.5,1.5c-1.8,0-3.7,0.1-5.5,0.1
				c-19.5,0-39.1-2.8-55.6-14C24.6,341.4,22.4,339.7,20.3,337.8 M398.4,195.2c-0.1,0.3-0.2,0.7-0.2,1c-2.6,11.7,0.2,23.6,3.5,34.8
				c3.4,11.6,6.8,23.1,8.8,35c3.7,22.6,3.2,46.7-6,68c-0.7,1.7-1.5,3.4-2.4,5c8.7-9.9,14.9-22,18.3-34.7c5.9-22.4,2.7-46.4-4.4-68.1
				c-3.8-11.5-8.9-22.3-14.1-33.2C400.6,200.4,399.4,197.8,398.4,195.2 M39.7,75.1c-12,9.9-19.4,24.5-22.3,40
				c-6.7,36.1,9.6,70.1,16.4,105c7.7-44.6-14-90.9,1.4-134.8C36.5,81.9,38,78.4,39.7,75.1 M356.1,54c-11.3,0-22.8,2.2-33.4,4.8
				c-23.8,5.7-46.9,13.9-70.7,19.9c-9.9,2.5-20,4.5-30.1,5.7c8.9,1.4,18,2,27.1,2c7.9,0,15.8-0.4,23.7-1.2
				c24.4-2.2,48.5-6.8,72.9-8.8c5.5-0.4,11.2-0.8,16.9-0.8c16.1,0,32.5,2.6,45.2,12.8c-3.7-10.9-10.7-20.6-20.7-26.6
				C377.5,56,366.9,54,356.1,54"/>
			<path class="st0" d="M183.6,365.5c5.7,2.4,11.9,3.3,18.2,3.3c1.1,0,2.1,0,3.2-0.1c-0.6-0.2-1.2-0.4-1.8-0.6
				C196.7,366.9,190.2,365.9,183.6,365.5 M402.1,339c-3.9,4.5-8.4,8.4-13.3,11.8c-8.5,5.8-18.1,9.2-28.3,10.5
				c-3.9,0.5-7.8,0.7-11.7,0.7c-7.2,0-14.5-0.7-21.7-1.7c-11.5-1.5-23-3.5-34.6-4.2c-2-0.1-4.1-0.2-6.1-0.2
				c-9.6,0-18.9,1.3-28.2,4.3c-3.1,1-6.2,2-9.5,3.2c0.3,0,0.5,0,0.8,0c6.9,0,13.8,0.8,20.7,2.3c11.4,2.4,22.4,6.2,33.5,9.5
				c10.7,3.1,21.6,5.8,32.8,6c0.6,0,1.2,0,1.8,0c9.6,0,19.1-1.9,27.8-6.1C381.8,367.7,394.2,354.3,402.1,339 M33.9,220.2
				c-0.6,3.6-1.4,7.2-2.5,10.8C25,253.2,8.6,271.7,4.6,294.7c-1.6,9.6-0.5,19.7,4.1,28.4c2.9,5.6,6.9,10.5,11.6,14.7
				c-0.8-3.6-1.2-7.4-1.1-11.1c0.3-23.4,13.7-44.1,16.7-67.1C37.7,246.3,36.4,233.2,33.9,220.2 M407.6,88.4
				c2.2,6.4,3.3,13.2,3.2,19.9c-0.1,10.1-3.2,19.4-7.1,28.6c-4.5,10.3-10,20.8-10.7,32.2c-0.6,9.1,1.9,17.8,5.4,26.1
				c2.7-10.8,9.5-20,15.3-29.2c5.3-8.5,9.8-17.2,11.4-27.2c2.9-17.9-2.4-37.7-16.5-49.6C408.3,88.9,408,88.7,407.6,88.4 M95.5,41.2
				c-7,0-13.9,0.9-20.6,3c-15.9,4.9-27.8,16.7-35.2,31c3.2-2.6,6.7-4.9,10.6-6.8c10.5-5.1,22.1-7.1,33.8-7.1
				c8.7,0,17.4,1.1,25.7,2.9c23.8,5,46.1,15.3,70,19.6c7.5,1.3,15,1.9,22.6,1.9c6.5,0,13-0.4,19.5-1.2c-7.2-1.2-14.3-2.8-21.3-5.2
				c-23-7.9-43.5-21.4-66.2-30.1C122.1,44.4,108.8,41.2,95.5,41.2"/>
			<path class="st1" d="M84,61.2c-11.7,0-23.3,2-33.8,7.1c-3.9,1.9-7.4,4.2-10.6,6.8c-1.7,3.3-3.2,6.7-4.4,10.3
				c-15.4,44,6.3,90.2-1.4,134.8c2.5,13,3.8,26.1,2,39.4c-3,22.9-16.4,43.7-16.7,67.1c0,3.7,0.3,7.5,1.1,11.1
				c2.1,1.8,4.3,3.6,6.6,5.1c16.6,11.2,36.1,14,55.6,14c1.8,0,3.7,0,5.5-0.1c13.8-0.3,27.6-1.5,41.5-1.5c9.8,0,19.6,0.6,29.3,2.4
				c7.3,1.4,14.4,3.5,21.4,6c1.1,0.6,2.3,1.2,3.4,1.7c6.6,0.4,13.2,1.3,19.7,2.6c0.6,0.2,1.2,0.4,1.8,0.6
				c10.4-0.4,21.1-2.9,30.6-4.3c4.4-0.7,8.7-1,13.1-1.1c3.2-1.1,6.4-2.2,9.5-3.2c9.3-2.9,18.6-4.3,28.2-4.3c2,0,4,0.1,6.1,0.2
				c11.6,0.7,23.1,2.7,34.6,4.2c7.2,0.9,14.4,1.7,21.7,1.7c3.9,0,7.8-0.2,11.7-0.7c10.1-1.3,19.8-4.8,28.3-10.5
				c4.9-3.4,9.4-7.4,13.3-11.8c0.8-1.6,1.6-3.3,2.4-5c9.3-21.3,9.8-45.4,6-68c-2-11.9-5.4-23.4-8.8-35c-3.3-11.2-6.2-23.1-3.5-34.8
				c0.1-0.3,0.1-0.7,0.2-1c-3.5-8.3-6-17.1-5.4-26.1c0.8-11.5,6.3-21.9,10.7-32.2c4-9.2,7-18.5,7.1-28.6c0-6.7-1-13.5-3.2-19.9
				c-12.7-10.1-29.1-12.8-45.2-12.8c-5.7,0-11.4,0.3-16.9,0.8c-24.4,2-48.5,6.6-72.9,8.8c-7.9,0.7-15.8,1.2-23.7,1.2
				c-9.1,0-18.1-0.6-27.1-2c-6.5,0.8-13,1.2-19.5,1.2c-7.5,0-15.1-0.6-22.6-1.9c-23.9-4.2-46.3-14.5-70-19.6
				C101.4,62.3,92.7,61.2,84,61.2"/>
		</g>
		<path class="st2" d="M360.7,119.2H74c-3.8,0-6.8,3.1-6.8,6.8v190.1c0,3.8,3.1,6.8,6.8,6.8h286.8c3.8,0,6.8-3.1,6.8-6.8V126
			C367.6,122.3,364.5,119.2,360.7,119.2z"/>
		<path class="st3" d="M360.6,119.1H74.1c-3.8,0-7,3.1-7,7v8.9h300.5v-8.9C367.6,122.3,364.5,119.1,360.6,119.1z"/>
		<circle class="st2" cx="333.7" cy="127" r="2.3"/>
		<circle class="st4" cx="342.9" cy="127" r="2.3"/>
		<circle class="st5" cx="352.2" cy="127" r="2.3"/>
		<g>
			<path class="st6" d="M139.9,253.9H83.8c-1.4,0-2.5-1.1-2.5-2.5v-52.5c0-1.4,1.1-2.5,2.5-2.5h56.1c1.4,0,2.5,1.1,2.5,2.5v52.5
				C142.4,252.7,141.2,253.9,139.9,253.9z"/>
			<path class="st7" d="M137.7,196.4H85.9c-2.5,0-4.6,2.1-4.6,4.6v2h61.1v-2C142.4,198.4,140.3,196.4,137.7,196.4z"/>
		</g>
		<path class="st6" d="M224.2,157.3h-122c-5.5,0-10,4.4-10,10l0,0c0,5.5,4.4,10,10,10h122c5.5,0,10-4.4,10-10l0,0
			C234.1,161.8,229.6,157.3,224.2,157.3z"/>
		<path class="st4" d="M116.6,160.6L116.6,160.6c-3.7,0-6.8,3-6.8,6.8l0,0c0,3.7,3,6.8,6.8,6.8l0,0c3.7,0,6.8-3,6.8-6.8l0,0
			C123.4,163.6,120.4,160.6,116.6,160.6z"/>
		<path class="st8" d="M135.3,160.6L135.3,160.6c-3.7,0-6.8,3-6.8,6.8l0,0c0,3.7,3,6.8,6.8,6.8l0,0c3.7,0,6.8-3,6.8-6.8l0,0
			C142,163.6,139,160.6,135.3,160.6z"/>
		<path class="st7" d="M153.8,160.6c-3.7,0-6.8,3-6.8,6.8l0,0c0,3.7,3,6.8,6.8,6.8c3.7,0,6.8-3,6.8-6.8l0,0
			C160.6,163.6,157.6,160.6,153.8,160.6z"/>
		<path class="st9" d="M172.5,160.6L172.5,160.6c-3.7,0-6.8,3-6.8,6.8l0,0c0,3.7,3,6.8,6.8,6.8l0,0c3.7,0,6.8-3,6.8-6.8l0,0
			C179.2,163.6,176.2,160.6,172.5,160.6z"/>
		<path class="st10" d="M191,160.6c-3.7,0-6.8,3-6.8,6.8l0,0c0,3.7,3,6.8,6.8,6.8c3.7,0,6.8-3,6.8-6.8l0,0
			C197.8,163.6,194.8,160.6,191,160.6z"/>
		<path class="st11" d="M209.7,160.6L209.7,160.6c-3.7,0-6.8,3-6.8,6.8l0,0c0,3.7,3,6.8,6.8,6.8l0,0c3.7,0,6.8-3,6.8-6.8l0,0
			C216.4,163.6,213.4,160.6,209.7,160.6z"/>
		<polygon class="st7" points="99.8,167.4 103.4,170.6 103.4,167.4 103.4,164.2 		"/>
		<polygon class="st7" points="224.9,167.4 221.3,164.2 221.3,167.4 221.3,170.6 		"/>
		<g>
			<rect x="184.3" y="221" class="st12" width="67.6" height="67.6"/>
			<rect x="278.1" y="221" class="st13" width="67.6" height="67.6"/>
			<g>
				<g>
					<path class="st12" d="M257.3,294.1h-1.2c-0.1,0-0.2-0.1-0.2-0.2s0.1-0.2,0.2-0.2h0.9v-0.9c0-0.1,0.1-0.2,0.2-0.2
						s0.2,0.1,0.2,0.2v1.2C257.5,294,257.4,294.1,257.3,294.1z"/>
					<path class="st12" d="M253.8,294.1h-2.3c-0.1,0-0.2-0.1-0.2-0.2s0.1-0.2,0.2-0.2h2.3c0.1,0,0.2,0.1,0.2,0.2
						S253.9,294.1,253.8,294.1z M249.2,294.1h-2.3c-0.1,0-0.2-0.1-0.2-0.2s0.1-0.2,0.2-0.2h2.3c0.1,0,0.2,0.1,0.2,0.2
						S249.3,294.1,249.2,294.1z M244.6,294.1h-2.3c-0.1,0-0.2-0.1-0.2-0.2s0.1-0.2,0.2-0.2h2.3c0.1,0,0.2,0.1,0.2,0.2
						S244.7,294.1,244.6,294.1z M240,294.1h-2.3c-0.1,0-0.2-0.1-0.2-0.2s0.1-0.2,0.2-0.2h2.3c0.1,0,0.2,0.1,0.2,0.2
						S240.1,294.1,240,294.1z M235.4,294.1h-2.3c-0.1,0-0.2-0.1-0.2-0.2s0.1-0.2,0.2-0.2h2.3c0.1,0,0.2,0.1,0.2,0.2
						S235.5,294.1,235.4,294.1z M230.8,294.1h-2.3c-0.1,0-0.2-0.1-0.2-0.2s0.1-0.2,0.2-0.2h2.3c0.1,0,0.2,0.1,0.2,0.2
						S230.9,294.1,230.8,294.1z M226.1,294.1h-2.3c-0.1,0-0.2-0.1-0.2-0.2s0.1-0.2,0.2-0.2h2.3c0.1,0,0.2,0.1,0.2,0.2
						S226.3,294.1,226.1,294.1z M221.5,294.1h-2.3c-0.1,0-0.2-0.1-0.2-0.2s0.1-0.2,0.2-0.2h2.3c0.1,0,0.2,0.1,0.2,0.2
						S221.7,294.1,221.5,294.1z M217,294.1h-2.3c-0.1,0-0.2-0.1-0.2-0.2s0.1-0.2,0.2-0.2h2.3c0.1,0,0.2,0.1,0.2,0.2
						S217,294.1,217,294.1z M212.3,294.1H210c-0.1,0-0.2-0.1-0.2-0.2s0.1-0.2,0.2-0.2h2.3c0.1,0,0.2,0.1,0.2,0.2
						S212.5,294.1,212.3,294.1z M207.7,294.1h-2.3c-0.1,0-0.2-0.1-0.2-0.2s0.1-0.2,0.2-0.2h2.3c0.1,0,0.2,0.1,0.2,0.2
						S207.9,294.1,207.7,294.1z M203.1,294.1h-2.3c-0.1,0-0.2-0.1-0.2-0.2s0.1-0.2,0.2-0.2h2.3c0.1,0,0.2,0.1,0.2,0.2
						S203.2,294.1,203.1,294.1z M198.5,294.1h-2.3c-0.1,0-0.2-0.1-0.2-0.2s0.1-0.2,0.2-0.2h2.3c0.1,0,0.2,0.1,0.2,0.2
						S198.6,294.1,198.5,294.1z M193.9,294.1h-2.3c-0.1,0-0.2-0.1-0.2-0.2s0.1-0.2,0.2-0.2h2.3c0.1,0,0.2,0.1,0.2,0.2
						S194,294.1,193.9,294.1z M189.3,294.1H187c-0.1,0-0.2-0.1-0.2-0.2s0.1-0.2,0.2-0.2h2.3c0.1,0,0.2,0.1,0.2,0.2
						S189.4,294.1,189.3,294.1z M184.7,294.1h-2.3c-0.1,0-0.2-0.1-0.2-0.2s0.1-0.2,0.2-0.2h2.3c0.1,0,0.2,0.1,0.2,0.2
						S184.8,294.1,184.7,294.1z"/>
					<path class="st12" d="M180.1,294.1h-1.2c-0.1,0-0.2-0.1-0.2-0.2v-1.2c0-0.1,0.1-0.2,0.2-0.2c0.1,0,0.2,0.1,0.2,0.2v0.9h0.9
						c0.1,0,0.2,0.1,0.2,0.2S180.2,294.1,180.1,294.1z"/>
					<path class="st12" d="M178.9,290.6c-0.1,0-0.2-0.1-0.2-0.2v-2.3c0-0.1,0.1-0.2,0.2-0.2c0.1,0,0.2,0.1,0.2,0.2v2.3
						C179.1,290.5,179,290.6,178.9,290.6z M178.9,286c-0.1,0-0.2-0.1-0.2-0.2v-2.3c0-0.1,0.1-0.2,0.2-0.2c0.1,0,0.2,0.1,0.2,0.2v2.3
						C179.1,285.9,179,286,178.9,286z M178.9,281.4c-0.1,0-0.2-0.1-0.2-0.2v-2.3c0-0.1,0.1-0.2,0.2-0.2c0.1,0,0.2,0.1,0.2,0.2v2.3
						C179.1,281.3,179,281.4,178.9,281.4z M178.9,276.8c-0.1,0-0.2-0.1-0.2-0.2v-2.3c0-0.1,0.1-0.2,0.2-0.2c0.1,0,0.2,0.1,0.2,0.2
						v2.3C179.1,276.7,179,276.8,178.9,276.8z M178.9,272.2c-0.1,0-0.2-0.1-0.2-0.2v-2.3c0-0.1,0.1-0.2,0.2-0.2
						c0.1,0,0.2,0.1,0.2,0.2v2.3C179.1,272.1,179,272.2,178.9,272.2z M178.9,267.6c-0.1,0-0.2-0.1-0.2-0.2v-2.3
						c0-0.1,0.1-0.2,0.2-0.2c0.1,0,0.2,0.1,0.2,0.2v2.3C179.1,267.5,179,267.6,178.9,267.6z M178.9,263c-0.1,0-0.2-0.1-0.2-0.2v-2.3
						c0-0.1,0.1-0.2,0.2-0.2c0.1,0,0.2,0.1,0.2,0.2v2.3C179.1,262.9,179,263,178.9,263z M178.9,258.4c-0.1,0-0.2-0.1-0.2-0.2v-2.3
						c0-0.1,0.1-0.2,0.2-0.2c0.1,0,0.2,0.1,0.2,0.2v2.3C179.1,258.3,179,258.4,178.9,258.4z M178.9,253.8c-0.1,0-0.2-0.1-0.2-0.2
						v-2.3c0-0.1,0.1-0.2,0.2-0.2c0.1,0,0.2,0.1,0.2,0.2v2.3C179.1,253.7,179,253.8,178.9,253.8z M178.9,249.2
						c-0.1,0-0.2-0.1-0.2-0.2v-2.3c0-0.1,0.1-0.2,0.2-0.2c0.1,0,0.2,0.1,0.2,0.2v2.3C179.1,249.1,179,249.2,178.9,249.2z
						 M178.9,244.6c-0.1,0-0.2-0.1-0.2-0.2v-2.3c0-0.1,0.1-0.2,0.2-0.2c0.1,0,0.2,0.1,0.2,0.2v2.3
						C179.1,244.5,179,244.6,178.9,244.6z M178.9,240c-0.1,0-0.2-0.1-0.2-0.2v-2.3c0-0.1,0.1-0.2,0.2-0.2c0.1,0,0.2,0.1,0.2,0.2v2.3
						C179.1,239.9,179,240,178.9,240z M178.9,235.4c-0.1,0-0.2-0.1-0.2-0.2v-2.3c0-0.1,0.1-0.2,0.2-0.2c0.1,0,0.2,0.1,0.2,0.2v2.3
						C179.1,235.2,179,235.4,178.9,235.4z M178.9,230.7c-0.1,0-0.2-0.1-0.2-0.2v-2.3c0-0.1,0.1-0.2,0.2-0.2c0.1,0,0.2,0.1,0.2,0.2
						v2.3C179.1,230.7,179,230.7,178.9,230.7z M178.9,226.1c-0.1,0-0.2-0.1-0.2-0.2v-2.3c0-0.1,0.1-0.2,0.2-0.2
						c0.1,0,0.2,0.1,0.2,0.2v2.3C179.1,226.1,179,226.1,178.9,226.1z M178.9,221.5c-0.1,0-0.2-0.1-0.2-0.2V219
						c0-0.1,0.1-0.2,0.2-0.2c0.1,0,0.2,0.1,0.2,0.2v2.3C179.1,221.4,179,221.5,178.9,221.5z"/>
					<path class="st12" d="M178.9,216.9c-0.1,0-0.2-0.1-0.2-0.2v-1.2c0-0.1,0.1-0.2,0.2-0.2h1.2c0.1,0,0.2,0.1,0.2,0.2
						c0,0.1-0.1,0.2-0.2,0.2h-0.9v0.9C179.1,216.8,179,216.9,178.9,216.9z"/>
					<path class="st12" d="M253.8,215.8h-2.3c-0.1,0-0.2-0.1-0.2-0.2c0-0.1,0.1-0.2,0.2-0.2h2.3c0.1,0,0.2,0.1,0.2,0.2
						S253.9,215.8,253.8,215.8z M249.2,215.8h-2.3c-0.1,0-0.2-0.1-0.2-0.2c0-0.1,0.1-0.2,0.2-0.2h2.3c0.1,0,0.2,0.1,0.2,0.2
						C249.4,215.7,249.3,215.8,249.2,215.8z M244.6,215.8h-2.3c-0.1,0-0.2-0.1-0.2-0.2c0-0.1,0.1-0.2,0.2-0.2h2.3
						c0.1,0,0.2,0.1,0.2,0.2C244.8,215.7,244.7,215.8,244.6,215.8z M240,215.8h-2.3c-0.1,0-0.2-0.1-0.2-0.2c0-0.1,0.1-0.2,0.2-0.2
						h2.3c0.1,0,0.2,0.1,0.2,0.2S240.1,215.8,240,215.8z M235.4,215.8h-2.3c-0.1,0-0.2-0.1-0.2-0.2c0-0.1,0.1-0.2,0.2-0.2h2.3
						c0.1,0,0.2,0.1,0.2,0.2S235.5,215.8,235.4,215.8z M230.8,215.8h-2.3c-0.1,0-0.2-0.1-0.2-0.2c0-0.1,0.1-0.2,0.2-0.2h2.3
						c0.1,0,0.2,0.1,0.2,0.2S230.9,215.8,230.8,215.8z M226.1,215.8h-2.3c-0.1,0-0.2-0.1-0.2-0.2c0-0.1,0.1-0.2,0.2-0.2h2.3
						c0.1,0,0.2,0.1,0.2,0.2C226.4,215.7,226.3,215.8,226.1,215.8z M221.5,215.8h-2.3c-0.1,0-0.2-0.1-0.2-0.2c0-0.1,0.1-0.2,0.2-0.2
						h2.3c0.1,0,0.2,0.1,0.2,0.2C221.8,215.7,221.7,215.8,221.5,215.8z M217,215.8h-2.3c-0.1,0-0.2-0.1-0.2-0.2
						c0-0.1,0.1-0.2,0.2-0.2h2.3c0.1,0,0.2,0.1,0.2,0.2S217,215.8,217,215.8z M212.3,215.8H210c-0.1,0-0.2-0.1-0.2-0.2
						c0-0.1,0.1-0.2,0.2-0.2h2.3c0.1,0,0.2,0.1,0.2,0.2C212.5,215.7,212.5,215.8,212.3,215.8z M207.7,215.8h-2.3
						c-0.1,0-0.2-0.1-0.2-0.2c0-0.1,0.1-0.2,0.2-0.2h2.3c0.1,0,0.2,0.1,0.2,0.2C207.9,215.7,207.9,215.8,207.7,215.8z M203.1,215.8
						h-2.3c-0.1,0-0.2-0.1-0.2-0.2c0-0.1,0.1-0.2,0.2-0.2h2.3c0.1,0,0.2,0.1,0.2,0.2C203.4,215.7,203.2,215.8,203.1,215.8z
						 M198.5,215.8h-2.3c-0.1,0-0.2-0.1-0.2-0.2c0-0.1,0.1-0.2,0.2-0.2h2.3c0.1,0,0.2,0.1,0.2,0.2
						C198.7,215.7,198.6,215.8,198.5,215.8z M193.9,215.8h-2.3c-0.1,0-0.2-0.1-0.2-0.2c0-0.1,0.1-0.2,0.2-0.2h2.3
						c0.1,0,0.2,0.1,0.2,0.2C194.1,215.7,194,215.8,193.9,215.8z M189.3,215.8H187c-0.1,0-0.2-0.1-0.2-0.2c0-0.1,0.1-0.2,0.2-0.2
						h2.3c0.1,0,0.2,0.1,0.2,0.2C189.5,215.7,189.4,215.8,189.3,215.8z M184.7,215.8h-2.3c-0.1,0-0.2-0.1-0.2-0.2
						c0-0.1,0.1-0.2,0.2-0.2h2.3c0.1,0,0.2,0.1,0.2,0.2C184.9,215.7,184.8,215.8,184.7,215.8z"/>
					<path class="st12" d="M257.3,216.9c-0.1,0-0.2-0.1-0.2-0.2v-0.9h-0.9c-0.1,0-0.2-0.1-0.2-0.2c0-0.1,0.1-0.2,0.2-0.2h1.2
						c0.1,0,0.2,0.1,0.2,0.2v1.2C257.5,216.8,257.4,216.9,257.3,216.9z"/>
					<path class="st12" d="M257.3,290.6c-0.1,0-0.2-0.1-0.2-0.2v-2.3c0-0.1,0.1-0.2,0.2-0.2s0.2,0.1,0.2,0.2v2.3
						C257.5,290.5,257.4,290.6,257.3,290.6z M257.3,286c-0.1,0-0.2-0.1-0.2-0.2v-2.3c0-0.1,0.1-0.2,0.2-0.2s0.2,0.1,0.2,0.2v2.3
						C257.5,285.9,257.4,286,257.3,286z M257.3,281.4c-0.1,0-0.2-0.1-0.2-0.2v-2.3c0-0.1,0.1-0.2,0.2-0.2s0.2,0.1,0.2,0.2v2.3
						C257.5,281.3,257.4,281.4,257.3,281.4z M257.3,276.8c-0.1,0-0.2-0.1-0.2-0.2v-2.3c0-0.1,0.1-0.2,0.2-0.2s0.2,0.1,0.2,0.2v2.3
						C257.5,276.7,257.4,276.8,257.3,276.8z M257.3,272.2c-0.1,0-0.2-0.1-0.2-0.2v-2.3c0-0.1,0.1-0.2,0.2-0.2s0.2,0.1,0.2,0.2v2.3
						C257.5,272.1,257.4,272.2,257.3,272.2z M257.3,267.6c-0.1,0-0.2-0.1-0.2-0.2v-2.3c0-0.1,0.1-0.2,0.2-0.2s0.2,0.1,0.2,0.2v2.3
						C257.5,267.5,257.4,267.6,257.3,267.6z M257.3,263c-0.1,0-0.2-0.1-0.2-0.2v-2.3c0-0.1,0.1-0.2,0.2-0.2s0.2,0.1,0.2,0.2v2.3
						C257.5,262.9,257.4,263,257.3,263z M257.3,258.4c-0.1,0-0.2-0.1-0.2-0.2v-2.3c0-0.1,0.1-0.2,0.2-0.2s0.2,0.1,0.2,0.2v2.3
						C257.5,258.3,257.4,258.4,257.3,258.4z M257.3,253.8c-0.1,0-0.2-0.1-0.2-0.2v-2.3c0-0.1,0.1-0.2,0.2-0.2s0.2,0.1,0.2,0.2v2.3
						C257.5,253.7,257.4,253.8,257.3,253.8z M257.3,249.2c-0.1,0-0.2-0.1-0.2-0.2v-2.3c0-0.1,0.1-0.2,0.2-0.2s0.2,0.1,0.2,0.2v2.3
						C257.5,249.1,257.4,249.2,257.3,249.2z M257.3,244.6c-0.1,0-0.2-0.1-0.2-0.2v-2.3c0-0.1,0.1-0.2,0.2-0.2s0.2,0.1,0.2,0.2v2.3
						C257.5,244.5,257.4,244.6,257.3,244.6z M257.3,240c-0.1,0-0.2-0.1-0.2-0.2v-2.3c0-0.1,0.1-0.2,0.2-0.2s0.2,0.1,0.2,0.2v2.3
						C257.5,239.9,257.4,240,257.3,240z M257.3,235.4c-0.1,0-0.2-0.1-0.2-0.2v-2.3c0-0.1,0.1-0.2,0.2-0.2s0.2,0.1,0.2,0.2v2.3
						C257.5,235.2,257.4,235.4,257.3,235.4z M257.3,230.7c-0.1,0-0.2-0.1-0.2-0.2v-2.3c0-0.1,0.1-0.2,0.2-0.2s0.2,0.1,0.2,0.2v2.3
						C257.5,230.7,257.4,230.7,257.3,230.7z M257.3,226.1c-0.1,0-0.2-0.1-0.2-0.2v-2.3c0-0.1,0.1-0.2,0.2-0.2s0.2,0.1,0.2,0.2v2.3
						C257.5,226.1,257.4,226.1,257.3,226.1z M257.3,221.5c-0.1,0-0.2-0.1-0.2-0.2V219c0-0.1,0.1-0.2,0.2-0.2s0.2,0.1,0.2,0.2v2.3
						C257.5,221.4,257.4,221.5,257.3,221.5z"/>
				</g>
				<rect x="176.6" y="213.2" class="st14" width="4.7" height="4.7"/>
				<rect x="254.9" y="213.2" class="st14" width="4.7" height="4.7"/>
				<rect x="176.6" y="291.5" class="st14" width="4.7" height="4.7"/>
				<g>
					<rect x="215.7" y="213.2" class="st14" width="4.7" height="4.7"/>
					<rect x="215.7" y="291.5" class="st14" width="4.7" height="4.7"/>
				</g>
				<rect x="254.9" y="291.5" class="st14" width="4.7" height="4.7"/>
				<g>
					<rect x="176.6" y="252.4" class="st14" width="4.7" height="4.7"/>
					<rect x="254.9" y="252.4" class="st14" width="4.7" height="4.7"/>
				</g>
			</g>
			<g>
				<path class="st13" d="M351.1,294.1h-1.2c-0.1,0-0.2-0.1-0.2-0.2s0.1-0.2,0.2-0.2h0.9v-0.9c0-0.1,0.1-0.2,0.2-0.2
					s0.2,0.1,0.2,0.2v1.2C351.3,294,351.2,294.1,351.1,294.1z"/>
				<path class="st13" d="M347.6,294.1h-2.3c-0.1,0-0.2-0.1-0.2-0.2s0.1-0.2,0.2-0.2h2.3c0.1,0,0.2,0.1,0.2,0.2
					S347.7,294.1,347.6,294.1z M343,294.1h-2.3c-0.1,0-0.2-0.1-0.2-0.2s0.1-0.2,0.2-0.2h2.3c0.1,0,0.2,0.1,0.2,0.2
					S343.1,294.1,343,294.1z M338.4,294.1h-2.3c-0.1,0-0.2-0.1-0.2-0.2s0.1-0.2,0.2-0.2h2.3c0.1,0,0.2,0.1,0.2,0.2
					S338.5,294.1,338.4,294.1z M333.8,294.1h-2.3c-0.1,0-0.2-0.1-0.2-0.2s0.1-0.2,0.2-0.2h2.3c0.1,0,0.2,0.1,0.2,0.2
					S333.9,294.1,333.8,294.1z M329.2,294.1h-2.3c-0.1,0-0.2-0.1-0.2-0.2s0.1-0.2,0.2-0.2h2.3c0.1,0,0.2,0.1,0.2,0.2
					S329.3,294.1,329.2,294.1z M324.6,294.1h-2.3c-0.1,0-0.2-0.1-0.2-0.2s0.1-0.2,0.2-0.2h2.3c0.1,0,0.2,0.1,0.2,0.2
					S324.7,294.1,324.6,294.1z M320,294.1h-2.3c-0.1,0-0.2-0.1-0.2-0.2s0.1-0.2,0.2-0.2h2.3c0.1,0,0.2,0.1,0.2,0.2
					S320.1,294.1,320,294.1z M315.4,294.1H313c-0.1,0-0.2-0.1-0.2-0.2s0.1-0.2,0.2-0.2h2.3c0.1,0,0.2,0.1,0.2,0.2
					S315.5,294.1,315.4,294.1z M310.8,294.1h-2.3c-0.1,0-0.2-0.1-0.2-0.2s0.1-0.2,0.2-0.2h2.3c0.1,0,0.2,0.1,0.2,0.2
					S310.9,294.1,310.8,294.1z M306.1,294.1h-2.3c-0.1,0-0.2-0.1-0.2-0.2s0.1-0.2,0.2-0.2h2.3c0.1,0,0.2,0.1,0.2,0.2
					S306.3,294.1,306.1,294.1z M301.5,294.1h-2.3c-0.1,0-0.2-0.1-0.2-0.2s0.1-0.2,0.2-0.2h2.3c0.1,0,0.2,0.1,0.2,0.2
					S301.7,294.1,301.5,294.1z M296.9,294.1h-2.3c-0.1,0-0.2-0.1-0.2-0.2s0.1-0.2,0.2-0.2h2.3c0.1,0,0.2,0.1,0.2,0.2
					S297,294.1,296.9,294.1z M292.3,294.1H290c-0.1,0-0.2-0.1-0.2-0.2s0.1-0.2,0.2-0.2h2.3c0.1,0,0.2,0.1,0.2,0.2
					S292.4,294.1,292.3,294.1z M287.7,294.1h-2.3c-0.1,0-0.2-0.1-0.2-0.2s0.1-0.2,0.2-0.2h2.3c0.1,0,0.2,0.1,0.2,0.2
					S287.8,294.1,287.7,294.1z M283.1,294.1h-2.3c-0.1,0-0.2-0.1-0.2-0.2s0.1-0.2,0.2-0.2h2.3c0.1,0,0.2,0.1,0.2,0.2
					S283.3,294.1,283.1,294.1z M278.5,294.1h-2.3c-0.1,0-0.2-0.1-0.2-0.2s0.1-0.2,0.2-0.2h2.3c0.1,0,0.2,0.1,0.2,0.2
					S278.6,294.1,278.5,294.1z"/>
				<path class="st13" d="M273.9,294.1h-1.2c-0.1,0-0.2-0.1-0.2-0.2v-1.2c0-0.1,0.1-0.2,0.2-0.2c0.1,0,0.2,0.1,0.2,0.2v0.9h0.9
					c0.1,0,0.2,0.1,0.2,0.2S274,294.1,273.9,294.1z"/>
				<path class="st13" d="M272.7,290.6c-0.1,0-0.2-0.1-0.2-0.2v-2.3c0-0.1,0.1-0.2,0.2-0.2c0.1,0,0.2,0.1,0.2,0.2v2.3
					C273,290.5,272.8,290.6,272.7,290.6z M272.7,286c-0.1,0-0.2-0.1-0.2-0.2v-2.3c0-0.1,0.1-0.2,0.2-0.2c0.1,0,0.2,0.1,0.2,0.2v2.3
					C273,285.9,272.8,286,272.7,286z M272.7,281.4c-0.1,0-0.2-0.1-0.2-0.2v-2.3c0-0.1,0.1-0.2,0.2-0.2c0.1,0,0.2,0.1,0.2,0.2v2.3
					C273,281.3,272.8,281.4,272.7,281.4z M272.7,276.8c-0.1,0-0.2-0.1-0.2-0.2v-2.3c0-0.1,0.1-0.2,0.2-0.2c0.1,0,0.2,0.1,0.2,0.2
					v2.3C273,276.7,272.8,276.8,272.7,276.8z M272.7,272.2c-0.1,0-0.2-0.1-0.2-0.2v-2.3c0-0.1,0.1-0.2,0.2-0.2
					c0.1,0,0.2,0.1,0.2,0.2v2.3C273,272.1,272.8,272.2,272.7,272.2z M272.7,267.6c-0.1,0-0.2-0.1-0.2-0.2v-2.3
					c0-0.1,0.1-0.2,0.2-0.2c0.1,0,0.2,0.1,0.2,0.2v2.3C273,267.5,272.8,267.6,272.7,267.6z M272.7,263c-0.1,0-0.2-0.1-0.2-0.2v-2.3
					c0-0.1,0.1-0.2,0.2-0.2c0.1,0,0.2,0.1,0.2,0.2v2.3C273,262.9,272.8,263,272.7,263z M272.7,258.4c-0.1,0-0.2-0.1-0.2-0.2v-2.3
					c0-0.1,0.1-0.2,0.2-0.2c0.1,0,0.2,0.1,0.2,0.2v2.3C273,258.3,272.8,258.4,272.7,258.4z M272.7,253.8c-0.1,0-0.2-0.1-0.2-0.2
					v-2.3c0-0.1,0.1-0.2,0.2-0.2c0.1,0,0.2,0.1,0.2,0.2v2.3C273,253.7,272.8,253.8,272.7,253.8z M272.7,249.2
					c-0.1,0-0.2-0.1-0.2-0.2v-2.3c0-0.1,0.1-0.2,0.2-0.2c0.1,0,0.2,0.1,0.2,0.2v2.3C273,249.1,272.8,249.2,272.7,249.2z
					 M272.7,244.6c-0.1,0-0.2-0.1-0.2-0.2v-2.3c0-0.1,0.1-0.2,0.2-0.2c0.1,0,0.2,0.1,0.2,0.2v2.3C273,244.5,272.8,244.6,272.7,244.6
					z M272.7,240c-0.1,0-0.2-0.1-0.2-0.2v-2.3c0-0.1,0.1-0.2,0.2-0.2c0.1,0,0.2,0.1,0.2,0.2v2.3C273,239.9,272.8,240,272.7,240z
					 M272.7,235.4c-0.1,0-0.2-0.1-0.2-0.2v-2.3c0-0.1,0.1-0.2,0.2-0.2c0.1,0,0.2,0.1,0.2,0.2v2.3C273,235.2,272.8,235.4,272.7,235.4
					z M272.7,230.7c-0.1,0-0.2-0.1-0.2-0.2v-2.3c0-0.1,0.1-0.2,0.2-0.2c0.1,0,0.2,0.1,0.2,0.2v2.3
					C273,230.7,272.8,230.7,272.7,230.7z M272.7,226.1c-0.1,0-0.2-0.1-0.2-0.2v-2.3c0-0.1,0.1-0.2,0.2-0.2c0.1,0,0.2,0.1,0.2,0.2
					v2.3C273,226.1,272.8,226.1,272.7,226.1z M272.7,221.5c-0.1,0-0.2-0.1-0.2-0.2V219c0-0.1,0.1-0.2,0.2-0.2c0.1,0,0.2,0.1,0.2,0.2
					v2.3C273,221.4,272.8,221.5,272.7,221.5z"/>
				<path class="st13" d="M272.7,216.9c-0.1,0-0.2-0.1-0.2-0.2v-1.2c0-0.1,0.1-0.2,0.2-0.2h1.2c0.1,0,0.2,0.1,0.2,0.2
					c0,0.1-0.1,0.2-0.2,0.2H273v0.9C273,216.8,272.8,216.9,272.7,216.9z"/>
				<path class="st13" d="M347.6,215.8h-2.3c-0.1,0-0.2-0.1-0.2-0.2c0-0.1,0.1-0.2,0.2-0.2h2.3c0.1,0,0.2,0.1,0.2,0.2
					S347.7,215.8,347.6,215.8z M343,215.8h-2.3c-0.1,0-0.2-0.1-0.2-0.2c0-0.1,0.1-0.2,0.2-0.2h2.3c0.1,0,0.2,0.1,0.2,0.2
					S343.1,215.8,343,215.8z M338.4,215.8h-2.3c-0.1,0-0.2-0.1-0.2-0.2c0-0.1,0.1-0.2,0.2-0.2h2.3c0.1,0,0.2,0.1,0.2,0.2
					S338.5,215.8,338.4,215.8z M333.8,215.8h-2.3c-0.1,0-0.2-0.1-0.2-0.2c0-0.1,0.1-0.2,0.2-0.2h2.3c0.1,0,0.2,0.1,0.2,0.2
					C334,215.7,333.9,215.8,333.8,215.8z M329.2,215.8h-2.3c-0.1,0-0.2-0.1-0.2-0.2c0-0.1,0.1-0.2,0.2-0.2h2.3
					c0.1,0,0.2,0.1,0.2,0.2S329.3,215.8,329.2,215.8z M324.6,215.8h-2.3c-0.1,0-0.2-0.1-0.2-0.2c0-0.1,0.1-0.2,0.2-0.2h2.3
					c0.1,0,0.2,0.1,0.2,0.2S324.7,215.8,324.6,215.8z M320,215.8h-2.3c-0.1,0-0.2-0.1-0.2-0.2c0-0.1,0.1-0.2,0.2-0.2h2.3
					c0.1,0,0.2,0.1,0.2,0.2S320.1,215.8,320,215.8z M315.4,215.8H313c-0.1,0-0.2-0.1-0.2-0.2c0-0.1,0.1-0.2,0.2-0.2h2.3
					c0.1,0,0.2,0.1,0.2,0.2C315.6,215.7,315.5,215.8,315.4,215.8z M310.8,215.8h-2.3c-0.1,0-0.2-0.1-0.2-0.2c0-0.1,0.1-0.2,0.2-0.2
					h2.3c0.1,0,0.2,0.1,0.2,0.2S310.9,215.8,310.8,215.8z M306.1,215.8h-2.3c-0.1,0-0.2-0.1-0.2-0.2c0-0.1,0.1-0.2,0.2-0.2h2.3
					c0.1,0,0.2,0.1,0.2,0.2S306.3,215.8,306.1,215.8z M301.5,215.8h-2.3c-0.1,0-0.2-0.1-0.2-0.2c0-0.1,0.1-0.2,0.2-0.2h2.3
					c0.1,0,0.2,0.1,0.2,0.2S301.7,215.8,301.5,215.8z M296.9,215.8h-2.3c-0.1,0-0.2-0.1-0.2-0.2c0-0.1,0.1-0.2,0.2-0.2h2.3
					c0.1,0,0.2,0.1,0.2,0.2C297.2,215.7,297,215.8,296.9,215.8z M292.3,215.8H290c-0.1,0-0.2-0.1-0.2-0.2c0-0.1,0.1-0.2,0.2-0.2h2.3
					c0.1,0,0.2,0.1,0.2,0.2C292.6,215.7,292.4,215.8,292.3,215.8z M287.7,215.8h-2.3c-0.1,0-0.2-0.1-0.2-0.2c0-0.1,0.1-0.2,0.2-0.2
					h2.3c0.1,0,0.2,0.1,0.2,0.2C287.9,215.7,287.8,215.8,287.7,215.8z M283.1,215.8h-2.3c-0.1,0-0.2-0.1-0.2-0.2
					c0-0.1,0.1-0.2,0.2-0.2h2.3c0.1,0,0.2,0.1,0.2,0.2S283.3,215.8,283.1,215.8z M278.5,215.8h-2.3c-0.1,0-0.2-0.1-0.2-0.2
					c0-0.1,0.1-0.2,0.2-0.2h2.3c0.1,0,0.2,0.1,0.2,0.2C278.7,215.7,278.6,215.8,278.5,215.8z"/>
				<path class="st13" d="M351.1,216.9c-0.1,0-0.2-0.1-0.2-0.2v-0.9h-0.9c-0.1,0-0.2-0.1-0.2-0.2c0-0.1,0.1-0.2,0.2-0.2h1.2
					c0.1,0,0.2,0.1,0.2,0.2v1.2C351.3,216.8,351.2,216.9,351.1,216.9z"/>
				<path class="st13" d="M351.1,290.6c-0.1,0-0.2-0.1-0.2-0.2v-2.3c0-0.1,0.1-0.2,0.2-0.2s0.2,0.1,0.2,0.2v2.3
					C351.3,290.5,351.2,290.6,351.1,290.6z M351.1,286c-0.1,0-0.2-0.1-0.2-0.2v-2.3c0-0.1,0.1-0.2,0.2-0.2s0.2,0.1,0.2,0.2v2.3
					C351.3,285.9,351.2,286,351.1,286z M351.1,281.4c-0.1,0-0.2-0.1-0.2-0.2v-2.3c0-0.1,0.1-0.2,0.2-0.2s0.2,0.1,0.2,0.2v2.3
					C351.3,281.3,351.2,281.4,351.1,281.4z M351.1,276.8c-0.1,0-0.2-0.1-0.2-0.2v-2.3c0-0.1,0.1-0.2,0.2-0.2s0.2,0.1,0.2,0.2v2.3
					C351.3,276.7,351.2,276.8,351.1,276.8z M351.1,272.2c-0.1,0-0.2-0.1-0.2-0.2v-2.3c0-0.1,0.1-0.2,0.2-0.2s0.2,0.1,0.2,0.2v2.3
					C351.3,272.1,351.2,272.2,351.1,272.2z M351.1,267.6c-0.1,0-0.2-0.1-0.2-0.2v-2.3c0-0.1,0.1-0.2,0.2-0.2s0.2,0.1,0.2,0.2v2.3
					C351.3,267.5,351.2,267.6,351.1,267.6z M351.1,263c-0.1,0-0.2-0.1-0.2-0.2v-2.3c0-0.1,0.1-0.2,0.2-0.2s0.2,0.1,0.2,0.2v2.3
					C351.3,262.9,351.2,263,351.1,263z M351.1,258.4c-0.1,0-0.2-0.1-0.2-0.2v-2.3c0-0.1,0.1-0.2,0.2-0.2s0.2,0.1,0.2,0.2v2.3
					C351.3,258.3,351.2,258.4,351.1,258.4z M351.1,253.8c-0.1,0-0.2-0.1-0.2-0.2v-2.3c0-0.1,0.1-0.2,0.2-0.2s0.2,0.1,0.2,0.2v2.3
					C351.3,253.7,351.2,253.8,351.1,253.8z M351.1,249.2c-0.1,0-0.2-0.1-0.2-0.2v-2.3c0-0.1,0.1-0.2,0.2-0.2s0.2,0.1,0.2,0.2v2.3
					C351.3,249.1,351.2,249.2,351.1,249.2z M351.1,244.6c-0.1,0-0.2-0.1-0.2-0.2v-2.3c0-0.1,0.1-0.2,0.2-0.2s0.2,0.1,0.2,0.2v2.3
					C351.3,244.5,351.2,244.6,351.1,244.6z M351.1,240c-0.1,0-0.2-0.1-0.2-0.2v-2.3c0-0.1,0.1-0.2,0.2-0.2s0.2,0.1,0.2,0.2v2.3
					C351.3,239.9,351.2,240,351.1,240z M351.1,235.4c-0.1,0-0.2-0.1-0.2-0.2v-2.3c0-0.1,0.1-0.2,0.2-0.2s0.2,0.1,0.2,0.2v2.3
					C351.3,235.2,351.2,235.4,351.1,235.4z M351.1,230.7c-0.1,0-0.2-0.1-0.2-0.2v-2.3c0-0.1,0.1-0.2,0.2-0.2s0.2,0.1,0.2,0.2v2.3
					C351.3,230.7,351.2,230.7,351.1,230.7z M351.1,226.1c-0.1,0-0.2-0.1-0.2-0.2v-2.3c0-0.1,0.1-0.2,0.2-0.2s0.2,0.1,0.2,0.2v2.3
					C351.3,226.1,351.2,226.1,351.1,226.1z M351.1,221.5c-0.1,0-0.2-0.1-0.2-0.2V219c0-0.1,0.1-0.2,0.2-0.2s0.2,0.1,0.2,0.2v2.3
					C351.3,221.4,351.2,221.5,351.1,221.5z"/>
			</g>
			<rect x="270.4" y="213.2" class="st15" width="4.7" height="4.7"/>
			<rect x="348.7" y="213.2" class="st15" width="4.7" height="4.7"/>
			<rect x="270.4" y="291.5" class="st15" width="4.7" height="4.7"/>
			<g>
				<rect x="309.6" y="213.2" class="st15" width="4.7" height="4.7"/>
				<rect x="309.6" y="291.5" class="st15" width="4.7" height="4.7"/>
			</g>
			<rect x="348.7" y="291.5" class="st15" width="4.7" height="4.7"/>
			<g>
				<rect x="270.4" y="252.4" class="st15" width="4.7" height="4.7"/>
				<rect x="348.7" y="252.4" class="st15" width="4.7" height="4.7"/>
			</g>
			<path class="st10" d="M251.9,263.5c-2.3-1.3-4.7-2.6-7.1-3.8c-2.9-1.4-6.1-2.7-9.4-2.3c-3.2,0.4-5.4,2.5-8,4.1
				c-7.3,4.5-14.5-1.4-19.8-6.2c-7-6.4-14.8-11.7-23.3-15.5v48.6h67.6L251.9,263.5L251.9,263.5z"/>
			
				<ellipse transform="matrix(0.1602 -0.9871 0.9871 0.1602 -59.7469 428.5246)" class="st4" cx="222" cy="249.4" rx="6.2" ry="6.2"/>
			<circle class="st10" cx="289.8" cy="236.1" r="6.2"/>
			<path class="st16" d="M345.7,233c-3.1,0.7-6,2-8.5,4c-6.6,5.2-8.8,13.6-12.1,20.9c-1.8,4-4.2,8.1-7.8,10.8
				c-4.4,3.4-9.9,3.4-15,1.8c-8.3-2.6-15.4-8.9-24.1-10.1v28.1h67.6L345.7,233L345.7,233z"/>
		</g>
		<path class="st6" d="M327.5,189.7H194.3c-3.6,0-6.6,3-6.6,6.6l0,0c0,3.6,3,6.6,6.6,6.6h133.2c3.6,0,6.6-3,6.6-6.6l0,0
			C334.1,192.7,331.2,189.7,327.5,189.7z"/>
		<path class="st6" d="M327.5,189.7H194.3c-3.6,0-6.6,3-6.6,6.6l0,0c0,3.6,3,6.6,6.6,6.6h133.2c3.6,0,6.6-3,6.6-6.6l0,0
			C334.1,192.7,331.2,189.7,327.5,189.7z"/>
		<g>
			<circle class="st6" cx="323.4" cy="167.4" r="9.2"/>
			<circle class="st6" cx="348.9" cy="167.4" r="9.2"/>
			<circle class="st6" cx="297.9" cy="167.4" r="9.2"/>
			
				<linearGradient id="SVGID_1_" gradientUnits="userSpaceOnUse" x1="290.6433" y1="-1220.6301" x2="305.23" y2="-1220.6301" gradientTransform="matrix(1 0 0 1 0 1388)">
				<stop  offset="0" style="stop-color:#F9A44E"/>
				<stop  offset="0.3285" style="stop-color:#F5842F"/>
				<stop  offset="0.6381" style="stop-color:#F47925"/>
				<stop  offset="1" style="stop-color:#F89843"/>
			</linearGradient>
			<circle class="st17" cx="297.9" cy="167.4" r="7.3"/>
			
				<linearGradient id="SVGID_2_" gradientUnits="userSpaceOnUse" x1="316.1209" y1="-1220.6301" x2="330.7076" y2="-1220.6301" gradientTransform="matrix(1 0 0 1 0 1388)">
				<stop  offset="0" style="stop-color:#F15B22"/>
				<stop  offset="0.5314" style="stop-color:#F47925"/>
				<stop  offset="1" style="stop-color:#F89843"/>
			</linearGradient>
			<circle class="st18" cx="323.4" cy="167.4" r="7.3"/>
			
				<linearGradient id="SVGID_3_" gradientUnits="userSpaceOnUse" x1="341.576" y1="-1220.6301" x2="356.1627" y2="-1220.6301" gradientTransform="matrix(1 0 0 1 0 1388)">
				<stop  offset="0" style="stop-color:#FEE394"/>
				<stop  offset="0.4414" style="stop-color:#FCB764"/>
				<stop  offset="1" style="stop-color:#F5842F"/>
			</linearGradient>
			<circle class="st19" cx="348.9" cy="167.4" r="7.3"/>
		</g>
		<path class="st20" d="M153.8,141.1L153.8,141.1c-3.7,0-6.8,3-6.8,6.8l0,0c0,3.7,3,6.8,6.8,6.8l0,0c3.7,0,6.8-3,6.8-6.8l0,0
			C160.6,144.1,157.6,141.1,153.8,141.1z"/>
		
			<linearGradient id="SVGID_4_" gradientUnits="userSpaceOnUse" x1="244.3573" y1="-1221.7303" x2="277.4485" y2="-1161.5267" gradientTransform="matrix(1 0 0 1 0 1388)">
			<stop  offset="0" style="stop-color:#F9A44E"/>
			<stop  offset="0.3285" style="stop-color:#F5842F"/>
			<stop  offset="0.6381" style="stop-color:#F47925"/>
			<stop  offset="1" style="stop-color:#F89843"/>
		</linearGradient>
		<path class="st21" d="M326.5,193.6H195.3c-1.5,0-2.7,1.2-2.7,2.7c0,1.5,1.2,2.7,2.7,2.7h131.3c1.5,0,2.7-1.2,2.7-2.7
			C329.3,194.9,328.1,193.6,326.5,193.6z"/>
		<path class="st14" d="M111.5,226.6c0,0-4.6,1.5-4.8,11.9s0.7,23.5-0.9,30.4c-1.7,6.9-5.1,24.8-8.2,32.3
			c-3.1,7.3-3.7,10.5-2.6,13.8c1.1,3.3,11.3-0.4,11.3-0.4l10.5-39.6c0,0,5.8-26.7,5.2-28.2C121.4,245.2,111.5,226.6,111.5,226.6z"/>
		
			<linearGradient id="SVGID_5_" gradientUnits="userSpaceOnUse" x1="-4276.6372" y1="-1123.2944" x2="-4292.0889" y2="-1133.2623" gradientTransform="matrix(-1 0 0 1 -4180 1388)">
			<stop  offset="0" style="stop-color:#FBB462"/>
			<stop  offset="1" style="stop-color:#F89843"/>
		</linearGradient>
		<path class="st22" d="M115,281.5c-0.2-0.2-0.4-0.4-0.6-0.5c-3.1-1.9-7-3.4-10.3-4.3c0.7-3.2,1.3-6,1.8-7.9
			c1.7-6.9,0.7-20,0.9-30.4c0.2-10.3,4.8-11.9,4.8-11.9s9.8,18.7,10.4,20.2s-5.2,28.2-5.2,28.2L115,281.5z"/>
		<path class="st14" d="M126.1,220.4c0,0,3.3,3.3,9.9-0.5s11.9-14.8,12.7-17.2c0.9-2.3,7.5-29.2,6.8-38.1c-0.7-8.9-3.2-20.5-2.1-20
			c1.1,0.5,2,7.3,3,7.7c1,0.4,6.7-0.4,7,2.5c0.4,2.8-2.2,8-2.2,11.6c0,3.6-0.9,36.2-1.4,38.8c-1.7,9.7-13.8,33.3-13.8,33.3
			l-14.7-4.2L126.1,220.4z"/>
		<path class="st14" d="M121.1,190.8c4.1-0.3,7.7,2.3,9.1,6.1c1.2,3.3,2.6,7.9,2.7,11.1c0.1,5.4-0.5,9.7-4.6,9.2
			c-4.1-0.4-8.7,1.2-13.6-4.2c-4.9-5.3-8.9-14.5-4.2-18C113.4,193,117.2,191,121.1,190.8z"/>
		<path class="st14" d="M126,217.3c0,0,1,4.8,3.2,5.3c2.2,0.5,16.1,13.5,16.8,15.8c0.7,2.3-0.6,10.8-2.1,13.2s-3.8,12-3,15.2
			c0.9,3.2,5.7,13.6,6.8,28.1s-3.2,39.8-4.7,51.2c-1.5,11.4-11.4,43.3-8.4,48.7c3,5.4,8,10.9,13.3,11.9c5.3,1,9,9.7-9.3,4.5
			s-22.5-7.7-18.1-13.1c4.5-5.4,7.2-13.1,6.4-28.2s2-31.9,3.2-36.4c1.2-4.5-6.7-39.8-6.7-39.8s-6.2,37.6-11.6,44.3
			c-5.4,6.7-42.3,34.4-45.7,39.1c-3.5,4.7-2,13.8-1,17.8c1,4,4.5,10.1,0.7,9.7c-3.7-0.5-7.7-2-10.4-12.9c-2.7-10.9-9.7-19.2,1-21.8
			c13.1-3.1,15.8-14.1,22-21.5c6.2-7.4,18.6-14.8,20.3-19.8c1.7-5,0.7-32.1,7.7-45.3c6.9-13.1,8-18.2,8-23.5c0-5.3-3.8-32.8-3-33.3
			c0.9-0.5,7.9-9.1,7.9-12C119.4,211.7,126,217.3,126,217.3z"/>
		
			<linearGradient id="SVGID_6_" gradientUnits="userSpaceOnUse" x1="-4328.1025" y1="-1146.1042" x2="-4294.3765" y2="-1167.3713" gradientTransform="matrix(-1 0 0 1 -4180 1388)">
			<stop  offset="0" style="stop-color:#FBB462"/>
			<stop  offset="1" style="stop-color:#F89843"/>
		</linearGradient>
		<path class="st23" d="M114.5,259.8c0-4-2.1-20.2-2.8-28.4l5.6-4.8l8.9-7.8l0.3,0.3c0.2,0.7,0.6,1.6,1.1,2.2c1.6,0.6,4.4,1,8.5-1.3
			c6.6-3.8,11.9-14.8,12.7-17.2c0.3-0.8,1.3-4.6,2.5-9.6c2.6,1.2,5.9,2.4,9.2,2.4c-0.2,5-0.4,8.8-0.5,9.6
			c-1.7,9.7-13.8,33.3-13.8,33.3c0.7,2.3-0.6,10.8-2.1,13.2c-1.5,2.5-3.8,12-3,15.2c0.3,1.1,1.1,3.2,2.1,6l-15,3.8l-16.6-3.6
			C114,266.9,114.5,263.4,114.5,259.8z"/>
		
			<linearGradient id="SVGID_7_" gradientUnits="userSpaceOnUse" x1="-4297.5952" y1="-1136.172" x2="-4297.6455" y2="-1184.5597" gradientTransform="matrix(-1 0 0 1 -4180 1388)">
			<stop  offset="0" style="stop-color:#F57E26"/>
			<stop  offset="1" style="stop-color:#F37021"/>
		</linearGradient>
		<path class="st24" d="M104.2,237.9c0.9,2-0.2,4.3-0.3,6.4c-0.1,1.5,0.2,3,1.1,4.3c1.7,2.3,4.8,3.3,7.5,3.3c2.2,0,4.4-0.5,6.6-0.8
			c2.5-0.3,4.6,0.1,7,0.6c3.4,0.7,6.6,0.2,8.4-3.1c1-1.8,1.1-3.8,0.8-5.8c0-1.2-0.4-2.4-0.8-3.5c0-0.1-0.1-0.1-0.1-0.2
			c-0.2-0.5-0.3-1-0.5-1.5c-0.1-0.2-0.2-0.4-0.4-0.5c-0.8-1.9-1.4-3.7-0.6-6c0.7-2.3,2-4.4,2-6.9c0.1-4.4-3.8-7.1-5.7-10.6
			c-2.6-5,2.6-9.6,1.9-14.8c-0.6-4.6-4.4-7.8-8.8-8.4c-0.1,0-0.1,0-0.2-0.1c-3.9-0.5-7.7,0.4-10.7,3c-3.1,2.7-4.6,6.6-5.4,10.5
			c-0.9,4.3-0.9,8.6-1.9,12.9c-1,4.1-3.8,7.6-4.2,11.8c-0.2,1.9,0.2,3.8,1.3,5.4C102.1,235.2,103.5,236.3,104.2,237.9z"/>
		<path class="st25" d="M122.9,394.8c4.7,2,11.2,10.1,16.3,11.4c2.2,0.5,3.6-0.2,4.4-1.2c1.4,0.9,2.9,1.5,4.3,1.8
			c5.3,1,9,9.7-9.3,4.5s-22.5-7.7-18.1-13.1C121.4,397.1,122.2,396,122.9,394.8z"/>
		<path class="st25" d="M55.5,391.6c-2.7-10.9-9.7-19.2,1-21.8c0.1,0,0.2,0,0.2-0.1c0.6,2,1.1,4.4,1.4,7.1c0.8,7.3,1.5,11.7,2.2,15
			c0.4,1.9,2.7,2.3,4.7,2.3c0,0.2,0.1,0.4,0.1,0.6c1,4,4.5,10.1,0.7,9.7C62.2,404,58.2,402.5,55.5,391.6z"/>
		
			<linearGradient id="SVGID_8_" gradientUnits="userSpaceOnUse" x1="-4297.2212" y1="-1045.9624" x2="-4297.2974" y2="-1119.4069" gradientTransform="matrix(-1 0 0 1 -4180 1388)">
			<stop  offset="0" style="stop-color:#F47925"/>
			<stop  offset="1" style="stop-color:#F36D21"/>
		</linearGradient>
		<path class="st26" d="M100.8,308c0.8-8.8,2.3-18.4,5.7-24.7c3.1-5.9,5.1-10.2,6.2-13.6c14.4,5.6,25.4,1.9,29.3,0.2
			c1.7,4.9,4.9,13.7,5.7,25c0.2,2.9,0.2,6.3,0.1,9.9l0,0c0,0-0.9,43.6,4.4,48.4c0,0-4.6,2.7-11.2,3.3c-4.6,0.6-8.9,0.8-13,0.6
			c-0.3,0-0.6,0-0.9,0c-13.6-1-28.5-7.1-28.5-7.1c-5.9-2.8-10.3-5.9-13.3-8.1c-1.8-1.4-3.1-5.3-3.1-5.3
			C96.3,333,99.9,314.8,100.8,308z"/>
		<g>
			<path class="st27" d="M132.9,272.4c0.4,0,0.7-0.1,1.1-0.2c3.3,24.1-0.9,48.4-1.3,72.6c-0.1,4.1,0,8.2,0.2,12.3
				c-0.4,0-0.7,0-1.1,0c-1.2-22.1,2.5-44.3,2.3-66.4C134.1,284.6,133.7,278.5,132.9,272.4z"/>
			<path class="st27" d="M94.2,347.7c5.4-6.7,7.9-15.3,9.7-23.7c2.5-11.8,5-23.5,8.4-35.1c1.7-5.9,3.6-11.7,5.4-17.5
				c0.4,0.1,0.7,0.2,1.1,0.3c-3.5,11.1-7,22.2-9.8,33.5c-2.8,11.4-3.9,23.7-8.7,34.5c-1.4,3-3,6-5.1,8.5
				C94.9,348,94.6,347.8,94.2,347.7z"/>
			<path class="st27" d="M123,329.5c1.3-6.2,2.8-12.4,3.6-18.7c0.9-6.6,1.1-13.2,1-19.8c-0.1-6.1-0.4-12.2-0.8-18.2
				c0.4,0,0.7,0,1.1,0c0.8,11.7,1.4,23.5,0.1,35.2c-1.4,12.7-5.2,24.9-6.8,37.6c-0.4,3.6-0.8,7.1-0.9,10.7c-0.4-0.1-0.7-0.1-1.1-0.2
				C119.7,347.1,121.1,338.2,123,329.5z"/>
			<path class="st27" d="M137.5,271.5c0.4-0.1,0.7-0.2,1.1-0.3c8.9,23.6,1.6,49.3,4.7,73.7c0.5,3.7,1.1,7.3,2.1,10.8
				c-0.4,0.1-0.7,0.2-1.1,0.2c-5.9-21-0.7-43.9-2.6-65.5C141.1,284,139.8,277.6,137.5,271.5z"/>
			<path class="st27" d="M109.6,327.4c2.9-12.3,7.5-24.2,9.8-36.7c1.1-6.2,1.7-12.5,1.2-18.7c0.4,0.1,0.8,0.1,1.1,0.2
				c0.8,11.4-1.8,22.7-4.9,33.6c-3.5,12.2-7.2,24.3-9,36.9c-0.5,3.3-0.9,6.6-1.1,10c-0.4-0.1-0.7-0.2-1.1-0.3
				C106.3,344,107.7,335.7,109.6,327.4z"/>
		</g>
	</g>
	<path class="st28" d="M360.6,118.1H73.8c-3.8,0-6.8,3.1-6.8,6.8V315c0,3.8,3.1,6.8,6.8,6.8h286.8c3.8,0,6.8-3.1,6.8-6.8V124.9
		C367.4,121.2,364.3,118.1,360.6,118.1z"/>
	<path class="st29" d="M360.4,118H73.9c-3.8,0-7,3.1-7,7v8.9h300.5V125C367.4,121.2,364.3,118,360.4,118z"/>
	<circle class="st28" cx="333.5" cy="125.9" r="2.3"/>
	<circle class="st30" cx="342.8" cy="125.9" r="2.3"/>
	<circle class="st31" cx="352.1" cy="125.9" r="2.3"/>
	<g>
		<path class="st32" d="M139.7,252.8H83.6c-1.4,0-2.5-1.1-2.5-2.5v-52.5c0-1.4,1.1-2.5,2.5-2.5h56.1c1.4,0,2.5,1.1,2.5,2.5v52.5
			C142.2,251.6,141.1,252.8,139.7,252.8z"/>
		<path class="st33" d="M137.6,195.3H85.7c-2.5,0-4.6,2.1-4.6,4.6v2h61.1v-2C142.2,197.3,140.1,195.3,137.6,195.3z"/>
	</g>
	<path class="st32" d="M224,156.2H102c-5.5,0-10,4.4-10,10l0,0c0,5.5,4.4,10,10,10h122c5.5,0,10-4.4,10-10l0,0
		C233.9,160.7,229.5,156.2,224,156.2z"/>
	<path class="st30" d="M116.5,159.5L116.5,159.5c-3.7,0-6.8,3-6.8,6.8l0,0c0,3.7,3,6.8,6.8,6.8l0,0c3.7,0,6.8-3,6.8-6.8l0,0
		C123.2,162.5,120.2,159.5,116.5,159.5z"/>
	<path class="st34" d="M135.1,159.5L135.1,159.5c-3.7,0-6.8,3-6.8,6.8l0,0c0,3.7,3,6.8,6.8,6.8l0,0c3.7,0,6.8-3,6.8-6.8l0,0
		C141.8,162.5,138.8,159.5,135.1,159.5z"/>
	<path class="st33" d="M153.7,159.5c-3.7,0-6.8,3-6.8,6.8l0,0c0,3.7,3,6.8,6.8,6.8c3.7,0,6.8-3,6.8-6.8l0,0
		C160.4,162.5,157.4,159.5,153.7,159.5z"/>
	<path class="st35" d="M172.3,159.5L172.3,159.5c-3.7,0-6.8,3-6.8,6.8l0,0c0,3.7,3,6.8,6.8,6.8l0,0c3.7,0,6.8-3,6.8-6.8l0,0
		C179,162.5,176,159.5,172.3,159.5z"/>
	<path class="st36" d="M190.9,159.5c-3.7,0-6.8,3-6.8,6.8l0,0c0,3.7,3,6.8,6.8,6.8c3.7,0,6.8-3,6.8-6.8l0,0
		C197.7,162.5,194.6,159.5,190.9,159.5z"/>
	<path class="st37" d="M209.5,159.5L209.5,159.5c-3.7,0-6.8,3-6.8,6.8l0,0c0,3.7,3,6.8,6.8,6.8l0,0c3.7,0,6.8-3,6.8-6.8l0,0
		C216.3,162.5,213.2,159.5,209.5,159.5z"/>
	<polygon class="st33" points="99.6,166.3 103.2,169.5 103.2,166.3 103.2,163.1 	"/>
	<polygon class="st33" points="224.7,166.3 221.1,163.1 221.1,166.3 221.1,169.5 	"/>
	<g>
		<rect x="184.1" y="219.9" class="st38" width="67.6" height="67.6"/>
		<rect x="277.9" y="219.9" class="st39" width="67.6" height="67.6"/>
		<g>
			<g>
				<path class="st38" d="M257.1,293h-1.2c-0.1,0-0.2-0.1-0.2-0.2s0.1-0.2,0.2-0.2h0.9v-0.9c0-0.1,0.1-0.2,0.2-0.2s0.2,0.1,0.2,0.2
					v1.2C257.3,292.9,257.2,293,257.1,293z"/>
				<path class="st38" d="M253.6,293h-2.3c-0.1,0-0.2-0.1-0.2-0.2s0.1-0.2,0.2-0.2h2.3c0.1,0,0.2,0.1,0.2,0.2S253.7,293,253.6,293z
					 M249,293h-2.3c-0.1,0-0.2-0.1-0.2-0.2s0.1-0.2,0.2-0.2h2.3c0.1,0,0.2,0.1,0.2,0.2S249.1,293,249,293z M244.4,293h-2.3
					c-0.1,0-0.2-0.1-0.2-0.2s0.1-0.2,0.2-0.2h2.3c0.1,0,0.2,0.1,0.2,0.2S244.5,293,244.4,293z M239.8,293h-2.3
					c-0.1,0-0.2-0.1-0.2-0.2s0.1-0.2,0.2-0.2h2.3c0.1,0,0.2,0.1,0.2,0.2S239.9,293,239.8,293z M235.2,293h-2.3
					c-0.1,0-0.2-0.1-0.2-0.2s0.1-0.2,0.2-0.2h2.3c0.1,0,0.2,0.1,0.2,0.2S235.3,293,235.2,293z M230.6,293h-2.3
					c-0.1,0-0.2-0.1-0.2-0.2s0.1-0.2,0.2-0.2h2.3c0.1,0,0.2,0.1,0.2,0.2S230.7,293,230.6,293z M226,293h-2.3c-0.1,0-0.2-0.1-0.2-0.2
					s0.1-0.2,0.2-0.2h2.3c0.1,0,0.2,0.1,0.2,0.2S226.1,293,226,293z M221.4,293h-2.3c-0.1,0-0.2-0.1-0.2-0.2s0.1-0.2,0.2-0.2h2.3
					c0.1,0,0.2,0.1,0.2,0.2S221.5,293,221.4,293z M216.8,293h-2.3c-0.1,0-0.2-0.1-0.2-0.2s0.1-0.2,0.2-0.2h2.3
					c0.1,0,0.2,0.1,0.2,0.2S216.9,293,216.8,293z M212.2,293h-2.3c-0.1,0-0.2-0.1-0.2-0.2s0.1-0.2,0.2-0.2h2.3
					c0.1,0,0.2,0.1,0.2,0.2S212.3,293,212.2,293z M207.5,293h-2.3c-0.1,0-0.2-0.1-0.2-0.2s0.1-0.2,0.2-0.2h2.3
					c0.1,0,0.2,0.1,0.2,0.2S207.7,293,207.5,293z M202.9,293h-2.3c-0.1,0-0.2-0.1-0.2-0.2s0.1-0.2,0.2-0.2h2.3
					c0.1,0,0.2,0.1,0.2,0.2S203.1,293,202.9,293z M198.4,293H196c-0.1,0-0.2-0.1-0.2-0.2s0.1-0.2,0.2-0.2h2.3c0.1,0,0.2,0.1,0.2,0.2
					S198.4,293,198.4,293z M193.8,293h-2.3c-0.1,0-0.2-0.1-0.2-0.2s0.1-0.2,0.2-0.2h2.3c0.1,0,0.2,0.1,0.2,0.2S193.9,293,193.8,293z
					 M189.1,293h-2.3c-0.1,0-0.2-0.1-0.2-0.2s0.1-0.2,0.2-0.2h2.3c0.1,0,0.2,0.1,0.2,0.2S189.3,293,189.1,293z M184.5,293h-2.3
					c-0.1,0-0.2-0.1-0.2-0.2s0.1-0.2,0.2-0.2h2.3c0.1,0,0.2,0.1,0.2,0.2S184.7,293,184.5,293z"/>
				<path class="st38" d="M179.9,293h-1.2c-0.1,0-0.2-0.1-0.2-0.2v-1.2c0-0.1,0.1-0.2,0.2-0.2c0.1,0,0.2,0.1,0.2,0.2v0.9h0.9
					c0.1,0,0.2,0.1,0.2,0.2S180,293,179.9,293z"/>
				<path class="st38" d="M178.8,289.5c-0.1,0-0.2-0.1-0.2-0.2V287c0-0.1,0.1-0.2,0.2-0.2c0.1,0,0.2,0.1,0.2,0.2v2.3
					C179,289.4,178.9,289.5,178.8,289.5z M178.8,284.9c-0.1,0-0.2-0.1-0.2-0.2v-2.3c0-0.1,0.1-0.2,0.2-0.2c0.1,0,0.2,0.1,0.2,0.2
					v2.3C179,284.8,178.9,284.9,178.8,284.9z M178.8,280.3c-0.1,0-0.2-0.1-0.2-0.2v-2.3c0-0.1,0.1-0.2,0.2-0.2
					c0.1,0,0.2,0.1,0.2,0.2v2.3C179,280.2,178.9,280.3,178.8,280.3z M178.8,275.7c-0.1,0-0.2-0.1-0.2-0.2v-2.3
					c0-0.1,0.1-0.2,0.2-0.2c0.1,0,0.2,0.1,0.2,0.2v2.3C179,275.6,178.9,275.7,178.8,275.7z M178.8,271.1c-0.1,0-0.2-0.1-0.2-0.2
					v-2.3c0-0.1,0.1-0.2,0.2-0.2c0.1,0,0.2,0.1,0.2,0.2v2.3C179,271,178.9,271.1,178.8,271.1z M178.8,266.5c-0.1,0-0.2-0.1-0.2-0.2
					V264c0-0.1,0.1-0.2,0.2-0.2c0.1,0,0.2,0.1,0.2,0.2v2.3C179,266.4,178.9,266.5,178.8,266.5z M178.8,261.9c-0.1,0-0.2-0.1-0.2-0.2
					v-2.3c0-0.1,0.1-0.2,0.2-0.2c0.1,0,0.2,0.1,0.2,0.2v2.3C179,261.8,178.9,261.9,178.8,261.9z M178.8,257.3
					c-0.1,0-0.2-0.1-0.2-0.2v-2.3c0-0.1,0.1-0.2,0.2-0.2c0.1,0,0.2,0.1,0.2,0.2v2.3C179,257.2,178.9,257.3,178.8,257.3z
					 M178.8,252.7c-0.1,0-0.2-0.1-0.2-0.2v-2.3c0-0.1,0.1-0.2,0.2-0.2c0.1,0,0.2,0.1,0.2,0.2v2.3C179,252.6,178.9,252.7,178.8,252.7
					z M178.8,248.1c-0.1,0-0.2-0.1-0.2-0.2v-2.3c0-0.1,0.1-0.2,0.2-0.2c0.1,0,0.2,0.1,0.2,0.2v2.3C179,248,178.9,248.1,178.8,248.1z
					 M178.8,243.5c-0.1,0-0.2-0.1-0.2-0.2v-2.3c0-0.1,0.1-0.2,0.2-0.2c0.1,0,0.2,0.1,0.2,0.2v2.3C179,243.4,178.9,243.5,178.8,243.5
					z M178.8,238.9c-0.1,0-0.2-0.1-0.2-0.2v-2.3c0-0.1,0.1-0.2,0.2-0.2c0.1,0,0.2,0.1,0.2,0.2v2.3
					C179,238.8,178.9,238.9,178.8,238.9z M178.8,234.3c-0.1,0-0.2-0.1-0.2-0.2v-2.3c0-0.1,0.1-0.2,0.2-0.2c0.1,0,0.2,0.1,0.2,0.2
					v2.3C179,234.1,178.9,234.3,178.8,234.3z M178.8,229.6c-0.1,0-0.2-0.1-0.2-0.2v-2.3c0-0.1,0.1-0.2,0.2-0.2
					c0.1,0,0.2,0.1,0.2,0.2v2.3C179,229.6,178.9,229.6,178.8,229.6z M178.8,225c-0.1,0-0.2-0.1-0.2-0.2v-2.3c0-0.1,0.1-0.2,0.2-0.2
					c0.1,0,0.2,0.1,0.2,0.2v2.3C179,225,178.9,225,178.8,225z M178.8,220.4c-0.1,0-0.2-0.1-0.2-0.2v-2.3c0-0.1,0.1-0.2,0.2-0.2
					c0.1,0,0.2,0.1,0.2,0.2v2.3C179,220.3,178.9,220.4,178.8,220.4z"/>
				<path class="st38" d="M178.8,215.8c-0.1,0-0.2-0.1-0.2-0.2v-1.2c0-0.1,0.1-0.2,0.2-0.2h1.2c0.1,0,0.2,0.1,0.2,0.2
					c0,0.1-0.1,0.2-0.2,0.2H179v0.9C179,215.7,178.9,215.8,178.8,215.8z"/>
				<path class="st38" d="M253.6,214.7h-2.3c-0.1,0-0.2-0.1-0.2-0.2c0-0.1,0.1-0.2,0.2-0.2h2.3c0.1,0,0.2,0.1,0.2,0.2
					S253.7,214.7,253.6,214.7z M249,214.7h-2.3c-0.1,0-0.2-0.1-0.2-0.2c0-0.1,0.1-0.2,0.2-0.2h2.3c0.1,0,0.2,0.1,0.2,0.2
					C249.2,214.6,249.1,214.7,249,214.7z M244.4,214.7h-2.3c-0.1,0-0.2-0.1-0.2-0.2c0-0.1,0.1-0.2,0.2-0.2h2.3
					c0.1,0,0.2,0.1,0.2,0.2C244.6,214.6,244.5,214.7,244.4,214.7z M239.8,214.7h-2.3c-0.1,0-0.2-0.1-0.2-0.2c0-0.1,0.1-0.2,0.2-0.2
					h2.3c0.1,0,0.2,0.1,0.2,0.2S239.9,214.7,239.8,214.7z M235.2,214.7h-2.3c-0.1,0-0.2-0.1-0.2-0.2c0-0.1,0.1-0.2,0.2-0.2h2.3
					c0.1,0,0.2,0.1,0.2,0.2S235.3,214.7,235.2,214.7z M230.6,214.7h-2.3c-0.1,0-0.2-0.1-0.2-0.2c0-0.1,0.1-0.2,0.2-0.2h2.3
					c0.1,0,0.2,0.1,0.2,0.2S230.7,214.7,230.6,214.7z M226,214.7h-2.3c-0.1,0-0.2-0.1-0.2-0.2c0-0.1,0.1-0.2,0.2-0.2h2.3
					c0.1,0,0.2,0.1,0.2,0.2C226.2,214.6,226.1,214.7,226,214.7z M221.4,214.7h-2.3c-0.1,0-0.2-0.1-0.2-0.2c0-0.1,0.1-0.2,0.2-0.2
					h2.3c0.1,0,0.2,0.1,0.2,0.2C221.6,214.6,221.5,214.7,221.4,214.7z M216.8,214.7h-2.3c-0.1,0-0.2-0.1-0.2-0.2
					c0-0.1,0.1-0.2,0.2-0.2h2.3c0.1,0,0.2,0.1,0.2,0.2S216.9,214.7,216.8,214.7z M212.2,214.7h-2.3c-0.1,0-0.2-0.1-0.2-0.2
					c0-0.1,0.1-0.2,0.2-0.2h2.3c0.1,0,0.2,0.1,0.2,0.2C212.4,214.6,212.3,214.7,212.2,214.7z M207.5,214.7h-2.3
					c-0.1,0-0.2-0.1-0.2-0.2c0-0.1,0.1-0.2,0.2-0.2h2.3c0.1,0,0.2,0.1,0.2,0.2C207.8,214.6,207.7,214.7,207.5,214.7z M202.9,214.7
					h-2.3c-0.1,0-0.2-0.1-0.2-0.2c0-0.1,0.1-0.2,0.2-0.2h2.3c0.1,0,0.2,0.1,0.2,0.2C203.2,214.6,203.1,214.7,202.9,214.7z
					 M198.4,214.7H196c-0.1,0-0.2-0.1-0.2-0.2c0-0.1,0.1-0.2,0.2-0.2h2.3c0.1,0,0.2,0.1,0.2,0.2
					C198.6,214.6,198.4,214.7,198.4,214.7z M193.8,214.7h-2.3c-0.1,0-0.2-0.1-0.2-0.2c0-0.1,0.1-0.2,0.2-0.2h2.3
					c0.1,0,0.2,0.1,0.2,0.2C194,214.6,193.9,214.7,193.8,214.7z M189.1,214.7h-2.3c-0.1,0-0.2-0.1-0.2-0.2c0-0.1,0.1-0.2,0.2-0.2
					h2.3c0.1,0,0.2,0.1,0.2,0.2C189.4,214.6,189.3,214.7,189.1,214.7z M184.5,214.7h-2.3c-0.1,0-0.2-0.1-0.2-0.2
					c0-0.1,0.1-0.2,0.2-0.2h2.3c0.1,0,0.2,0.1,0.2,0.2C184.7,214.6,184.7,214.7,184.5,214.7z"/>
				<path class="st38" d="M257.1,215.8c-0.1,0-0.2-0.1-0.2-0.2v-0.9h-0.9c-0.1,0-0.2-0.1-0.2-0.2c0-0.1,0.1-0.2,0.2-0.2h1.2
					c0.1,0,0.2,0.1,0.2,0.2v1.2C257.3,215.7,257.2,215.8,257.1,215.8z"/>
				<path class="st38" d="M257.1,289.5c-0.1,0-0.2-0.1-0.2-0.2V287c0-0.1,0.1-0.2,0.2-0.2s0.2,0.1,0.2,0.2v2.3
					C257.3,289.4,257.2,289.5,257.1,289.5z M257.1,284.9c-0.1,0-0.2-0.1-0.2-0.2v-2.3c0-0.1,0.1-0.2,0.2-0.2s0.2,0.1,0.2,0.2v2.3
					C257.3,284.8,257.2,284.9,257.1,284.9z M257.1,280.3c-0.1,0-0.2-0.1-0.2-0.2v-2.3c0-0.1,0.1-0.2,0.2-0.2s0.2,0.1,0.2,0.2v2.3
					C257.3,280.2,257.2,280.3,257.1,280.3z M257.1,275.7c-0.1,0-0.2-0.1-0.2-0.2v-2.3c0-0.1,0.1-0.2,0.2-0.2s0.2,0.1,0.2,0.2v2.3
					C257.3,275.6,257.2,275.7,257.1,275.7z M257.1,271.1c-0.1,0-0.2-0.1-0.2-0.2v-2.3c0-0.1,0.1-0.2,0.2-0.2s0.2,0.1,0.2,0.2v2.3
					C257.3,271,257.2,271.1,257.1,271.1z M257.1,266.5c-0.1,0-0.2-0.1-0.2-0.2V264c0-0.1,0.1-0.2,0.2-0.2s0.2,0.1,0.2,0.2v2.3
					C257.3,266.4,257.2,266.5,257.1,266.5z M257.1,261.9c-0.1,0-0.2-0.1-0.2-0.2v-2.3c0-0.1,0.1-0.2,0.2-0.2s0.2,0.1,0.2,0.2v2.3
					C257.3,261.8,257.2,261.9,257.1,261.9z M257.1,257.3c-0.1,0-0.2-0.1-0.2-0.2v-2.3c0-0.1,0.1-0.2,0.2-0.2s0.2,0.1,0.2,0.2v2.3
					C257.3,257.2,257.2,257.3,257.1,257.3z M257.1,252.7c-0.1,0-0.2-0.1-0.2-0.2v-2.3c0-0.1,0.1-0.2,0.2-0.2s0.2,0.1,0.2,0.2v2.3
					C257.3,252.6,257.2,252.7,257.1,252.7z M257.1,248.1c-0.1,0-0.2-0.1-0.2-0.2v-2.3c0-0.1,0.1-0.2,0.2-0.2s0.2,0.1,0.2,0.2v2.3
					C257.3,248,257.2,248.1,257.1,248.1z M257.1,243.5c-0.1,0-0.2-0.1-0.2-0.2v-2.3c0-0.1,0.1-0.2,0.2-0.2s0.2,0.1,0.2,0.2v2.3
					C257.3,243.4,257.2,243.5,257.1,243.5z M257.1,238.9c-0.1,0-0.2-0.1-0.2-0.2v-2.3c0-0.1,0.1-0.2,0.2-0.2s0.2,0.1,0.2,0.2v2.3
					C257.3,238.8,257.2,238.9,257.1,238.9z M257.1,234.3c-0.1,0-0.2-0.1-0.2-0.2v-2.3c0-0.1,0.1-0.2,0.2-0.2s0.2,0.1,0.2,0.2v2.3
					C257.3,234.1,257.2,234.3,257.1,234.3z M257.1,229.6c-0.1,0-0.2-0.1-0.2-0.2v-2.3c0-0.1,0.1-0.2,0.2-0.2s0.2,0.1,0.2,0.2v2.3
					C257.3,229.6,257.2,229.6,257.1,229.6z M257.1,225c-0.1,0-0.2-0.1-0.2-0.2v-2.3c0-0.1,0.1-0.2,0.2-0.2s0.2,0.1,0.2,0.2v2.3
					C257.3,225,257.2,225,257.1,225z M257.1,220.4c-0.1,0-0.2-0.1-0.2-0.2v-2.3c0-0.1,0.1-0.2,0.2-0.2s0.2,0.1,0.2,0.2v2.3
					C257.3,220.3,257.2,220.4,257.1,220.4z"/>
			</g>
			<rect x="176.4" y="212.1" class="st40" width="4.7" height="4.7"/>
			<rect x="254.7" y="212.1" class="st40" width="4.7" height="4.7"/>
			<rect x="176.4" y="290.4" class="st40" width="4.7" height="4.7"/>
			<g>
				<rect x="215.6" y="212.1" class="st40" width="4.7" height="4.7"/>
				<rect x="215.6" y="290.4" class="st40" width="4.7" height="4.7"/>
			</g>
			<rect x="254.7" y="290.4" class="st40" width="4.7" height="4.7"/>
			<g>
				<rect x="176.4" y="251.3" class="st40" width="4.7" height="4.7"/>
				<rect x="254.7" y="251.3" class="st40" width="4.7" height="4.7"/>
			</g>
		</g>
		<g>
			<path class="st39" d="M350.9,293h-1.2c-0.1,0-0.2-0.1-0.2-0.2s0.1-0.2,0.2-0.2h0.9v-0.9c0-0.1,0.1-0.2,0.2-0.2s0.2,0.1,0.2,0.2
				v1.2C351.1,292.9,351,293,350.9,293z"/>
			<path class="st39" d="M347.4,293h-2.3c-0.1,0-0.2-0.1-0.2-0.2s0.1-0.2,0.2-0.2h2.3c0.1,0,0.2,0.1,0.2,0.2S347.5,293,347.4,293z
				 M342.8,293h-2.3c-0.1,0-0.2-0.1-0.2-0.2s0.1-0.2,0.2-0.2h2.3c0.1,0,0.2,0.1,0.2,0.2S343,293,342.8,293z M338.2,293h-2.3
				c-0.1,0-0.2-0.1-0.2-0.2s0.1-0.2,0.2-0.2h2.3c0.1,0,0.2,0.1,0.2,0.2S338.3,293,338.2,293z M333.6,293h-2.3
				c-0.1,0-0.2-0.1-0.2-0.2s0.1-0.2,0.2-0.2h2.3c0.1,0,0.2,0.1,0.2,0.2S333.7,293,333.6,293z M329,293h-2.3c-0.1,0-0.2-0.1-0.2-0.2
				s0.1-0.2,0.2-0.2h2.3c0.1,0,0.2,0.1,0.2,0.2S329.1,293,329,293z M324.4,293h-2.3c-0.1,0-0.2-0.1-0.2-0.2s0.1-0.2,0.2-0.2h2.3
				c0.1,0,0.2,0.1,0.2,0.2S324.5,293,324.4,293z M319.8,293h-2.3c-0.1,0-0.2-0.1-0.2-0.2s0.1-0.2,0.2-0.2h2.3c0.1,0,0.2,0.1,0.2,0.2
				S319.9,293,319.8,293z M315.2,293h-2.3c-0.1,0-0.2-0.1-0.2-0.2s0.1-0.2,0.2-0.2h2.3c0.1,0,0.2,0.1,0.2,0.2S315.3,293,315.2,293z
				 M310.6,293h-2.3c-0.1,0-0.2-0.1-0.2-0.2s0.1-0.2,0.2-0.2h2.3c0.1,0,0.2,0.1,0.2,0.2S310.7,293,310.6,293z M306,293h-2.3
				c-0.1,0-0.2-0.1-0.2-0.2s0.1-0.2,0.2-0.2h2.3c0.1,0,0.2,0.1,0.2,0.2S306.1,293,306,293z M301.4,293h-2.3c-0.1,0-0.2-0.1-0.2-0.2
				s0.1-0.2,0.2-0.2h2.3c0.1,0,0.2,0.1,0.2,0.2S301.5,293,301.4,293z M296.8,293h-2.3c-0.1,0-0.2-0.1-0.2-0.2s0.1-0.2,0.2-0.2h2.3
				c0.1,0,0.2,0.1,0.2,0.2S296.9,293,296.8,293z M292.2,293h-2.3c-0.1,0-0.2-0.1-0.2-0.2s0.1-0.2,0.2-0.2h2.3c0.1,0,0.2,0.1,0.2,0.2
				S292.3,293,292.2,293z M287.6,293h-2.3c-0.1,0-0.2-0.1-0.2-0.2s0.1-0.2,0.2-0.2h2.3c0.1,0,0.2,0.1,0.2,0.2S287.7,293,287.6,293z
				 M282.9,293h-2.3c-0.1,0-0.2-0.1-0.2-0.2s0.1-0.2,0.2-0.2h2.3c0.1,0,0.2,0.1,0.2,0.2S283.1,293,282.9,293z M278.3,293H276
				c-0.1,0-0.2-0.1-0.2-0.2s0.1-0.2,0.2-0.2h2.3c0.1,0,0.2,0.1,0.2,0.2S278.5,293,278.3,293z"/>
			<path class="st39" d="M273.7,293h-1.2c-0.1,0-0.2-0.1-0.2-0.2v-1.2c0-0.1,0.1-0.2,0.2-0.2c0.1,0,0.2,0.1,0.2,0.2v0.9h0.9
				c0.1,0,0.2,0.1,0.2,0.2S273.8,293,273.7,293z"/>
			<path class="st39" d="M272.6,289.5c-0.1,0-0.2-0.1-0.2-0.2V287c0-0.1,0.1-0.2,0.2-0.2c0.1,0,0.2,0.1,0.2,0.2v2.3
				C272.8,289.4,272.7,289.5,272.6,289.5z M272.6,284.9c-0.1,0-0.2-0.1-0.2-0.2v-2.3c0-0.1,0.1-0.2,0.2-0.2c0.1,0,0.2,0.1,0.2,0.2
				v2.3C272.8,284.8,272.7,284.9,272.6,284.9z M272.6,280.3c-0.1,0-0.2-0.1-0.2-0.2v-2.3c0-0.1,0.1-0.2,0.2-0.2
				c0.1,0,0.2,0.1,0.2,0.2v2.3C272.8,280.2,272.7,280.3,272.6,280.3z M272.6,275.7c-0.1,0-0.2-0.1-0.2-0.2v-2.3
				c0-0.1,0.1-0.2,0.2-0.2c0.1,0,0.2,0.1,0.2,0.2v2.3C272.8,275.6,272.7,275.7,272.6,275.7z M272.6,271.1c-0.1,0-0.2-0.1-0.2-0.2
				v-2.3c0-0.1,0.1-0.2,0.2-0.2c0.1,0,0.2,0.1,0.2,0.2v2.3C272.8,271,272.7,271.1,272.6,271.1z M272.6,266.5c-0.1,0-0.2-0.1-0.2-0.2
				V264c0-0.1,0.1-0.2,0.2-0.2c0.1,0,0.2,0.1,0.2,0.2v2.3C272.8,266.4,272.7,266.5,272.6,266.5z M272.6,261.9
				c-0.1,0-0.2-0.1-0.2-0.2v-2.3c0-0.1,0.1-0.2,0.2-0.2c0.1,0,0.2,0.1,0.2,0.2v2.3C272.8,261.8,272.7,261.9,272.6,261.9z
				 M272.6,257.3c-0.1,0-0.2-0.1-0.2-0.2v-2.3c0-0.1,0.1-0.2,0.2-0.2c0.1,0,0.2,0.1,0.2,0.2v2.3
				C272.8,257.2,272.7,257.3,272.6,257.3z M272.6,252.7c-0.1,0-0.2-0.1-0.2-0.2v-2.3c0-0.1,0.1-0.2,0.2-0.2c0.1,0,0.2,0.1,0.2,0.2
				v2.3C272.8,252.6,272.7,252.7,272.6,252.7z M272.6,248.1c-0.1,0-0.2-0.1-0.2-0.2v-2.3c0-0.1,0.1-0.2,0.2-0.2
				c0.1,0,0.2,0.1,0.2,0.2v2.3C272.8,248,272.7,248.1,272.6,248.1z M272.6,243.5c-0.1,0-0.2-0.1-0.2-0.2v-2.3c0-0.1,0.1-0.2,0.2-0.2
				c0.1,0,0.2,0.1,0.2,0.2v2.3C272.8,243.4,272.7,243.5,272.6,243.5z M272.6,238.9c-0.1,0-0.2-0.1-0.2-0.2v-2.3
				c0-0.1,0.1-0.2,0.2-0.2c0.1,0,0.2,0.1,0.2,0.2v2.3C272.8,238.8,272.7,238.9,272.6,238.9z M272.6,234.3c-0.1,0-0.2-0.1-0.2-0.2
				v-2.3c0-0.1,0.1-0.2,0.2-0.2c0.1,0,0.2,0.1,0.2,0.2v2.3C272.8,234.1,272.7,234.3,272.6,234.3z M272.6,229.6
				c-0.1,0-0.2-0.1-0.2-0.2v-2.3c0-0.1,0.1-0.2,0.2-0.2c0.1,0,0.2,0.1,0.2,0.2v2.3C272.8,229.6,272.7,229.6,272.6,229.6z M272.6,225
				c-0.1,0-0.2-0.1-0.2-0.2v-2.3c0-0.1,0.1-0.2,0.2-0.2c0.1,0,0.2,0.1,0.2,0.2v2.3C272.8,225,272.7,225,272.6,225z M272.6,220.4
				c-0.1,0-0.2-0.1-0.2-0.2v-2.3c0-0.1,0.1-0.2,0.2-0.2c0.1,0,0.2,0.1,0.2,0.2v2.3C272.8,220.3,272.7,220.4,272.6,220.4z"/>
			<path class="st39" d="M272.6,215.8c-0.1,0-0.2-0.1-0.2-0.2v-1.2c0-0.1,0.1-0.2,0.2-0.2h1.2c0.1,0,0.2,0.1,0.2,0.2
				c0,0.1-0.1,0.2-0.2,0.2h-0.9v0.9C272.8,215.7,272.7,215.8,272.6,215.8z"/>
			<path class="st39" d="M347.4,214.7h-2.3c-0.1,0-0.2-0.1-0.2-0.2c0-0.1,0.1-0.2,0.2-0.2h2.3c0.1,0,0.2,0.1,0.2,0.2
				S347.5,214.7,347.4,214.7z M342.8,214.7h-2.3c-0.1,0-0.2-0.1-0.2-0.2c0-0.1,0.1-0.2,0.2-0.2h2.3c0.1,0,0.2,0.1,0.2,0.2
				S343,214.7,342.8,214.7z M338.2,214.7h-2.3c-0.1,0-0.2-0.1-0.2-0.2c0-0.1,0.1-0.2,0.2-0.2h2.3c0.1,0,0.2,0.1,0.2,0.2
				S338.3,214.7,338.2,214.7z M333.6,214.7h-2.3c-0.1,0-0.2-0.1-0.2-0.2c0-0.1,0.1-0.2,0.2-0.2h2.3c0.1,0,0.2,0.1,0.2,0.2
				C333.8,214.6,333.7,214.7,333.6,214.7z M329,214.7h-2.3c-0.1,0-0.2-0.1-0.2-0.2c0-0.1,0.1-0.2,0.2-0.2h2.3c0.1,0,0.2,0.1,0.2,0.2
				S329.1,214.7,329,214.7z M324.4,214.7h-2.3c-0.1,0-0.2-0.1-0.2-0.2c0-0.1,0.1-0.2,0.2-0.2h2.3c0.1,0,0.2,0.1,0.2,0.2
				S324.5,214.7,324.4,214.7z M319.8,214.7h-2.3c-0.1,0-0.2-0.1-0.2-0.2c0-0.1,0.1-0.2,0.2-0.2h2.3c0.1,0,0.2,0.1,0.2,0.2
				S319.9,214.7,319.8,214.7z M315.2,214.7h-2.3c-0.1,0-0.2-0.1-0.2-0.2c0-0.1,0.1-0.2,0.2-0.2h2.3c0.1,0,0.2,0.1,0.2,0.2
				C315.4,214.6,315.3,214.7,315.2,214.7z M310.6,214.7h-2.3c-0.1,0-0.2-0.1-0.2-0.2c0-0.1,0.1-0.2,0.2-0.2h2.3
				c0.1,0,0.2,0.1,0.2,0.2S310.7,214.7,310.6,214.7z M306,214.7h-2.3c-0.1,0-0.2-0.1-0.2-0.2c0-0.1,0.1-0.2,0.2-0.2h2.3
				c0.1,0,0.2,0.1,0.2,0.2S306.1,214.7,306,214.7z M301.4,214.7h-2.3c-0.1,0-0.2-0.1-0.2-0.2c0-0.1,0.1-0.2,0.2-0.2h2.3
				c0.1,0,0.2,0.1,0.2,0.2S301.5,214.7,301.4,214.7z M296.8,214.7h-2.3c-0.1,0-0.2-0.1-0.2-0.2c0-0.1,0.1-0.2,0.2-0.2h2.3
				c0.1,0,0.2,0.1,0.2,0.2C297,214.6,296.9,214.7,296.8,214.7z M292.2,214.7h-2.3c-0.1,0-0.2-0.1-0.2-0.2c0-0.1,0.1-0.2,0.2-0.2h2.3
				c0.1,0,0.2,0.1,0.2,0.2C292.4,214.6,292.3,214.7,292.2,214.7z M287.6,214.7h-2.3c-0.1,0-0.2-0.1-0.2-0.2c0-0.1,0.1-0.2,0.2-0.2
				h2.3c0.1,0,0.2,0.1,0.2,0.2C287.8,214.6,287.7,214.7,287.6,214.7z M282.9,214.7h-2.3c-0.1,0-0.2-0.1-0.2-0.2
				c0-0.1,0.1-0.2,0.2-0.2h2.3c0.1,0,0.2,0.1,0.2,0.2S283.1,214.7,282.9,214.7z M278.3,214.7H276c-0.1,0-0.2-0.1-0.2-0.2
				c0-0.1,0.1-0.2,0.2-0.2h2.3c0.1,0,0.2,0.1,0.2,0.2C278.6,214.6,278.5,214.7,278.3,214.7z"/>
			<path class="st39" d="M350.9,215.8c-0.1,0-0.2-0.1-0.2-0.2v-0.9h-0.9c-0.1,0-0.2-0.1-0.2-0.2c0-0.1,0.1-0.2,0.2-0.2h1.2
				c0.1,0,0.2,0.1,0.2,0.2v1.2C351.1,215.7,351,215.8,350.9,215.8z"/>
			<path class="st39" d="M350.9,289.5c-0.1,0-0.2-0.1-0.2-0.2V287c0-0.1,0.1-0.2,0.2-0.2s0.2,0.1,0.2,0.2v2.3
				C351.1,289.4,351,289.5,350.9,289.5z M350.9,284.9c-0.1,0-0.2-0.1-0.2-0.2v-2.3c0-0.1,0.1-0.2,0.2-0.2s0.2,0.1,0.2,0.2v2.3
				C351.1,284.8,351,284.9,350.9,284.9z M350.9,280.3c-0.1,0-0.2-0.1-0.2-0.2v-2.3c0-0.1,0.1-0.2,0.2-0.2s0.2,0.1,0.2,0.2v2.3
				C351.1,280.2,351,280.3,350.9,280.3z M350.9,275.7c-0.1,0-0.2-0.1-0.2-0.2v-2.3c0-0.1,0.1-0.2,0.2-0.2s0.2,0.1,0.2,0.2v2.3
				C351.1,275.6,351,275.7,350.9,275.7z M350.9,271.1c-0.1,0-0.2-0.1-0.2-0.2v-2.3c0-0.1,0.1-0.2,0.2-0.2s0.2,0.1,0.2,0.2v2.3
				C351.1,271,351,271.1,350.9,271.1z M350.9,266.5c-0.1,0-0.2-0.1-0.2-0.2V264c0-0.1,0.1-0.2,0.2-0.2s0.2,0.1,0.2,0.2v2.3
				C351.1,266.4,351,266.5,350.9,266.5z M350.9,261.9c-0.1,0-0.2-0.1-0.2-0.2v-2.3c0-0.1,0.1-0.2,0.2-0.2s0.2,0.1,0.2,0.2v2.3
				C351.1,261.8,351,261.9,350.9,261.9z M350.9,257.3c-0.1,0-0.2-0.1-0.2-0.2v-2.3c0-0.1,0.1-0.2,0.2-0.2s0.2,0.1,0.2,0.2v2.3
				C351.1,257.2,351,257.3,350.9,257.3z M350.9,252.7c-0.1,0-0.2-0.1-0.2-0.2v-2.3c0-0.1,0.1-0.2,0.2-0.2s0.2,0.1,0.2,0.2v2.3
				C351.1,252.6,351,252.7,350.9,252.7z M350.9,248.1c-0.1,0-0.2-0.1-0.2-0.2v-2.3c0-0.1,0.1-0.2,0.2-0.2s0.2,0.1,0.2,0.2v2.3
				C351.1,248,351,248.1,350.9,248.1z M350.9,243.5c-0.1,0-0.2-0.1-0.2-0.2v-2.3c0-0.1,0.1-0.2,0.2-0.2s0.2,0.1,0.2,0.2v2.3
				C351.1,243.4,351,243.5,350.9,243.5z M350.9,238.9c-0.1,0-0.2-0.1-0.2-0.2v-2.3c0-0.1,0.1-0.2,0.2-0.2s0.2,0.1,0.2,0.2v2.3
				C351.1,238.8,351,238.9,350.9,238.9z M350.9,234.3c-0.1,0-0.2-0.1-0.2-0.2v-2.3c0-0.1,0.1-0.2,0.2-0.2s0.2,0.1,0.2,0.2v2.3
				C351.1,234.1,351,234.3,350.9,234.3z M350.9,229.6c-0.1,0-0.2-0.1-0.2-0.2v-2.3c0-0.1,0.1-0.2,0.2-0.2s0.2,0.1,0.2,0.2v2.3
				C351.1,229.6,351,229.6,350.9,229.6z M350.9,225c-0.1,0-0.2-0.1-0.2-0.2v-2.3c0-0.1,0.1-0.2,0.2-0.2s0.2,0.1,0.2,0.2v2.3
				C351.1,225,351,225,350.9,225z M350.9,220.4c-0.1,0-0.2-0.1-0.2-0.2v-2.3c0-0.1,0.1-0.2,0.2-0.2s0.2,0.1,0.2,0.2v2.3
				C351.1,220.3,351,220.4,350.9,220.4z"/>
		</g>
		<rect x="270.2" y="212.1" class="st41" width="4.7" height="4.7"/>
		<rect x="348.6" y="212.1" class="st41" width="4.7" height="4.7"/>
		<rect x="270.2" y="290.4" class="st41" width="4.7" height="4.7"/>
		<g>
			<rect x="309.4" y="212.1" class="st41" width="4.7" height="4.7"/>
			<rect x="309.4" y="290.4" class="st41" width="4.7" height="4.7"/>
		</g>
		<rect x="348.6" y="290.4" class="st41" width="4.7" height="4.7"/>
		<g>
			<rect x="270.2" y="251.3" class="st41" width="4.7" height="4.7"/>
			<rect x="348.6" y="251.3" class="st41" width="4.7" height="4.7"/>
		</g>
		<path class="st36" d="M251.7,262.4c-2.3-1.3-4.7-2.6-7.1-3.8c-2.9-1.4-6.1-2.7-9.4-2.3c-3.2,0.4-5.4,2.5-8,4.1
			c-7.3,4.5-14.5-1.4-19.8-6.2c-7-6.4-14.8-11.7-23.3-15.5v48.6h67.6L251.7,262.4L251.7,262.4z"/>
		
			<ellipse transform="matrix(0.1602 -0.9871 0.9871 0.1602 -58.8018 427.4337)" class="st30" cx="221.8" cy="248.3" rx="6.2" ry="6.2"/>
		<circle class="st36" cx="289.6" cy="235" r="6.2"/>
		<path class="st42" d="M345.5,231.9c-3.1,0.7-6,2-8.5,4c-6.6,5.2-8.8,13.6-12.1,20.9c-1.8,4-4.2,8.1-7.8,10.8
			c-4.4,3.4-9.9,3.4-15,1.8c-8.3-2.6-15.4-8.9-24.1-10.1v28.1h67.6L345.5,231.9L345.5,231.9z"/>
	</g>
	<path class="st32" d="M327.3,188.6H194.2c-3.6,0-6.6,3-6.6,6.6l0,0c0,3.6,3,6.6,6.6,6.6h133.2c3.6,0,6.6-3,6.6-6.6l0,0
		C333.9,191.6,331,188.6,327.3,188.6z"/>
	<path class="st32" d="M327.3,188.6H194.2c-3.6,0-6.6,3-6.6,6.6l0,0c0,3.6,3,6.6,6.6,6.6h133.2c3.6,0,6.6-3,6.6-6.6l0,0
		C333.9,191.6,331,188.6,327.3,188.6z"/>
	<g>
		<circle class="st32" cx="323.3" cy="166.3" r="9.2"/>
		<circle class="st32" cx="348.7" cy="166.3" r="9.2"/>
		<circle class="st32" cx="297.8" cy="166.3" r="9.2"/>
		
			<linearGradient id="SVGID_9_" gradientUnits="userSpaceOnUse" x1="290.4748" y1="-1221.7311" x2="305.0614" y2="-1221.7311" gradientTransform="matrix(1 0 0 1 0 1388)">
			<stop  offset="0" style="stop-color:#F7A396"/>
			<stop  offset="0.3285" style="stop-color:#F48472"/>
			<stop  offset="0.6381" style="stop-color:#F37967"/>
			<stop  offset="1" style="stop-color:#F69689"/>
		</linearGradient>
		<circle class="st43" cx="297.8" cy="166.3" r="7.3"/>
		
			<linearGradient id="SVGID_10_" gradientUnits="userSpaceOnUse" x1="315.9523" y1="-1221.7311" x2="330.539" y2="-1221.7311" gradientTransform="matrix(1 0 0 1 0 1388)">
			<stop  offset="0" style="stop-color:#F15B44"/>
			<stop  offset="0.5314" style="stop-color:#F37967"/>
			<stop  offset="1" style="stop-color:#F69689"/>
		</linearGradient>
		<circle class="st44" cx="323.3" cy="166.3" r="7.3"/>
		
			<linearGradient id="SVGID_11_" gradientUnits="userSpaceOnUse" x1="341.4074" y1="-1221.7311" x2="355.9941" y2="-1221.7311" gradientTransform="matrix(1 0 0 1 0 1388)">
			<stop  offset="0" style="stop-color:#FDE2DE"/>
			<stop  offset="0.4414" style="stop-color:#F9B7AC"/>
			<stop  offset="1" style="stop-color:#F48472"/>
		</linearGradient>
		<circle class="st45" cx="348.7" cy="166.3" r="7.3"/>
	</g>
	<path class="st46" d="M153.7,140L153.7,140c-3.7,0-6.8,3-6.8,6.8l0,0c0,3.7,3,6.8,6.8,6.8l0,0c3.7,0,6.8-3,6.8-6.8l0,0
		C160.4,143,157.4,140,153.7,140z"/>
	
		<linearGradient id="SVGID_12_" gradientUnits="userSpaceOnUse" x1="244.1887" y1="-1222.8313" x2="277.28" y2="-1162.6276" gradientTransform="matrix(1 0 0 1 0 1388)">
		<stop  offset="0" style="stop-color:#F7A396"/>
		<stop  offset="0.3285" style="stop-color:#F48472"/>
		<stop  offset="0.6381" style="stop-color:#F37967"/>
		<stop  offset="1" style="stop-color:#F69689"/>
	</linearGradient>
	<path class="st47" d="M326.4,192.5H195.1c-1.5,0-2.7,1.2-2.7,2.7c0,1.5,1.2,2.7,2.7,2.7h131.3c1.5,0,2.7-1.2,2.7-2.7
		C329.1,193.8,327.9,192.5,326.4,192.5z"/>
	<path class="st40" d="M111.4,225.5c0,0-4.6,1.5-4.8,11.9s0.7,23.5-0.9,30.4c-1.7,6.9-5.1,24.8-8.2,32.3c-3.1,7.3-3.7,10.5-2.6,13.8
		c1.1,3.3,11.3-0.4,11.3-0.4l10.5-39.6c0,0,5.8-26.7,5.2-28.2C121.2,244.1,111.4,225.5,111.4,225.5z"/>
	
		<linearGradient id="SVGID_13_" gradientUnits="userSpaceOnUse" x1="-4276.4688" y1="-1124.3954" x2="-4291.9204" y2="-1134.3633" gradientTransform="matrix(-1 0 0 1 -4180 1388)">
		<stop  offset="0" style="stop-color:#F9B3A9"/>
		<stop  offset="1" style="stop-color:#F69689"/>
	</linearGradient>
	<path class="st48" d="M114.8,280.4c-0.2-0.2-0.4-0.4-0.6-0.5c-3.1-1.9-7-3.4-10.3-4.3c0.7-3.2,1.3-6,1.8-7.9
		c1.7-6.9,0.7-20,0.9-30.4s4.8-11.9,4.8-11.9s9.8,18.7,10.4,20.2s-5.2,28.2-5.2,28.2L114.8,280.4z"/>
	<path class="st40" d="M126,219.3c0,0,3.3,3.3,9.9-0.5c6.6-3.8,11.9-14.8,12.7-17.2c0.9-2.3,7.5-29.2,6.8-38.1
		c-0.7-8.9-3.2-20.5-2.1-20s2,7.3,3,7.7c1,0.4,6.7-0.4,7,2.5c0.4,2.8-2.2,8-2.2,11.6c0,3.6-0.9,36.2-1.4,38.8
		c-1.7,9.7-13.8,33.3-13.8,33.3l-14.7-4.2L126,219.3z"/>
	<path class="st40" d="M120.9,189.7c4.1-0.3,7.7,2.3,9.1,6.1c1.2,3.3,2.6,7.9,2.7,11.1c0.1,5.4-0.5,9.7-4.6,9.2
		c-4.1-0.4-8.7,1.2-13.6-4.2c-4.9-5.3-8.9-14.5-4.2-18C113.3,191.9,117,189.9,120.9,189.7z"/>
	<path class="st40" d="M125.8,216.2c0,0,1,4.8,3.2,5.3c2.2,0.5,16.1,13.5,16.8,15.8c0.7,2.3-0.6,10.8-2.1,13.2
		c-1.5,2.5-3.8,12-3,15.2c0.9,3.2,5.7,13.6,6.8,28.1c1.1,14.5-3.2,39.8-4.7,51.2s-11.4,43.3-8.4,48.7s8,10.9,13.3,11.9
		c5.3,1,9,9.7-9.3,4.5s-22.5-7.7-18.1-13.1c4.5-5.4,7.2-13.1,6.4-28.2s2-31.9,3.2-36.4s-6.7-39.8-6.7-39.8s-6.2,37.6-11.6,44.3
		S69.4,371.2,66,375.9c-3.5,4.7-2,13.8-1,17.8c1,4,4.5,10.1,0.7,9.7c-3.7-0.5-7.7-2-10.4-12.9c-2.7-10.9-9.7-19.2,1-21.8
		c13.1-3.1,15.8-14.1,22-21.5c6.2-7.4,18.6-14.8,20.3-19.8c1.7-5,0.7-32.1,7.7-45.3c6.9-13.1,8-18.2,8-23.5s-3.8-32.8-3-33.3
		c0.9-0.5,7.9-9.1,7.9-12C119.3,210.6,125.8,216.2,125.8,216.2z"/>
	
		<linearGradient id="SVGID_14_" gradientUnits="userSpaceOnUse" x1="-4327.9336" y1="-1147.2051" x2="-4294.2075" y2="-1168.4722" gradientTransform="matrix(-1 0 0 1 -4180 1388)">
		<stop  offset="0" style="stop-color:#F9B3A9"/>
		<stop  offset="1" style="stop-color:#F69689"/>
	</linearGradient>
	<path class="st49" d="M114.3,258.7c0-4-2.1-20.2-2.8-28.4l5.6-4.8l8.9-7.8l0.3,0.3c0.2,0.7,0.6,1.6,1.1,2.2c1.6,0.6,4.4,1,8.5-1.3
		c6.6-3.8,11.9-14.8,12.7-17.2c0.3-0.8,1.3-4.6,2.5-9.6c2.6,1.2,5.9,2.4,9.2,2.4c-0.2,5-0.4,8.8-0.5,9.6
		c-1.7,9.7-13.8,33.3-13.8,33.3c0.7,2.3-0.6,10.8-2.1,13.2c-1.5,2.5-3.8,12-3,15.2c0.3,1.1,1.1,3.2,2.1,6l-15,3.8l-16.6-3.6
		C113.8,265.8,114.3,262.3,114.3,258.7z"/>
	
		<linearGradient id="SVGID_15_" gradientUnits="userSpaceOnUse" x1="-4297.4268" y1="-1137.2728" x2="-4297.4771" y2="-1185.6605" gradientTransform="matrix(-1 0 0 1 -4180 1388)">
		<stop  offset="0" style="stop-color:#F47D6B"/>
		<stop  offset="1" style="stop-color:#F36F5B"/>
	</linearGradient>
	<path class="st50" d="M104,236.8c0.9,2-0.2,4.3-0.3,6.4c-0.1,1.5,0.2,3,1.1,4.3c1.7,2.3,4.8,3.3,7.5,3.3c2.2,0,4.4-0.5,6.6-0.8
		c2.5-0.3,4.6,0.1,7,0.6c3.4,0.7,6.6,0.2,8.4-3.1c1-1.8,1.1-3.8,0.8-5.8c0-1.2-0.4-2.4-0.8-3.5c0-0.1-0.1-0.1-0.1-0.2
		c-0.2-0.5-0.3-1-0.5-1.5c-0.1-0.2-0.2-0.4-0.4-0.5c-0.8-1.9-1.4-3.7-0.6-6c0.7-2.3,2-4.4,2-6.9c0.1-4.4-3.8-7.1-5.7-10.6
		c-2.6-5,2.6-9.6,1.9-14.8c-0.6-4.6-4.4-7.8-8.8-8.4c-0.1,0-0.1,0-0.2-0.1c-3.9-0.5-7.7,0.4-10.7,3c-3.1,2.7-4.6,6.6-5.4,10.5
		c-0.9,4.3-0.9,8.6-1.9,12.9c-1,4.1-3.8,7.6-4.2,11.8c-0.2,1.9,0.2,3.8,1.3,5.4C101.9,234.1,103.3,235.2,104,236.8z"/>
	<path class="st51" d="M122.7,393.7c4.7,2,11.2,10.1,16.3,11.4c2.2,0.5,3.6-0.2,4.4-1.2c1.4,0.9,2.9,1.5,4.3,1.8
		c5.3,1,9,9.7-9.3,4.5s-22.5-7.7-18.1-13.1C121.2,396,122,394.9,122.7,393.7z"/>
	<path class="st51" d="M55.3,390.5c-2.7-10.9-9.7-19.2,1-21.8c0.1,0,0.2,0,0.2-0.1c0.6,2,1.1,4.4,1.4,7.1c0.8,7.3,1.5,11.7,2.2,15
		c0.4,1.9,2.7,2.3,4.7,2.3c0,0.2,0.1,0.4,0.1,0.6c1,4,4.5,10.1,0.7,9.7C62,402.9,58.1,401.4,55.3,390.5z"/>
	
		<linearGradient id="SVGID_16_" gradientUnits="userSpaceOnUse" x1="-4297.0527" y1="-1047.0632" x2="-4297.1284" y2="-1120.5077" gradientTransform="matrix(-1 0 0 1 -4180 1388)">
		<stop  offset="0" style="stop-color:#F37967"/>
		<stop  offset="1" style="stop-color:#F26B57"/>
	</linearGradient>
	<path class="st52" d="M100.6,306.9c0.8-8.8,2.3-18.4,5.7-24.7c3.1-5.9,5.1-10.2,6.2-13.6c14.4,5.6,25.4,1.9,29.3,0.2
		c1.7,4.9,4.9,13.7,5.7,25c0.2,2.9,0.2,6.3,0.1,9.9l0,0c0,0-0.9,43.6,4.4,48.4c0,0-4.6,2.7-11.2,3.3c-4.6,0.6-8.9,0.8-13,0.6
		c-0.3,0-0.6,0-0.9,0c-13.6-1-28.5-7.1-28.5-7.1c-5.9-2.8-10.3-5.9-13.3-8.1c-1.8-1.4-3.1-5.3-3.1-5.3
		C96.1,331.9,99.7,313.7,100.6,306.9z"/>
	<g>
		<path class="st53" d="M132.7,271.3c0.4,0,0.7-0.1,1.1-0.2c3.3,24.1-0.9,48.4-1.3,72.6c-0.1,4.1,0,8.2,0.2,12.3c-0.4,0-0.7,0-1.1,0
			c-1.2-22.1,2.5-44.3,2.3-66.4C133.9,283.5,133.6,277.4,132.7,271.3z"/>
		<path class="st53" d="M94.1,346.6c5.4-6.7,7.9-15.3,9.7-23.7c2.5-11.8,5-23.5,8.4-35.1c1.7-5.9,3.6-11.7,5.4-17.5
			c0.4,0.1,0.7,0.2,1.1,0.3c-3.5,11.1-7,22.2-9.8,33.5c-2.8,11.4-3.9,23.7-8.7,34.5c-1.4,3-3,6-5.1,8.5
			C94.7,346.9,94.4,346.7,94.1,346.6z"/>
		<path class="st53" d="M122.8,328.4c1.3-6.2,2.8-12.4,3.6-18.7c0.9-6.6,1.1-13.2,1-19.8c-0.1-6.1-0.4-12.2-0.8-18.2
			c0.4,0,0.7,0,1.1,0c0.8,11.7,1.4,23.5,0.1,35.2c-1.4,12.7-5.2,24.9-6.8,37.6c-0.4,3.6-0.8,7.1-0.9,10.7c-0.4-0.1-0.7-0.1-1.1-0.2
			C119.6,346,120.9,337.1,122.8,328.4z"/>
		<path class="st53" d="M137.4,270.4c0.4-0.1,0.7-0.2,1.1-0.3c8.9,23.6,1.6,49.3,4.7,73.7c0.5,3.7,1.1,7.3,2.1,10.8
			c-0.4,0.1-0.7,0.2-1.1,0.2c-5.9-21-0.7-43.9-2.6-65.5C141,282.9,139.7,276.5,137.4,270.4z"/>
		<path class="st53" d="M109.5,326.3c2.9-12.3,7.5-24.2,9.8-36.7c1.1-6.2,1.7-12.5,1.2-18.7c0.4,0.1,0.8,0.1,1.1,0.2
			c0.8,11.4-1.8,22.7-4.9,33.6c-3.5,12.2-7.2,24.3-9,36.9c-0.5,3.3-0.9,6.6-1.1,10c-0.4-0.1-0.7-0.2-1.1-0.3
			C106.2,342.9,107.5,334.6,109.5,326.3z"/>
	</g>
</g>
</svg>
