<?xml version="1.0" encoding="utf-8"?>
<!-- Generator: Adobe Illustrator 23.0.3, SVG Export Plug-In . SVG Version: 6.00 Build 0)  -->
<svg version="1.1" id="Layer_1" xmlns="http://www.w3.org/2000/svg" xmlns:xlink="http://www.w3.org/1999/xlink" x="0px" y="0px"
	 viewBox="0 0 432 432" style="enable-background:new 0 0 432 432;" xml:space="preserve">
<style type="text/css">
	.st0{fill:#FEEDA2;}
	.st1{fill:#FEE496;}
	.st2{fill:#FCF6B7;}
	.st3{fill:#FFE091;}
	.st4{fill:#FEEA9D;}
	.st5{fill:#FEF6AD;}
	.st6{fill:#FCB764;}
	.st7{fill:#F7943F;}
	.st8{fill:#F7933D;}
	.st9{fill:#F79641;}
	.st10{fill:#F7903B;}
	.st11{fill:#FEE89B;}
	.st12{fill:#FFF1A5;}
	.st13{fill:url(#SVGID_1_);}
	.st14{fill:#FFD98A;}
	.st15{fill:#F57E26;}
	.st16{fill:#FECB79;}
	.st17{fill:#FEC874;}
	.st18{fill:#FFDA8B;}
	.st19{fill:#F89C49;}
	.st20{fill:url(#SVGID_2_);}
	.st21{fill:#FDBD6A;}
	.st22{fill:#FAAB57;}
	.st23{fill:url(#SVGID_3_);}
	.st24{fill:url(#SVGID_4_);}
	.st25{fill:#F37021;}
	.st26{fill:#FEE092;}
	.st27{fill:url(#SVGID_5_);}
	.st28{fill:url(#SVGID_6_);}
	.st29{fill:url(#SVGID_7_);}
	.st30{fill:#FDC06D;}
	.st31{fill:url(#SVGID_8_);}
	.st32{fill:url(#SVGID_9_);}
	.st33{fill:#FFD282;}
	.st34{fill:url(#SVGID_10_);}
	.st35{fill:url(#SVGID_11_);}
	.st36{fill:url(#SVGID_12_);}
	.st37{fill:url(#SVGID_13_);}
	.st38{fill:url(#SVGID_14_);}
	.st39{fill:url(#SVGID_15_);}
	.st40{fill:#FFFFFF;}
	.st41{fill:#FDDFDB;}
	.st42{fill:#FEEBE9;}
	.st43{fill:#FFF7F5;}
	.st44{fill:#F9B7AC;}
	.st45{fill:#F69485;}
	.st46{fill:#F69383;}
	.st47{fill:#F69587;}
	.st48{fill:#F69081;}
	.st49{fill:#FEE9E6;}
	.st50{fill:#FEF0EE;}
	.st51{fill:url(#SVGID_16_);}
	.st52{fill:#FCD9D3;}
	.st53{fill:#F47D6B;}
	.st54{fill:#FBCAC3;}
	.st55{fill:#FBC7BF;}
	.st56{fill:#FCDAD5;}
	.st57{fill:#F79C8F;}
	.st58{fill:url(#SVGID_17_);}
	.st59{fill:#FABEB5;}
	.st60{fill:#F8ABA0;}
	.st61{fill:url(#SVGID_18_);}
	.st62{fill:url(#SVGID_19_);}
	.st63{fill:#F36F5B;}
	.st64{fill:#FDE1DB;}
	.st65{fill:url(#SVGID_20_);}
	.st66{fill:url(#SVGID_21_);}
	.st67{fill:url(#SVGID_22_);}
	.st68{fill:#FAC0B7;}
	.st69{fill:url(#SVGID_23_);}
	.st70{fill:url(#SVGID_24_);}
	.st71{fill:#FCD1CB;}
	.st72{fill:url(#SVGID_25_);}
	.st73{fill:url(#SVGID_26_);}
	.st74{fill:url(#SVGID_27_);}
	.st75{fill:url(#SVGID_28_);}
	.st76{fill:url(#SVGID_29_);}
	.st77{fill:url(#SVGID_30_);}
</style>
<g>
	<g>
		<g>
			<path class="st0" d="M249.8,372.6c-4.3,0-8.7,0.4-13.1,1.1c-9.5,1.4-20.2,3.9-30.6,4.3c3.8,1.2,7.7,1.7,11.7,1.7
				C228.4,379.7,239.5,376.1,249.8,372.6 M21.4,347.1c1.3,5.9,3.7,11.4,7.3,16.3c5.4,7.3,12.8,12.9,21,16.8
				c11.1,5.3,22.9,7.2,34.8,7.2c9.2,0,18.6-1.2,27.7-2.8c21.9-4,43.8-10,66.3-10c1.3,0,2.5,0,3.8,0c0.8,0,1.6,0.1,2.4,0.1
				c-1.2-0.5-2.3-1.1-3.4-1.7c-7-2.5-14.1-4.7-21.4-6c-9.7-1.8-19.5-2.4-29.3-2.4c-13.8,0-27.7,1.1-41.5,1.5c-1.8,0-3.7,0.1-5.5,0.1
				c-19.5,0-39.1-2.8-55.6-14C25.7,350.6,23.5,348.9,21.4,347.1 M399.4,204.5c-0.1,0.3-0.2,0.7-0.2,1c-2.6,11.7,0.2,23.6,3.5,34.8
				c3.4,11.6,6.8,23.1,8.8,35c3.7,22.6,3.2,46.7-6,68c-0.7,1.7-1.5,3.4-2.4,5c8.7-9.9,14.9-22,18.3-34.7c5.9-22.4,2.7-46.4-4.4-68.1
				c-3.8-11.5-8.9-22.3-14.1-33.2C401.7,209.6,400.5,207.1,399.4,204.5 M40.8,84.4c-12,9.9-19.4,24.5-22.3,40
				c-6.7,36.1,9.6,70.1,16.4,105c7.7-44.6-14-90.9,1.4-134.8C37.6,91.1,39.1,87.7,40.8,84.4 M357.2,63.2c-11.3,0-22.8,2.2-33.4,4.8
				c-23.8,5.7-46.9,13.9-70.7,19.9c-9.9,2.5-20,4.5-30.1,5.7c8.9,1.4,18,2,27.1,2c7.9,0,15.8-0.4,23.7-1.2
				c24.4-2.2,48.5-6.8,72.9-8.8c5.5-0.4,11.2-0.8,16.9-0.8c16.1,0,32.5,2.6,45.2,12.8C405,86.8,398,77.1,388.1,71
				C378.6,65.2,368,63.2,357.2,63.2"/>
			<path class="st0" d="M184.6,374.8c5.7,2.4,11.9,3.3,18.2,3.3c1.1,0,2.1,0,3.2-0.1c-0.6-0.2-1.2-0.4-1.8-0.6
				C197.8,376.1,191.2,375.1,184.6,374.8 M403.2,348.2c-3.9,4.5-8.4,8.4-13.3,11.8c-8.5,5.8-18.1,9.2-28.3,10.5
				c-3.9,0.5-7.8,0.7-11.7,0.7c-7.2,0-14.5-0.7-21.7-1.7c-11.5-1.5-23-3.5-34.6-4.2c-2-0.1-4.1-0.2-6.1-0.2
				c-9.6,0-18.9,1.3-28.2,4.3c-3.1,1-6.2,2-9.5,3.2c0.3,0,0.5,0,0.8,0c6.9,0,13.8,0.8,20.7,2.3c11.4,2.4,22.4,6.2,33.5,9.5
				c10.7,3.1,21.6,5.8,32.8,6c0.6,0,1.2,0,1.8,0c9.6,0,19.1-1.9,27.8-6.1C382.8,376.9,395.3,363.6,403.2,348.2 M35,229.4
				c-0.6,3.6-1.4,7.2-2.5,10.8c-6.4,22.2-22.9,40.7-26.8,63.7c-1.6,9.6-0.5,19.7,4.1,28.4c2.9,5.6,6.9,10.5,11.6,14.7
				c-0.8-3.6-1.2-7.4-1.1-11.1c0.3-23.4,13.7-44.1,16.7-67.1C38.7,255.5,37.5,242.4,35,229.4 M408.7,97.6c2.2,6.4,3.3,13.2,3.2,19.9
				c-0.1,10.1-3.2,19.4-7.1,28.6c-4.5,10.3-10,20.8-10.7,32.2c-0.6,9.1,1.9,17.8,5.4,26.1c2.7-10.8,9.5-20,15.3-29.2
				c5.3-8.5,9.8-17.2,11.4-27.2c2.9-17.9-2.4-37.7-16.5-49.6C409.4,98.2,409,97.9,408.7,97.6 M96.6,50.4c-7,0-13.9,0.9-20.6,3
				c-15.9,4.9-27.8,16.7-35.2,31c3.2-2.6,6.7-4.9,10.6-6.8c10.5-5.1,22.1-7.1,33.8-7.1c8.7,0,17.4,1.1,25.7,2.9
				c23.8,5,46.1,15.3,70,19.6c7.5,1.3,15,1.9,22.6,1.9c6.5,0,13-0.4,19.5-1.2c-7.2-1.2-14.3-2.8-21.3-5.2
				c-23-7.9-43.5-21.4-66.2-30.1C123.2,53.7,109.9,50.4,96.6,50.4"/>
			<path class="st1" d="M85.1,70.4c-11.7,0-23.3,2-33.8,7.1c-3.9,1.9-7.4,4.2-10.6,6.8c-1.7,3.3-3.2,6.7-4.4,10.3
				c-15.4,44,6.3,90.2-1.4,134.8c2.5,13,3.8,26.1,2,39.4c-3,22.9-16.4,43.7-16.7,67.1c0,3.7,0.3,7.5,1.1,11.1
				c2.1,1.8,4.3,3.6,6.6,5.1c16.6,11.2,36.1,14,55.6,14c1.8,0,3.7,0,5.5-0.1c13.8-0.3,27.6-1.5,41.5-1.5c9.8,0,19.6,0.6,29.3,2.4
				c7.3,1.4,14.4,3.5,21.4,6c1.1,0.6,2.3,1.2,3.4,1.7c6.6,0.4,13.2,1.3,19.7,2.6c0.6,0.2,1.2,0.4,1.8,0.6
				c10.4-0.4,21.1-2.9,30.6-4.3c4.4-0.7,8.7-1,13.1-1.1c3.2-1.1,6.4-2.2,9.5-3.2c9.3-2.9,18.6-4.3,28.2-4.3c2,0,4,0.1,6.1,0.2
				c11.6,0.7,23.1,2.7,34.6,4.2c7.2,0.9,14.4,1.7,21.7,1.7c3.9,0,7.8-0.2,11.7-0.7c10.1-1.3,19.8-4.8,28.3-10.5
				c4.9-3.4,9.4-7.4,13.3-11.8c0.8-1.6,1.6-3.3,2.4-5c9.3-21.3,9.8-45.4,6-68c-2-11.9-5.4-23.4-8.8-35c-3.3-11.2-6.2-23.1-3.5-34.8
				c0.1-0.3,0.1-0.7,0.2-1c-3.5-8.3-6-17.1-5.4-26.1c0.8-11.5,6.3-21.9,10.7-32.2c4-9.2,7-18.5,7.1-28.6c0-6.7-1-13.5-3.2-19.9
				c-12.7-10.1-29.1-12.8-45.2-12.8c-5.7,0-11.4,0.3-16.9,0.8c-24.4,2-48.5,6.6-72.9,8.8c-7.9,0.7-15.8,1.2-23.7,1.2
				c-9.1,0-18.1-0.6-27.1-2c-6.5,0.8-13,1.2-19.5,1.2c-7.5,0-15.1-0.6-22.6-1.9c-23.9-4.2-46.3-14.5-70-19.6
				C102.5,71.6,93.8,70.4,85.1,70.4"/>
		</g>
		<path class="st2" d="M362.1,127.5H75.3c-3.8,0-6.8,3.1-6.8,6.8v190.1c0,3.8,3.1,6.8,6.8,6.8h286.8c3.8,0,6.8-3.1,6.8-6.8V134.3
			C369,130.6,365.9,127.5,362.1,127.5z"/>
		<rect x="216.7" y="239.6" class="st3" width="114.1" height="68"/>
		<rect x="93.5" y="166.8" class="st4" width="114.1" height="68"/>
		<path class="st5" d="M338,265h-54.5c-2.7,0-4.9-2.2-4.9-4.9v-88.4c0-2.7,2.2-4.9,4.9-4.9H338c2.7,0,4.9,2.2,4.9,4.9v88.4
			C342.9,262.9,340.7,265,338,265z"/>
		<path class="st6" d="M334.5,172.7h-46.9c-2,0-3.7,1.7-3.7,3.7v32.4c0,2,1.7,3.7,3.7,3.7h46.9c2,0,3.7-1.7,3.7-3.7v-32.4
			C338.2,174.3,336.5,172.7,334.5,172.7z"/>
		<g>
			<path class="st7" d="M334.5,219.9h-46.9c-2,0-3.7,1.7-3.7,3.7V256c0,2,1.7,3.7,3.7,3.7h46.9c2,0,3.7-1.7,3.7-3.7v-32.4
				C338.2,221.5,336.5,219.9,334.5,219.9z"/>
			<g>
				<rect x="290.1" y="229.4" class="st8" width="5.9" height="5.9"/>
				<rect x="299.1" y="229.4" class="st9" width="5.9" height="5.9"/>
				<rect x="308" y="229.4" class="st8" width="5.9" height="5.9"/>
				<rect x="317" y="229.4" class="st9" width="5.9" height="5.9"/>
				<rect x="326" y="229.4" class="st8" width="5.9" height="5.9"/>
			</g>
			<path class="st10" d="M334.5,219.9h-46.9c-2,0-3.7,1.7-3.7,3.7v1.1h54.3v-1.1C338.2,221.5,336.5,219.9,334.5,219.9z"/>
		</g>
		<g>
			<path class="st5" d="M104.3,155.9H85.1c-1.6,0-3,1.3-3,3v80.8c0,1.6,1.3,3,3,3h19.2c1.6,0,3-1.3,3-3v-80.8
				C107.2,157.2,105.9,155.9,104.3,155.9z"/>
			<path class="st11" d="M104.1,155.9H85.2c-1.7,0-3.1,1.4-3.1,3.1v3.7h25.1V159C107.2,157.3,105.8,155.9,104.1,155.9z"/>
			<rect x="84.6" y="166" class="st12" width="8.8" height="8.8"/>
			<rect x="95.4" y="176" class="st12" width="8.8" height="8.8"/>
			<rect x="84.6" y="185.1" class="st12" width="8.8" height="8.8"/>
			<rect x="95.4" y="195.1" class="st12" width="8.8" height="8.8"/>
			<rect x="84.6" y="204.1" class="st12" width="8.8" height="8.8"/>
			<rect x="95.4" y="214.2" class="st12" width="8.8" height="8.8"/>
		</g>
		<g>
			<path class="st5" d="M266.9,293.6H166.1c-1.3,0-2.4,1.1-2.4,2.4v16.1c0,1.3,1.1,2.4,2.4,2.4h100.8c1.3,0,2.4-1.1,2.4-2.4V296
				C269.3,294.7,268.2,293.6,266.9,293.6z"/>
			
				<linearGradient id="SVGID_1_" gradientUnits="userSpaceOnUse" x1="187.6971" y1="-1056.6395" x2="247.9352" y2="-1110.2784" gradientTransform="matrix(1 0 0 1 0 1388)">
				<stop  offset="0" style="stop-color:#FCB764"/>
				<stop  offset="0.4916" style="stop-color:#F7943F"/>
				<stop  offset="1" style="stop-color:#F7943F"/>
			</linearGradient>
			<rect x="167.5" y="300.4" class="st13" width="100.6" height="8.3"/>
			<path class="st11" d="M266.9,293.6H166.1c-1.4,0-2.4,1.1-2.4,2.4v1.1h105.7V296C269.3,294.7,268.2,293.6,266.9,293.6z"/>
			<g>
				<polygon class="st14" points="167.5,308.7 166.3,310.9 167.5,310.9 168.7,310.9 				"/>
				<polygon class="st14" points="186.2,308.7 185,310.9 186.2,310.9 187.4,310.9 				"/>
				<polygon class="st14" points="212.6,308.7 211.5,310.9 212.6,310.9 213.8,310.9 				"/>
				<polygon class="st14" points="268.2,308.7 267,310.9 268.2,310.9 269.3,310.9 				"/>
			</g>
			<rect x="169.6" y="300.4" class="st14" width="0.3" height="8.3"/>
			<rect x="172.5" y="300.4" class="st14" width="0.3" height="8.3"/>
			<rect x="174.2" y="300.4" class="st14" width="0.3" height="8.3"/>
			<rect x="175.2" y="300.4" class="st14" width="0.3" height="8.3"/>
			<rect x="186.1" y="300.4" class="st14" width="0.3" height="8.3"/>
			<rect x="212.5" y="300.4" class="st14" width="0.3" height="8.3"/>
			<rect x="214.9" y="300.4" class="st14" width="0.3" height="8.3"/>
			<rect x="216.2" y="300.4" class="st14" width="0.3" height="8.3"/>
			<rect x="238.6" y="300.4" class="st14" width="0.3" height="8.3"/>
			<rect x="236.7" y="300.4" class="st14" width="0.3" height="8.3"/>
			<rect x="235.6" y="300.4" class="st14" width="0.3" height="8.3"/>
			<rect x="240.3" y="300.4" class="st14" width="0.3" height="8.3"/>
		</g>
		<g>
			<path class="st5" d="M265.4,172.9H137.2c-1.1,0-2.1-0.9-2.1-2.1v-16.4c0-1.1,0.9-2.1,2.1-2.1h128.1c1.1,0,2.1,0.9,2.1,2.1v16.4
				C267.4,172,266.5,172.9,265.4,172.9z"/>
			<g>
				<circle class="st6" cx="153.3" cy="162.7" r="6.8"/>
				<circle class="st7" cx="172.5" cy="162.7" r="6.8"/>
				<circle class="st7" cx="191.7" cy="162.7" r="6.8"/>
				<circle class="st15" cx="210.9" cy="162.7" r="6.8"/>
				<circle class="st16" cx="230.1" cy="162.7" r="6.8"/>
				<circle class="st17" cx="249.3" cy="162.7" r="6.8"/>
			</g>
			<polygon class="st18" points="138.1,162.7 141,164.5 141,162.7 141,160.8 			"/>
			<polygon class="st18" points="263.2,162.7 260.2,160.8 260.2,162.7 260.2,164.5 			"/>
		</g>
		<path class="st19" d="M362,127.4H75.5c-3.8,0-7,3.1-7,7v8.9H369v-8.9C369,130.6,365.8,127.4,362,127.4z"/>
		<circle class="st2" cx="335" cy="135.3" r="2.3"/>
		<circle class="st6" cx="344.3" cy="135.3" r="2.3"/>
		<circle class="st16" cx="353.6" cy="135.3" r="2.3"/>
		<g>
			<g>
				<path class="st16" d="M255.7,262.2H147c-1.6,0-2.8-1.3-2.8-2.8v-67.9c0-1.6,1.3-2.8,2.8-2.8h108.7c1.6,0,2.8,1.3,2.8,2.8v67.9
					C258.5,260.9,257.3,262.2,255.7,262.2z"/>
				<path class="st15" d="M226.1,213.6l-23.8,25.1c-1.8,1.9-4.6,2.2-6.8,0.8l-23.6-15c-2.7-1.7-6.1-1.3-8.4,0.8L144.2,244v14.3
					c0,2.2,1.8,3.9,3.9,3.9h106.5c2.2,0,3.9-1.8,3.9-3.9v-31.8l-24-14C231.8,210.8,228.3,211.3,226.1,213.6z"/>
				<circle class="st7" cx="158.8" cy="202.5" r="7.8"/>
			</g>
			<g>
				<g>
					<path class="st7" d="M264,268.3h-1.4c-0.1,0-0.1,0-0.1-0.1c0-0.1,0-0.1,0.1-0.1h1.3v-1.3c0-0.1,0-0.1,0.1-0.1s0.1,0,0.1,0.1
						v1.4C264.1,268.2,264.1,268.3,264,268.3z"/>
					<path class="st7" d="M259.8,268.3h-2.8c-0.1,0-0.1,0-0.1-0.1c0-0.1,0-0.1,0.1-0.1h2.8c0.1,0,0.1,0,0.1,0.1
						C259.9,268.2,259.8,268.3,259.8,268.3z M254.1,268.3h-2.8c-0.1,0-0.1,0-0.1-0.1c0-0.1,0-0.1,0.1-0.1h2.8c0.1,0,0.1,0,0.1,0.1
						C254.2,268.2,254.1,268.3,254.1,268.3z M248.4,268.3h-2.8c-0.1,0-0.1,0-0.1-0.1c0-0.1,0-0.1,0.1-0.1h2.8c0.1,0,0.1,0,0.1,0.1
						C248.5,268.2,248.4,268.3,248.4,268.3z M242.7,268.3h-2.8c-0.1,0-0.1,0-0.1-0.1c0-0.1,0-0.1,0.1-0.1h2.8c0.1,0,0.1,0,0.1,0.1
						C242.8,268.2,242.7,268.3,242.7,268.3z M237,268.3h-2.8c-0.1,0-0.1,0-0.1-0.1c0-0.1,0-0.1,0.1-0.1h2.8c0.1,0,0.1,0,0.1,0.1
						C237.1,268.2,237,268.3,237,268.3z M231.3,268.3h-2.8c-0.1,0-0.1,0-0.1-0.1c0-0.1,0-0.1,0.1-0.1h2.8c0.1,0,0.1,0,0.1,0.1
						C231.4,268.2,231.3,268.3,231.3,268.3z M225.6,268.3h-2.8c-0.1,0-0.1,0-0.1-0.1c0-0.1,0-0.1,0.1-0.1h2.8c0.1,0,0.1,0,0.1,0.1
						C225.7,268.2,225.6,268.3,225.6,268.3z M219.9,268.3H217c-0.1,0-0.1,0-0.1-0.1c0-0.1,0-0.1,0.1-0.1h2.8c0.1,0,0.1,0,0.1,0.1
						C220,268.2,219.9,268.3,219.9,268.3z M214.2,268.3h-2.8c-0.1,0-0.1,0-0.1-0.1c0-0.1,0-0.1,0.1-0.1h2.8c0.1,0,0.1,0,0.1,0.1
						C214.3,268.2,214.2,268.3,214.2,268.3z M208.5,268.3h-2.8c-0.1,0-0.1,0-0.1-0.1c0-0.1,0-0.1,0.1-0.1h2.8c0.1,0,0.1,0,0.1,0.1
						C208.6,268.2,208.5,268.3,208.5,268.3z M202.8,268.3h-2.8c-0.1,0-0.1,0-0.1-0.1c0-0.1,0-0.1,0.1-0.1h2.8c0.1,0,0.1,0,0.1,0.1
						C202.9,268.2,202.8,268.3,202.8,268.3z M197.1,268.3h-2.9c-0.1,0-0.1,0-0.1-0.1c0-0.1,0-0.1,0.1-0.1h2.8c0.1,0,0.1,0,0.1,0.1
						C197.2,268.2,197.1,268.3,197.1,268.3z M191.4,268.3h-2.8c-0.1,0-0.1,0-0.1-0.1c0-0.1,0-0.1,0.1-0.1h2.8c0.1,0,0.1,0,0.1,0.1
						C191.5,268.2,191.4,268.3,191.4,268.3z M185.7,268.3h-2.8c-0.1,0-0.1,0-0.1-0.1c0-0.1,0-0.1,0.1-0.1h2.8c0.1,0,0.1,0,0.1,0.1
						C185.8,268.2,185.7,268.3,185.7,268.3z M180,268.3h-2.8c-0.1,0-0.1,0-0.1-0.1c0-0.1,0-0.1,0.1-0.1h2.8c0.1,0,0.1,0,0.1,0.1
						C180.1,268.2,180.1,268.3,180,268.3z M174.3,268.3h-2.8c-0.1,0-0.1,0-0.1-0.1c0-0.1,0-0.1,0.1-0.1h2.8c0.1,0,0.1,0,0.1,0.1
						C174.4,268.2,174.3,268.3,174.3,268.3z M168.6,268.3h-2.8c-0.1,0-0.1,0-0.1-0.1c0-0.1,0-0.1,0.1-0.1h2.8c0.1,0,0.1,0,0.1,0.1
						C168.7,268.2,168.6,268.3,168.6,268.3z M162.9,268.3H160c-0.1,0-0.1,0-0.1-0.1c0-0.1,0-0.1,0.1-0.1h2.8c0.1,0,0.1,0,0.1,0.1
						C163,268.2,163,268.3,162.9,268.3z M157.2,268.3h-2.8c-0.1,0-0.1,0-0.1-0.1c0-0.1,0-0.1,0.1-0.1h2.8c0.1,0,0.1,0,0.1,0.1
						C157.3,268.2,157.3,268.3,157.2,268.3z M151.5,268.3h-2.8c-0.1,0-0.1,0-0.1-0.1c0-0.1,0-0.1,0.1-0.1h2.8c0.1,0,0.1,0,0.1,0.1
						C151.6,268.2,151.5,268.3,151.5,268.3z M145.8,268.3h-2.8c-0.1,0-0.1,0-0.1-0.1c0-0.1,0-0.1,0.1-0.1h2.8c0.1,0,0.1,0,0.1,0.1
						C145.9,268.2,145.9,268.3,145.8,268.3z"/>
					<path class="st7" d="M140.1,268.3h-1.4c-0.1,0-0.1,0-0.1-0.1v-1.4c0-0.1,0-0.1,0.1-0.1s0.1,0,0.1,0.1v1.3h1.3
						c0.1,0,0.1,0,0.1,0.1C140.2,268.2,140.2,268.3,140.1,268.3z"/>
					<path class="st7" d="M138.7,264c-0.1,0-0.1,0-0.1-0.1V261c0-0.1,0-0.1,0.1-0.1s0.1,0,0.1,0.1v2.8
						C138.8,264,138.8,264,138.7,264z M138.7,258.3c-0.1,0-0.1,0-0.1-0.1v-2.8c0-0.1,0-0.1,0.1-0.1s0.1,0,0.1,0.1v2.8
						C138.8,258.3,138.8,258.3,138.7,258.3z M138.7,252.6c-0.1,0-0.1,0-0.1-0.1v-2.8c0-0.1,0-0.1,0.1-0.1s0.1,0,0.1,0.1v2.8
						C138.8,252.5,138.8,252.6,138.7,252.6z M138.7,246.9c-0.1,0-0.1,0-0.1-0.1v-2.8c0-0.1,0-0.1,0.1-0.1s0.1,0,0.1,0.1v2.8
						C138.8,246.9,138.8,246.9,138.7,246.9z M138.7,241.2c-0.1,0-0.1,0-0.1-0.1v-2.8c0-0.1,0-0.1,0.1-0.1s0.1,0,0.1,0.1v2.8
						C138.8,241.1,138.8,241.2,138.7,241.2z M138.7,235.5c-0.1,0-0.1,0-0.1-0.1v-2.8c0-0.1,0-0.1,0.1-0.1s0.1,0,0.1,0.1v2.8
						C138.8,235.4,138.8,235.5,138.7,235.5z M138.7,229.8c-0.1,0-0.1,0-0.1-0.1v-2.8c0-0.1,0-0.1,0.1-0.1s0.1,0,0.1,0.1v2.8
						C138.8,229.7,138.8,229.8,138.7,229.8z M138.7,224.1c-0.1,0-0.1,0-0.1-0.1v-2.8c0-0.1,0-0.1,0.1-0.1s0.1,0,0.1,0.1v2.8
						C138.8,224,138.8,224.1,138.7,224.1z M138.7,218.4c-0.1,0-0.1,0-0.1-0.1v-2.8c0-0.1,0-0.1,0.1-0.1s0.1,0,0.1,0.1v2.8
						C138.8,218.3,138.8,218.4,138.7,218.4z M138.7,212.7c-0.1,0-0.1,0-0.1-0.1v-2.8c0-0.1,0-0.1,0.1-0.1s0.1,0,0.1,0.1v2.8
						C138.8,212.6,138.8,212.7,138.7,212.7z M138.7,207c-0.1,0-0.1,0-0.1-0.1V204c0-0.1,0-0.1,0.1-0.1s0.1,0,0.1,0.1v2.8
						C138.8,206.9,138.8,207,138.7,207z M138.7,201.3c-0.1,0-0.1,0-0.1-0.1v-2.8c0-0.1,0-0.1,0.1-0.1s0.1,0,0.1,0.1v2.8
						C138.8,201.2,138.8,201.3,138.7,201.3z M138.7,195.6c-0.1,0-0.1,0-0.1-0.1v-2.8c0-0.1,0-0.1,0.1-0.1s0.1,0,0.1,0.1v2.8
						C138.8,195.5,138.8,195.6,138.7,195.6z M138.7,189.9c-0.1,0-0.1,0-0.1-0.1v-2.8c0-0.1,0-0.1,0.1-0.1s0.1,0,0.1,0.1v2.8
						C138.8,189.8,138.8,189.9,138.7,189.9z"/>
					<path class="st7" d="M138.7,184.1c-0.1,0-0.1,0-0.1-0.1v-1.4c0-0.1,0-0.1,0.1-0.1h1.4c0.1,0,0.1,0,0.1,0.1c0,0.1,0,0.1-0.1,0.1
						h-1.3v1.3C138.8,184.1,138.8,184.1,138.7,184.1z"/>
					<path class="st7" d="M259.8,182.7h-2.8c-0.1,0-0.1,0-0.1-0.1c0-0.1,0-0.1,0.1-0.1h2.8c0.1,0,0.1,0,0.1,0.1
						C259.9,182.7,259.8,182.7,259.8,182.7z M254.1,182.7h-2.8c-0.1,0-0.1,0-0.1-0.1c0-0.1,0-0.1,0.1-0.1h2.8c0.1,0,0.1,0,0.1,0.1
						C254.2,182.7,254.1,182.7,254.1,182.7z M248.4,182.7h-2.8c-0.1,0-0.1,0-0.1-0.1c0-0.1,0-0.1,0.1-0.1h2.8c0.1,0,0.1,0,0.1,0.1
						C248.5,182.7,248.4,182.7,248.4,182.7z M242.7,182.7h-2.8c-0.1,0-0.1,0-0.1-0.1c0-0.1,0-0.1,0.1-0.1h2.8c0.1,0,0.1,0,0.1,0.1
						C242.8,182.7,242.7,182.7,242.7,182.7z M237,182.7h-2.8c-0.1,0-0.1,0-0.1-0.1c0-0.1,0-0.1,0.1-0.1h2.8c0.1,0,0.1,0,0.1,0.1
						C237.1,182.7,237,182.7,237,182.7z M231.3,182.7h-2.8c-0.1,0-0.1,0-0.1-0.1c0-0.1,0-0.1,0.1-0.1h2.8c0.1,0,0.1,0,0.1,0.1
						C231.4,182.7,231.3,182.7,231.3,182.7z M225.6,182.7h-2.8c-0.1,0-0.1,0-0.1-0.1c0-0.1,0-0.1,0.1-0.1h2.8c0.1,0,0.1,0,0.1,0.1
						C225.7,182.7,225.6,182.7,225.6,182.7z M219.9,182.7H217c-0.1,0-0.1,0-0.1-0.1c0-0.1,0-0.1,0.1-0.1h2.8c0.1,0,0.1,0,0.1,0.1
						C220,182.7,219.9,182.7,219.9,182.7z M214.2,182.7h-2.8c-0.1,0-0.1,0-0.1-0.1c0-0.1,0-0.1,0.1-0.1h2.8c0.1,0,0.1,0,0.1,0.1
						C214.3,182.7,214.2,182.7,214.2,182.7z M208.5,182.7h-2.8c-0.1,0-0.1,0-0.1-0.1c0-0.1,0-0.1,0.1-0.1h2.8c0.1,0,0.1,0,0.1,0.1
						C208.6,182.7,208.5,182.7,208.5,182.7z M202.8,182.7h-2.8c-0.1,0-0.1,0-0.1-0.1c0-0.1,0-0.1,0.1-0.1h2.8c0.1,0,0.1,0,0.1,0.1
						C202.9,182.7,202.8,182.7,202.8,182.7z M197.1,182.7h-2.9c-0.1,0-0.1,0-0.1-0.1c0-0.1,0-0.1,0.1-0.1h2.8c0.1,0,0.1,0,0.1,0.1
						C197.2,182.7,197.1,182.7,197.1,182.7z M191.4,182.7h-2.8c-0.1,0-0.1,0-0.1-0.1c0-0.1,0-0.1,0.1-0.1h2.8c0.1,0,0.1,0,0.1,0.1
						C191.5,182.7,191.4,182.7,191.4,182.7z M185.7,182.7h-2.8c-0.1,0-0.1,0-0.1-0.1c0-0.1,0-0.1,0.1-0.1h2.8c0.1,0,0.1,0,0.1,0.1
						C185.8,182.7,185.7,182.7,185.7,182.7z M180,182.7h-2.8c-0.1,0-0.1,0-0.1-0.1c0-0.1,0-0.1,0.1-0.1h2.8c0.1,0,0.1,0,0.1,0.1
						C180.1,182.7,180.1,182.7,180,182.7z M174.3,182.7h-2.8c-0.1,0-0.1,0-0.1-0.1c0-0.1,0-0.1,0.1-0.1h2.8c0.1,0,0.1,0,0.1,0.1
						C174.4,182.7,174.3,182.7,174.3,182.7z M168.6,182.7h-2.8c-0.1,0-0.1,0-0.1-0.1c0-0.1,0-0.1,0.1-0.1h2.8c0.1,0,0.1,0,0.1,0.1
						C168.7,182.7,168.6,182.7,168.6,182.7z M162.9,182.7H160c-0.1,0-0.1,0-0.1-0.1c0-0.1,0-0.1,0.1-0.1h2.8c0.1,0,0.1,0,0.1,0.1
						C163,182.7,163,182.7,162.9,182.7z M157.2,182.7h-2.8c-0.1,0-0.1,0-0.1-0.1c0-0.1,0-0.1,0.1-0.1h2.8c0.1,0,0.1,0,0.1,0.1
						C157.3,182.7,157.3,182.7,157.2,182.7z M151.5,182.7h-2.8c-0.1,0-0.1,0-0.1-0.1c0-0.1,0-0.1,0.1-0.1h2.8c0.1,0,0.1,0,0.1,0.1
						C151.6,182.7,151.5,182.7,151.5,182.7z M145.8,182.7h-2.8c-0.1,0-0.1,0-0.1-0.1c0-0.1,0-0.1,0.1-0.1h2.8c0.1,0,0.1,0,0.1,0.1
						C145.9,182.7,145.9,182.7,145.8,182.7z"/>
					<path class="st7" d="M264,184.1c-0.1,0-0.1,0-0.1-0.1v-1.3h-1.3c-0.1,0-0.1,0-0.1-0.1c0-0.1,0-0.1,0.1-0.1h1.4
						c0.1,0,0.1,0,0.1,0.1v1.4C264.1,184.1,264.1,184.1,264,184.1z"/>
					<path class="st7" d="M264,264c-0.1,0-0.1,0-0.1-0.1V261c0-0.1,0-0.1,0.1-0.1s0.1,0,0.1,0.1v2.8C264.1,264,264.1,264,264,264z
						 M264,258.3c-0.1,0-0.1,0-0.1-0.1v-2.8c0-0.1,0-0.1,0.1-0.1s0.1,0,0.1,0.1v2.8C264.1,258.3,264.1,258.3,264,258.3z M264,252.6
						c-0.1,0-0.1,0-0.1-0.1v-2.8c0-0.1,0-0.1,0.1-0.1s0.1,0,0.1,0.1v2.8C264.1,252.5,264.1,252.6,264,252.6z M264,246.9
						c-0.1,0-0.1,0-0.1-0.1v-2.8c0-0.1,0-0.1,0.1-0.1s0.1,0,0.1,0.1v2.8C264.1,246.9,264.1,246.9,264,246.9z M264,241.2
						c-0.1,0-0.1,0-0.1-0.1v-2.8c0-0.1,0-0.1,0.1-0.1s0.1,0,0.1,0.1v2.8C264.1,241.1,264.1,241.2,264,241.2z M264,235.5
						c-0.1,0-0.1,0-0.1-0.1v-2.8c0-0.1,0-0.1,0.1-0.1s0.1,0,0.1,0.1v2.8C264.1,235.4,264.1,235.5,264,235.5z M264,229.8
						c-0.1,0-0.1,0-0.1-0.1v-2.8c0-0.1,0-0.1,0.1-0.1s0.1,0,0.1,0.1v2.8C264.1,229.7,264.1,229.8,264,229.8z M264,224.1
						c-0.1,0-0.1,0-0.1-0.1v-2.8c0-0.1,0-0.1,0.1-0.1s0.1,0,0.1,0.1v2.8C264.1,224,264.1,224.1,264,224.1z M264,218.4
						c-0.1,0-0.1,0-0.1-0.1v-2.8c0-0.1,0-0.1,0.1-0.1s0.1,0,0.1,0.1v2.8C264.1,218.3,264.1,218.4,264,218.4z M264,212.7
						c-0.1,0-0.1,0-0.1-0.1v-2.8c0-0.1,0-0.1,0.1-0.1s0.1,0,0.1,0.1v2.8C264.1,212.6,264.1,212.7,264,212.7z M264,207
						c-0.1,0-0.1,0-0.1-0.1V204c0-0.1,0-0.1,0.1-0.1s0.1,0,0.1,0.1v2.8C264.1,206.9,264.1,207,264,207z M264,201.3
						c-0.1,0-0.1,0-0.1-0.1v-2.8c0-0.1,0-0.1,0.1-0.1s0.1,0,0.1,0.1v2.8C264.1,201.2,264.1,201.3,264,201.3z M264,195.6
						c-0.1,0-0.1,0-0.1-0.1v-2.8c0-0.1,0-0.1,0.1-0.1s0.1,0,0.1,0.1v2.8C264.1,195.5,264.1,195.6,264,195.6z M264,189.9
						c-0.1,0-0.1,0-0.1-0.1v-2.8c0-0.1,0-0.1,0.1-0.1s0.1,0,0.1,0.1v2.8C264.1,189.8,264.1,189.9,264,189.9z"/>
				</g>
				<rect x="137" y="180.4" class="st7" width="4.4" height="4.4"/>
				<rect x="137" y="266" class="st7" width="4.4" height="4.4"/>
				<rect x="261.2" y="180.4" class="st7" width="4.4" height="4.4"/>
				<rect x="137" y="223.2" class="st7" width="4.4" height="4.4"/>
				<rect x="261.2" y="223.2" class="st7" width="4.4" height="4.4"/>
				<rect x="261.2" y="266" class="st7" width="4.4" height="4.4"/>
				<g>
					<rect x="199.2" y="180.4" class="st7" width="4.4" height="4.4"/>
					<rect x="199.2" y="266" class="st7" width="4.4" height="4.4"/>
				</g>
			</g>
		</g>
		<g>
			<path class="st5" d="M257.2,275.9H144.8c-0.6,0-1,0.4-1,1v9c0,0.6,0.4,1,1,1h112.4c0.6,0,1-0.4,1-1v-9
				C258.2,276.4,257.8,275.9,257.2,275.9z"/>
			
				<linearGradient id="SVGID_2_" gradientUnits="userSpaceOnUse" x1="203.2238" y1="-1093.2151" x2="198.2989" y2="-1117.6581" gradientTransform="matrix(1 0 0 1 0 1388)">
				<stop  offset="0" style="stop-color:#FECB79"/>
				<stop  offset="0.4916" style="stop-color:#F7943F"/>
				<stop  offset="1" style="stop-color:#F37021"/>
			</linearGradient>
			<rect x="145.9" y="280.9" class="st20" width="109.7" height="3.3"/>
			<path class="st11" d="M257.3,275.9H144.8c-0.5,0-1,0.4-1,1v1.9h114.4v-1.9C258.2,276.3,257.8,275.9,257.3,275.9z"/>
		</g>
		<g>
			<rect x="287.7" y="184.8" class="st21" width="8.1" height="8.1"/>
			<rect x="300.5" y="184.8" class="st22" width="8.1" height="8.1"/>
			<rect x="313.4" y="184.8" class="st21" width="8.1" height="8.1"/>
			<rect x="326.2" y="184.8" class="st22" width="8.1" height="8.1"/>
			<rect x="287.7" y="196.7" class="st22" width="8.1" height="8.1"/>
			<rect x="300.5" y="196.7" class="st21" width="8.1" height="8.1"/>
			<rect x="313.4" y="196.7" class="st22" width="8.1" height="8.1"/>
			<rect x="326.2" y="196.7" class="st21" width="8.1" height="8.1"/>
		</g>
		<path class="st22" d="M334.5,172.7h-46.9c-2,0-3.7,1.7-3.7,3.7v0.7h54.3v-0.7C338.2,174.3,336.5,172.7,334.5,172.7z"/>
		
			<linearGradient id="SVGID_3_" gradientUnits="userSpaceOnUse" x1="138.1998" y1="-975.1841" x2="138.1998" y2="-980.9808" gradientTransform="matrix(1 0 0 1 0 1388)">
			<stop  offset="0" style="stop-color:#F57E26"/>
			<stop  offset="1" style="stop-color:#F37021"/>
		</linearGradient>
		<path class="st23" d="M135.3,403.5l1.3,13.4c0,0,1.3,0.5,2.9,0l1.5-11.3L135.3,403.5z"/>
		
			<linearGradient id="SVGID_4_" gradientUnits="userSpaceOnUse" x1="100.6605" y1="-975.3012" x2="100.6605" y2="-981.718" gradientTransform="matrix(1 0 0 1 0 1388)">
			<stop  offset="0" style="stop-color:#F57E26"/>
			<stop  offset="1" style="stop-color:#F37021"/>
		</linearGradient>
		<path class="st24" d="M97.5,400l1.9,16.3c0,0,2.4,0.7,3.7,0l0.7-12.4L97.5,400z"/>
		<path class="st25" d="M116.6,200.6c-1.6-3.1-5.3-3.8-8.4-4.3c-1-0.2-1.5,1.4-0.4,1.6c0.1,0,0.2,0,0.2,0c0,3.3,0.1,6.7,2.2,9.4
			c1.4,1.8,4.5,3.7,6.4,1.5C118.4,206.9,117.7,202.7,116.6,200.6z"/>
		<path class="st26" d="M102.8,234c0,0-4.5,6.3-5.9,13.7c-1.4,7.5-6,20.3-4.2,23.6c1.8,3.2,32,9.4,33.8,10.7s4.1,4.2,5,5.9
			c0.9,1.6,6.7,2.3,7.4,0c0.7-2.3-2.4-8.8-8.8-10.9c-6.3-2.1-23.9-10.4-23.9-10.4L102.8,234z"/>
		
			<linearGradient id="SVGID_5_" gradientUnits="userSpaceOnUse" x1="81.0938" y1="-1124.0977" x2="102.4247" y2="-1131.1007" gradientTransform="matrix(1 0 0 1 0 1388)">
			<stop  offset="0" style="stop-color:#FCB764"/>
			<stop  offset="1" style="stop-color:#F9A44E"/>
		</linearGradient>
		<path class="st27" d="M113.5,271.8l2.1-0.9c-5.1-2.3-9.4-4.3-9.4-4.3l-3.4-32.6c0,0-4.5,6.3-5.9,13.7c-1.4,7.5-6,20.3-4.2,23.6
			c0.9,1.6,8.8,4,16.8,6.1L113.5,271.8z"/>
		<path class="st26" d="M101.1,279.7c0,0-6.9,8.7-7,21.9c0,13.3,6.3,34.2,5.9,40.8c-0.4,6.5-2,8.7-2.2,19.1s5,23.9,3.7,29.4
			c-1.4,5.7-6.7,8.2-2.4,12.7c4.1,4.2,8.2,7,10.2,10.9c2,3.9,16.9,2.9,14.5-0.3c-2.4-3.2-14.7-11.3-14.3-27.5s4.8-76.9,4.8-76.9
			L101.1,279.7z"/>
		<path class="st26" d="M113.7,219.9c0,0-0.2,9.8,2.4,11.4c2.7,1.6,6.6,9.3,9.3,12.8s3.3,8,1.4,11.2c-2,3.2-4,7-4.7,12.3
			c-0.7,5.3,0.1,15.8,2.8,24.8c2.8,9,11.9,51.5,12.5,55.3c0.7,3.7,5.9,41.5,7.8,47.8c1.9,6.3,7.3,13.6,10.4,15.6
			c3.1,2,13.5,3.9,9.6,5.7s-15.8,1.1-17.2,0c-1.5-1.1-5-7.8-8.9-9.1c-3.9-1.3-5-5.2-2.4-10.4c2.6-5.2-3.5-18.5-7.4-28.8
			c-3.9-10.2-2.6-18.2-6.2-25.8c-3.6-7.7-28.9-33.9-25.9-50.1c2.9-15.6,7.9-15.6,7-22.7c-0.8-7.2-6.3-20.3-4.1-28.7
			c2.2-8.4,6.4-10.3,6.2-16.9c-0.2-6.6,0.5-8,0.5-8L113.7,219.9z"/>
		<path class="st26" d="M113.5,235c0,0,25.5-8.3,28.8-14.2c3.3-5.9,10.9-17.1,9.8-21.4c-1.1-4.3-0.3-8.9,1.9-9.1s7.1,3.6,6.1,6.5
			c-1,2.9-3.2,1.4-4.2,6.6c-1,5.2-4.7,23.3-8.3,25.6c-3.6,2.3-25.6,15.7-25.6,15.7L113.5,235z"/>
		<path class="st26" d="M116.7,221.4c2.5-1,2.1-4.5,1.1-8.7l-1.4-5c-0.3-1.1-0.6-2.2-0.9-3.2c-1.8-7.2-8.5-8-8.5-8
			c-14.9,5.4-9.9,16.2-6.3,21.7C104.2,223.7,113.4,222.7,116.7,221.4z"/>
		
			<linearGradient id="SVGID_6_" gradientUnits="userSpaceOnUse" x1="115.1079" y1="-1127.8783" x2="101.596" y2="-1157.2467" gradientTransform="matrix(1 0 0 1 0 1388)">
			<stop  offset="0" style="stop-color:#FCB764"/>
			<stop  offset="1" style="stop-color:#F9A44E"/>
		</linearGradient>
		<path class="st28" d="M125.4,244c-2.7-3.5-6.6-11.1-9.3-12.8c-0.2-0.1-0.4-0.3-0.6-0.6c1.5-1.7,3-5.7-0.2-6.3
			c-0.8-0.2-1.5,0.1-2.2,0.4c-0.9,0.4-1.4,0.9-2.6,0.5c-0.3-0.1-0.6-0.4-1-0.6c-1-0.3-1.8,0.4-2.7,0.2c-0.9-0.2-1.5-0.8-2.4-0.8
			c-3.8-0.1-1.3,4.9,0.1,6.8c-1.4,2.6-3.3,5.3-4.5,10.1c-2.2,8.4,3.3,21.6,4.1,28.7c0.2,1.9,0,3.3-0.4,4.7
			c6.5,1.8,14.3-0.4,18.1-1.7c0-2,0-3.8,0.3-5.2c0.7-5.3,2.8-9.1,4.7-12.3C128.7,252.1,128.1,247.5,125.4,244z"/>
		
			<linearGradient id="SVGID_7_" gradientUnits="userSpaceOnUse" x1="147.9819" y1="-1153.7681" x2="106.6745" y2="-1171.4237" gradientTransform="matrix(1 0 0 1 0 1388)">
			<stop  offset="0" style="stop-color:#FCB764"/>
			<stop  offset="1" style="stop-color:#F9A44E"/>
		</linearGradient>
		<path class="st29" d="M155.7,217.3c-0.7-0.6-1.2-0.3-1.9-0.2c-0.2,0-0.3,0.3-0.5,0.3c-0.3,0-0.6-0.5-0.7-0.7
			c-0.1-0.3,0-0.8-0.1-1.1c-0.1-0.7-0.5-1.3-1.2-1.5c-0.6-0.2-1.2,0-1.7,0.3c-0.3,0.2-0.7,0.7-1,0.7c-0.5,0-0.7-0.5-0.9-0.8
			c-0.8-1.1-2.1-2.1-3.3-0.7c-0.7,0.8-0.7,2.1-0.7,3.1c0,0.6-0.1,1.3-0.1,1.9c-0.5,0.8-0.9,1.6-1.3,2.3
			c-3.3,5.9-28.8,14.2-28.8,14.2l8.3,9.6c0,0,22-13.4,25.6-15.7c0.1-0.1,0.2-0.1,0.3-0.2c2.1-1,3.9-3.5,5.2-5
			c1.1-1.3,3.4-2.9,3.5-4.7C156.4,218.4,156.1,217.7,155.7,217.3z"/>
		<path class="st15" d="M123.9,414.1c-0.7-0.9-2.1-2.2-3.8-3.9c-2.2,0.1-5.1,0-7.5-0.8c-4.4-1.5-12.6-15-12.6-15l0,0
			c-1.9,3.4-4.2,5.7-0.9,9.1c4.1,4.2,8.2,7,10.2,10.9C111.3,418.3,126.2,417.4,123.9,414.1z"/>
		<path class="st15" d="M156.2,411.3c-4.4,1.9-8.6-1.9-11.3-5.6c-2.2-2.9-6.2-6.4-8.4-8.3c-2.4,5.1-1.3,8.9,2.6,10.1
			c3.9,1.3,7.5,8,8.9,9.1c1.5,1.1,13.3,1.8,17.2,0C168.9,415,159.9,413.1,156.2,411.3z"/>
		<g>
			<ellipse class="st30" cx="96.6" cy="255.2" rx="1.3" ry="1.3"/>
			<ellipse class="st30" cx="98.8" cy="266.2" rx="1.3" ry="1.3"/>
			<path class="st30" d="M97.7,248c0.4-0.6,0.3-1.4-0.3-1.8c0,0-0.1,0-0.1,0c-0.1,0.5-0.3,1.1-0.4,1.6c0,0.3-0.1,0.5-0.2,0.8
				C97.1,248.5,97.5,248.3,97.7,248z"/>
			<path class="st30" d="M93.8,263.7c0.4-0.6,0.3-1.4-0.3-1.8c0,0,0,0,0,0c-0.2,0.8-0.4,1.6-0.5,2.4
				C93.2,264.2,93.6,264.1,93.8,263.7z"/>
			<path class="st30" d="M98.5,274.1c0.4-0.6,0.3-1.4-0.3-1.8c-0.6-0.4-1.4-0.3-1.8,0.3c-0.2,0.2-0.2,0.5-0.2,0.7
				C96.8,273.6,97.6,273.9,98.5,274.1C98.5,274.1,98.5,274.1,98.5,274.1z"/>
		</g>
		<g>
			<ellipse class="st30" cx="109.7" cy="257" rx="1.3" ry="1.3"/>
			<path class="st30" d="M104.8,266.3c0.4-0.6,0.3-1.4-0.3-1.8c-0.4-0.3-1-0.3-1.4,0c0.2,0.8,0.4,1.6,0.5,2.4
				C104.1,266.9,104.6,266.7,104.8,266.3z"/>
			<ellipse class="st30" cx="107.3" cy="239.3" rx="1.3" ry="1.3"/>
			<ellipse class="st30" cx="111.4" cy="265.8" rx="1.3" ry="1.3"/>
			<circle class="st30" cx="104" cy="245.9" r="1.3"/>
			<path class="st30" d="M100.5,253.7c0.5,0.1,1.1,0,1.4-0.5c0.4-0.6,0.3-1.4-0.3-1.8c-0.5-0.3-1-0.3-1.5,0
				C100.2,252.2,100.3,252.9,100.5,253.7z"/>
			<ellipse class="st30" cx="113.5" cy="246.9" rx="1.3" ry="1.3"/>
			<circle class="st30" cx="110.8" cy="231.6" r="1.3"/>
			<ellipse class="st30" cx="121.6" cy="248.5" rx="1.3" ry="1.3"/>
			<path class="st30" d="M124.3,257c-0.4,0.6-0.3,1.4,0.3,1.8c0,0,0.1,0,0.1,0.1c0.4-0.8,0.8-1.6,1.2-2.3
				C125.4,256.3,124.7,256.4,124.3,257z"/>
			<ellipse class="st30" cx="119.9" cy="270.3" rx="1.3" ry="1.3"/>
			<ellipse class="st30" cx="118.2" cy="259" rx="1.3" ry="1.3"/>
			<circle class="st30" cx="118.2" cy="241.7" r="1.3"/>
		</g>
		<g>
			<ellipse class="st30" cx="150.8" cy="219" rx="1.3" ry="1.3"/>
			<ellipse class="st30" cx="141.7" cy="228" rx="1.3" ry="1.3"/>
			<path class="st30" d="M143.8,219.8c0.7,0.1,1.4-0.4,1.5-1.1c0.1-0.7-0.4-1.4-1.1-1.5c-0.2,0-0.3,0-0.4,0c0,0.4,0,0.9-0.1,1.3
				c-0.2,0.3-0.4,0.6-0.5,0.9C143.2,219.6,143.5,219.7,143.8,219.8z"/>
			<path class="st30" d="M151.2,225.8c-0.3-0.6-1-0.9-1.6-0.7c-0.7,0.3-1,1-0.8,1.7c0.1,0.3,0.4,0.6,0.7,0.7
				C150.1,227,150.7,226.3,151.2,225.8z"/>
			<path class="st30" d="M125.9,240.6c-0.7,0-1.3,0.6-1.3,1.3c0,0.3,0.1,0.7,0.3,0.9c0.7-0.4,1.4-0.8,2.2-1.3
				C127,240.9,126.5,240.6,125.9,240.6z"/>
			<path class="st30" d="M133,227.3c0.3,0.7,1,1,1.7,0.8c0.7-0.3,1-1,0.8-1.7c0-0.1-0.1-0.2-0.1-0.3
				C134.6,226.5,133.8,226.9,133,227.3C133,227.3,133,227.3,133,227.3z"/>
			<path class="st30" d="M135.5,234.6c-0.7,0-1.3,0.6-1.3,1.3c0,0.4,0.2,0.7,0.4,0.9c0.7-0.4,1.4-0.9,2.1-1.3
				C136.6,235,136.1,234.6,135.5,234.6z"/>
			<path class="st30" d="M122.1,233.4c0.7,0,1.3-0.6,1.3-1.3c0-0.2,0-0.4-0.1-0.6c-0.8,0.3-1.6,0.6-2.4,0.9
				C121,233,121.5,233.4,122.1,233.4z"/>
			<ellipse class="st30" cx="129.6" cy="234.1" rx="1.3" ry="1.3"/>
		</g>
		
			<linearGradient id="SVGID_8_" gradientUnits="userSpaceOnUse" x1="105.2407" y1="-1152.1007" x2="98.7491" y2="-1193.2148" gradientTransform="matrix(1 0 0 1 0 1388)">
			<stop  offset="0" style="stop-color:#F57E26"/>
			<stop  offset="1" style="stop-color:#F37021"/>
		</linearGradient>
		<path class="st31" d="M114,200.3c0-0.1-0.1-0.2-0.2-0.2c-1.3-2.5-3.9-4-6.8-3.9c-0.6,0-1.1,0-1.5,0c0,0-0.1,0-0.1,0
			c-4.5,0.2-8,3.3-9.9,7.2c-2.1,4.1-2.5,8.7-3.5,13.2c-1.3,2.7-3.1,5.2-3.3,8.3c-0.1,1.4,0.2,2.7,1,3.8c1.1,1.5,3.1,2.3,3.8,4.1
			c-0.4,1.5-1,2.9-0.4,4.6c0.6,1.7,2,2.9,3.8,3.3c1.6,0.3,3.6,0.4,5.3-0.1c1.7,0.5,3.8,0,4.9-1.8c2.6-4-0.7-8.7,0-13.1
			c1-1.7,2.1-2.9,1.7-5.1c-0.2-1.3-0.8-2.5-0.7-3.8c0-0.3,0-0.5,0.1-0.7c1.5-2.1,4.2-3.8,5.7-5.7C116.2,207.1,115.3,203.6,114,200.3
			z M92.7,230.4c-1.7-1.5-3.2-2.6-3.3-5.1c0-2.2,0.9-4.2,2-6.2c-0.6,2.1-1.4,4.2-0.9,6.3c0.2,0.9,0.7,1.7,1.3,2.4c0.8,1,2,1.8,2,3.1
			c0,0.2,0,0.4,0,0.6C93.4,231.2,93.1,230.8,92.7,230.4z M107.4,234.1c0.1,1.8-0.2,3.8-1.6,5c-0.7,0.7-1.6,0.9-2.5,0.9
			c0.3-0.2,0.6-0.3,0.9-0.5c1-0.7,2-1.7,2.5-2.9c1.4-2.4-0.1-5.4-0.3-8.1C106.7,230.3,107.2,232.2,107.4,234.1z M110.5,212.4
			c-0.6,0.6-1.3,1.1-1.9,1.8c0.2-0.5,0.5-0.9,0.8-1.3c1.8-2.8,4.7-5.3,5.1-8.7c0.2,1.1,0.3,2.3-0.1,3.5
			C113.8,209.7,112.1,211.1,110.5,212.4z"/>
		
			<linearGradient id="SVGID_9_" gradientUnits="userSpaceOnUse" x1="112.8667" y1="-1061.5259" x2="97.8385" y2="-1114.0022" gradientTransform="matrix(1 0 0 1 0 1388)">
			<stop  offset="0" style="stop-color:#FECB79"/>
			<stop  offset="1" style="stop-color:#FCBB68"/>
		</linearGradient>
		<path class="st32" d="M124.9,292.3c-2.3-7.6-3.3-16.3-3.1-22c-6.4,1.7-13.1,1.1-17.6,0.3c0.2,3.7-1.3,5.4-3.1,9.1
			c-0.5,0.6-6.4,8.5-6.9,20.4l0,0c0,0,0,0,0,0.1c0,0.4,0,0.9,0,1.3c0,0,0,0.1,0,0.1c0,2.5,0,7.9,0.7,13.7c0.9,8-5.3,16.8-5.3,16.8
			s2.8,3.1,11.4,5.1c0,0,0,0,0,0c3.7,0.9,7.6,1.3,11.4,1.5c0,0,1.9,0.4,8.2-0.1c6-0.3,11.3-1.2,14.7-1.8
			C132.1,322.5,126.9,298.7,124.9,292.3z"/>
		<g>
			<path class="st33" d="M103.2,301c0-2.6,0.1-5.1,0.4-7.7c0.3-2.6,1-5.1,1.8-7.6c1.6-4.7,3.6-9.5,2.9-14.5c-0.1,0-0.2,0-0.3,0
				c0.7,4.7-1.1,9.3-2.6,13.7c-0.8,2.4-1.6,4.9-2,7.5c-0.4,2.5-0.5,5-0.5,7.6c0,5.2,0.4,10.4,0.2,15.7c-0.2,5.1-1.2,10.2-2.8,15
				c-0.7,2-1.6,3.9-2.4,5.9c0.1,0,0.2,0.1,0.3,0.1c0.8-1.9,1.6-3.7,2.3-5.6c1.6-4.6,2.5-9.5,2.8-14.3
				C103.7,311.4,103.2,306.2,103.2,301z"/>
			<path class="st33" d="M112.5,287.2c-0.2-5.3,0.1-10.6,1.2-15.8c-0.1,0-0.2,0-0.3,0c-2.1,9.5-1.3,19.3,0,28.8
				c1.3,10.2,3,20.4,2.2,30.7c-0.2,2.6-0.4,5.3-0.3,8c0.1,0,0.2,0,0.3,0c-0.2-2.4,0-4.8,0.2-7.1c0.4-4.9,0.3-9.8-0.1-14.7
				C114.9,307.1,112.9,297.2,112.5,287.2z"/>
			<path class="st33" d="M123.7,329.3c-0.2-4.7-0.8-9.4-1.7-14c-1.9-9.6-4.7-19-5.8-28.7c-0.6-5.1-0.7-10.3,0.1-15.4
				c-0.1,0-0.2,0-0.3,0c-3.1,19.4,6.5,38,7.3,57.3c0.1,3.2,0.2,6.7,1.1,9.8c0.1,0,0.2,0,0.3,0C123.9,335.4,123.9,332.3,123.7,329.3z
				"/>
			<path class="st33" d="M93.6,334.8c1.6-3.5,3.1-7,4.2-10.8c0.6-2.2,1-4.5,1.2-6.7c0.2-2.5,0-5-0.2-7.5c-0.4-4.9-0.9-9.8,0.3-14.6
				c1-4.1,2.8-8,4.3-12c1.5-3.9,2.8-8,2.8-12.3c-0.1,0-0.2,0-0.3,0c0,8.1-4.7,15.3-6.8,22.9c-1.3,4.5-1.2,8.9-0.8,13.5
				c0.4,4.9,0.8,9.8-0.3,14.6c-1,4.4-2.8,8.6-4.6,12.7C93.4,334.7,93.5,334.7,93.6,334.8z"/>
			<path class="st33" d="M130.8,333.7c-1.1-5.2-2.3-10.3-3.4-15.5c-2.3-10.3-4.7-20.6-6.5-30.9c-1-5.4-1.7-10.9-2.2-16.4
				c-0.1,0-0.2,0-0.3,0c0.8,10.1,2.8,20,4.9,29.9c2.3,10.6,4.6,21.2,7,31.8c0.3,1.5,0.7,3.1,1.1,4.7c0.1,0,0.2,0,0.3,0
				C131.4,336.2,131.1,335,130.8,333.7z"/>
			<path class="st33" d="M106.7,328c0.7-2.2,1.4-4.4,1.9-6.6c0.5-2.1,0.7-4.3,0.7-6.6c0.1-4.8-0.4-9.5-0.5-14.3
				c-0.1-4.8,0.1-9.7,0.4-14.5c0.4-4.9,0.9-9.8,1.4-14.8c-0.1,0-0.2,0-0.3,0c-1,9.2-2,18.4-1.9,27.7c0,4.8,0.6,9.5,0.6,14.3
				c0,2.5-0.1,5-0.6,7.4c-0.5,2.3-1.2,4.5-1.9,6.7c-1.1,3.4-2.1,7-2,10.6c0.1,0,0.2,0,0.3,0C104.8,334.6,105.7,331.3,106.7,328z"/>
		</g>
		
			<linearGradient id="SVGID_10_" gradientUnits="userSpaceOnUse" x1="-7174.6689" y1="-1008.8363" x2="-7100.1709" y2="-1008.8363" gradientTransform="matrix(-1 0 0 1 -6792.2827 1388)">
			<stop  offset="0" style="stop-color:#FFE091"/>
			<stop  offset="1" style="stop-color:#FFD282"/>
		</linearGradient>
		<path class="st34" d="M341.6,352.5c0,0-3.8,10.1-7.1,17.2c-3.3,7.1-9.8,18-7.6,18s38.4-1,41.2-2.1c2.8-1.2,10.4-5.8,12.4-1.5
			s2.9,22.8,0.8,23.3c-5.7,1.4-15.7,2.4-10.8-4.2c1.4-1.9,3.3-9.8-2.3-7.9c-5.6,1.8-41.4,8.9-53.9,6.6c-12.5-2.3-2.6-36.5-2.6-36.5
			l10.7-15.4L341.6,352.5z"/>
		<path class="st25" d="M381.2,407.3c2.1-0.5,1.1-19-0.8-23.3s-9.6,0.3-12.4,1.5c-0.4,0.2-1.8,0.4-3.7,0.5v10.2
			c1.7-0.4,3.1-0.7,3.8-1c5.6-1.8,3.7,6,2.3,7.9C365.5,409.8,375.5,408.7,381.2,407.3z"/>
		
			<linearGradient id="SVGID_11_" gradientUnits="userSpaceOnUse" x1="346.3076" y1="-958.5892" x2="334.2752" y2="-1018.3066" gradientTransform="matrix(1 0 0 1 0 1388)">
			<stop  offset="0" style="stop-color:#F57E26"/>
			<stop  offset="1" style="stop-color:#F37021"/>
		</linearGradient>
		<path class="st35" d="M326.8,387.7c-2.1,0,4.3-10.9,7.6-18c3.3-7.1,7.1-17.2,7.1-17.2l-19.2-2.5l-10.7,15.4c0,0-9.9,34.2,2.6,36.5
			c12.5,2.3,43.1-0.3,48.9-1.1c1.7-0.2,5.5-0.7,5.7-0.7c0-3.6-0.3-12.7-0.5-14.6c-0.1,0-0.2,0.1-0.3,0.1
			C365.2,386.7,329,387.7,326.8,387.7z"/>
		<path class="st26" d="M303.2,299.6c0,0,3.6,3.7,4.1,5.2c0.4,1.5-6,14.2-6,14.2s7,17.6,8.5,21.9c1.5,4.3-3.4,4.9-9.7,5.2
			c-6.3,0.3-23.6-1.2-27.6,3.1c-3.9,4.2,5.9,50.6,5,53.1c-1,2.5-5,3.6-10.1,6.1c-5.1,2.5-16.2,6.8-7.1,7.1
			c9.1,0.3,28.2,0.3,28.4-2.5c0.5-7.6-3.1-12.1-3.3-15.4c-0.2-3.3-0.2-31.6,2.1-32.4c2.3-0.8,13.1,3,26.3,1
			c13.2-2,25.5-6.1,27.8-13.7c2.3-7.6-5.5-32.2-9.9-39c-4.5-6.8-21.8-19.3-21.8-19.3L303.2,299.6z"/>
		<path class="st25" d="M260.2,415.4c9.1,0.3,28.2,0.3,28.4-2.5c0.5-7.6-3.1-12.1-3.3-15.4c0,0,0-0.1,0-0.1
			c-2.7,0.1-5.7,0.2-8.2,0.3c0.3,2.4,0.4,4,0.3,4.4c-1,2.5-5,3.6-10.1,6.1C262.2,410.8,251.1,415.1,260.2,415.4z"/>
		<path class="st26" d="M313.6,303.7c0,0-4.4-1.5-9.4,2.9c-5,4.4-14.7,17.5-17.4,18.3c-2.8,0.8-22.9-4.7-25.5-7.5s-4.1-5-6.2-5.1
			c-2.1-0.1-5.9,6.1-2.2,8.3c3.8,2.2,5.5,2.1,13.2,6.6c3.9,2.3,21.8,10.8,24.5,9.8c6.1-2.3,16.6-14,16.6-14l6.9-19.6"/>
		<path class="st26" d="M302.1,275.2c0,0-8.7,0.9-8.9,10.8c0,0.6,0,1.1,0,1.7c-0.4,1.5-1.5,6-1.1,6.3c0.4,0.3,1.6,0.2,2,0.2
			c1.2,4.5,3.2,7,4.4,7.1c1.8,0.3,14.3-2.5,15-12.7C314.2,278.5,310.4,274.2,302.1,275.2z"/>
		
			<linearGradient id="SVGID_12_" gradientUnits="userSpaceOnUse" x1="-7106.4956" y1="-1099.9944" x2="-7083.04" y2="-1099.9944" gradientTransform="matrix(-1 0 0 1 -6792.2827 1388)">
			<stop  offset="0" style="stop-color:#F57E26"/>
			<stop  offset="1" style="stop-color:#F37021"/>
		</linearGradient>
		<path class="st36" d="M305.2,274.7c-2.8-0.7-4.2-0.6-7,0.1c-0.7,0.2-1.5,0.4-2.1,0.7c-0.4,0.2-0.8,0.2-1.2,0.1l0,0
			c-1.2-0.4-2.4-0.7-3.5,0.4c-1.2,1.2-0.6,3.8,0.7,4.8c0.1,0.1,0.2,0.2,0.3,0.3c1,1.4,1.4,0.6,3,0.5c1.2-0.1,2.3,0,3.3,0.7
			c1,0.7,1.7,1.7,2.5,2.6c1.5,2,2.4,4.5,0.8,6.8c-0.7,1-1.7,1.7-2.9,2c-1.2,0.3-2.3,0-3.5,0.1c-0.8,0.1-1.5,0.1-1.5,1
			c0,1.1,0.3,1.6,0.9,2.4c0.7,1.1,1.4,2.3,2.2,3.3c0.6,0.7,0.7,0.9,1.7,1.1c1.1,0.2,2.1-0.1,3-0.7c1-0.7,1.7-0.9,2.6-1.8
			c1.5-1.6,2.7-3.5,3-5.7c0.2-1.4,0-2.8,0-4.2c0-0.5,0-1.2,0.4-1.5c0.6-0.4,1.3,0.3,1.6,0.8c1.2,2,0.9,4.9,3.3,6.1
			c0.5,0.2,1.2-0.1,1-0.7c-0.9-2.9,0.7-5.7,0.5-8.6c-0.2-2.8-0.7-5.8-2.7-7.7C309.5,275.8,307.8,275.3,305.2,274.7z"/>
		
			<linearGradient id="SVGID_13_" gradientUnits="userSpaceOnUse" x1="270.1667" y1="-1016.4879" x2="341.8311" y2="-1016.4879" gradientTransform="matrix(1 0 0 1 0 1388)">
			<stop  offset="0" style="stop-color:#F57E26"/>
			<stop  offset="1" style="stop-color:#F37021"/>
		</linearGradient>
		<path class="st37" d="M341.6,352.5c0.1-0.4,0.2-0.9,0.3-1.4c-6.3-1.9-23.3-7.2-32-10c1.3,4.1-3.6,4.6-9.8,5
			c-6.3,0.3-23.6-3.1-28.7,3.3c-3.8,4.7,3.4,36.4,2.9,52.6c3.4-0.2,12.2-1.2,13.9-1.7c-0.2-1.1-0.3-2.2-0.3-3.1
			c-0.2-3.3-2.6-31.1-0.3-32c2.3-0.8,13.1,3,26.3,1C327,364.2,339.2,360.1,341.6,352.5z"/>
		
			<linearGradient id="SVGID_14_" gradientUnits="userSpaceOnUse" x1="308.4146" y1="-1046.1938" x2="338.1497" y2="-1073.9766" gradientTransform="matrix(1 0 0 1 0 1388)">
			<stop  offset="0" style="stop-color:#FECB79"/>
			<stop  offset="1" style="stop-color:#FCBB68"/>
		</linearGradient>
		<path class="st38" d="M331.6,313.4c-2.6-4-9.7-10-15.1-14.3l0,0c1.9-2.8-2.6-5.3-4.5-2.6c-1.7,2.4-4.1,3.9-6.9,4.7
			c-3.2,0.8-1.9,5.9,1.4,5c0.2,0,0.3-0.1,0.5-0.1c-1.1,3.6-5.8,12.9-5.8,12.9s7,17.6,8.5,21.9c0.7,2,0,3.1-1.4,3.9
			c7,8.4,23.6,11,31.7,11.7c0.7-1.2,1.1-2.6,1.5-4C343.9,344.8,336.1,320.2,331.6,313.4z"/>
		
			<linearGradient id="SVGID_15_" gradientUnits="userSpaceOnUse" x1="279.5828" y1="-1058.4012" x2="327.3318" y2="-1100.9193" gradientTransform="matrix(1 0 0 1 0 1388)">
			<stop  offset="0" style="stop-color:#FECB79"/>
			<stop  offset="1" style="stop-color:#FCBB68"/>
		</linearGradient>
		<path class="st39" d="M313.6,303.7c0,0-4.4-1.5-9.4,2.9c-4.9,4.4-14.7,17.5-17.4,18.3c-1.9,0.5-11.6-1.8-18.6-4.2
			c-0.3,1.8-2.7,6.8-4.2,8.5c0.2,0.1,2.3,1.4,2.4,1.5c3.9,2.3,21.6,7.4,24.3,6.4c6.1-2.3,16.6-14,16.6-14l6.9-19.6L313.6,303.7z"/>
	</g>
	<g>
		<path class="st40" d="M362.1,127.5H75.3c-3.8,0-6.8,3.1-6.8,6.8v190.1c0,3.8,3.1,6.8,6.8,6.8h286.8c3.8,0,6.8-3.1,6.8-6.8V134.3
			C368.9,130.6,365.8,127.5,362.1,127.5z"/>
		<rect x="216.7" y="239.6" class="st41" width="114.1" height="68"/>
		<rect x="93.5" y="166.8" class="st42" width="114.1" height="68"/>
		<path class="st43" d="M338,265h-54.5c-2.7,0-4.9-2.2-4.9-4.9v-88.4c0-2.7,2.2-4.9,4.9-4.9H338c2.7,0,4.9,2.2,4.9,4.9v88.4
			C342.8,262.9,340.6,265,338,265z"/>
		<path class="st44" d="M334.5,172.7h-46.9c-2,0-3.7,1.7-3.7,3.7v32.4c0,2,1.7,3.7,3.7,3.7h46.9c2,0,3.7-1.7,3.7-3.7v-32.4
			C338.1,174.3,336.5,172.7,334.5,172.7z"/>
		<g>
			<path class="st45" d="M334.5,219.9h-46.9c-2,0-3.7,1.7-3.7,3.7V256c0,2,1.7,3.7,3.7,3.7h46.9c2,0,3.7-1.7,3.7-3.7v-32.4
				C338.1,221.5,336.5,219.9,334.5,219.9z"/>
			<g>
				<rect x="290.1" y="229.4" class="st46" width="5.9" height="5.9"/>
				<rect x="299" y="229.4" class="st47" width="5.9" height="5.9"/>
				<rect x="308" y="229.4" class="st46" width="5.9" height="5.9"/>
				<rect x="317" y="229.4" class="st47" width="5.9" height="5.9"/>
				<rect x="325.9" y="229.4" class="st46" width="5.9" height="5.9"/>
			</g>
			<path class="st48" d="M334.5,219.9h-46.9c-2,0-3.7,1.7-3.7,3.7v1.1h54.3v-1.1C338.1,221.5,336.5,219.9,334.5,219.9z"/>
		</g>
		<g>
			<path class="st43" d="M104.2,155.9H85c-1.6,0-3,1.3-3,3v80.8c0,1.6,1.3,3,3,3h19.2c1.6,0,3-1.3,3-3v-80.8
				C107.2,157.2,105.8,155.9,104.2,155.9z"/>
			<path class="st49" d="M104.1,155.9H85.1c-1.7,0-3.1,1.4-3.1,3.1v3.7h25.1V159C107.2,157.3,105.8,155.9,104.1,155.9z"/>
			<rect x="84.5" y="166" class="st50" width="8.8" height="8.8"/>
			<rect x="95.4" y="176" class="st50" width="8.8" height="8.8"/>
			<rect x="84.5" y="185.1" class="st50" width="8.8" height="8.8"/>
			<rect x="95.4" y="195.1" class="st50" width="8.8" height="8.8"/>
			<rect x="84.5" y="204.1" class="st50" width="8.8" height="8.8"/>
			<rect x="95.4" y="214.2" class="st50" width="8.8" height="8.8"/>
		</g>
		<g>
			<path class="st43" d="M266.8,293.6H166c-1.3,0-2.4,1.1-2.4,2.4v16.1c0,1.3,1.1,2.4,2.4,2.4h100.8c1.3,0,2.4-1.1,2.4-2.4V296
				C269.2,294.7,268.2,293.6,266.8,293.6z"/>
			
				<linearGradient id="SVGID_16_" gradientUnits="userSpaceOnUse" x1="187.6505" y1="-1056.6395" x2="247.8886" y2="-1110.2784" gradientTransform="matrix(1 0 0 1 0 1388)">
				<stop  offset="0" style="stop-color:#F9B7AC"/>
				<stop  offset="0.4916" style="stop-color:#F69485"/>
				<stop  offset="1" style="stop-color:#F69485"/>
			</linearGradient>
			<rect x="167.5" y="300.4" class="st51" width="100.6" height="8.3"/>
			<path class="st49" d="M266.8,293.6H166c-1.4,0-2.4,1.1-2.4,2.4v1.1h105.7V296C269.2,294.7,268.2,293.6,266.8,293.6z"/>
			<g>
				<polygon class="st52" points="167.5,308.7 166.3,310.9 167.5,310.9 168.6,310.9 				"/>
				<polygon class="st52" points="186.2,308.7 185,310.9 186.2,310.9 187.3,310.9 				"/>
				<polygon class="st52" points="212.6,308.7 211.4,310.9 212.6,310.9 213.8,310.9 				"/>
				<polygon class="st52" points="268.1,308.7 266.9,310.9 268.1,310.9 269.3,310.9 				"/>
			</g>
			<rect x="169.5" y="300.4" class="st52" width="0.3" height="8.3"/>
			<rect x="172.5" y="300.4" class="st52" width="0.3" height="8.3"/>
			<rect x="174.1" y="300.4" class="st52" width="0.3" height="8.3"/>
			<rect x="175.2" y="300.4" class="st52" width="0.3" height="8.3"/>
			<rect x="186" y="300.4" class="st52" width="0.3" height="8.3"/>
			<rect x="212.4" y="300.4" class="st52" width="0.3" height="8.3"/>
			<rect x="214.9" y="300.4" class="st52" width="0.3" height="8.3"/>
			<rect x="216.2" y="300.4" class="st52" width="0.3" height="8.3"/>
			<rect x="238.6" y="300.4" class="st52" width="0.3" height="8.3"/>
			<rect x="236.6" y="300.4" class="st52" width="0.3" height="8.3"/>
			<rect x="235.5" y="300.4" class="st52" width="0.3" height="8.3"/>
			<rect x="240.2" y="300.4" class="st52" width="0.3" height="8.3"/>
		</g>
		<g>
			<path class="st43" d="M265.3,172.9H137.2c-1.1,0-2.1-0.9-2.1-2.1v-16.4c0-1.1,0.9-2.1,2.1-2.1h128.1c1.1,0,2.1,0.9,2.1,2.1v16.4
				C267.4,172,266.4,172.9,265.3,172.9z"/>
			<g>
				<circle class="st44" cx="153.3" cy="162.7" r="6.8"/>
				<circle class="st45" cx="172.4" cy="162.7" r="6.8"/>
				<circle class="st45" cx="191.7" cy="162.7" r="6.8"/>
				<circle class="st53" cx="210.9" cy="162.7" r="6.8"/>
				<circle class="st54" cx="230" cy="162.7" r="6.8"/>
				<circle class="st55" cx="249.2" cy="162.7" r="6.8"/>
			</g>
			<polygon class="st56" points="138.1,162.7 141,164.5 141,162.7 141,160.8 			"/>
			<polygon class="st56" points="263.1,162.7 260.2,160.8 260.2,162.7 260.2,164.5 			"/>
		</g>
		<path class="st57" d="M361.9,127.4H75.4c-3.8,0-7,3.1-7,7v8.9h300.5v-8.9C368.9,130.6,365.8,127.4,361.9,127.4z"/>
		<circle class="st40" cx="335" cy="135.3" r="2.3"/>
		<circle class="st44" cx="344.3" cy="135.3" r="2.3"/>
		<circle class="st54" cx="353.6" cy="135.3" r="2.3"/>
		<g>
			<g>
				<path class="st54" d="M255.7,262.2H146.9c-1.6,0-2.8-1.3-2.8-2.8v-67.9c0-1.6,1.3-2.8,2.8-2.8h108.7c1.6,0,2.8,1.3,2.8,2.8v67.9
					C258.5,260.9,257.2,262.2,255.7,262.2z"/>
				<path class="st53" d="M226.1,213.6l-23.8,25.1c-1.8,1.9-4.6,2.2-6.8,0.8l-23.6-15c-2.7-1.7-6.1-1.3-8.4,0.8L144.1,244v14.3
					c0,2.2,1.8,3.9,3.9,3.9h106.5c2.2,0,3.9-1.8,3.9-3.9v-31.8l-24-14C231.7,210.8,228.3,211.3,226.1,213.6z"/>
				<circle class="st45" cx="158.7" cy="202.5" r="7.8"/>
			</g>
			<g>
				<g>
					<path class="st45" d="M264,268.3h-1.4c-0.1,0-0.1,0-0.1-0.1c0-0.1,0-0.1,0.1-0.1h1.3v-1.3c0-0.1,0-0.1,0.1-0.1s0.1,0,0.1,0.1
						v1.4C264.1,268.2,264,268.3,264,268.3z"/>
					<path class="st45" d="M259.7,268.3h-2.8c-0.1,0-0.1,0-0.1-0.1c0-0.1,0-0.1,0.1-0.1h2.8c0.1,0,0.1,0,0.1,0.1
						C259.8,268.2,259.8,268.3,259.7,268.3z M254,268.3h-2.8c-0.1,0-0.1,0-0.1-0.1c0-0.1,0-0.1,0.1-0.1h2.8c0.1,0,0.1,0,0.1,0.1
						C254.1,268.2,254.1,268.3,254,268.3z M248.3,268.3h-2.8c-0.1,0-0.1,0-0.1-0.1c0-0.1,0-0.1,0.1-0.1h2.8c0.1,0,0.1,0,0.1,0.1
						C248.4,268.2,248.4,268.3,248.3,268.3z M242.6,268.3h-2.8c-0.1,0-0.1,0-0.1-0.1c0-0.1,0-0.1,0.1-0.1h2.8c0.1,0,0.1,0,0.1,0.1
						C242.7,268.2,242.7,268.3,242.6,268.3z M236.9,268.3h-2.8c-0.1,0-0.1,0-0.1-0.1c0-0.1,0-0.1,0.1-0.1h2.8c0.1,0,0.1,0,0.1,0.1
						C237,268.2,237,268.3,236.9,268.3z M231.2,268.3h-2.8c-0.1,0-0.1,0-0.1-0.1c0-0.1,0-0.1,0.1-0.1h2.8c0.1,0,0.1,0,0.1,0.1
						C231.3,268.2,231.3,268.3,231.2,268.3z M225.5,268.3h-2.8c-0.1,0-0.1,0-0.1-0.1c0-0.1,0-0.1,0.1-0.1h2.8c0.1,0,0.1,0,0.1,0.1
						C225.6,268.2,225.6,268.3,225.5,268.3z M219.8,268.3H217c-0.1,0-0.1,0-0.1-0.1c0-0.1,0-0.1,0.1-0.1h2.8c0.1,0,0.1,0,0.1,0.1
						C220,268.2,219.9,268.3,219.8,268.3z M214.1,268.3h-2.8c-0.1,0-0.1,0-0.1-0.1c0-0.1,0-0.1,0.1-0.1h2.8c0.1,0,0.1,0,0.1,0.1
						C214.2,268.2,214.2,268.3,214.1,268.3z M208.4,268.3h-2.8c-0.1,0-0.1,0-0.1-0.1c0-0.1,0-0.1,0.1-0.1h2.8c0.1,0,0.1,0,0.1,0.1
						C208.5,268.2,208.5,268.3,208.4,268.3z M202.7,268.3h-2.8c-0.1,0-0.1,0-0.1-0.1c0-0.1,0-0.1,0.1-0.1h2.8c0.1,0,0.1,0,0.1,0.1
						C202.8,268.2,202.8,268.3,202.7,268.3z M197,268.3h-2.9c-0.1,0-0.1,0-0.1-0.1c0-0.1,0-0.1,0.1-0.1h2.8c0.1,0,0.1,0,0.1,0.1
						C197.1,268.2,197.1,268.3,197,268.3z M191.3,268.3h-2.8c-0.1,0-0.1,0-0.1-0.1c0-0.1,0-0.1,0.1-0.1h2.8c0.1,0,0.1,0,0.1,0.1
						C191.4,268.2,191.4,268.3,191.3,268.3z M185.6,268.3h-2.8c-0.1,0-0.1,0-0.1-0.1c0-0.1,0-0.1,0.1-0.1h2.8c0.1,0,0.1,0,0.1,0.1
						C185.7,268.2,185.7,268.3,185.6,268.3z M179.9,268.3h-2.8c-0.1,0-0.1,0-0.1-0.1c0-0.1,0-0.1,0.1-0.1h2.8c0.1,0,0.1,0,0.1,0.1
						C180.1,268.2,180,268.3,179.9,268.3z M174.2,268.3h-2.8c-0.1,0-0.1,0-0.1-0.1c0-0.1,0-0.1,0.1-0.1h2.8c0.1,0,0.1,0,0.1,0.1
						C174.4,268.2,174.3,268.3,174.2,268.3z M168.5,268.3h-2.8c-0.1,0-0.1,0-0.1-0.1c0-0.1,0-0.1,0.1-0.1h2.8c0.1,0,0.1,0,0.1,0.1
						C168.6,268.2,168.6,268.3,168.5,268.3z M162.8,268.3H160c-0.1,0-0.1,0-0.1-0.1c0-0.1,0-0.1,0.1-0.1h2.8c0.1,0,0.1,0,0.1,0.1
						C163,268.2,162.9,268.3,162.8,268.3z M157.1,268.3h-2.8c-0.1,0-0.1,0-0.1-0.1c0-0.1,0-0.1,0.1-0.1h2.8c0.1,0,0.1,0,0.1,0.1
						C157.3,268.2,157.2,268.3,157.1,268.3z M151.5,268.3h-2.8c-0.1,0-0.1,0-0.1-0.1c0-0.1,0-0.1,0.1-0.1h2.8c0.1,0,0.1,0,0.1,0.1
						C151.6,268.2,151.5,268.3,151.5,268.3z M145.7,268.3h-2.8c-0.1,0-0.1,0-0.1-0.1c0-0.1,0-0.1,0.1-0.1h2.8c0.1,0,0.1,0,0.1,0.1
						C145.9,268.2,145.8,268.3,145.7,268.3z"/>
					<path class="st45" d="M140,268.3h-1.4c-0.1,0-0.1,0-0.1-0.1v-1.4c0-0.1,0-0.1,0.1-0.1s0.1,0,0.1,0.1v1.3h1.3
						c0.1,0,0.1,0,0.1,0.1C140.2,268.2,140.1,268.3,140,268.3z"/>
					<path class="st45" d="M138.6,264c-0.1,0-0.1,0-0.1-0.1V261c0-0.1,0-0.1,0.1-0.1s0.1,0,0.1,0.1v2.8
						C138.8,264,138.7,264,138.6,264z M138.6,258.3c-0.1,0-0.1,0-0.1-0.1v-2.8c0-0.1,0-0.1,0.1-0.1s0.1,0,0.1,0.1v2.8
						C138.8,258.3,138.7,258.3,138.6,258.3z M138.6,252.6c-0.1,0-0.1,0-0.1-0.1v-2.8c0-0.1,0-0.1,0.1-0.1s0.1,0,0.1,0.1v2.8
						C138.8,252.5,138.7,252.6,138.6,252.6z M138.6,246.9c-0.1,0-0.1,0-0.1-0.1v-2.8c0-0.1,0-0.1,0.1-0.1s0.1,0,0.1,0.1v2.8
						C138.8,246.9,138.7,246.9,138.6,246.9z M138.6,241.2c-0.1,0-0.1,0-0.1-0.1v-2.8c0-0.1,0-0.1,0.1-0.1s0.1,0,0.1,0.1v2.8
						C138.8,241.1,138.7,241.2,138.6,241.2z M138.6,235.5c-0.1,0-0.1,0-0.1-0.1v-2.8c0-0.1,0-0.1,0.1-0.1s0.1,0,0.1,0.1v2.8
						C138.8,235.4,138.7,235.5,138.6,235.5z M138.6,229.8c-0.1,0-0.1,0-0.1-0.1v-2.8c0-0.1,0-0.1,0.1-0.1s0.1,0,0.1,0.1v2.8
						C138.8,229.7,138.7,229.8,138.6,229.8z M138.6,224.1c-0.1,0-0.1,0-0.1-0.1v-2.8c0-0.1,0-0.1,0.1-0.1s0.1,0,0.1,0.1v2.8
						C138.8,224,138.7,224.1,138.6,224.1z M138.6,218.4c-0.1,0-0.1,0-0.1-0.1v-2.8c0-0.1,0-0.1,0.1-0.1s0.1,0,0.1,0.1v2.8
						C138.8,218.3,138.7,218.4,138.6,218.4z M138.6,212.7c-0.1,0-0.1,0-0.1-0.1v-2.8c0-0.1,0-0.1,0.1-0.1s0.1,0,0.1,0.1v2.8
						C138.8,212.6,138.7,212.7,138.6,212.7z M138.6,207c-0.1,0-0.1,0-0.1-0.1V204c0-0.1,0-0.1,0.1-0.1s0.1,0,0.1,0.1v2.8
						C138.8,206.9,138.7,207,138.6,207z M138.6,201.3c-0.1,0-0.1,0-0.1-0.1v-2.8c0-0.1,0-0.1,0.1-0.1s0.1,0,0.1,0.1v2.8
						C138.8,201.2,138.7,201.3,138.6,201.3z M138.6,195.6c-0.1,0-0.1,0-0.1-0.1v-2.8c0-0.1,0-0.1,0.1-0.1s0.1,0,0.1,0.1v2.8
						C138.8,195.5,138.7,195.6,138.6,195.6z M138.6,189.9c-0.1,0-0.1,0-0.1-0.1v-2.8c0-0.1,0-0.1,0.1-0.1s0.1,0,0.1,0.1v2.8
						C138.8,189.8,138.7,189.9,138.6,189.9z"/>
					<path class="st45" d="M138.6,184.1c-0.1,0-0.1,0-0.1-0.1v-1.4c0-0.1,0-0.1,0.1-0.1h1.4c0.1,0,0.1,0,0.1,0.1
						c0,0.1,0,0.1-0.1,0.1h-1.3v1.3C138.8,184.1,138.7,184.1,138.6,184.1z"/>
					<path class="st45" d="M259.7,182.7h-2.8c-0.1,0-0.1,0-0.1-0.1c0-0.1,0-0.1,0.1-0.1h2.8c0.1,0,0.1,0,0.1,0.1
						C259.8,182.7,259.8,182.7,259.7,182.7z M254,182.7h-2.8c-0.1,0-0.1,0-0.1-0.1c0-0.1,0-0.1,0.1-0.1h2.8c0.1,0,0.1,0,0.1,0.1
						C254.1,182.7,254.1,182.7,254,182.7z M248.3,182.7h-2.8c-0.1,0-0.1,0-0.1-0.1c0-0.1,0-0.1,0.1-0.1h2.8c0.1,0,0.1,0,0.1,0.1
						C248.4,182.7,248.4,182.7,248.3,182.7z M242.6,182.7h-2.8c-0.1,0-0.1,0-0.1-0.1c0-0.1,0-0.1,0.1-0.1h2.8c0.1,0,0.1,0,0.1,0.1
						C242.7,182.7,242.7,182.7,242.6,182.7z M236.9,182.7h-2.8c-0.1,0-0.1,0-0.1-0.1c0-0.1,0-0.1,0.1-0.1h2.8c0.1,0,0.1,0,0.1,0.1
						C237,182.7,237,182.7,236.9,182.7z M231.2,182.7h-2.8c-0.1,0-0.1,0-0.1-0.1c0-0.1,0-0.1,0.1-0.1h2.8c0.1,0,0.1,0,0.1,0.1
						C231.3,182.7,231.3,182.7,231.2,182.7z M225.5,182.7h-2.8c-0.1,0-0.1,0-0.1-0.1c0-0.1,0-0.1,0.1-0.1h2.8c0.1,0,0.1,0,0.1,0.1
						C225.6,182.7,225.6,182.7,225.5,182.7z M219.8,182.7H217c-0.1,0-0.1,0-0.1-0.1c0-0.1,0-0.1,0.1-0.1h2.8c0.1,0,0.1,0,0.1,0.1
						C220,182.7,219.9,182.7,219.8,182.7z M214.1,182.7h-2.8c-0.1,0-0.1,0-0.1-0.1c0-0.1,0-0.1,0.1-0.1h2.8c0.1,0,0.1,0,0.1,0.1
						C214.2,182.7,214.2,182.7,214.1,182.7z M208.4,182.7h-2.8c-0.1,0-0.1,0-0.1-0.1c0-0.1,0-0.1,0.1-0.1h2.8c0.1,0,0.1,0,0.1,0.1
						C208.5,182.7,208.5,182.7,208.4,182.7z M202.7,182.7h-2.8c-0.1,0-0.1,0-0.1-0.1c0-0.1,0-0.1,0.1-0.1h2.8c0.1,0,0.1,0,0.1,0.1
						C202.8,182.7,202.8,182.7,202.7,182.7z M197,182.7h-2.9c-0.1,0-0.1,0-0.1-0.1c0-0.1,0-0.1,0.1-0.1h2.8c0.1,0,0.1,0,0.1,0.1
						C197.1,182.7,197.1,182.7,197,182.7z M191.3,182.7h-2.8c-0.1,0-0.1,0-0.1-0.1c0-0.1,0-0.1,0.1-0.1h2.8c0.1,0,0.1,0,0.1,0.1
						C191.4,182.7,191.4,182.7,191.3,182.7z M185.6,182.7h-2.8c-0.1,0-0.1,0-0.1-0.1c0-0.1,0-0.1,0.1-0.1h2.8c0.1,0,0.1,0,0.1,0.1
						C185.7,182.7,185.7,182.7,185.6,182.7z M179.9,182.7h-2.8c-0.1,0-0.1,0-0.1-0.1c0-0.1,0-0.1,0.1-0.1h2.8c0.1,0,0.1,0,0.1,0.1
						C180.1,182.7,180,182.7,179.9,182.7z M174.2,182.7h-2.8c-0.1,0-0.1,0-0.1-0.1c0-0.1,0-0.1,0.1-0.1h2.8c0.1,0,0.1,0,0.1,0.1
						C174.4,182.7,174.3,182.7,174.2,182.7z M168.5,182.7h-2.8c-0.1,0-0.1,0-0.1-0.1c0-0.1,0-0.1,0.1-0.1h2.8c0.1,0,0.1,0,0.1,0.1
						C168.6,182.7,168.6,182.7,168.5,182.7z M162.8,182.7H160c-0.1,0-0.1,0-0.1-0.1c0-0.1,0-0.1,0.1-0.1h2.8c0.1,0,0.1,0,0.1,0.1
						C163,182.7,162.9,182.7,162.8,182.7z M157.1,182.7h-2.8c-0.1,0-0.1,0-0.1-0.1c0-0.1,0-0.1,0.1-0.1h2.8c0.1,0,0.1,0,0.1,0.1
						C157.3,182.7,157.2,182.7,157.1,182.7z M151.5,182.7h-2.8c-0.1,0-0.1,0-0.1-0.1c0-0.1,0-0.1,0.1-0.1h2.8c0.1,0,0.1,0,0.1,0.1
						C151.6,182.7,151.5,182.7,151.5,182.7z M145.7,182.7h-2.8c-0.1,0-0.1,0-0.1-0.1c0-0.1,0-0.1,0.1-0.1h2.8c0.1,0,0.1,0,0.1,0.1
						C145.9,182.7,145.8,182.7,145.7,182.7z"/>
					<path class="st45" d="M264,184.1c-0.1,0-0.1,0-0.1-0.1v-1.3h-1.3c-0.1,0-0.1,0-0.1-0.1c0-0.1,0-0.1,0.1-0.1h1.4
						c0.1,0,0.1,0,0.1,0.1v1.4C264.1,184.1,264,184.1,264,184.1z"/>
					<path class="st45" d="M264,264c-0.1,0-0.1,0-0.1-0.1V261c0-0.1,0-0.1,0.1-0.1s0.1,0,0.1,0.1v2.8C264.1,264,264,264,264,264z
						 M264,258.3c-0.1,0-0.1,0-0.1-0.1v-2.8c0-0.1,0-0.1,0.1-0.1s0.1,0,0.1,0.1v2.8C264.1,258.3,264,258.3,264,258.3z M264,252.6
						c-0.1,0-0.1,0-0.1-0.1v-2.8c0-0.1,0-0.1,0.1-0.1s0.1,0,0.1,0.1v2.8C264.1,252.5,264,252.6,264,252.6z M264,246.9
						c-0.1,0-0.1,0-0.1-0.1v-2.8c0-0.1,0-0.1,0.1-0.1s0.1,0,0.1,0.1v2.8C264.1,246.9,264,246.9,264,246.9z M264,241.2
						c-0.1,0-0.1,0-0.1-0.1v-2.8c0-0.1,0-0.1,0.1-0.1s0.1,0,0.1,0.1v2.8C264.1,241.1,264,241.2,264,241.2z M264,235.5
						c-0.1,0-0.1,0-0.1-0.1v-2.8c0-0.1,0-0.1,0.1-0.1s0.1,0,0.1,0.1v2.8C264.1,235.4,264,235.5,264,235.5z M264,229.8
						c-0.1,0-0.1,0-0.1-0.1v-2.8c0-0.1,0-0.1,0.1-0.1s0.1,0,0.1,0.1v2.8C264.1,229.7,264,229.8,264,229.8z M264,224.1
						c-0.1,0-0.1,0-0.1-0.1v-2.8c0-0.1,0-0.1,0.1-0.1s0.1,0,0.1,0.1v2.8C264.1,224,264,224.1,264,224.1z M264,218.4
						c-0.1,0-0.1,0-0.1-0.1v-2.8c0-0.1,0-0.1,0.1-0.1s0.1,0,0.1,0.1v2.8C264.1,218.3,264,218.4,264,218.4z M264,212.7
						c-0.1,0-0.1,0-0.1-0.1v-2.8c0-0.1,0-0.1,0.1-0.1s0.1,0,0.1,0.1v2.8C264.1,212.6,264,212.7,264,212.7z M264,207
						c-0.1,0-0.1,0-0.1-0.1V204c0-0.1,0-0.1,0.1-0.1s0.1,0,0.1,0.1v2.8C264.1,206.9,264,207,264,207z M264,201.3
						c-0.1,0-0.1,0-0.1-0.1v-2.8c0-0.1,0-0.1,0.1-0.1s0.1,0,0.1,0.1v2.8C264.1,201.2,264,201.3,264,201.3z M264,195.6
						c-0.1,0-0.1,0-0.1-0.1v-2.8c0-0.1,0-0.1,0.1-0.1s0.1,0,0.1,0.1v2.8C264.1,195.5,264,195.6,264,195.6z M264,189.9
						c-0.1,0-0.1,0-0.1-0.1v-2.8c0-0.1,0-0.1,0.1-0.1s0.1,0,0.1,0.1v2.8C264.1,189.8,264,189.9,264,189.9z"/>
				</g>
				<rect x="136.9" y="180.4" class="st45" width="4.4" height="4.4"/>
				<rect x="136.9" y="266" class="st45" width="4.4" height="4.4"/>
				<rect x="261.2" y="180.4" class="st45" width="4.4" height="4.4"/>
				<rect x="136.9" y="223.2" class="st45" width="4.4" height="4.4"/>
				<rect x="261.2" y="223.2" class="st45" width="4.4" height="4.4"/>
				<rect x="261.2" y="266" class="st45" width="4.4" height="4.4"/>
				<g>
					<rect x="199.1" y="180.4" class="st45" width="4.4" height="4.4"/>
					<rect x="199.1" y="266" class="st45" width="4.4" height="4.4"/>
				</g>
			</g>
		</g>
		<g>
			<path class="st43" d="M257.2,275.9H144.8c-0.6,0-1,0.4-1,1v9c0,0.6,0.4,1,1,1h112.4c0.6,0,1-0.4,1-1v-9
				C258.2,276.4,257.7,275.9,257.2,275.9z"/>
			
				<linearGradient id="SVGID_17_" gradientUnits="userSpaceOnUse" x1="203.1772" y1="-1093.2151" x2="198.2522" y2="-1117.6581" gradientTransform="matrix(1 0 0 1 0 1388)">
				<stop  offset="0" style="stop-color:#FBCAC3"/>
				<stop  offset="0.4916" style="stop-color:#F69485"/>
				<stop  offset="1" style="stop-color:#F36F5B"/>
			</linearGradient>
			<rect x="145.9" y="280.9" class="st58" width="109.7" height="3.3"/>
			<path class="st49" d="M257.2,275.9H144.7c-0.5,0-1,0.4-1,1v1.9h114.4v-1.9C258.2,276.3,257.7,275.9,257.2,275.9z"/>
		</g>
		<g>
			<rect x="287.7" y="184.8" class="st59" width="8.1" height="8.1"/>
			<rect x="300.5" y="184.8" class="st60" width="8.1" height="8.1"/>
			<rect x="313.3" y="184.8" class="st59" width="8.1" height="8.1"/>
			<rect x="326.2" y="184.8" class="st60" width="8.1" height="8.1"/>
			<rect x="287.7" y="196.7" class="st60" width="8.1" height="8.1"/>
			<rect x="300.5" y="196.7" class="st59" width="8.1" height="8.1"/>
			<rect x="313.3" y="196.7" class="st60" width="8.1" height="8.1"/>
			<rect x="326.2" y="196.7" class="st59" width="8.1" height="8.1"/>
		</g>
		<path class="st60" d="M334.5,172.7h-46.9c-2,0-3.7,1.7-3.7,3.7v0.7h54.3v-0.7C338.1,174.3,336.5,172.7,334.5,172.7z"/>
		
			<linearGradient id="SVGID_18_" gradientUnits="userSpaceOnUse" x1="138.1532" y1="-975.1841" x2="138.1532" y2="-980.9808" gradientTransform="matrix(1 0 0 1 0 1388)">
			<stop  offset="0" style="stop-color:#F47D6B"/>
			<stop  offset="1" style="stop-color:#F36F5B"/>
		</linearGradient>
		<path class="st61" d="M135.3,403.5l1.3,13.4c0,0,1.3,0.5,2.9,0l1.5-11.3L135.3,403.5z"/>
		
			<linearGradient id="SVGID_19_" gradientUnits="userSpaceOnUse" x1="100.6139" y1="-975.3012" x2="100.6139" y2="-981.718" gradientTransform="matrix(1 0 0 1 0 1388)">
			<stop  offset="0" style="stop-color:#F47D6B"/>
			<stop  offset="1" style="stop-color:#F36F5B"/>
		</linearGradient>
		<path class="st62" d="M97.4,400l1.9,16.3c0,0,2.4,0.7,3.7,0l0.7-12.4L97.4,400z"/>
		<path class="st63" d="M116.6,200.6c-1.6-3.1-5.3-3.8-8.4-4.3c-1-0.2-1.5,1.4-0.4,1.6c0.1,0,0.2,0,0.2,0c0,3.3,0.1,6.7,2.2,9.4
			c1.4,1.8,4.5,3.7,6.4,1.5C118.3,206.9,117.7,202.7,116.6,200.6z"/>
		<path class="st64" d="M102.8,234c0,0-4.5,6.3-5.9,13.7c-1.4,7.5-6,20.3-4.2,23.6c1.8,3.2,32,9.4,33.8,10.7c1.8,1.3,4.1,4.2,5,5.9
			c0.9,1.6,6.7,2.3,7.4,0c0.7-2.3-2.4-8.8-8.8-10.9c-6.3-2.1-23.9-10.4-23.9-10.4L102.8,234z"/>
		
			<linearGradient id="SVGID_20_" gradientUnits="userSpaceOnUse" x1="81.0472" y1="-1124.0977" x2="102.3781" y2="-1131.1007" gradientTransform="matrix(1 0 0 1 0 1388)">
			<stop  offset="0" style="stop-color:#F9B7AC"/>
			<stop  offset="1" style="stop-color:#F7A396"/>
		</linearGradient>
		<path class="st65" d="M113.5,271.8l2.1-0.9c-5.1-2.3-9.4-4.3-9.4-4.3l-3.4-32.6c0,0-4.5,6.3-5.9,13.7c-1.4,7.5-6,20.3-4.2,23.6
			c0.9,1.6,8.8,4,16.8,6.1L113.5,271.8z"/>
		<path class="st64" d="M101.1,279.7c0,0-6.9,8.7-7,21.9c0,13.3,6.3,34.2,5.9,40.8c-0.4,6.5-2,8.7-2.2,19.1
			c-0.1,10.4,5,23.9,3.7,29.4c-1.4,5.7-6.7,8.2-2.4,12.7c4.1,4.2,8.2,7,10.2,10.9c2,3.9,16.9,2.9,14.5-0.3
			c-2.4-3.2-14.7-11.3-14.3-27.5s4.8-76.9,4.8-76.9L101.1,279.7z"/>
		<path class="st64" d="M113.6,219.9c0,0-0.2,9.8,2.4,11.4c2.7,1.6,6.6,9.3,9.3,12.8c2.7,3.5,3.3,8,1.4,11.2c-2,3.2-4,7-4.7,12.3
			c-0.7,5.3,0.1,15.8,2.8,24.8c2.8,9,11.9,51.5,12.5,55.3c0.7,3.7,5.9,41.5,7.8,47.8c1.9,6.3,7.3,13.6,10.4,15.6
			c3.1,2,13.5,3.9,9.6,5.7c-3.9,1.8-15.8,1.1-17.2,0c-1.5-1.1-5-7.8-8.9-9.1s-5-5.2-2.4-10.4c2.6-5.2-3.5-18.5-7.4-28.8
			c-3.9-10.2-2.6-18.2-6.2-25.8C119.4,335,94,308.7,97,292.5c2.9-15.6,7.9-15.6,7-22.7c-0.8-7.2-6.3-20.3-4.1-28.7
			c2.2-8.4,6.4-10.3,6.2-16.9c-0.2-6.6,0.5-8,0.5-8L113.6,219.9z"/>
		<path class="st64" d="M113.5,235c0,0,25.5-8.3,28.8-14.2c3.3-5.9,10.9-17.1,9.8-21.4c-1.1-4.3-0.3-8.9,1.9-9.1s7.1,3.6,6.1,6.5
			c-1,2.9-3.2,1.4-4.2,6.6c-1,5.2-4.7,23.3-8.3,25.6c-3.6,2.3-25.6,15.7-25.6,15.7L113.5,235z"/>
		<path class="st64" d="M116.6,221.4c2.5-1,2.1-4.5,1.1-8.7l-1.4-5c-0.3-1.1-0.6-2.2-0.9-3.2c-1.8-7.2-8.5-8-8.5-8
			c-14.9,5.4-9.9,16.2-6.3,21.7C104.1,223.7,113.3,222.7,116.6,221.4z"/>
		
			<linearGradient id="SVGID_21_" gradientUnits="userSpaceOnUse" x1="115.0613" y1="-1127.8783" x2="101.5494" y2="-1157.2467" gradientTransform="matrix(1 0 0 1 0 1388)">
			<stop  offset="0" style="stop-color:#F9B7AC"/>
			<stop  offset="1" style="stop-color:#F7A396"/>
		</linearGradient>
		<path class="st66" d="M125.3,244c-2.7-3.5-6.6-11.1-9.3-12.8c-0.2-0.1-0.4-0.3-0.6-0.6c1.5-1.7,3-5.7-0.2-6.3
			c-0.8-0.2-1.5,0.1-2.2,0.4c-0.9,0.4-1.4,0.9-2.6,0.5c-0.3-0.1-0.6-0.4-1-0.6c-1-0.3-1.8,0.4-2.7,0.2c-0.9-0.2-1.5-0.8-2.4-0.8
			c-3.8-0.1-1.3,4.9,0.1,6.8c-1.4,2.6-3.3,5.3-4.5,10.1c-2.2,8.4,3.3,21.6,4.1,28.7c0.2,1.9,0,3.3-0.4,4.7
			c6.5,1.8,14.3-0.4,18.1-1.7c0-2,0-3.8,0.3-5.2c0.7-5.3,2.8-9.1,4.7-12.3C128.7,252.1,128,247.5,125.3,244z"/>
		
			<linearGradient id="SVGID_22_" gradientUnits="userSpaceOnUse" x1="147.9353" y1="-1153.7681" x2="106.6278" y2="-1171.4237" gradientTransform="matrix(1 0 0 1 0 1388)">
			<stop  offset="0" style="stop-color:#F9B7AC"/>
			<stop  offset="1" style="stop-color:#F7A396"/>
		</linearGradient>
		<path class="st67" d="M155.6,217.3c-0.7-0.6-1.2-0.3-1.9-0.2c-0.2,0-0.3,0.3-0.5,0.3c-0.3,0-0.6-0.5-0.7-0.7
			c-0.1-0.3,0-0.8-0.1-1.1c-0.1-0.7-0.5-1.3-1.2-1.5c-0.6-0.2-1.2,0-1.7,0.3c-0.3,0.2-0.7,0.7-1,0.7c-0.5,0-0.7-0.5-0.9-0.8
			c-0.8-1.1-2.1-2.1-3.3-0.7c-0.7,0.8-0.7,2.1-0.7,3.1c0,0.6-0.1,1.3-0.1,1.9c-0.5,0.8-0.9,1.6-1.3,2.3
			c-3.3,5.9-28.8,14.2-28.8,14.2l8.3,9.6c0,0,22-13.4,25.6-15.7c0.1-0.1,0.2-0.1,0.3-0.2c2.1-1,3.9-3.5,5.2-5
			c1.1-1.3,3.4-2.9,3.5-4.7C156.4,218.4,156.1,217.7,155.6,217.3z"/>
		<path class="st53" d="M123.8,414.1c-0.7-0.9-2.1-2.2-3.8-3.9c-2.2,0.1-5.1,0-7.5-0.8c-4.4-1.5-12.6-15-12.6-15l0,0
			c-1.9,3.4-4.2,5.7-0.9,9.1c4.1,4.2,8.2,7,10.2,10.9C111.2,418.3,126.2,417.4,123.8,414.1z"/>
		<path class="st53" d="M156.2,411.3c-4.4,1.9-8.6-1.9-11.3-5.6c-2.2-2.9-6.2-6.4-8.4-8.3c-2.4,5.1-1.3,8.9,2.6,10.1
			c3.9,1.3,7.5,8,8.9,9.1c1.5,1.1,13.3,1.8,17.2,0C168.8,415,159.8,413.1,156.2,411.3z"/>
		<g>
			<ellipse class="st68" cx="96.6" cy="255.2" rx="1.3" ry="1.3"/>
			<ellipse class="st68" cx="98.7" cy="266.2" rx="1.3" ry="1.3"/>
			<path class="st68" d="M97.7,248c0.4-0.6,0.3-1.4-0.3-1.8c0,0-0.1,0-0.1,0c-0.1,0.5-0.3,1.1-0.4,1.6c0,0.3-0.1,0.5-0.2,0.8
				C97.1,248.5,97.4,248.3,97.7,248z"/>
			<path class="st68" d="M93.7,263.7c0.4-0.6,0.3-1.4-0.3-1.8c0,0,0,0,0,0c-0.2,0.8-0.4,1.6-0.5,2.4
				C93.2,264.2,93.5,264.1,93.7,263.7z"/>
			<path class="st68" d="M98.5,274.1c0.4-0.6,0.3-1.4-0.3-1.8c-0.6-0.4-1.4-0.3-1.8,0.3c-0.2,0.2-0.2,0.5-0.2,0.7
				C96.8,273.6,97.5,273.9,98.5,274.1C98.4,274.1,98.4,274.1,98.5,274.1z"/>
		</g>
		<g>
			<ellipse class="st68" cx="109.7" cy="257" rx="1.3" ry="1.3"/>
			<path class="st68" d="M104.8,266.3c0.4-0.6,0.3-1.4-0.3-1.8c-0.4-0.3-1-0.3-1.4,0c0.2,0.8,0.4,1.6,0.5,2.4
				C104.1,266.9,104.5,266.7,104.8,266.3z"/>
			<ellipse class="st68" cx="107.3" cy="239.3" rx="1.3" ry="1.3"/>
			<ellipse class="st68" cx="111.4" cy="265.8" rx="1.3" ry="1.3"/>
			<circle class="st68" cx="103.9" cy="245.9" r="1.3"/>
			<path class="st68" d="M100.5,253.7c0.5,0.1,1.1,0,1.4-0.5c0.4-0.6,0.3-1.4-0.3-1.8c-0.5-0.3-1-0.3-1.5,0
				C100.1,252.2,100.3,252.9,100.5,253.7z"/>
			<ellipse class="st68" cx="113.5" cy="246.9" rx="1.3" ry="1.3"/>
			<circle class="st68" cx="110.7" cy="231.6" r="1.3"/>
			<ellipse class="st68" cx="121.5" cy="248.5" rx="1.3" ry="1.3"/>
			<path class="st68" d="M124.2,257c-0.4,0.6-0.3,1.4,0.3,1.8c0,0,0.1,0,0.1,0.1c0.4-0.8,0.8-1.6,1.2-2.3
				C125.3,256.3,124.6,256.4,124.2,257z"/>
			<ellipse class="st68" cx="119.8" cy="270.3" rx="1.3" ry="1.3"/>
			<ellipse class="st68" cx="118.2" cy="259" rx="1.3" ry="1.3"/>
			<circle class="st68" cx="118.2" cy="241.7" r="1.3"/>
		</g>
		<g>
			<ellipse class="st68" cx="150.8" cy="219" rx="1.3" ry="1.3"/>
			<ellipse class="st68" cx="141.7" cy="228" rx="1.3" ry="1.3"/>
			<path class="st68" d="M143.7,219.8c0.7,0.1,1.4-0.4,1.5-1.1c0.1-0.7-0.4-1.4-1.1-1.5c-0.2,0-0.3,0-0.4,0c0,0.4,0,0.9-0.1,1.3
				c-0.2,0.3-0.4,0.6-0.5,0.9C143.2,219.6,143.4,219.7,143.7,219.8z"/>
			<path class="st68" d="M151.1,225.8c-0.3-0.6-1-0.9-1.6-0.7c-0.7,0.3-1,1-0.8,1.7c0.1,0.3,0.4,0.6,0.7,0.7
				C150.1,227,150.6,226.3,151.1,225.8z"/>
			<path class="st68" d="M125.9,240.6c-0.7,0-1.3,0.6-1.3,1.3c0,0.3,0.1,0.7,0.3,0.9c0.7-0.4,1.4-0.8,2.2-1.3
				C126.9,240.9,126.4,240.6,125.9,240.6z"/>
			<path class="st68" d="M133,227.3c0.3,0.7,1,1,1.7,0.8c0.7-0.3,1-1,0.8-1.7c0-0.1-0.1-0.2-0.1-0.3
				C134.5,226.5,133.7,226.9,133,227.3C133,227.3,133,227.3,133,227.3z"/>
			<path class="st68" d="M135.5,234.6c-0.7,0-1.3,0.6-1.3,1.3c0,0.4,0.2,0.7,0.4,0.9c0.7-0.4,1.4-0.9,2.1-1.3
				C136.6,235,136.1,234.6,135.5,234.6z"/>
			<path class="st68" d="M122.1,233.4c0.7,0,1.3-0.6,1.3-1.3c0-0.2,0-0.4-0.1-0.6c-0.8,0.3-1.6,0.6-2.4,0.9
				C121,233,121.5,233.4,122.1,233.4z"/>
			<ellipse class="st68" cx="129.5" cy="234.1" rx="1.3" ry="1.3"/>
		</g>
		
			<linearGradient id="SVGID_23_" gradientUnits="userSpaceOnUse" x1="105.1941" y1="-1152.1007" x2="98.7024" y2="-1193.2148" gradientTransform="matrix(1 0 0 1 0 1388)">
			<stop  offset="0" style="stop-color:#F47D6B"/>
			<stop  offset="1" style="stop-color:#F36F5B"/>
		</linearGradient>
		<path class="st69" d="M113.9,200.3c0-0.1-0.1-0.2-0.2-0.2c-1.3-2.5-3.9-4-6.8-3.9c-0.6,0-1.1,0-1.5,0c0,0-0.1,0-0.1,0
			c-4.5,0.2-8,3.3-9.9,7.2c-2.1,4.1-2.5,8.7-3.5,13.2c-1.3,2.7-3.1,5.2-3.3,8.3c-0.1,1.4,0.2,2.7,1,3.8c1.1,1.5,3.1,2.3,3.8,4.1
			c-0.4,1.5-1,2.9-0.4,4.6s2,2.9,3.8,3.3c1.6,0.3,3.6,0.4,5.3-0.1c1.7,0.5,3.8,0,4.9-1.8c2.6-4-0.7-8.7,0-13.1
			c1-1.7,2.1-2.9,1.7-5.1c-0.2-1.3-0.8-2.5-0.7-3.8c0-0.3,0-0.5,0.1-0.7c1.5-2.1,4.2-3.8,5.7-5.7
			C116.2,207.1,115.2,203.6,113.9,200.3z M92.6,230.4c-1.7-1.5-3.2-2.6-3.3-5.1c0-2.2,0.9-4.2,2-6.2c-0.6,2.1-1.4,4.2-0.9,6.3
			c0.2,0.9,0.7,1.7,1.3,2.4c0.8,1,2,1.8,2,3.1c0,0.2,0,0.4,0,0.6C93.4,231.2,93,230.8,92.6,230.4z M107.4,234.1
			c0.1,1.8-0.2,3.8-1.6,5c-0.7,0.7-1.6,0.9-2.5,0.9c0.3-0.2,0.6-0.3,0.9-0.5c1-0.7,2-1.7,2.5-2.9c1.4-2.4-0.1-5.4-0.3-8.1
			C106.6,230.3,107.2,232.2,107.4,234.1z M110.5,212.4c-0.6,0.6-1.3,1.1-1.9,1.8c0.2-0.5,0.5-0.9,0.8-1.3c1.8-2.8,4.7-5.3,5.1-8.7
			c0.2,1.1,0.3,2.3-0.1,3.5C113.8,209.7,112,211.1,110.5,212.4z"/>
		
			<linearGradient id="SVGID_24_" gradientUnits="userSpaceOnUse" x1="112.82" y1="-1061.5259" x2="97.7918" y2="-1114.0022" gradientTransform="matrix(1 0 0 1 0 1388)">
			<stop  offset="0" style="stop-color:#FBCAC3"/>
			<stop  offset="1" style="stop-color:#F9BAB0"/>
		</linearGradient>
		<path class="st70" d="M124.8,292.3c-2.3-7.6-3.3-16.3-3.1-22c-6.4,1.7-13.1,1.1-17.6,0.3c0.2,3.7-1.3,5.4-3.1,9.1
			c-0.5,0.6-6.4,8.5-6.9,20.4l0,0c0,0,0,0,0,0.1c0,0.4,0,0.9,0,1.3c0,0,0,0.1,0,0.1c0,2.5,0,7.9,0.7,13.7c0.9,8-5.3,16.8-5.3,16.8
			s2.8,3.1,11.4,5.1c0,0,0,0,0,0c3.7,0.9,7.6,1.3,11.4,1.5c0,0,1.9,0.4,8.2-0.1c6-0.3,11.3-1.2,14.7-1.8
			C132.1,322.5,126.8,298.7,124.8,292.3z"/>
		<g>
			<path class="st71" d="M103.1,301c0-2.6,0.1-5.1,0.4-7.7c0.3-2.6,1-5.1,1.8-7.6c1.6-4.7,3.6-9.5,2.9-14.5c-0.1,0-0.2,0-0.3,0
				c0.7,4.7-1.1,9.3-2.6,13.7c-0.8,2.4-1.6,4.9-2,7.5c-0.4,2.5-0.5,5-0.5,7.6c0,5.2,0.4,10.4,0.2,15.7c-0.2,5.1-1.2,10.2-2.8,15
				c-0.7,2-1.6,3.9-2.4,5.9c0.1,0,0.2,0.1,0.3,0.1c0.8-1.9,1.6-3.7,2.3-5.6c1.6-4.6,2.5-9.5,2.8-14.3
				C103.6,311.4,103.2,306.2,103.1,301z"/>
			<path class="st71" d="M112.5,287.2c-0.2-5.3,0.1-10.6,1.2-15.8c-0.1,0-0.2,0-0.3,0c-2.1,9.5-1.3,19.3,0,28.8
				c1.3,10.2,3,20.4,2.2,30.7c-0.2,2.6-0.4,5.3-0.3,8c0.1,0,0.2,0,0.3,0c-0.2-2.4,0-4.8,0.2-7.1c0.4-4.9,0.3-9.8-0.1-14.7
				C114.9,307.1,112.9,297.2,112.5,287.2z"/>
			<path class="st71" d="M123.7,329.3c-0.2-4.7-0.8-9.4-1.7-14c-1.9-9.6-4.7-19-5.8-28.7c-0.6-5.1-0.7-10.3,0.1-15.4
				c-0.1,0-0.2,0-0.3,0c-3.1,19.4,6.5,38,7.3,57.3c0.1,3.2,0.2,6.7,1.1,9.8c0.1,0,0.2,0,0.3,0C123.9,335.4,123.8,332.3,123.7,329.3z
				"/>
			<path class="st71" d="M93.5,334.8c1.6-3.5,3.1-7,4.2-10.8c0.6-2.2,1-4.5,1.2-6.7c0.2-2.5,0-5-0.2-7.5c-0.4-4.9-0.9-9.8,0.3-14.6
				c1-4.1,2.8-8,4.3-12c1.5-3.9,2.8-8,2.8-12.3c-0.1,0-0.2,0-0.3,0c0,8.1-4.7,15.3-6.8,22.9c-1.3,4.5-1.2,8.9-0.8,13.5
				c0.4,4.9,0.8,9.8-0.3,14.6c-1,4.4-2.8,8.6-4.6,12.7C93.3,334.7,93.4,334.7,93.5,334.8z"/>
			<path class="st71" d="M130.8,333.7c-1.1-5.2-2.3-10.3-3.4-15.5c-2.3-10.3-4.7-20.6-6.5-30.9c-1-5.4-1.7-10.9-2.2-16.4
				c-0.1,0-0.2,0-0.3,0c0.8,10.1,2.8,20,4.9,29.9c2.3,10.6,4.6,21.2,7,31.8c0.3,1.5,0.7,3.1,1.1,4.7c0.1,0,0.2,0,0.3,0
				C131.3,336.2,131,335,130.8,333.7z"/>
			<path class="st71" d="M106.7,328c0.7-2.2,1.4-4.4,1.9-6.6c0.5-2.1,0.7-4.3,0.7-6.6c0.1-4.8-0.4-9.5-0.5-14.3
				c-0.1-4.8,0.1-9.7,0.4-14.5c0.4-4.9,0.9-9.8,1.4-14.8c-0.1,0-0.2,0-0.3,0c-1,9.2-2,18.4-1.9,27.7c0,4.8,0.6,9.5,0.6,14.3
				c0,2.5-0.1,5-0.6,7.4c-0.5,2.3-1.2,4.5-1.9,6.7c-1.1,3.4-2.1,7-2,10.6c0.1,0,0.2,0,0.3,0C104.7,334.6,105.7,331.3,106.7,328z"/>
		</g>
		
			<linearGradient id="SVGID_25_" gradientUnits="userSpaceOnUse" x1="-7174.6221" y1="-1008.8363" x2="-7100.1245" y2="-1008.8363" gradientTransform="matrix(-1 0 0 1 -6792.2827 1388)">
			<stop  offset="0" style="stop-color:#FDDFDB"/>
			<stop  offset="1" style="stop-color:#FCD1CB"/>
		</linearGradient>
		<path class="st72" d="M341.5,352.5c0,0-3.8,10.1-7.1,17.2s-9.8,18-7.6,18c2.1,0,38.4-1,41.2-2.1c2.8-1.2,10.4-5.8,12.4-1.5
			s2.9,22.8,0.8,23.3c-5.7,1.4-15.7,2.4-10.8-4.2c1.4-1.9,3.3-9.8-2.3-7.9c-5.6,1.8-41.4,8.9-53.9,6.6c-12.5-2.3-2.6-36.5-2.6-36.5
			l10.7-15.4L341.5,352.5z"/>
		<path class="st63" d="M381.2,407.3c2.1-0.5,1.1-19-0.8-23.3s-9.6,0.3-12.4,1.5c-0.4,0.2-1.8,0.4-3.7,0.5v10.2
			c1.7-0.4,3.1-0.7,3.8-1c5.6-1.8,3.7,6,2.3,7.9C365.5,409.8,375.5,408.7,381.2,407.3z"/>
		
			<linearGradient id="SVGID_26_" gradientUnits="userSpaceOnUse" x1="346.261" y1="-958.5892" x2="334.2286" y2="-1018.3066" gradientTransform="matrix(1 0 0 1 0 1388)">
			<stop  offset="0" style="stop-color:#F47D6B"/>
			<stop  offset="1" style="stop-color:#F36F5B"/>
		</linearGradient>
		<path class="st73" d="M326.8,387.7c-2.1,0,4.3-10.9,7.6-18c3.3-7.1,7.1-17.2,7.1-17.2l-19.2-2.5l-10.7,15.4c0,0-9.9,34.2,2.6,36.5
			c12.5,2.3,43.1-0.3,48.9-1.1c1.7-0.2,5.5-0.7,5.7-0.7c0-3.6-0.3-12.7-0.5-14.6c-0.1,0-0.2,0.1-0.3,0.1
			C365.1,386.7,328.9,387.7,326.8,387.7z"/>
		<path class="st64" d="M303.1,299.6c0,0,3.6,3.7,4.1,5.2c0.4,1.5-6,14.2-6,14.2s7,17.6,8.5,21.9c1.5,4.3-3.4,4.9-9.7,5.2
			c-6.3,0.3-23.6-1.2-27.6,3.1c-3.9,4.2,5.9,50.6,5,53.1c-1,2.5-5,3.6-10.1,6.1c-5.1,2.5-16.2,6.8-7.1,7.1
			c9.1,0.3,28.2,0.3,28.4-2.5c0.5-7.6-3.1-12.1-3.3-15.4c-0.2-3.3-0.2-31.6,2.1-32.4c2.3-0.8,13.1,3,26.3,1
			c13.2-2,25.5-6.1,27.8-13.7c2.3-7.6-5.5-32.2-9.9-39c-4.5-6.8-21.8-19.3-21.8-19.3L303.1,299.6z"/>
		<path class="st63" d="M260.2,415.4c9.1,0.3,28.2,0.3,28.4-2.5c0.5-7.6-3.1-12.1-3.3-15.4c0,0,0-0.1,0-0.1
			c-2.7,0.1-5.7,0.2-8.2,0.3c0.3,2.4,0.4,4,0.3,4.4c-1,2.5-5,3.6-10.1,6.1C262.2,410.8,251.1,415.1,260.2,415.4z"/>
		<path class="st64" d="M313.6,303.7c0,0-4.4-1.5-9.4,2.9c-5,4.4-14.7,17.5-17.4,18.3c-2.8,0.8-22.9-4.7-25.5-7.5s-4.1-5-6.2-5.1
			c-2.1-0.1-5.9,6.1-2.2,8.3c3.8,2.2,5.5,2.1,13.2,6.6c3.9,2.3,21.8,10.8,24.5,9.8c6.1-2.3,16.6-14,16.6-14l6.9-19.6"/>
		<path class="st64" d="M302.1,275.2c0,0-8.7,0.9-8.9,10.8c0,0.6,0,1.1,0,1.7c-0.4,1.5-1.5,6-1.1,6.3c0.4,0.3,1.6,0.2,2,0.2
			c1.2,4.5,3.2,7,4.4,7.1c1.8,0.3,14.3-2.5,15-12.7C314.1,278.5,310.4,274.2,302.1,275.2z"/>
		
			<linearGradient id="SVGID_27_" gradientUnits="userSpaceOnUse" x1="-7106.4492" y1="-1099.9944" x2="-7082.9932" y2="-1099.9944" gradientTransform="matrix(-1 0 0 1 -6792.2827 1388)">
			<stop  offset="0" style="stop-color:#F47D6B"/>
			<stop  offset="1" style="stop-color:#F36F5B"/>
		</linearGradient>
		<path class="st74" d="M305.1,274.7c-2.8-0.7-4.2-0.6-7,0.1c-0.7,0.2-1.5,0.4-2.1,0.7c-0.4,0.2-0.8,0.2-1.2,0.1l0,0
			c-1.2-0.4-2.4-0.7-3.5,0.4c-1.2,1.2-0.6,3.8,0.7,4.8c0.1,0.1,0.2,0.2,0.3,0.3c1,1.4,1.4,0.6,3,0.5c1.2-0.1,2.3,0,3.3,0.7
			c1,0.7,1.7,1.7,2.5,2.6c1.5,2,2.4,4.5,0.8,6.8c-0.7,1-1.7,1.7-2.9,2c-1.2,0.3-2.3,0-3.5,0.1c-0.8,0.1-1.5,0.1-1.5,1
			c0,1.1,0.3,1.6,0.9,2.4c0.7,1.1,1.4,2.3,2.2,3.3c0.6,0.7,0.7,0.9,1.7,1.1c1.1,0.2,2.1-0.1,3-0.7c1-0.7,1.7-0.9,2.6-1.8
			c1.5-1.6,2.7-3.5,3-5.7c0.2-1.4,0-2.8,0-4.2c0-0.5,0-1.2,0.4-1.5c0.6-0.4,1.3,0.3,1.6,0.8c1.2,2,0.9,4.9,3.3,6.1
			c0.5,0.2,1.2-0.1,1-0.7c-0.9-2.9,0.7-5.7,0.5-8.6c-0.2-2.8-0.7-5.8-2.7-7.7C309.5,275.8,307.8,275.3,305.1,274.7z"/>
		
			<linearGradient id="SVGID_28_" gradientUnits="userSpaceOnUse" x1="270.1201" y1="-1016.4879" x2="341.7844" y2="-1016.4879" gradientTransform="matrix(1 0 0 1 0 1388)">
			<stop  offset="0" style="stop-color:#F47D6B"/>
			<stop  offset="1" style="stop-color:#F36F5B"/>
		</linearGradient>
		<path class="st75" d="M341.5,352.5c0.1-0.4,0.2-0.9,0.3-1.4c-6.3-1.9-23.3-7.2-32-10c1.3,4.1-3.6,4.6-9.8,5
			c-6.3,0.3-23.6-3.1-28.7,3.3c-3.8,4.7,3.4,36.4,2.9,52.6c3.4-0.2,12.2-1.2,13.9-1.7c-0.2-1.1-0.3-2.2-0.3-3.1
			c-0.2-3.3-2.6-31.1-0.3-32c2.3-0.8,13.1,3,26.3,1C326.9,364.2,339.2,360.1,341.5,352.5z"/>
		
			<linearGradient id="SVGID_29_" gradientUnits="userSpaceOnUse" x1="308.368" y1="-1046.1938" x2="338.1031" y2="-1073.9766" gradientTransform="matrix(1 0 0 1 0 1388)">
			<stop  offset="0" style="stop-color:#FBCAC3"/>
			<stop  offset="1" style="stop-color:#F9BAB0"/>
		</linearGradient>
		<path class="st76" d="M331.6,313.4c-2.6-4-9.7-10-15.1-14.3l0,0c1.9-2.8-2.6-5.3-4.5-2.6c-1.7,2.4-4.1,3.9-6.9,4.7
			c-3.2,0.8-1.9,5.9,1.4,5c0.2,0,0.3-0.1,0.5-0.1c-1.1,3.6-5.8,12.9-5.8,12.9s7,17.6,8.5,21.9c0.7,2,0,3.1-1.4,3.9
			c7,8.4,23.6,11,31.7,11.7c0.7-1.2,1.1-2.6,1.5-4C343.8,344.8,336,320.2,331.6,313.4z"/>
		
			<linearGradient id="SVGID_30_" gradientUnits="userSpaceOnUse" x1="279.5361" y1="-1058.4012" x2="327.2851" y2="-1100.9193" gradientTransform="matrix(1 0 0 1 0 1388)">
			<stop  offset="0" style="stop-color:#FBCAC3"/>
			<stop  offset="1" style="stop-color:#F9BAB0"/>
		</linearGradient>
		<path class="st77" d="M313.6,303.7c0,0-4.4-1.5-9.4,2.9c-4.9,4.4-14.7,17.5-17.4,18.3c-1.9,0.5-11.6-1.8-18.6-4.2
			c-0.3,1.8-2.7,6.8-4.2,8.5c0.2,0.1,2.3,1.4,2.4,1.5c3.9,2.3,21.6,7.4,24.3,6.4c6.1-2.3,16.6-14,16.6-14l6.9-19.6L313.6,303.7z"/>
	</g>
</g>
</svg>
