<?xml version="1.0" encoding="utf-8"?>
<!-- Generator: Adobe Illustrator 23.0.3, SVG Export Plug-In . SVG Version: 6.00 Build 0)  -->
<svg version="1.1" id="Layer_1" xmlns="http://www.w3.org/2000/svg" xmlns:xlink="http://www.w3.org/1999/xlink" x="0px" y="0px"
	 viewBox="0 0 360 360" style="enable-background:new 0 0 360 360;" xml:space="preserve">
<style type="text/css">
	.st0{fill:#FFC553;}
	.st1{fill:#E4E9EE;}
	.st2{fill:#D44A4C;}
	.st3{fill:none;stroke:#111E44;stroke-width:10.965;stroke-linecap:round;stroke-miterlimit:10;}
</style>
<g>
	<g id="Group_448" transform="translate(70.557 842.683)">
		<path id="Rectangle_496" class="st0" d="M115.2-679.5l16.3-9.4l0,0l89,154.1c2.6,4.5,1.1,10.2-3.4,12.9l0,0
			c-4.5,2.6-10.3,1.1-12.9-3.4l0,0v0L115.2-679.5z"/>
		<path id="Rectangle_497" class="st0" d="M96-686.7l15.8,10.3l0,0l-97.3,149c-2.8,4.3-8.7,5.6-13,2.8l0,0c-4.4-2.8-5.6-8.7-2.7-13
			c0,0,0,0,0,0l0,0L96-686.7L96-686.7z"/>
		<rect id="Rectangle_498" x="-43.6" y="-804.7" class="st1" width="314.3" height="207.8"/>
		<path id="Rectangle_499" class="st2" d="M-59.6-804.7h338.1c3.7,0,6.6,3,6.6,6.6v16.2c0,3.7-3,6.6-6.6,6.6H-59.6
			c-3.7,0-6.6-3-6.6-6.6v-16.2C-66.3-801.7-63.3-804.7-59.6-804.7z"/>
		<path id="Rectangle_500" class="st2" d="M-59.6-616.4h338.1c3.7,0,6.6,3,6.6,6.6v16.2c0,3.7-3,6.6-6.6,6.6H-59.6
			c-3.7,0-6.6-3-6.6-6.6v-16.2C-66.3-613.5-63.3-616.4-59.6-616.4z"/>
		<line id="Line_8" class="st3" x1="152.3" y1="-663.7" x2="85.9" y2="-730"/>
		<line id="Line_9-2" class="st3" x1="217.6" y1="-730" x2="152.3" y2="-663.7"/>
	</g>
	<line id="Line_7" class="st3" x1="86.9" y1="182.3" x2="156.5" y2="112.7"/>
</g>
</svg>
