<?xml version="1.0" encoding="utf-8"?>
<!-- Generator: Adobe Illustrator 23.0.3, SVG Export Plug-In . SVG Version: 6.00 Build 0)  -->
<svg version="1.1" id="Layer_1" xmlns="http://www.w3.org/2000/svg" xmlns:xlink="http://www.w3.org/1999/xlink" x="0px" y="0px"
	 viewBox="0 0 360 360" style="enable-background:new 0 0 360 360;" xml:space="preserve">
<style type="text/css">
	.st0{fill:#D4494B;}
	.st1{fill:none;stroke:#B23338;stroke-width:9.0095;stroke-linecap:round;stroke-miterlimit:10;}
	.st2{fill:none;stroke:#FFC551;stroke-width:9.0095;stroke-linecap:round;stroke-miterlimit:10;}
	.st3{fill:#FFC551;}
</style>
<g id="Group_455" transform="translate(879.257 217.675)">
	<path id="Rectangle_504" class="st0" d="M-841.9-138.7h37.5c7.2,0,13.1,5.8,13.1,13.1v222l0,0H-855l0,0v-222
		C-855-132.9-849.1-138.7-841.9-138.7z"/>
	<path id="Rectangle_505" class="st0" d="M-761-84.7h37.5c7.2,0,13.1,5.8,13.1,13.1V96.3l0,0H-774l0,0V-71.7
		C-774-78.9-768.2-84.7-761-84.7z"/>
	<path id="Rectangle_506" class="st0" d="M-679-36.7h37.5c7.2,0,13.1,5.8,13.1,13.1v120l0,0H-692l0,0v-120
		C-692-30.9-686.2-36.7-679-36.7z"/>
	<path id="Rectangle_507" class="st0" d="M-596-1.7h37.5c7.2,0,13.1,5.8,13.1,13.1v84.9l0,0h-63.7l0,0V11.4
		C-609.1,4.1-603.3-1.7-596-1.7z"/>
	<line id="Line_9" class="st1" x1="-866.8" y1="96.3" x2="-532.9" y2="96.3"/>
	<g id="Group_454" transform="translate(193.632 615.258)">
		<line id="Line_10" class="st2" x1="-1019.8" y1="-808.7" x2="-789.1" y2="-675.5"/>
		<g id="Group_453" transform="translate(95.897 49.249)">
			<path id="Path_569" class="st3" d="M-875.9-747l-23.9,41.3l32.6-8.7L-875.9-747z"/>
		</g>
	</g>
</g>
</svg>
