<?xml version="1.0" encoding="utf-8"?>
<!-- Generator: Adobe Illustrator 23.0.3, SVG Export Plug-In . SVG Version: 6.00 Build 0)  -->
<svg version="1.1" id="Layer_1" xmlns="http://www.w3.org/2000/svg" xmlns:xlink="http://www.w3.org/1999/xlink" x="0px" y="0px"
	 viewBox="0 0 792 792" style="enable-background:new 0 0 792 792;" xml:space="preserve">
<style type="text/css">
	.st0{fill:#E0E9FF;}
	.st1{fill:#CCDBFF;}
	.st2{fill:#F1F2F2;}
	.st3{fill:#96B3FF;}
	.st4{clip-path:url(#SVGID_2_);}
	.st5{fill:#F4D87E;}
	.st6{fill:#0B53FF;}
	.st7{fill:#D31C24;}
	.st8{fill:#ED1C24;}
	.st9{fill:#FB1518;}
	.st10{fill:#D1D3D4;}
	.st11{fill:#A7A9AC;}
	.st12{fill:#BCBEC0;}
	.st13{fill:#2175FB;}
	.st14{fill:#1C1C1D;}
	.st15{fill:#A97C50;}
	.st16{fill:#E6E7E8;}
	.st17{fill:#808285;}
	.st18{fill:#08104E;}
	.st19{fill:#628AEC;}
</style>
<g id="saass" transform="translate(-355.5 -56.939)">
	<g id="Group_120" transform="translate(371.016 56.939)">
		<g id="Group_118" transform="translate(89.544)">
			<path id="Path_73" class="st0" d="M669.1,454.7c-0.4-50.5,0-100.9,1.1-151.7c0-1.3,0-2.7,0.1-4c0.8-45-2.2-90.6-15.4-129
				c-7.2-21-17.7-39.8-32.1-55.2c-36-38.4-73-56.3-116.2-53.9c-43.4,2.2-86.3,2.4-127.2-19.5C319.5,9.3,236.1,20.8,175,58.3
				c-53.1,32.5-91.3,96.8-115.5,157.8c-25.6,64.9-44.8,152.4-27,225.3c8.1,33.1,27,65.8,55.6,79.5c24.3,11.7,52.5,8.9,79.1,12.7
				c46.6,6.4,88.4,32.7,124.1,67c54.8,52.7,93.8,145,163.5,170.6c26.6,9.7,57.1,7.8,87.6-5.4c57.3-25,110.8-94.7,125.5-169.9
				C677,550.3,669.5,499.6,669.1,454.7z"/>
		</g>
		<path id="Path_74" class="st1" d="M296,209.7h-18.1c-2.9-11.6-7.4-22.6-13.6-32.8l12.8-12.8c4.2-4.2,4.2-11,0-15.3l-26.3-26.3
			c-4.2-4.2-11-4.2-15.3,0l-12.8,12.8c-10.2-6.2-21.3-10.7-32.8-13.6v-18.1c0-6-4.9-10.8-10.8-10.8h-37.3c-6,0-10.8,4.9-10.8,10.8
			v18.1c-11.6,2.9-22.6,7.5-32.8,13.6l-12.8-12.8c-4.2-4.2-11-4.2-15.3,0l-26.3,26.3c-4.2,4.2-4.2,11,0,15.3l12.8,12.8
			c-6.2,10.2-10.7,21.3-13.6,32.8H24.9c-6,0-10.8,4.9-10.8,10.8v37.1c0,6,4.9,10.8,10.8,10.8H43c2.9,11.6,7.4,22.6,13.6,32.8
			l-12.8,12.8c-4.2,4.2-4.2,11,0,15.3l26.3,26.3c4.2,4.2,11,4.2,15.3,0l12.8-12.8c10.2,6.2,21.3,10.7,32.8,13.6v18.1
			c0,6,4.9,10.8,10.8,10.8h37.1c6,0,10.8-4.9,10.8-10.8v-18.1c11.6-2.9,22.6-7.4,32.8-13.6l12.8,12.8c4.2,4.2,11,4.2,15.3,0
			l26.3-26.3c4.2-4.2,4.2-11,0-15.3l-12.8-12.8c6.2-10.2,10.7-21.3,13.6-32.8h18.1c6,0,10.8-4.9,10.8-10.8v-37.1
			c0.1-5.9-4.6-10.7-10.5-10.8C296.2,209.7,296.1,209.7,296,209.7z M160.5,312.5c-40.5,0-73.3-32.8-73.3-73.3
			c0-40.5,32.8-73.3,73.3-73.3s73.3,32.8,73.3,73.3C233.7,279.7,200.9,312.5,160.5,312.5C160.5,312.5,160.5,312.5,160.5,312.5
			L160.5,312.5z"/>
		<g id="Group_119" transform="translate(16.008 452.002)">
			<path id="Path_75" class="st0" d="M152.4,181.3h-7.1c-1.1-4.5-2.9-8.9-5.3-12.9l5-5c1.7-1.6,1.7-4.3,0-5.9c0,0,0,0,0,0
				l-10.3-10.3c-1.6-1.7-4.3-1.7-5.9,0c0,0,0,0,0,0l-5,5c-4-2.4-8.4-4.2-12.9-5.3v-7.1c0-2.4-1.9-4.3-4.3-4.3H91.9
				c-2.4,0-4.3,1.9-4.3,4.3v7.1c-4.5,1.1-8.9,2.9-12.9,5.3l-5-5c-1.6-1.7-4.3-1.7-5.9,0c0,0,0,0,0,0l-10.3,10.3
				c-1.7,1.6-1.7,4.3,0,5.9c0,0,0,0,0,0l5,5c-2.4,4-4.2,8.4-5.3,12.9H46c-2.4,0-4.3,1.9-4.3,4.3v14.6c0,2.4,1.9,4.3,4.3,4.3h7.1
				c1.1,4.5,2.9,8.9,5.3,12.9l-5,5c-1.7,1.6-1.7,4.3-0.1,5.9c0,0,0,0,0.1,0.1l10.3,10.3c1.6,1.7,4.3,1.7,5.9,0.1c0,0,0,0,0.1-0.1
				l5-5c4,2.4,8.4,4.2,12.9,5.3v7.1c0,2.4,1.9,4.3,4.3,4.3h14.6c2.4,0,4.3-1.9,4.3-4.3V239c4.5-1.1,8.9-2.9,12.9-5.3l5,5
				c1.6,1.7,4.3,1.7,5.9,0.1c0,0,0,0,0.1-0.1l10.3-10.3c1.7-1.6,1.7-4.3,0.1-5.9c0,0,0,0-0.1-0.1l-5-5c2.4-4,4.2-8.4,5.3-12.9h7.1
				c2.4,0,4.3-1.9,4.3-4.3v-14.6c0-2.3-1.8-4.3-4.2-4.3C152.5,181.3,152.4,181.3,152.4,181.3z M99.1,221.6
				c-15.9,0-28.8-12.9-28.8-28.8c0-15.9,12.9-28.8,28.8-28.8c15.9,0,28.8,12.9,28.8,28.8l0,0C127.9,208.7,115,221.6,99.1,221.6z"/>
			<path id="Path_76" class="st0" d="M83.6,108.9h-4.3c-0.7-2.8-1.8-5.4-3.2-7.9l3.1-3.1c1-1,1-2.6,0-3.6L72.9,88c-1-1-2.6-1-3.6,0
				l-3.1,3.1c-2.5-1.5-5.1-2.5-7.9-3.2v-4.3c0-1.5-1.2-2.6-2.6-2.6c0,0,0,0,0,0h-8.9c-1.5,0-2.6,1.2-2.6,2.6c0,0,0,0,0,0v4.3
				c-2.8,0.7-5.4,1.8-7.9,3.2L33.1,88c-1-1-2.6-1-3.6,0l-6.3,6.3c-1,1-1,2.6,0,3.6l3.1,3.1c-1.5,2.5-2.5,5.1-3.2,7.9h-4.3
				c-1.5,0-2.6,1.2-2.6,2.6c0,0,0,0,0,0v8.9c0,1.5,1.2,2.6,2.6,2.6c0,0,0,0,0,0h4.3c0.7,2.8,1.8,5.4,3.2,7.9l-3.1,3.1
				c-1,1-1,2.6,0,3.6l6.3,6.3c1,1,2.6,1,3.6,0l3.1-3.1c2.5,1.5,5.1,2.5,7.9,3.2v4.3c0,1.5,1.2,2.6,2.6,2.6c0,0,0,0,0,0h8.9
				c1.5,0,2.6-1.2,2.6-2.6c0,0,0,0,0,0V144c2.8-0.7,5.4-1.8,7.9-3.2l3.1,3.1c1,1,2.6,1,3.6,0l6.3-6.3c1-1,1-2.6,0-3.6L76,131
				c1.5-2.5,2.5-5.1,3.2-7.9h4.3c1.5,0,2.6-1.2,2.6-2.6c0,0,0,0,0,0v-8.9C86.1,110.1,85,108.9,83.6,108.9z M51.2,133.5
				c-9.7,0-17.5-7.8-17.5-17.5c0-9.7,7.8-17.5,17.5-17.5c9.7,0,17.5,7.8,17.5,17.5c0,0,0,0,0,0C68.7,125.6,60.8,133.5,51.2,133.5
				L51.2,133.5z"/>
		</g>
	</g>
	<g id="Group_140" transform="translate(355.5 105.782)">
		<ellipse id="Ellipse_72" class="st2" cx="272.4" cy="686.5" rx="260.4" ry="30.4"/>
		<g id="Group_139" transform="translate(171.265)">
			<g id="Group_137">
				<g id="Group_136">
					<path id="Path_77" class="st3" d="M437.5,457.4c-38.6,33.4-61.7,81.2-61.7,132.2H180.4c0-50.9-22.8-98.7-61.3-131.8
						c-55-47.1-86.1-116.2-84.9-188.5C36,142,139.4,35.1,266.6,29.2c140-6.5,255.5,105.1,255.5,243.7
						C522.1,343.8,491.2,411.1,437.5,457.4z M376.7,606H179.3v30.7h197.4V606z M376.7,655.4H179.3c0,29.5,23.9,53.5,53.4,53.5
						c0,0,0.1,0,0.1,0h90.4c29.5,0,53.5-23.9,53.5-53.4C376.7,655.5,376.7,655.4,376.7,655.4L376.7,655.4z"/>
					<g>
						<defs>
							<path id="SVGID_1_" d="M437.5,457.4c-38.6,33.4-61.7,81.2-61.7,132.2H180.4c0-50.9-22.8-98.7-61.3-131.8
								c-55-47.1-86.1-116.2-84.9-188.5C36,142,139.4,35.1,266.6,29.2c140-6.5,255.5,105.1,255.5,243.7
								C522.1,343.8,491.2,411.1,437.5,457.4z M376.7,606H179.3v30.7h197.4V606z M376.7,655.4H179.3c0,29.5,23.9,53.5,53.4,53.5
								c0,0,0.1,0,0.1,0h90.4c29.5,0,53.5-23.9,53.5-53.4C376.7,655.5,376.7,655.4,376.7,655.4L376.7,655.4z"/>
						</defs>
						<clipPath id="SVGID_2_">
							<use xlink:href="#SVGID_1_"  style="overflow:visible;"/>
						</clipPath>
						<g id="Group_135" class="st4">
							<g id="Group_121" transform="translate(209.941 250.957)">
								<path id="Path_78" class="st5" d="M152.6,197.1L164,213l7.2,2.5c2.6,1,6.1,5.1,5.3,7.8c-4.9,13.6-21.1,50.3-25.2,55.6
									c0,0-5.4-4.6-3.5-9.2c1.9-4.6,4.9-39.5,4.9-39.5l-10.8-14.6L152.6,197.1z"/>
								<path id="Path_79" class="st6" d="M179.1,222.2c0,0-7.2-8.5-11.5-7.8c2.3,4.2,3.2,9.1,2.4,13.9c-2.1,6.5-7.5,28.1-19.3,23.5
									c-2.1,7.4-4.7,22.1-3.6,29.2c0,0,3.8,0.8,6-1.4c0,0,8.1-11.3,10.8-15.6l13.6-33.6l9.7-0.3l1.7-3.9L179.1,222.2z"/>
								<path id="Path_80" class="st6" d="M189.6,62.3c0,0-108,19.9-122.2,27.1c-14,7.2-2.2,24.3,16.8,50.3s60.8,86.2,60.8,86.2
									l16.4-18.8l-46.9-83.3c0,0,112.6,2.2,123.7-10.8s10.7-30.7,5-51.7L189.6,62.3z"/>
							</g>
							<g id="Group_124" transform="translate(172.421 36.066)">
								<path id="Path_81" class="st6" d="M140.8,59.9c-10.7-0.3-35.6,43.5,35.4,68.1c24.3,8.3,70.8-1.9,80.4-14.6
									c0,0-38.5-83.8-79.4-79.7C143,37,140.8,59.9,140.8,59.9z"/>
								<g id="Group_122" transform="translate(0 84.633)">
									<path id="Path_82" class="st5" d="M56.4,159l16.1-10.4l21.3,3.3l72.4-15l2.5,21.3l-72.3,2.1l-7.8,1.8
										c-2.3,0.5-4.6,0.2-6.7-1l-9.7-5.3L58,164L56.4,159z"/>
									<path id="Path_83" class="st7" d="M187.5,44.6c-16.7,2.1-8.5,27-15.7,88.1l-70.6,11.8l3.9,17.1c0,0,76.6-1,88.3-2.9
										C206.1,127.2,215.7,41,187.5,44.6z"/>
								</g>
								<path id="Path_84" class="st5" d="M218.5,125.9c-7.5,7-6.3,15.4-17.1,15c-17,2.4-16.4-19.9-16.4-19.9
									c-6.5,2.1-18.5,3.2-27.9-11.1c-10.8-16.3-13.8-30.9-15.4-44.6c-1-8.9,2.6-14.6,17.7-18.6c14.9-4.2,26,0.4,38.2,16.3
									c10,13.1,11.7,43.7,11.7,43.7C211.9,112.3,218.5,125.9,218.5,125.9z"/>
								<path id="Path_85" class="st8" d="M280.8,276.3c0,0-35.2,2.9-53.7,0.8c-7.1-55.2-15.3-68-15.3-68
									c-19-2.4-24.6-8.5-24.6-17.7c-3.2-36.8-8.1-57.1-8.1-57.1c1.7-2.5,4.3-4.3,7.2-5c0,0,1.8,12.9,15.2,11.4
									c14.3-1.7,7.8-18.1,7.8-18.1c7.6-5,15.7-5.4,24.2-3.5c8.5,1.9,15.7,7.4,21.4,13.8c13.6,15,14.2,31,16.4,51.2
									s-1.4,27.8-0.3,52.4C271.9,254.1,279.6,272,280.8,276.3z"/>
								<g id="Group_123" transform="translate(50.98 76.09)">
									<path id="Path_86" class="st5" d="M63,194l9.5-15.4c1.2-1.6,3-2.7,5-3.1l19-2.9l79.7-13.5l0.8,20.4l-74.9,1.3l-7.1,4.4
										c-2.1,1.2-4.6,1.7-7,1.3L76.6,184l-11.1,13.6L63,194z"/>
									<path id="Path_87" class="st9" d="M170.6,55.5c3.2-7.4,6.4-12.5,15.2-12.1c24.7,0.8,7.6,37.5,25,108.8
										c1.8,7.2,2.8,26.6-17.7,27.7s-79,7.5-79,7.5L106,164l71.7-9.9C177.9,154,162.2,74.6,170.6,55.5z"/>
								</g>
							</g>
							<g id="Group_125" transform="translate(71.332 169.191)">
								<path id="Path_88" class="st10" d="M193.9,133.9h-128l-22.1-71c-1.5-5,1.3-10.2,6.2-11.7c0.9-0.3,1.8-0.4,2.7-0.4h108.7
									c4.1,0,7.7,2.7,8.9,6.5L193.9,133.9z"/>
								<path id="Path_89" class="st11" d="M259.8,141.3H71.4c-3.1,0-5.6-2.5-5.6-5.6v-1.8h193.9c1.4,0,2.5,1.1,2.5,2.5c0,0,0,0,0,0
									v2.4C262.3,140.1,261.2,141.3,259.8,141.3C259.8,141.3,259.8,141.3,259.8,141.3z"/>
								<path id="Path_90" class="st12" d="M189.9,141.3H71.4c-3.1,0-5.7-2.5-5.7-5.6c0,0,0-0.1,0-0.1v-1.8h128v3.5
									c0.1,2.1-1.5,3.9-3.6,4C190,141.3,189.9,141.3,189.9,141.3z"/>
								<path id="Path_91" class="st2" d="M111.6,84c-0.3,0-0.6,0-0.8,0.1c0,4.2-2.6,7.6-6,8.1v0.1c0,4.6,3.1,8.3,6.8,8.3
									c3.8,0,6.8-3.8,6.8-8.3C118.5,87.8,115.5,84,111.6,84z"/>
							</g>
							<g id="Group_127" transform="translate(199.02 251.08)">
								<g id="Group_126" transform="translate(0 166.856)">
									<path id="Path_92" class="st5" d="M122.8,82.8l1.4,16.5l2.2,7.2c0.8,2.6-0.4,8.1-3.1,8.9c-13.9,4.2-53,13.3-59.6,13.2
										c0,0,0.4-7.1,5.3-8.3c4.9-1.3,34.5-19.7,34.5-19.7l-0.1-13.9L122.8,82.8z"/>
									<path id="Path_93" class="st6" d="M126.8,119.3c0,0,0.7-13.5-1.3-17c-1.9,4.7-5.4,8.6-9.9,11c-6.5,2.2-27,10.8-30.3-1.4
										c-7.1,2.8-20.6,9.5-25.6,14.6c0,0,1.5,3.6,4.7,3.9c0,0,13.9-0.3,19-0.7l36.6-7.5l4.7,5.8l4.2-1L126.8,119.3z"/>
								</g>
								<path id="Path_94" class="st13" d="M254.2,61.3c9.6,20.2,28.6,67.7-19.7,70.5c-55.6,3.3-125,2.6-125,2.6l16.4,121.9l-26.1,5
									c0,0-7.1-42.7-16.8-80.6c-9.9-38-31.7-75.3-2.8-85.8C108.7,84.6,254.2,61.3,254.2,61.3z"/>
							</g>
							<g id="Group_130" transform="translate(16.155 249.356)">
								<g id="Group_128" transform="translate(55.344 6.121)">
									<path id="Path_95" class="st14" d="M240.7,335.9H58.5c-6.1,0-11.4-4-13.8-10.7c-2.5-6.5-1.5-13.8,2.6-19.3l95.5-124
										L58,71.8c-1.8-2.5-1.7-5.9,0.3-8.3c1.6-1.9,4.4-2.1,6.3-0.5c0.3,0.3,0.6,0.6,0.8,0.9l84.1,109.3l84.1-109.3
										c1.4-2,4.2-2.6,6.3-1.1c0.3,0.2,0.6,0.4,0.8,0.7c2.1,2.3,2.2,5.9,0.3,8.3l-84.8,110.1l95.5,124c4.1,5.6,5.1,12.9,2.6,19.3
										C252.1,331.9,246.8,335.9,240.7,335.9z M149.7,190.8L54.7,314c-1.4,1.9-1.8,4.4-0.8,6.5c0.6,2.1,2.5,3.5,4.7,3.6h182.2
										c3.1,0,4.3-2.8,4.7-3.6c0.8-2.2,0.5-4.6-0.8-6.5L149.7,190.8z"/>
								</g>
								<g id="Group_129">
									<path id="Path_96" class="st15" d="M366.7,75.3H43.3c-3.9,0-7.1-3.2-7.1-7.1l0,0c0-3.9,3.2-7.1,7.1-7.1h323.4
										c3.9,0,7.1,3.2,7.1,7.1l0,0C373.7,72.1,370.6,75.3,366.7,75.3z"/>
								</g>
							</g>
							<g id="Group_134" transform="translate(296.67 277.801)">
								<g id="Group_131" transform="translate(21.427 46.424)">
									<path id="Path_97" class="st14" d="M158.6,248.6H75.2L94.3,70.8l6.5,0.7L82.7,241.9h68.5L132.8,72l6.7-0.7L158.6,248.6z"/>
								</g>
								<g id="Group_132" transform="translate(4.433 38.42)">
									<path id="Path_98" class="st14" d="M156.4,275.8H73l22.4-206H134L156.4,275.8z M80.3,269.1h68.5l-21-192.7h-26.7
										L80.3,269.1z"/>
								</g>
								<g id="Group_133">
									<rect id="Rectangle_266" x="72.4" y="104.7" class="st15" width="105" height="14.5"/>
									<path id="Path_99" class="st15" d="M182.4,119.1h-10l10-54.4h10L182.4,119.1z"/>
								</g>
							</g>
						</g>
					</g>
				</g>
			</g>
			<g id="Group_138" transform="translate(239.364 32.43)">
				<path id="Path_101" class="st13" d="M152.5,130.4c-28.8,8.8-24.7-19.7-24.7-19.7c11,2.4,7.9-23.8-3.2-25.3
					c-7.1-1-5.6,9.9-5.6,9.9c-25.4,15.3-56.7-12-53.8-31.6c1.5-10.6,4.2-17.5,16.4-24.9c15-9,29.9-5.7,43.2-0.6
					c28.9,11,29.5,40.2,59.5,41.6c68.4,3.2,52.5,48.4,90.9,59.6c22.1,6.5,50.3,12.7,52.1,49.1c2.2,44.2-75.8,45.6-99.3,40.6
					c-30.6-6.5-34.8-57.7-41-77C179.3,128.3,171.5,124.6,152.5,130.4z"/>
			</g>
		</g>
	</g>
	<g id="Group_144" transform="translate(466.081 84.659)">
		<g id="Group_141" transform="translate(79.334 196.995)">
			<path id="Path_102" class="st6" d="M81.6,74.4c-14.9,0-20.9,6.1-20.9,19.5c0,1.3-2.4,1.3-2.4,0c0-13.2-4.7-19.5-20.9-19.5
				c-1.3,0-1.3-2.4,0-2.4c16.5,0,20.9-7.6,20.9-19.5c0-1.3,2.4-1.3,2.4,0c0,13.9,5.7,19.5,20.9,19.5C82.8,72.2,82.8,74.4,81.6,74.4z
				"/>
		</g>
		<g id="Group_142" transform="translate(0 132.931)">
			<path id="Path_103" class="st6" d="M88.9,74.8c-20.9,0-29.1,8.6-29.1,27.1c0,1.7-3.2,1.7-3.2,0c0-18.5-6.5-27.1-29.1-27.1
				c-1.7,0-1.7-3.2,0-3.2c23.1,0,29.1-10.7,29.1-27c0-1.7,3.2-1.7,3.2,0c0,19.5,7.9,27,29.1,27C90.7,71.6,90.7,74.8,88.9,74.8z"/>
		</g>
		<g id="Group_143" transform="translate(28.877)">
			<path id="Path_104" class="st6" d="M142.2,82.9c-37.3,0-52,15.4-52,48.5c0,3.1-5.8,3.1-5.8,0c0-33.1-11.8-48.5-52-48.5
				c-3.1,0-3.1-5.8,0-5.8c41.4,0,52-19.2,52-48.5c0-3.1,5.8-3.1,5.8,0c0,34.9,14,48.5,52,48.5C145.1,77.2,145.1,82.9,142.2,82.9z"/>
		</g>
	</g>
	<g id="Group_172" transform="translate(466.245 342.969)">
		<g id="Group_145" transform="translate(13.75 344.896)">
			<path id="Path_105" class="st16" d="M133.8,113.5c0,5.3-23.6,9.5-52.8,9.5s-52.8-4.2-52.8-9.5s23.6-9.5,52.8-9.5
				C110.1,104,133.8,108.3,133.8,113.5z"/>
		</g>
		<g id="Group_171">
			<g id="Group_149" transform="translate(52.293 294.654)">
				<g id="Group_146" transform="translate(0 4.926)">
					<path id="Path_106" class="st12" d="M91.8,161.4c-11.3,3.3-28.6,3.2-40.9,0c-2.9-0.7-5.6-2.1-6.1-5L33.1,98.2h76.3l-11.7,58.3
						C97.3,159.3,94.7,160.6,91.8,161.4z"/>
				</g>
				<g id="Group_147" transform="translate(0.246)">
					<ellipse id="Ellipse_73" class="st17" cx="71.2" cy="103.1" rx="38.1" ry="5.6"/>
				</g>
				<g id="Group_148" transform="translate(27.839 11.945)">
					<path id="Path_107" class="st10" d="M80.2,99.1c-8,6.5-16.7,12.1-26,16.7c-2.6,1.3-5.4,2.5-7.1,4.9c-1.7,2.4-1.8,6.3,0.7,7.8
						c1,0.7,2.6,1.1,2.6,2.4c0,0.5-0.3,1-0.7,1.4c-2.6,2.9-6.5,4.3-9.5,6.8c-3.1,2.5-5,7.4-2.4,10.3c1.2,1.3,2.7,2.3,4.3,3.1
						c2.2,0.8,2.6,4.4,3.5,4.4c11.4,0,18.4-2.5,18.4-2.5c3,0,5.5-2.1,6.1-5L80.2,99.1z"/>
				</g>
			</g>
			<g id="Group_156" transform="translate(68.74)">
				<g id="Group_150">
					<path id="Path_108" class="st13" d="M41.8,107.3c-2.5-10-1.9-19.3-0.3-29.6s6.3-19.9,16.4-17.9c9.7,1.8,13.2,13.6,13.8,22.2
						c0.8,11.8-3.1,23.2-4.3,35c-1.9,17.7,2.1,37,6.7,54.2c3.8,13.8,8.3,24.9,12,41c2.6,12.2,2.4,24.8-0.4,37
						c-3.3,13.5-24.6,61.6-28.8,110.9c-1.9-63.1-14.5-80.8-18.6-102.3c-1.7-8.9-3.6-17.7-2.8-26.7c2.1-22.9,8.5-45.3,12.2-68.1
						C51.5,140.3,47.5,131.1,41.8,107.3z"/>
				</g>
				<g id="Group_155" transform="translate(6.503 24.114)">
					<g id="Group_151" transform="translate(9.436)">
						<path id="Path_109" class="st18" d="M38.7,375L38.7,375c-0.8,0-1.4-0.6-1.4-1.4C47,260.3,39.2,66,39.1,64
							c0-0.7,0.5-1.4,1.3-1.4c0.7,0,1.4,0.5,1.4,1.3c0.1,1.9,7.9,196.4-1.9,310C39.9,374.5,39.4,375,38.7,375z"/>
					</g>
					<g id="Group_152" transform="translate(13.623 133.031)">
						<path id="Path_110" class="st18" d="M39.2,125.5L39.2,125.5c-0.8,0-1.4-0.6-1.4-1.4C39.3,90.7,54.5,80.5,55.2,80
							c0.6-0.4,1.4-0.2,1.8,0.4c0.4,0.6,0.2,1.4-0.4,1.8c0,0,0,0-0.1,0l0,0c-0.1,0.1-14.7,10.1-16.1,42
							C40.6,124.9,39.9,125.5,39.2,125.5z"/>
					</g>
					<g id="Group_153" transform="translate(0 114.444)">
						<path id="Path_111" class="st18" d="M53.1,119.9c-0.7,0-1.3-0.6-1.4-1.3C49.8,84.9,37.1,80.1,37,80c-0.7-0.2-1.1-1-0.8-1.7
							c0.2-0.7,1-1.1,1.7-0.8c0.6,0.1,14.5,5,16.5,41c0.1,0.6-0.3,1.2-0.9,1.4C53.3,119.9,53.2,119.9,53.1,119.9L53.1,119.9z"/>
					</g>
					<g id="Group_154" transform="translate(13.746 83.299)">
						<path id="Path_112" class="st18" d="M39.2,109.5L39.2,109.5c-0.8-0.1-1.4-0.7-1.4-1.5c2.5-26.3,10.8-33.8,11.1-34.2
							c0.6-0.5,1.5-0.4,1.9,0.2c0.5,0.6,0.4,1.4-0.1,1.9c-0.1,0.1-7.9,7.5-10.3,32.4c0,0.6-0.4,1.2-1.1,1.3
							C39.3,109.5,39.3,109.5,39.2,109.5z"/>
					</g>
				</g>
			</g>
			<g id="Group_163" transform="translate(0 85.561)">
				<g id="Group_157">
					<path id="Path_113" class="st13" d="M40.1,114.8c-2.9-7.2-15.6-34.8-13.5-44.2c5.4,2.2,20.6,25.7,25.6,36.1
						c6.1,12.2,17.8,30.3,26,41.4c6.5,8.9,10.1,11.3,15,21.3c3.6,7.1,9.2,36.6,9.6,47.1c0.8,19.7-4.3,23.8,1.5,61
						c-12.4-47-38.6-74.9-43-89c-4.9-15.8-5-22.4-8.8-39.3C48.5,132.6,49.4,136.9,40.1,114.8z"/>
				</g>
				<g id="Group_162" transform="translate(12.698 28.767)">
					<g id="Group_158">
						<path id="Path_114" class="st18" d="M96.6,286.1c-0.7,0-1.3-0.6-1.4-1.3c-6.7-84.2-61.6-201.6-66.6-208
							c-0.1-0.1-0.3-0.1-0.3-0.3c-0.5-0.6-0.5-1.4,0.1-1.9c0,0,0,0,0,0c0.4-0.3,0.9-0.4,1.4-0.3c2.2,1,18.5,35.2,32.7,72.6
							C76.7,184,94.2,238.1,98,284.5C98,285.3,97.4,286,96.6,286.1C96.6,286.1,96.6,286.1,96.6,286.1L96.6,286.1z M30.1,76.7
							L30,76.8L30.1,76.7z"/>
					</g>
					<g id="Group_159" transform="translate(41.333 76.804)">
						<path id="Path_115" class="st18" d="M37.1,122.2c-0.6,0-1.1-0.4-1.3-1c-6.3-23.9,1.1-36,2.4-36.8c0.6-0.4,1.4-0.2,1.8,0.4
							c0.3,0.5,0.3,1.1-0.1,1.6c-0.4,0.6-7.5,11-1.5,34.2c0.1,0.7-0.3,1.4-1,1.7L37.1,122.2z"/>
					</g>
					<g id="Group_160" transform="translate(20.262 70.485)">
						<path id="Path_116" class="st18" d="M52.7,110.9c-0.5,0-1-0.3-1.3-0.8c-9-22.8-18.5-23.9-19.6-23.9c-0.6,0-1.2-0.5-1.3-1.1
							l1.3-0.3l0.1-1.4c2.1,0.1,12.5,1.7,22,25.6c0.3,0.6,0.1,1.3-0.5,1.6c-0.1,0-0.1,0.1-0.2,0.1C53,110.9,52.8,110.9,52.7,110.9z"
							/>
					</g>
					<g id="Group_161" transform="translate(27.044 42.314)">
						<path id="Path_117" class="st18" d="M35.5,109c-0.6,0-1.1-0.4-1.3-1c-5-19-1.9-27.8-0.7-28.2c0.7-0.3,1.5,0,1.8,0.7
							c0.1,0.4,0.1,0.8,0,1.1c-0.1,0.4-3.1,7.6,1.7,25.7c0.1,0.7-0.3,1.4-1,1.7L35.5,109z"/>
					</g>
				</g>
			</g>
			<g id="Group_170" transform="translate(92.541 160.78)">
				<g id="Group_164" transform="translate(5.437)">
					<path id="Path_118" class="st19" d="M95.6,99.3c3.8-4.4,21-19.7,28.5-19c-0.8,4.3-13.9,19.5-19,25.7
						c-6.5,7.2-13.6,20.7-16.4,29.6c-2.2,7.2-1.8,10.3-4.9,16.8c-2.4,4.6-14.3,20-18.6,25.7c-8.2,10.3-17.4,14-26.1,39.9
						c5.8-33.6,10.6-66.4,17-76.2c7-10.6,11-13.6,20.4-22.7C86.2,110.6,83.3,112.5,95.6,99.3z"/>
				</g>
				<g id="Group_169" transform="translate(0 14.643)">
					<g id="Group_165">
						<path id="Path_119" class="st18" d="M39.7,225h-0.3c-0.7-0.1-1.2-0.8-1.1-1.5c6.5-31.8,20.6-68.5,36.7-95.5
							c8.8-15.3,19.1-29.6,30.9-42.8c0.8-0.8,1.5-1.8,1.8-2.1c0.3-0.7,1-1,1.7-0.8c0.5,0.1,0.8,0.5,1,1c0.3,0.8,0.1,0.8-2.4,3.8
							c-11.6,13.1-21.9,27.3-30.6,42.4c-16,26.8-30,63.1-36.4,94.7C40.8,224.6,40.3,224.9,39.7,225z"/>
					</g>
					<g id="Group_166" transform="translate(16.962 55.937)">
						<path id="Path_120" class="st18" d="M41.8,108.4c-0.2,0-0.4,0-0.6-0.1c-0.6-0.3-0.9-1-0.7-1.6c0-0.1,0.1-0.1,0.1-0.2
							c7.5-15.6,17.8-17,19.9-17.1l0.1,1.4h1.4c0,0.7-0.5,1.2-1.2,1.3c0,0,0,0,0,0c-1.1,0.1-10.6,1.1-17.7,15.7
							C42.8,108.1,42.3,108.4,41.8,108.4z"/>
					</g>
					<g id="Group_167" transform="translate(21.721 38.603)">
						<path id="Path_121" class="st18" d="M42.4,113.8c-0.2,0-0.4,0-0.6-0.1c-0.7-0.3-1-1.1-0.7-1.8c6.7-16,2.6-22,2.4-22.4
							c-0.4-0.4-0.5-1-0.3-1.5c0.3-0.7,1.1-1,1.8-0.7c0.1,0,6.8,5.7-1.4,25.6C43.5,113.4,43,113.8,42.4,113.8z"/>
					</g>
					<g id="Group_168" transform="translate(31.082 32.047)">
						<path id="Path_122" class="st18" d="M43.6,100.5c-0.3,0-0.6-0.1-0.8-0.3c-0.6-0.4-0.7-1.2-0.3-1.8
							c7.8-10.3,14.2-11.8,15.8-12.1l0.3,1.3l1.3,0.3c-0.2,0.6-0.7,1-1.3,1.1c-1.1,0.1-6.8,1.4-14,11
							C44.4,100.3,44,100.5,43.6,100.5z"/>
					</g>
				</g>
			</g>
		</g>
	</g>
</g>
</svg>
