<?xml version="1.0" encoding="utf-8"?>
<!-- Generator: Adobe Illustrator 23.0.3, SVG Export Plug-In . SVG Version: 6.00 Build 0)  -->
<svg version="1.1" id="Layer_1" xmlns="http://www.w3.org/2000/svg" xmlns:xlink="http://www.w3.org/1999/xlink" x="0px" y="0px"
	 viewBox="0 0 360 360" style="enable-background:new 0 0 360 360;" xml:space="preserve">
<style type="text/css">
	.st0{fill:#DD6063;}
	.st1{fill:#EEF1F5;}
	.st2{fill:#99ABBE;}
	.st3{fill:#C24B4F;}
	.st4{fill:#8294AB;}
	.st5{fill:#FFC553;}
	.st6{fill:#AFBCD4;}
</style>
<g id="Group_465" transform="translate(195.83 299.899)">
	<path id="Path_585" class="st0" d="M64.4,42.7l49.8-49.8v-248.4c0-15-12.1-27.1-27.1-27.1l0,0h-205.9c-15,0-27.1,12.1-27.1,27.1
		l0,0V15.7c0,14.9,12.1,27.1,27.1,27.1c0,0,0,0,0,0L64.4,42.7L64.4,42.7z"/>
	<path id="Path_586" class="st1" d="M-123.6-250.7v153H91.9v-153c0-7.3-5.9-13.2-13.2-13.2c0,0,0,0,0,0h-189.1
		C-117.7-263.9-123.6-258-123.6-250.7C-123.6-250.7-123.6-250.7-123.6-250.7z"/>
	<path id="Path_587" class="st2" d="M-5.8-211.2L-74.4-92.4H83.1L14.5-211.2c-3.2-5.6-10.4-7.6-16.1-4.3
		C-3.3-214.5-4.8-213-5.8-211.2z"/>
	<path id="Path_588" class="st3" d="M64.4,0.1v42.7l49.8-49.8H71.5C67.6-7.1,64.4-3.9,64.4,0.1L64.4,0.1z"/>
	<path id="Path_589" class="st4" d="M-61.5-180.4l-50.8,87.9H4.3l-50.8-87.9c-2.4-4.2-7.7-5.6-11.9-3.2
		C-59.6-182.8-60.7-181.7-61.5-180.4z"/>
	<rect id="Rectangle_541" x="-123.6" y="-97.8" class="st1" width="215.5" height="74.1"/>
	<circle id="Ellipse_186" class="st5" cx="-89" cy="-226.4" r="16.6"/>
	<path id="Rectangle_542" class="st6" d="M-106.4-104.8H77.2c3.2,0,5.8,2.6,5.8,5.8v2.3c0,3.2-2.6,5.8-5.8,5.8h-183.7
		c-3.2,0-5.8-2.6-5.8-5.8v-2.3C-112.3-102.1-109.7-104.8-106.4-104.8z"/>
	<path id="Rectangle_543" class="st6" d="M-104.1-79H-24c1.5,0,2.8,1.2,2.8,2.8v1.1c0,1.5-1.2,2.8-2.8,2.8h-80.1
		c-1.5,0-2.8-1.2-2.8-2.8v-1.1C-106.8-77.8-105.6-79-104.1-79z"/>
	<path id="Rectangle_544" class="st6" d="M-6.7-79h80.1c1.5,0,2.8,1.2,2.8,2.8v1.1c0,1.5-1.2,2.8-2.8,2.8H-6.7
		c-1.5,0-2.8-1.2-2.8-2.8v-1.1C-9.4-77.8-8.2-79-6.7-79z"/>
	<path id="Rectangle_545" class="st6" d="M-104.1-65.2H-24c1.5,0,2.8,1.2,2.8,2.8v1.1c0,1.5-1.2,2.8-2.8,2.8h-80.1
		c-1.5,0-2.8-1.2-2.8-2.8v-1.1C-106.8-63.9-105.6-65.2-104.1-65.2z"/>
	<path id="Rectangle_546" class="st6" d="M-6.7-65.2h80.1c1.5,0,2.8,1.2,2.8,2.8v1.1c0,1.5-1.2,2.8-2.8,2.8H-6.7
		c-1.5,0-2.8-1.2-2.8-2.8v-1.1C-9.4-63.9-8.2-65.2-6.7-65.2z"/>
	<path id="Rectangle_547" class="st6" d="M-104.1-51.8H-24c1.5,0,2.8,1.2,2.8,2.8v1.1c0,1.5-1.2,2.8-2.8,2.8h-80.1
		c-1.5,0-2.8-1.2-2.8-2.8V-49C-106.8-50.5-105.6-51.8-104.1-51.8z"/>
	<path id="Rectangle_548" class="st6" d="M-6.7-51.8h80.1c1.5,0,2.8,1.2,2.8,2.8v1.1c0,1.5-1.2,2.8-2.8,2.8H-6.7
		c-1.5,0-2.8-1.2-2.8-2.8V-49C-9.4-50.5-8.2-51.8-6.7-51.8z"/>
</g>
</svg>
