<?xml version="1.0" encoding="utf-8"?>
<!-- Generator: Adobe Illustrator 23.0.3, SVG Export Plug-In . SVG Version: 6.00 Build 0)  -->
<svg version="1.1" id="Layer_1" xmlns="http://www.w3.org/2000/svg" xmlns:xlink="http://www.w3.org/1999/xlink" x="0px" y="0px"
	 viewBox="0 0 720 720" style="enable-background:new 0 0 720 720;" xml:space="preserve">
<style type="text/css">
	.st0{fill:#FFF3CC;}
	.st1{fill:#FFF0BF;}
	.st2{fill:#FFF4D0;}
	.st3{fill:#FFDF76;}
	.st4{clip-path:url(#SVGID_3_);}
	.st5{fill:#FFEDB1;}
	.st6{fill:#1589FF;}
	.st7{fill:#FF583D;}
	.st8{fill:#FF593F;}
	.st9{fill:#FF563B;}
	.st10{fill:#FFECAF;}
	.st11{fill:#FFDB66;}
	.st12{fill:#FFE48C;}
	.st13{fill:#CFC67C;}
	.st14{fill:#FFD343;}
	.st15{fill:#FFF1C5;}
	.st16{fill:#FFCB21;}
	.st17{fill:#E5E5E5;}
</style>
<g>
	<g>
		<g>
			<path class="st0" d="M711.9,414c-0.4-47.2,0-94.3,1-141.8c0-1.3,0-2.5,0.1-3.8c0.8-42.1-2.1-84.7-14.4-120.6
				c-6.8-19.6-16.5-37.2-30-51.6C635,60.5,600.4,43.7,560,45.9c-40.5,2.1-80.7,2.2-118.9-18.2c-56-30-134-19.2-191,15.9
				C200.5,74,164.7,134,142.1,191c-23.9,60.7-41.8,142.4-25.2,210.6c7.5,30.9,25.2,61.5,52,74.3c22.7,10.9,49.1,8.3,73.9,11.8
				c43.5,6,82.6,30.5,116,62.6c51.2,49.2,87.7,135.5,152.8,159.4c24.8,9.1,53.4,7.3,81.9-5.1c53.5-23.4,103.6-88.5,117.3-158.8
				C719.3,503.4,712.3,456,711.9,414z"/>
		</g>
		<path class="st1" d="M279.5,185.1h-16.9c-2.7-10.9-7-21.3-12.7-30.7l12-12c3.9-3.9,3.9-10.4,0-14.3l-24.6-24.6
			c-3.9-3.9-10.4-3.9-14.3,0l-12,12c-9.5-5.7-19.7-10-30.7-12.7V85.9c0-5.6-4.5-10.1-10.1-10.1h-34.8c-5.6,0-10.1,4.5-10.1,10.1
			v16.9c-10.9,2.7-21.3,7-30.7,12.7l-12-12c-3.9-3.9-10.4-3.9-14.3,0l-24.6,24.6c-3.9,3.9-3.9,10.4,0,14.3l12,12
			c-5.7,9.5-10,19.7-12.7,30.7H26.1c-5.6,0-10.1,4.5-10.1,10.1v34.7c0,5.6,4.5,10.1,10.1,10.1H43c2.7,10.9,7,21.3,12.7,30.7l-12,12
			c-3.9,3.9-3.9,10.4,0,14.3l24.6,24.6c3.9,3.9,10.4,3.9,14.3,0l12-12c9.5,5.7,19.7,10,30.7,12.7v16.9c0,5.6,4.5,10.1,10.1,10.1
			h34.7c5.6,0,10.1-4.5,10.1-10.1v-16.9c10.9-2.7,21.3-7,30.7-12.7l12,12c3.9,3.9,10.4,3.9,14.3,0l24.6-24.6
			c3.9-3.9,3.9-10.4,0-14.3l-12-12c5.7-9.5,10-19.7,12.7-30.7h16.9c5.6,0,10.1-4.5,10.1-10.1v-34.7
			C289.6,189.6,285.1,185.1,279.5,185.1z M152.8,281.1c-37.8,0-68.5-30.7-68.5-68.5s30.7-68.5,68.5-68.5s68.5,30.7,68.5,68.5
			S190.6,281.1,152.8,281.1z"/>
		<g>
			<path class="st0" d="M160.2,581h-6.6c-1-4.3-2.7-8.3-4.9-12.1l4.7-4.7c1.6-1.6,1.6-4,0-5.6l-9.6-9.6c-1.6-1.6-4-1.6-5.6,0
				l-4.7,4.7c-3.8-2.2-7.8-3.9-12.1-4.9v-6.6c0-2.2-1.8-4-4-4h-13.6c-2.2,0-4,1.8-4,4v6.6c-4.3,1-8.3,2.7-12.1,4.9l-4.7-4.7
				c-1.6-1.6-4-1.6-5.6,0l-9.6,9.6c-1.6,1.6-1.6,4,0,5.6l4.7,4.7c-2.2,3.8-3.9,7.8-4.9,12.1h-6.6c-2.2,0-4,1.8-4,4v13.6
				c0,2.2,1.8,4,4,4h6.6c1,4.3,2.7,8.3,4.9,12.1l-4.7,4.7c-1.6,1.6-1.6,4,0,5.6l9.6,9.6c1.6,1.6,4,1.6,5.6,0l4.7-4.7
				c3.8,2.2,7.8,3.9,12.1,4.9v6.6c0,2.2,1.8,4,4,4h13.6c2.2,0,4-1.8,4-4v-6.6c4.3-1,8.3-2.7,12.1-4.9l4.7,4.7c1.6,1.6,4,1.6,5.6,0
				l9.6-9.6c1.6-1.6,1.6-4,0-5.6l-4.7-4.7c2.2-3.8,3.9-7.8,4.9-12.1h6.6c2.2,0,4-1.8,4-4V585C164.2,582.7,162.4,581,160.2,581z
				 M110.4,618.6c-14.8,0-26.9-12.1-26.9-26.9s12.1-26.9,26.9-26.9s26.9,12.1,26.9,26.9C137.5,606.6,125.4,618.6,110.4,618.6z"/>
			<path class="st0" d="M95.9,513.3h-4c-0.6-2.6-1.7-5.1-3-7.4l2.9-2.9c0.9-0.9,0.9-2.5,0-3.4l-5.8-5.8c-0.9-0.9-2.5-0.9-3.4,0
				l-2.9,2.9c-2.2-1.3-4.7-2.3-7.4-3v-4c0-1.3-1-2.5-2.5-2.5h-8.3c-1.3,0-2.5,1-2.5,2.5v4c-2.6,0.6-5.1,1.7-7.4,3l-2.9-2.9
				c-0.9-0.9-2.5-0.9-3.4,0l-5.8,5.8c-0.9,0.9-0.9,2.5,0,3.4l2.9,2.9c-1.3,2.2-2.3,4.7-3,7.4h-4c-1.3,0-2.5,1-2.5,2.5v8.3
				c0,1.3,1,2.5,2.5,2.5h4c0.6,2.6,1.7,5.1,3,7.4l-2.9,2.9c-0.9,0.9-0.9,2.5,0,3.4l5.8,5.8c0.9,0.9,2.5,0.9,3.4,0l2.9-2.9
				c2.2,1.3,4.7,2.3,7.4,3v4c0,1.3,1,2.5,2.5,2.5h8.3c1.3,0,2.5-1,2.5-2.5v-4c2.6-0.6,5.1-1.7,7.4-3l2.9,2.9c0.9,0.9,2.5,0.9,3.4,0
				l5.8-5.8c0.9-0.9,0.9-2.5,0-3.4l-2.9-2.9c1.3-2.2,2.3-4.7,3-7.4h4c1.3,0,2.5-1,2.5-2.5v-8.3C98.4,514.4,97.2,513.3,95.9,513.3z
				 M65.6,536.3c-9.1,0-16.4-7.4-16.4-16.4c0-9.1,7.4-16.4,16.4-16.4c9.1,0,16.4,7.4,16.4,16.4C82,529,74.6,536.3,65.6,536.3z"/>
		</g>
	</g>
	<g>
		<ellipse class="st2" cx="243" cy="676.3" rx="243.4" ry="28.5"/>
		<g>
			<g>
				<g>
					<g>
						<path id="SVGID_1_" class="st3" d="M557.3,462.2c-36.1,31.2-57.7,75.9-57.7,123.6l0,0H317l0,0c0-47.6-21.3-92.3-57.3-123.2
							c-49.4-42.5-80.4-105.6-79.4-176.2C182,167.4,278.7,67.5,397.6,62c130.8-6.1,238.8,98.2,238.8,227.8
							C636.3,358.7,605.6,420.5,557.3,462.2z M500.5,601.1H316v28.7h184.5V601.1z M500.5,647.2L500.5,647.2H316l0,0
							c0,27.7,22.3,50,50,50h84.5C478.1,697.3,500.5,674.9,500.5,647.2z"/>
					</g>
					<g>
						<defs>
							<path id="SVGID_2_" d="M557.3,462.2c-36.1,31.2-57.7,75.9-57.7,123.6l0,0H317l0,0c0-47.6-21.3-92.3-57.3-123.2
								c-49.4-42.5-80.4-105.6-79.4-176.2C182,167.4,278.7,67.5,397.6,62c130.8-6.1,238.8,98.2,238.8,227.8
								C636.3,358.7,605.6,420.5,557.3,462.2z M500.5,601.1H316v28.7h184.5V601.1z M500.5,647.2L500.5,647.2H316l0,0
								c0,27.7,22.3,50,50,50h84.5C478.1,697.3,500.5,674.9,500.5,647.2z"/>
						</defs>
						<clipPath id="SVGID_3_">
							<use xlink:href="#SVGID_2_"  style="overflow:visible;"/>
						</clipPath>
						<g class="st4">
							<g>
								<path class="st5" d="M487.2,453.5l10.7,14.8l6.8,2.3c2.5,0.9,5.7,4.8,4.9,7.3c-4.5,12.7-19.7,47-23.5,52
									c0,0-5.1-4.3-3.2-8.6s4.5-36.9,4.5-36.9l-10.1-13.6L487.2,453.5z"/>
								<path class="st6" d="M512.1,476.9c0,0-6.8-7.9-10.8-7.3c0,0,3.5,5.6,2.2,13c-1.9,6.1-7,26.2-18.1,22
									c-1.9,6.9-4.4,20.7-3.4,27.3c0,0,3.5,0.8,5.6-1.3c0,0,7.5-10.5,10.1-14.6l12.7-31.4l9.1-0.3l1.6-3.6L512.1,476.9z"/>
								<path class="st6" d="M521.8,327.5c0,0-101,18.6-114.2,25.3c-13.1,6.8-2.1,22.7,15.7,47c17.8,24.3,56.8,80.6,56.8,80.6
									l15.3-17.5L451.6,385c0,0,105.2,2.1,115.6-10.1c10.4-12.2,10-28.7,4.7-48.3L521.8,327.5z"/>
							</g>
							<g>
								<path class="st6" d="M441.1,124.4c-10-0.3-33.3,40.7,33.1,63.7c22.7,7.8,66.1-1.8,75.1-13.6c0,0-36-78.3-74.2-74.5
									C443.2,102.9,441.1,124.4,441.1,124.4z"/>
								<g>
									<path class="st5" d="M362.2,296.2l15.1-9.7l19.9,3.1l67.7-14l2.3,19.9l-67.6,1.9l-7.3,1.7c-2.1,0.5-4.3,0.1-6.2-0.9
										l-9.1-4.9l-13.3,7.7L362.2,296.2z"/>
									<path class="st7" d="M484.8,189.2c-15.6,1.9-7.9,25.2-14.7,82.4l-66,11l3.6,16c0,0,71.6-0.9,82.5-2.7
										C502.2,266.4,511.1,185.8,484.8,189.2z"/>
								</g>
								<path class="st5" d="M513.7,186.1c-7,6.5-5.8,14.4-16,14c-15.9,2.2-15.3-18.6-15.3-18.6c-6.1,1.9-17.3,3-26.1-10.4
									c-10.1-15.2-12.9-28.8-14.4-41.7c-0.9-8.3,2.5-13.6,16.5-17.4c13.9-3.9,24.3,0.4,35.7,15.2C503.5,139.5,505,168,505,168
									C507.6,173.4,513.7,186.1,513.7,186.1z"/>
								<path class="st8" d="M572,326.7c0,0-32.9,2.7-50.2,0.8c-6.6-51.6-14.3-63.5-14.3-63.5c-17.8-2.2-23-7.9-23-16.5
									c-3-34.4-7.5-53.4-7.5-53.4c2.3-3.8,6.8-4.7,6.8-4.7s1.7,12.1,14.2,10.7c13.4-1.6,7.3-16.9,7.3-16.9
									c7.1-4.7,14.7-5.1,22.6-3.2c7.9,1.8,14.7,6.9,20,12.9c12.7,14,13.3,29,15.3,47.8c2.1,18.8-1.3,26-0.3,49
									C563.6,305.9,570.9,322.7,572,326.7z"/>
								<g>
									<path class="st5" d="M416,320.8l8.8-14.4c1.2-1.6,2.9-2.6,4.7-2.9l17.8-2.7l74.5-12.6l0.8,19.1l-70,1.2l-6.6,4.2
										c-1.9,1.2-4.2,1.6-6.5,1.2l-10.7-2.3l-10.4,12.7L416,320.8z"/>
									<path class="st9" d="M516.6,191.4c3-6.9,6-11.7,14.2-11.3c23.1,0.8,7.1,35.1,23.4,101.7c1.7,6.8,2.6,24.8-16.5,25.9
										c-19.1,1-73.8,7-73.8,7l-7.5-22l67-9.2C523.5,283.4,508.8,209.2,516.6,191.4z"/>
								</g>
							</g>
							<g>
								<path class="st10" d="M396.3,318H276.6L256,251.6c-1.7-5.6,2.5-11.3,8.3-11.3h101.6c3.8,0,7.1,2.5,8.3,6.1L396.3,318z"/>
								<path class="st11" d="M457.9,324.9H281.8c-2.9,0-5.2-2.3-5.2-5.2V318h181.3c1.3,0,2.3,1,2.3,2.3v2.2
									C460.2,323.8,459.2,324.9,457.9,324.9z"/>
								<path class="st12" d="M392.5,324.9H281.8c-3,0-5.3-2.3-5.3-5.3v-1.7h119.7v3.2C396.3,323.2,394.6,324.9,392.5,324.9z"/>
								<path class="st2" d="M319.4,271.3c-0.3,0-0.5,0-0.8,0.1c0,3.9-2.5,7.1-5.6,7.5c0,0,0,0,0,0.1c0,4.3,2.9,7.8,6.4,7.8
									s6.4-3.5,6.4-7.8C325.9,274.8,323,271.3,319.4,271.3z"/>
							</g>
							<g>
								<g>
									<path class="st5" d="M449.2,502.7l1.3,15.5l2.1,6.8c0.8,2.5-0.4,7.5-2.9,8.3c-13,3.9-49.5,12.5-55.7,12.3
										c0,0,0.4-6.6,4.9-7.8c4.5-1.2,32.2-18.5,32.2-18.5l-0.1-13L449.2,502.7z"/>
									<path class="st6" d="M452.9,536.8c0,0,0.6-12.6-1.2-15.9c0,0-2.5,6.9-9.2,10.3c-6.1,2.1-25.2,10.1-28.3-1.3
										c-6.6,2.6-19.2,8.8-23.9,13.6c0,0,1.4,3.4,4.4,3.6c0,0,13-0.3,17.8-0.6l34.2-7l4.4,5.5l3.9-0.9L452.9,536.8z"/>
								</g>
								<path class="st6" d="M572,326.7c9,18.8,26.8,63.3-18.5,65.9c-52,3.1-116.8,2.5-116.8,2.5L452,509l-24.4,4.7
									c0,0-6.6-39.9-15.7-75.4c-9.2-35.5-29.6-70.4-2.6-80.2C436,348.4,572,326.7,572,326.7z"/>
							</g>
							<g>
								<g>
									<path class="st13" d="M440.2,587.5H269.9c-5.7,0-10.7-3.8-12.9-10c-2.3-6.1-1.3-13.1,2.5-18.1l89.3-115.9l-79.3-102.9
										c-1.7-2.2-1.6-5.7,0.3-7.8c1.9-2.1,4.8-1.9,6.6,0.4L355,435.3l78.6-102.1c1.7-2.2,4.7-2.5,6.6-0.4c1.9,2.1,2.1,5.6,0.3,7.8
										l-79.3,102.9l89.3,115.9c3.8,4.9,4.8,11.8,2.5,18.1C450.9,583.7,445.9,587.5,440.2,587.5z M355.1,451.8l-88.7,115.1
										c-1.9,2.5-1.2,5.3-0.8,6.1c0.3,0.8,1.4,3.4,4.4,3.4h170.3c2.9,0,4-2.6,4.4-3.4c0.3-0.8,1-3.5-0.8-6.1L355.1,451.8z"/>
								</g>
								<g>
									<path class="st14" d="M506.2,338.1H204c-3.6,0-6.6-3-6.6-6.6l0,0c0-3.6,3-6.6,6.6-6.6h302.2c3.6,0,6.6,3,6.6,6.6l0,0
										C512.8,335.1,509.9,338.1,506.2,338.1z"/>
								</g>
							</g>
							<g>
								<g>
									<polygon class="st13" points="593.9,570.1 516,570.1 533.9,403.9 540,404.5 523,563.8 587,563.8 569.9,405 576.1,404.4 
																			"/>
								</g>
								<g>
									<path class="st13" d="M576,588h-78l20.9-192.6h36.1L576,588z M504.9,581.7H569l-19.6-180.1h-24.9L504.9,581.7z"/>
								</g>
								<g>
									<rect x="493.3" y="392.2" class="st14" width="98.1" height="13.5"/>
									<polygon class="st14" points="596.1,405.7 586.8,405.7 596.1,354.9 605.5,354.9 									"/>
								</g>
							</g>
						</g>
					</g>
				</g>
			</g>
			<g>
				<path class="st6" d="M514.7,186.9c-26.9,8.2-23.1-18.5-23.1-18.5c10.3,2.2,7.4-22.2-3-23.6c-6.6-0.9-5.2,9.2-5.2,9.2
					c-23.8,14.3-53-11.2-50.3-29.5c1.4-9.9,3.9-16.4,15.3-23.3c14-8.4,27.9-5.3,40.4-0.5c27,10.3,27.5,37.6,55.6,38.8
					c63.9,3,49.1,45.2,85,55.7c20.7,6.1,47,11.8,48.7,45.9c2.1,41.3-70.8,42.6-92.8,37.9c-28.6-6.1-32.5-53.9-38.3-72
					C539.7,184.9,532.5,181.4,514.7,186.9z"/>
			</g>
		</g>
	</g>
	<g>
		<g>
			<path class="st6" d="M242.1,268.6c-13.9,0-19.5,5.7-19.5,18.2c0,1.2-2.2,1.2-2.2,0c0-12.3-4.4-18.2-19.5-18.2
				c-1.2,0-1.2-2.2,0-2.2c15.5,0,19.5-7.1,19.5-18.2c0-1.2,2.2-1.2,2.2,0c0,13,5.3,18.2,19.5,18.2
				C243.2,266.5,243.2,268.6,242.1,268.6z"/>
		</g>
		<g>
			<path class="st6" d="M174.8,209.1c-19.5,0-27.2,8.1-27.2,25.3c0,1.6-3,1.6-3,0c0-17.3-6.1-25.3-27.2-25.3c-1.6,0-1.6-3,0-3
				c21.6,0,27.2-10,27.2-25.2c0-1.6,3-1.6,3,0c0,18.2,7.4,25.2,27.2,25.2C176.4,206.1,176.4,209.1,174.8,209.1z"/>
		</g>
		<g>
			<path class="st6" d="M251.5,92.4c-34.8,0-48.6,14.4-48.6,45.3c0,2.9-5.5,2.9-5.5,0c0-30.9-11-45.3-48.6-45.3
				c-2.9,0-2.9-5.5,0-5.5c38.7,0,48.6-17.9,48.6-45.3c0-2.9,5.5-2.9,5.5,0c0,32.6,13.1,45.3,48.6,45.3
				C254.3,87.1,254.3,92.4,251.5,92.4z"/>
		</g>
	</g>
	<g>
		<g>
			<path class="st15" d="M229.7,684.8c0,4.9-22.1,8.8-49.4,8.8s-49.4-3.9-49.4-8.8s22.1-8.8,49.4-8.8S229.7,680,229.7,684.8z"/>
		</g>
		<g>
			<g>
				<g>
					<path class="st12" d="M226.5,687.3c-10.5,3.1-26.8,3-38.2,0c-2.7-0.6-5.2-1.9-5.7-4.7l-10.9-54.4H243l-10.9,54.4
						C231.7,685.3,229.2,686.5,226.5,687.3z"/>
				</g>
				<g>
					<ellipse class="st16" cx="207.5" cy="628.1" rx="35.6" ry="5.2"/>
				</g>
				<g>
					<path class="st10" d="M241.7,635.5c-7.4,6.1-15.6,11.3-24.3,15.6c-2.5,1.2-5.1,2.3-6.6,4.5c-1.6,2.2-1.7,5.8,0.6,7.3
						c0.9,0.6,2.5,1,2.5,2.2c0,0.5-0.3,0.9-0.6,1.3c-2.5,2.7-6.1,4-8.8,6.4c-2.9,2.3-4.7,6.9-2.2,9.6c1.2,1.2,2.5,2.2,4,2.9
						c2.1,0.8,2.5,4.2,3.2,4.2c10.7,0,17.2-2.3,17.2-2.3c2.7,0,5.2-1.9,5.7-4.7L241.7,635.5z"/>
				</g>
			</g>
			<g>
				<g>
					<path class="st6" d="M195.2,356.7c-2.3-9.4-1.8-18.1-0.3-27.7c1.6-9.6,5.8-18.6,15.3-16.8c9.1,1.7,12.3,12.7,12.9,20.8
						c0.8,11-2.9,21.7-4,32.7c-1.8,16.5,1.9,34.6,6.2,50.7c3.5,12.9,7.8,23.3,11.2,38.3c2.1,9.2,2.6,22.1-0.4,34.6
						c-3.1,12.6-23,57.6-26.9,103.7c-1.8-59-13.5-75.5-17.4-95.6c-1.6-8.3-3.4-16.5-2.6-24.9c1.9-21.4,7.9-42.4,11.4-63.7
						C204.2,387.5,200.5,378.9,195.2,356.7z"/>
				</g>
				<g>
					<g>
						<path class="st17" d="M207.1,629.4L207.1,629.4c-0.8,0-1.3-0.6-1.3-1.3c9.1-105.9,1.8-287.5,1.7-289.4c0-0.6,0.5-1.3,1.2-1.3
							c0.6,0,1.3,0.5,1.3,1.2c0.1,1.8,7.4,183.6-1.8,289.8C208.3,628.9,207.8,629.4,207.1,629.4z"/>
					</g>
					<g>
						<path class="st17" d="M211.5,520.6L211.5,520.6c-0.8,0-1.3-0.6-1.3-1.3c1.4-31.2,15.6-40.8,16.2-41.2c0.5-0.4,1.3-0.3,1.7,0.4
							c0.4,0.5,0.3,1.3-0.4,1.7l0,0c-0.1,0.1-13.8,9.5-15.1,39.2C212.8,520,212.2,520.6,211.5,520.6z"/>
					</g>
					<g>
						<path class="st17" d="M211.8,497.9c-0.6,0-1.2-0.5-1.3-1.2c-1.8-31.6-13.6-36-13.8-36.1c-0.6-0.3-1-0.9-0.8-1.6
							c0.3-0.6,0.9-1,1.6-0.8c0.5,0.1,13.5,4.7,15.5,38.3C213.1,497.4,212.6,497.9,211.8,497.9L211.8,497.9z"/>
					</g>
					<g>
						<path class="st17" d="M211.7,459.1C211.7,459.1,211.5,459.1,211.7,459.1c-0.8-0.1-1.3-0.6-1.3-1.4c2.3-24.6,10.1-31.6,10.4-32
							c0.5-0.5,1.3-0.4,1.8,0.1c0.5,0.5,0.4,1.3-0.1,1.8c-0.1,0.1-7.4,7-9.6,30.3C212.8,458.7,212.3,459.1,211.7,459.1z"/>
					</g>
				</g>
			</g>
			<g>
				<g>
					<path class="st6" d="M129.3,443.6c-2.7-6.8-14.6-32.5-12.6-41.3c5.1,2.1,19.2,24,23.9,33.8c5.7,11.4,16.6,28.3,24.3,38.7
						c6.1,8.3,9.5,10.5,14,19.9c3.4,6.6,8.6,34.2,9,44c0.8,18.5-4,22.2,1.4,57c-11.6-43.9-36.1-70-40.1-83.2
						c-4.5-14.8-4.7-20.9-8.2-36.8C137.2,460.3,138,464.3,129.3,443.6z"/>
				</g>
				<g>
					<g>
						<path class="st17" d="M194,630.6c-0.6,0-1.2-0.5-1.3-1.2c-6.2-78.7-57.6-188.4-62.2-194.4c-0.1-0.1-0.3-0.1-0.3-0.3
							c-0.5-0.5-0.4-1.3,0.1-1.8c0.4-0.3,0.9-0.4,1.3-0.3c2.1,0.9,17.3,32.9,30.5,67.8c13.3,34.7,29.6,85.2,33.1,128.6
							C195.3,630,194.8,630.6,194,630.6L194,630.6z M131.9,434.9l-0.1,0.1C131.7,435.1,131.7,435.1,131.9,434.9z M131.9,434.9
							L131.9,434.9L131.9,434.9z"/>
					</g>
					<g>
						<path class="st17" d="M177,549.3c-0.5,0-1-0.4-1.2-0.9c-5.8-22.3,1-33.7,2.2-34.4c0.5-0.4,1.3-0.3,1.7,0.4
							c0.3,0.5,0.3,1-0.1,1.4c-0.4,0.5-7,10.3-1.4,32c0.1,0.6-0.3,1.3-0.9,1.6C177.1,549.3,177,549.3,177,549.3z"/>
					</g>
					<g>
						<path class="st17" d="M171.9,532.8c-0.5,0-0.9-0.3-1.2-0.8c-8.4-21.3-17.3-22.3-18.3-22.3c-0.6,0-1.2-0.5-1.2-1l1.2-0.3
							l0.1-1.3c1.9,0.1,11.7,1.6,20.5,23.9c0.3,0.6,0,1.4-0.6,1.6C172.2,532.8,172,532.8,171.9,532.8z"/>
					</g>
					<g>
						<path class="st17" d="M162.1,504.7c-0.5,0-1-0.4-1.2-0.9c-4.7-17.8-1.8-26-0.6-26.4c0.6-0.3,1.4,0,1.7,0.6
							c0.1,0.4,0.1,0.8,0,1c-0.1,0.4-2.9,7.1,1.6,24c0.1,0.6-0.3,1.3-0.9,1.6C162.4,504.7,162.3,504.7,162.1,504.7z"/>
					</g>
				</g>
			</g>
			<g>
				<g>
					<path class="st6" d="M272.7,499.5c3.5-4.2,19.6-18.5,26.6-17.8c-0.8,4-13,18.2-17.8,24c-6.1,6.8-12.7,19.4-15.3,27.7
						c-2.1,6.8-1.7,9.6-4.5,15.7c-2.2,4.3-13.4,18.7-17.4,24c-7.7,9.6-16.2,13.1-24.4,37.3c5.5-31.4,9.9-62.1,15.9-71.2
						c6.5-9.9,10.3-12.7,19.1-21.2C264,510,261.3,511.8,272.7,499.5z"/>
				</g>
				<g>
					<g>
						<path class="st17" d="M215.4,630.6c-0.1,0-0.1,0-0.3,0c-0.6-0.1-1.2-0.8-1-1.4c6.1-29.8,19.2-64.1,34.3-89.3
							c11.4-20.1,24-34.6,28.8-40c0.8-0.8,1.4-1.7,1.7-1.9c0.3-0.6,0.9-0.9,1.6-0.8c0.4,0.1,0.8,0.4,0.9,0.9
							c0.3,0.8,0.1,0.8-2.2,3.5c-4.7,5.3-17.3,19.7-28.6,39.6c-14.9,25.1-28.1,59-34,88.5C216.5,630.2,215.9,630.6,215.4,630.6z"/>
					</g>
					<g>
						<path class="st17" d="M233.2,574c-0.1,0-0.4,0-0.5-0.1c-0.6-0.3-0.9-1-0.5-1.7c7-14.6,16.6-15.9,18.6-16l0.1,1.3h1.3
							c0,0.6-0.5,1.2-1.2,1.2c-1,0.1-9.9,1-16.5,14.7C234.1,573.7,233.7,574,233.2,574z"/>
					</g>
					<g>
						<path class="st17" d="M238.3,562.8c-0.1,0-0.3,0-0.5-0.1c-0.6-0.3-0.9-1-0.6-1.7c6.2-14.9,2.5-20.5,2.2-20.9
							c-0.4-0.4-0.5-0.9-0.3-1.4c0.3-0.6,1-0.9,1.7-0.6c0.1,0,6.4,5.3-1.3,23.9C239.2,562.5,238.8,562.8,238.3,562.8z"/>
					</g>
					<g>
						<path class="st17" d="M248.2,544.2c-0.3,0-0.5-0.1-0.8-0.3c-0.5-0.4-0.6-1.2-0.3-1.7c7.3-9.6,13.3-11,14.8-11.3l0.3,1.2
							l1.2,0.3c-0.1,0.5-0.6,0.9-1.2,1c-1,0.1-6.4,1.3-13.1,10.3C248.9,543.9,248.6,544.2,248.2,544.2z"/>
					</g>
				</g>
			</g>
		</g>
	</g>
</g>
</svg>
