<?xml version="1.0" encoding="utf-8"?>
<!-- Generator: Adobe Illustrator 23.0.3, SVG Export Plug-In . SVG Version: 6.00 Build 0)  -->
<svg version="1.1" id="Layer_1" xmlns="http://www.w3.org/2000/svg" xmlns:xlink="http://www.w3.org/1999/xlink" x="0px" y="0px"
	 viewBox="0 0 360 360" style="enable-background:new 0 0 360 360;" xml:space="preserve">
<style type="text/css">
	.st0{fill:#AD4548;}
	.st1{fill:#C14A4E;}
	.st2{fill:#DC6063;}
	.st3{fill:#B23338;}
	.st4{fill:#EEF1F6;}
	.st5{fill:none;stroke:#FFC551;stroke-width:4.4805;stroke-linecap:round;stroke-miterlimit:10;}
	.st6{fill:#FFC551;}
	.st7{fill:#8294AB;}
	.st8{fill:#AEBCD4;}
</style>
<g id="Group_464" transform="translate(449.626 517.137)">
	<path id="Path_580" class="st0" d="M-222.2-250.8h-94.9l-2.1,19.4h99.2L-222.2-250.8z"/>
	<path id="Path_581" class="st1" d="M-319.2-231.4l-3,26.8h105.1l-2.9-26.8H-319.2z"/>
	<path id="Path_582" class="st2" d="M-440.6-281v21.7c0,10.7,8.7,19.4,19.4,19.4h303.1c10.7,0,19.4-8.7,19.4-19.4c0,0,0,0,0,0V-281
		H-440.6z"/>
	<path id="Path_583" class="st3" d="M-98.6-462c0-10.7-8.7-19.4-19.4-19.4h-303.1c-10.7,0-19.4,8.7-19.4,19.4V-281h342V-462z"/>
	<path id="Rectangle_530" class="st4" d="M-413.8-463.3h288.3c4.8,0,8.7,3.9,8.7,8.7v147.2c0,4.8-3.9,8.7-8.7,8.7h-288.3
		c-4.8,0-8.7-3.9-8.7-8.7v-147.2C-422.5-459.4-418.6-463.3-413.8-463.3z"/>
	<path id="Rectangle_531" class="st2" d="M-324.7-204.6h110.2c2,0,3.7,1.7,3.7,3.7v4.4c0,2-1.7,3.7-3.7,3.7h-110.2
		c-2,0-3.7-1.7-3.7-3.7v-4.4C-328.4-202.9-326.8-204.6-324.7-204.6z"/>
	<g id="Group_463" transform="translate(395.909 388.506)">
		<line id="Line_13" class="st5" x1="-552.3" y1="-708.8" x2="-562.3" y2="-720.8"/>
		<g id="Group_462">
			<path id="Path_584" class="st6" d="M-567.7-714l13-10.9c0.8-0.7,0.9-1.8,0.2-2.6c-0.3-0.4-0.8-0.6-1.3-0.7l-12-1.1
				c-1-0.1-1.9,0.6-2,1.7c0,0,0,0,0,0l-1.1,12c-0.1,1,0.7,1.9,1.7,2C-568.5-713.5-568-713.7-567.7-714z"/>
		</g>
	</g>
	<path id="Rectangle_532" class="st7" d="M-391-442.7h71.5c5.4,0,9.7,4.3,9.7,9.7v107c0,5.4-4.3,9.7-9.7,9.7H-391
		c-5.4,0-9.7-4.3-9.7-9.7v-107C-400.7-438.4-396.4-442.7-391-442.7z"/>
	<path id="Rectangle_533" class="st7" d="M-295.3-412.9h115.2c1.7,0,3.1,1.4,3.1,3.1v3.6c0,1.7-1.4,3.1-3.1,3.1h-115.2
		c-1.7,0-3.1-1.4-3.1-3.1v-3.6C-298.4-411.5-297-412.9-295.3-412.9z"/>
	<path id="Rectangle_534" class="st8" d="M-295.9-369h50.2c1.4,0,2.5,1.1,2.5,2.5v2.9c0,1.4-1.1,2.5-2.5,2.5h-50.2
		c-1.4,0-2.5-1.1-2.5-2.5v-2.9C-298.4-367.8-297.3-369-295.9-369z"/>
	<path id="Rectangle_535" class="st7" d="M-295.9-390.8h94.7c1.4,0,2.5,1.1,2.5,2.5v2.9c0,1.4-1.1,2.5-2.5,2.5h-94.7
		c-1.4,0-2.5-1.1-2.5-2.5v-2.9C-298.4-389.7-297.3-390.8-295.9-390.8z"/>
	<path id="Rectangle_536" class="st8" d="M-233.1-369h50.2c1.4,0,2.5,1.1,2.5,2.5v2.9c0,1.4-1.1,2.5-2.5,2.5h-50.2
		c-1.4,0-2.5-1.1-2.5-2.5v-2.9C-235.6-367.8-234.5-369-233.1-369z"/>
	<path id="Rectangle_537" class="st8" d="M-295.9-352.5h50.2c1.4,0,2.5,1.1,2.5,2.5v2.9c0,1.4-1.1,2.5-2.5,2.5h-50.2
		c-1.4,0-2.5-1.1-2.5-2.5v-2.9C-298.4-351.4-297.3-352.5-295.9-352.5z"/>
	<path id="Rectangle_538" class="st8" d="M-233.1-352.5h50.2c1.4,0,2.5,1.1,2.5,2.5v2.9c0,1.4-1.1,2.5-2.5,2.5h-50.2
		c-1.4,0-2.5-1.1-2.5-2.5v-2.9C-235.6-351.4-234.5-352.5-233.1-352.5z"/>
	<path id="Rectangle_539" class="st8" d="M-295.9-336.6h50.2c1.4,0,2.5,1.1,2.5,2.5v2.9c0,1.4-1.1,2.5-2.5,2.5h-50.2
		c-1.4,0-2.5-1.1-2.5-2.5v-2.9C-298.4-335.5-297.3-336.6-295.9-336.6z"/>
	<path id="Rectangle_540" class="st8" d="M-233.1-336.6h50.2c1.4,0,2.5,1.1,2.5,2.5v2.9c0,1.4-1.1,2.5-2.5,2.5h-50.2
		c-1.4,0-2.5-1.1-2.5-2.5v-2.9C-235.6-335.5-234.5-336.6-233.1-336.6z"/>
</g>
</svg>
