<?xml version="1.0" encoding="utf-8"?>
<!-- Generator: Adobe Illustrator 23.0.3, SVG Export Plug-In . SVG Version: 6.00 Build 0)  -->
<svg version="1.1" id="Layer_1" xmlns="http://www.w3.org/2000/svg" xmlns:xlink="http://www.w3.org/1999/xlink" x="0px" y="0px"
	 viewBox="0 0 800 800" style="enable-background:new 0 0 800 800;" xml:space="preserve">
<style type="text/css">
	.st0{fill:#E0E8F5;}
	.st1{fill:#CFDAF0;}
	.st2{fill:#FFFFFF;}
	.st3{fill:#6D63AC;}
	.st4{fill:#E476AD;}
	.st5{fill:#7BCDD5;}
	.st6{fill:#EBF7F8;}
	.st7{fill:#454492;}
	.st8{fill:#5C58A6;}
	.st9{fill:#4DC4D3;}
	.st10{fill:#2F3276;}
	.st11{fill:#D0559D;}
	.st12{fill:#D3EDEB;}
	.st13{fill:#AFA4D0;}
	.st14{fill:#8F55A2;}
	.st15{fill:url(#SVGID_1_);}
	.st16{fill:url(#SVGID_2_);}
	.st17{fill:#E0F2F1;}
	.st18{fill:#F7FCFD;}
	.st19{fill:#F4D87E;}
	.st20{fill:#F3D77D;}
	.st21{fill:url(#SVGID_3_);}
	.st22{fill:url(#SVGID_4_);}
	.st23{fill:url(#SVGID_5_);}
	.st24{fill:url(#SVGID_6_);}
	.st25{fill:url(#SVGID_7_);}
	.st26{fill:url(#SVGID_8_);}
	.st27{fill:url(#SVGID_9_);}
	.st28{fill:url(#SVGID_10_);}
	.st29{fill:url(#SVGID_11_);}
	.st30{fill:url(#SVGID_12_);}
	.st31{fill:url(#SVGID_13_);}
</style>
<g>
	<g>
		<path class="st0" d="M467.6,667.3c-7.9,0.1-15.8,0.7-23.8,1.9c-17.3,2.6-36.8,7-55.7,7.8c6.9,2.2,14,3.1,21.3,3.1
			C428.7,680.1,448.9,673.6,467.6,667.3 M51.9,620.7c2.3,10.7,6.7,20.8,13.2,29.7c9.8,13.4,23.3,23.5,38.2,30.6
			c20.3,9.6,41.7,13.1,63.4,13.1c16.8,0,33.8-2.1,50.5-5.1c39.9-7.2,79.8-18.2,120.6-18.2c2.3,0,4.6,0,6.9,0.1
			c1.5,0,2.9,0.1,4.3,0.2c-2.1-0.9-4.2-1.9-6.3-3.1c-12.7-4.6-25.6-8.5-38.9-11c-17.6-3.3-35.4-4.3-53.3-4.3
			c-25.2,0-50.4,2.1-75.5,2.7c-3.3,0.1-6.7,0.1-10,0.1c-35.6,0-71.2-5.1-101.3-25.5C59.7,627.2,55.7,624.1,51.9,620.7 M740,361.1
			c-0.1,0.6-0.3,1.2-0.4,1.8c-4.8,21.2,0.4,42.9,6.4,63.3c6.2,21.1,12.5,42,16.1,63.7c6.8,41.1,5.9,85.1-11,123.7
			c-1.3,3.1-2.8,6.1-4.3,9.2c15.9-18,27.1-40.1,33.2-63.2c10.8-40.8,4.9-84.4-8.1-124c-6.9-20.9-16.3-40.6-25.6-60.5
			C744.1,370.6,742,365.9,740,361.1 M87.3,142.6c-21.9,18-35.3,44.6-40.5,72.9C34.5,281.1,64.2,343,76.6,406.6
			c14-81.1-25.6-165.4,2.6-245.4C81.4,154.8,84.1,148.6,87.3,142.6 M663.1,104.1c-20.6,0-41.5,4.1-60.9,8.7
			c-43.3,10.4-85.4,25.4-128.6,36.2c-18,4.5-36.3,8.2-54.8,10.4c16.3,2.6,32.8,3.7,49.3,3.7c14.4,0,28.8-0.8,43.2-2.1
			c44.4-4,88.2-12.4,132.7-16.1c10-0.8,20.3-1.4,30.8-1.4c29.3,0,59.2,4.8,82.3,23.3c-6.8-19.8-19.5-37.5-37.6-48.5
			C702.1,107.8,682.8,104.1,663.1,104.1"/>
		<path class="st0" d="M349,671.1c10.3,4.4,21.6,6,33.2,6c1.9,0,3.9,0,5.9-0.1c-1.1-0.3-2.1-0.7-3.2-1.1
			C373,673.6,361.1,671.8,349,671.1 M746.8,622.8c-7.1,8.1-15.3,15.4-24.3,21.5c-15.4,10.5-33,16.7-51.5,19.1
			c-7.1,0.9-14.1,1.3-21.2,1.3c-13.2,0-26.4-1.3-39.5-3c-21-2.7-41.8-6.4-63-7.6c-3.7-0.2-7.4-0.3-11.1-0.3
			c-17.5,0-34.5,2.4-51.4,7.8c-5.6,1.8-11.3,3.7-17.3,5.7c0.5,0,0.9,0,1.5,0c12.6,0,25.1,1.4,37.7,4.1c20.7,4.5,40.8,11.3,61,17.2
			c19.5,5.7,39.4,10.5,59.8,11c1.1,0,2.1,0,3.2,0c17.5,0,34.7-3.5,50.6-11C709.8,675,732.5,650.8,746.8,622.8 M76.6,406.6
			c-1.1,6.5-2.6,13.1-4.5,19.6c-11.7,40.4-41.6,74.1-48.8,116c-3,17.6-0.9,35.8,7.4,51.7c5.3,10.2,12.6,19.2,21.1,26.8
			c-1.5-6.6-2.1-13.4-2-20.2c0.6-42.6,25-80.4,30.4-122.1C83.5,454,81.3,430.2,76.6,406.6 M756.9,166.7c4,11.6,6,24,5.9,36.2
			c-0.2,18.4-5.8,35.4-13,52.1c-8.1,18.8-18.2,37.8-19.6,58.7c-1.2,16.5,3.5,32.4,9.8,47.6c4.9-19.6,17.3-36.3,27.9-53.2
			c9.7-15.4,17.8-31.3,20.8-49.4c5.4-32.5-4.3-68.6-30.1-90.3C758.1,167.7,757.5,167.2,756.9,166.7 M188.8,80.7
			c-12.7,0-25.3,1.6-37.5,5.4c-28.9,9-50.5,30.3-64,56.4c5.8-4.8,12.2-8.9,19.2-12.4c19.1-9.3,40.2-13,61.4-13
			c15.8,0,31.7,2,46.8,5.2c43.2,9.2,83.9,27.9,127.5,35.6c13.7,2.4,27.4,3.5,41.1,3.5c11.9,0,23.7-0.8,35.5-2.2
			c-13.1-2.1-26.1-5.2-38.8-9.5c-41.9-14.3-79.2-39-120.5-54.7C237.3,86.6,213,80.7,188.8,80.7"/>
		<path class="st1" d="M167.9,117.2c-21.2,0-42.3,3.6-61.4,13c-7,3.4-13.4,7.6-19.2,12.4c-3.1,6-5.8,12.2-8,18.7
			c-28.1,80,11.4,164.3-2.6,245.4c4.6,23.6,6.8,47.4,3.7,71.8c-5.4,41.7-29.8,79.5-30.4,122.1c-0.1,6.8,0.6,13.6,2,20.2
			c3.8,3.3,7.7,6.5,11.9,9.3c30.1,20.4,65.7,25.5,101.3,25.5c3.3,0,6.7,0,10-0.1c25-0.6,50.3-2.7,75.5-2.7c17.9,0,35.6,1,53.3,4.3
			c13.3,2.5,26.2,6.4,38.9,11c2.1,1.2,4.1,2.2,6.3,3.1c12,0.6,24,2.4,35.8,4.8c1.1,0.4,2.1,0.8,3.2,1.1c19-0.8,38.4-5.2,55.7-7.8
			c8-1.2,15.9-1.8,23.8-1.9c5.9-2,11.7-4,17.3-5.7c16.9-5.3,33.9-7.8,51.4-7.8c3.7,0,7.4,0.1,11.1,0.3c21.1,1.2,42,4.9,63,7.6
			c13.1,1.7,26.3,3,39.5,3c7.1,0,14.2-0.4,21.2-1.3c18.4-2.4,36-8.6,51.5-19.1c9-6.1,17.1-13.4,24.3-21.5c1.5-3,3-6.1,4.3-9.2
			c16.9-38.7,17.8-82.6,11-123.7c-3.6-21.7-9.8-42.6-16.1-63.7c-6-20.4-11.2-42-6.4-63.3c0.1-0.6,0.3-1.2,0.4-1.8
			c-6.3-15.2-10.9-31-9.8-47.6c1.4-20.8,11.4-39.9,19.6-58.7c7.2-16.7,12.8-33.7,13-52.1c0.1-12.2-1.9-24.5-5.9-36.2
			c-23.1-18.5-53-23.3-82.3-23.3c-10.4,0-20.8,0.6-30.8,1.4c-44.4,3.6-88.3,12-132.7,16.1c-14.3,1.3-28.8,2.1-43.2,2.1
			c-16.5,0-33-1.1-49.3-3.7c-11.8,1.4-23.6,2.2-35.5,2.2c-13.7,0-27.4-1.1-41.1-3.5c-43.6-7.7-84.3-26.5-127.5-35.6
			C199.6,119.2,183.7,117.2,167.9,117.2"/>
	</g>
	<path class="st2" d="M668.5,218.9h-522c-6.9,0-12.4,5.6-12.4,12.4v345.9c0,6.9,5.6,12.4,12.4,12.4h522c6.9,0,12.4-5.6,12.4-12.4
		V231.3C681,224.4,675.4,218.9,668.5,218.9z"/>
	<path class="st3" d="M668.3,218.7H146.8c-7,0-12.7,5.7-12.7,12.7v16.1H681v-16.1C681,224.4,675.3,218.7,668.3,218.7z"/>
	<circle class="st2" cx="619.3" cy="233.1" r="4.2"/>
	<circle class="st4" cx="636.2" cy="233.1" r="4.2"/>
	<circle class="st5" cx="653.1" cy="233.1" r="4.2"/>
	<g>
		<rect x="545.2" y="284.3" class="st6" width="121.8" height="74.6"/>
		<rect x="550.6" y="300.9" class="st3" width="21.7" height="21.7"/>
		<rect x="580.6" y="300.9" class="st5" width="21.7" height="21.7"/>
		<rect x="610.5" y="300.9" class="st7" width="21.7" height="21.7"/>
		<rect x="550.6" y="328.9" class="st8" width="21.7" height="21.7"/>
		<rect x="580.6" y="328.9" class="st9" width="21.7" height="21.7"/>
		<rect x="610.6" y="328.9" class="st10" width="21.7" height="21.7"/>
		<rect x="639.8" y="300.9" class="st4" width="21.7" height="21.7"/>
		<rect x="639.9" y="328.9" class="st11" width="21.7" height="21.7"/>
		<rect x="545.2" y="284.3" class="st12" width="121.8" height="10.3"/>
		<circle class="st2" cx="647" cy="290" r="1.4"/>
		<circle class="st2" cx="653.7" cy="290" r="1.4"/>
		<circle class="st2" cx="660.3" cy="290" r="1.4"/>
	</g>
	<g>
		<rect x="288.6" y="286.2" class="st6" width="236.5" height="188.8"/>
		<rect x="288.6" y="286.2" class="st12" width="236.5" height="13.7"/>
		<circle class="st2" cx="496.2" cy="294.2" r="1.9"/>
		<circle class="st2" cx="504.6" cy="294.2" r="1.9"/>
		<circle class="st2" cx="513.1" cy="294.2" r="1.9"/>
		<g>
			<g>
				<rect x="325.7" y="329.2" class="st3" width="163.2" height="114.6"/>
				<path class="st7" d="M325.7,396.7c3.3,2.5,7.2,3.9,12.2,3.3c8.9-1.1,16.9-7.9,26.1-7.3c9,0.7,14.5,9.6,23.1,11.7
					c7,1.7,12.7-1.9,15.4-8.3c2.9-6.7,1.8-14.8,5.7-21.1c6-9.8,18.4-2.5,25.8,1.2c4.1,2,8.3,4.1,12.4,6.1c4.3,2.1,8.6,4.6,13.3,6.1
					c6.9,2.1,14.5,0.7,17.8-6.3c1.3-2.7,1.7-5.7,2.9-8.4c1.7-4.1,4.8-5.5,8.6-6.4v-38.1H325.7V396.7z"/>
				<circle class="st5" cx="361.8" cy="421.4" r="11.6"/>
				
					<ellipse transform="matrix(0.3162 -0.9487 0.9487 0.3162 -80.0222 667.4114)" class="st5" cx="423" cy="389.2" rx="6.9" ry="6.9"/>
				<circle class="st5" cx="467.1" cy="421.4" r="11.6"/>
			</g>
			<g>
				<path class="st3" d="M500.9,455.3H499c-0.1,0-0.2-0.1-0.2-0.2s0.1-0.2,0.2-0.2h1.7v-1.7c0-0.1,0.1-0.2,0.2-0.2s0.2,0.1,0.2,0.2
					v1.9C501.1,455.2,501,455.3,500.9,455.3z"/>
				<path class="st3" d="M494.3,455.3h-3.8c-0.1,0-0.2-0.1-0.2-0.2s0.1-0.2,0.2-0.2h3.8c0.1,0,0.2,0.1,0.2,0.2
					S494.4,455.3,494.3,455.3z M485.8,455.3H482c-0.1,0-0.2-0.1-0.2-0.2s0.1-0.2,0.2-0.2h3.8c0.1,0,0.2,0.1,0.2,0.2
					S485.9,455.3,485.8,455.3z M477.3,455.3h-3.8c-0.1,0-0.2-0.1-0.2-0.2s0.1-0.2,0.2-0.2h3.8c0.1,0,0.2,0.1,0.2,0.2
					S477.5,455.3,477.3,455.3z M468.9,455.3h-3.8c-0.1,0-0.2-0.1-0.2-0.2s0.1-0.2,0.2-0.2h3.8c0.1,0,0.2,0.1,0.2,0.2
					S469,455.3,468.9,455.3z M460.4,455.3h-3.8c-0.1,0-0.2-0.1-0.2-0.2s0.1-0.2,0.2-0.2h3.8c0.1,0,0.2,0.1,0.2,0.2
					S460.5,455.3,460.4,455.3z M451.9,455.3h-3.8c-0.1,0-0.2-0.1-0.2-0.2s0.1-0.2,0.2-0.2h3.8c0.1,0,0.2,0.1,0.2,0.2
					S452.1,455.3,451.9,455.3z M443.5,455.3h-3.8c-0.1,0-0.2-0.1-0.2-0.2s0.1-0.2,0.2-0.2h3.8c0.1,0,0.2,0.1,0.2,0.2
					S443.6,455.3,443.5,455.3z M435,455.3h-3.8c-0.1,0-0.2-0.1-0.2-0.2s0.1-0.2,0.2-0.2h3.8c0.1,0,0.2,0.1,0.2,0.2
					S435.1,455.3,435,455.3z M426.6,455.3h-3.8c-0.1,0-0.2-0.1-0.2-0.2s0.1-0.2,0.2-0.2h3.8c0.1,0,0.2,0.1,0.2,0.2
					S426.7,455.3,426.6,455.3z M418.1,455.3h-3.8c-0.1,0-0.2-0.1-0.2-0.2s0.1-0.2,0.2-0.2h3.8c0.1,0,0.2,0.1,0.2,0.2
					S418.2,455.3,418.1,455.3z M409.6,455.3h-3.8c-0.1,0-0.2-0.1-0.2-0.2s0.1-0.2,0.2-0.2h3.8c0.1,0,0.2,0.1,0.2,0.2
					S409.7,455.3,409.6,455.3z M401.1,455.3h-3.8c-0.1,0-0.2-0.1-0.2-0.2s0.1-0.2,0.2-0.2h3.8c0.1,0,0.2,0.1,0.2,0.2
					S401.3,455.3,401.1,455.3z M392.7,455.3h-3.8c-0.1,0-0.2-0.1-0.2-0.2s0.1-0.2,0.2-0.2h3.8c0.1,0,0.2,0.1,0.2,0.2
					S392.8,455.3,392.7,455.3z M384.2,455.3h-3.8c-0.1,0-0.2-0.1-0.2-0.2s0.1-0.2,0.2-0.2h3.8c0.1,0,0.2,0.1,0.2,0.2
					S384.4,455.3,384.2,455.3z M375.7,455.3H372c-0.1,0-0.2-0.1-0.2-0.2s0.1-0.2,0.2-0.2h3.8c0.1,0,0.2,0.1,0.2,0.2
					S375.9,455.3,375.7,455.3z M367.3,455.3h-3.8c-0.1,0-0.2-0.1-0.2-0.2s0.1-0.2,0.2-0.2h3.8c0.1,0,0.2,0.1,0.2,0.2
					S367.4,455.3,367.3,455.3z M358.8,455.3H355c-0.1,0-0.2-0.1-0.2-0.2s0.1-0.2,0.2-0.2h3.8c0.1,0,0.2,0.1,0.2,0.2
					S358.9,455.3,358.8,455.3z M350.4,455.3h-3.8c-0.1,0-0.2-0.1-0.2-0.2s0.1-0.2,0.2-0.2h3.8c0.1,0,0.2,0.1,0.2,0.2
					S350.5,455.3,350.4,455.3z M341.9,455.3h-3.8c-0.1,0-0.2-0.1-0.2-0.2s0.1-0.2,0.2-0.2h3.8c0.1,0,0.2,0.1,0.2,0.2
					S342,455.3,341.9,455.3z M333.4,455.3h-3.8c-0.1,0-0.2-0.1-0.2-0.2s0.1-0.2,0.2-0.2h3.8c0.1,0,0.2,0.1,0.2,0.2
					S333.5,455.3,333.4,455.3z M324.9,455.3h-3.8c-0.1,0-0.2-0.1-0.2-0.2s0.1-0.2,0.2-0.2h3.8c0.1,0,0.2,0.1,0.2,0.2
					S325.1,455.3,324.9,455.3z"/>
				<path class="st3" d="M316.5,455.3h-1.9c-0.1,0-0.2-0.1-0.2-0.2v-1.9c0-0.1,0.1-0.2,0.2-0.2s0.2,0.1,0.2,0.2v1.7h1.7
					c0.1,0,0.2,0.1,0.2,0.2S316.6,455.3,316.5,455.3z"/>
				<path class="st3" d="M314.6,448.7c-0.1,0-0.2-0.1-0.2-0.2v-3.8c0-0.1,0.1-0.2,0.2-0.2s0.2,0.1,0.2,0.2v3.8
					C314.9,448.6,314.7,448.7,314.6,448.7z M314.6,440.1c-0.1,0-0.2-0.1-0.2-0.2v-3.8c0-0.1,0.1-0.2,0.2-0.2s0.2,0.1,0.2,0.2v3.8
					C314.9,440,314.7,440.1,314.6,440.1z M314.6,431.7c-0.1,0-0.2-0.1-0.2-0.2v-3.8c0-0.1,0.1-0.2,0.2-0.2s0.2,0.1,0.2,0.2v3.8
					C314.9,431.5,314.7,431.7,314.6,431.7z M314.6,423.1c-0.1,0-0.2-0.1-0.2-0.2v-3.8c0-0.1,0.1-0.2,0.2-0.2s0.2,0.1,0.2,0.2v3.8
					C314.9,423,314.7,423.1,314.6,423.1z M314.6,414.6c-0.1,0-0.2-0.1-0.2-0.2v-3.8c0-0.1,0.1-0.2,0.2-0.2s0.2,0.1,0.2,0.2v3.8
					C314.9,414.5,314.7,414.6,314.6,414.6z M314.6,406.1c-0.1,0-0.2-0.1-0.2-0.2V402c0-0.1,0.1-0.2,0.2-0.2s0.2,0.1,0.2,0.2v3.8
					C314.9,406,314.7,406.1,314.6,406.1z M314.6,397.5c-0.1,0-0.2-0.1-0.2-0.2v-3.8c0-0.1,0.1-0.2,0.2-0.2s0.2,0.1,0.2,0.2v3.8
					C314.9,397.4,314.7,397.5,314.6,397.5z M314.6,389c-0.1,0-0.2-0.1-0.2-0.2V385c0-0.1,0.1-0.2,0.2-0.2s0.2,0.1,0.2,0.2v3.8
					C314.9,388.9,314.7,389,314.6,389z M314.6,380.5c-0.1,0-0.2-0.1-0.2-0.2v-3.8c0-0.1,0.1-0.2,0.2-0.2s0.2,0.1,0.2,0.2v3.8
					C314.9,380.4,314.7,380.5,314.6,380.5z M314.6,372c-0.1,0-0.2-0.1-0.2-0.2V368c0-0.1,0.1-0.2,0.2-0.2s0.2,0.1,0.2,0.2v3.8
					C314.9,371.9,314.7,372,314.6,372z M314.6,363.4c-0.1,0-0.2-0.1-0.2-0.2v-3.8c0-0.1,0.1-0.2,0.2-0.2s0.2,0.1,0.2,0.2v3.8
					C314.9,363.3,314.7,363.4,314.6,363.4z M314.6,354.9c-0.1,0-0.2-0.1-0.2-0.2v-3.8c0-0.1,0.1-0.2,0.2-0.2s0.2,0.1,0.2,0.2v3.8
					C314.9,354.8,314.7,354.9,314.6,354.9z M314.6,346.4c-0.1,0-0.2-0.1-0.2-0.2v-3.8c0-0.1,0.1-0.2,0.2-0.2s0.2,0.1,0.2,0.2v3.8
					C314.9,346.3,314.7,346.4,314.6,346.4z M314.6,337.9c-0.1,0-0.2-0.1-0.2-0.2v-3.8c0-0.1,0.1-0.2,0.2-0.2s0.2,0.1,0.2,0.2v3.8
					C314.9,337.8,314.7,337.9,314.6,337.9z M314.6,329.3c-0.1,0-0.2-0.1-0.2-0.2v-3.8c0-0.1,0.1-0.2,0.2-0.2s0.2,0.1,0.2,0.2v3.8
					C314.9,329.2,314.7,329.3,314.6,329.3z"/>
				<path class="st3" d="M314.6,320.8c-0.1,0-0.2-0.1-0.2-0.2v-1.9c0-0.1,0.1-0.2,0.2-0.2h1.9c0.1,0,0.2,0.1,0.2,0.2
					s-0.1,0.2-0.2,0.2h-1.7v1.7C314.9,320.7,314.7,320.8,314.6,320.8z"/>
				<path class="st3" d="M494.3,318.9h-3.8c-0.1,0-0.2-0.1-0.2-0.2s0.1-0.2,0.2-0.2h3.8c0.1,0,0.2,0.1,0.2,0.2
					S494.4,318.9,494.3,318.9z M485.8,318.9H482c-0.1,0-0.2-0.1-0.2-0.2s0.1-0.2,0.2-0.2h3.8c0.1,0,0.2,0.1,0.2,0.2
					S485.9,318.9,485.8,318.9z M477.3,318.9h-3.8c-0.1,0-0.2-0.1-0.2-0.2s0.1-0.2,0.2-0.2h3.8c0.1,0,0.2,0.1,0.2,0.2
					S477.5,318.9,477.3,318.9z M468.9,318.9h-3.8c-0.1,0-0.2-0.1-0.2-0.2s0.1-0.2,0.2-0.2h3.8c0.1,0,0.2,0.1,0.2,0.2
					S469,318.9,468.9,318.9z M460.4,318.9h-3.8c-0.1,0-0.2-0.1-0.2-0.2s0.1-0.2,0.2-0.2h3.8c0.1,0,0.2,0.1,0.2,0.2
					S460.5,318.9,460.4,318.9z M451.9,318.9h-3.8c-0.1,0-0.2-0.1-0.2-0.2s0.1-0.2,0.2-0.2h3.8c0.1,0,0.2,0.1,0.2,0.2
					S452.1,318.9,451.9,318.9z M443.5,318.9h-3.8c-0.1,0-0.2-0.1-0.2-0.2s0.1-0.2,0.2-0.2h3.8c0.1,0,0.2,0.1,0.2,0.2
					S443.6,318.9,443.5,318.9z M435,318.9h-3.8c-0.1,0-0.2-0.1-0.2-0.2s0.1-0.2,0.2-0.2h3.8c0.1,0,0.2,0.1,0.2,0.2
					S435.1,318.9,435,318.9z M426.6,318.9h-3.8c-0.1,0-0.2-0.1-0.2-0.2s0.1-0.2,0.2-0.2h3.8c0.1,0,0.2,0.1,0.2,0.2
					S426.7,318.9,426.6,318.9z M418.1,318.9h-3.8c-0.1,0-0.2-0.1-0.2-0.2s0.1-0.2,0.2-0.2h3.8c0.1,0,0.2,0.1,0.2,0.2
					S418.2,318.9,418.1,318.9z M409.6,318.9h-3.8c-0.1,0-0.2-0.1-0.2-0.2s0.1-0.2,0.2-0.2h3.8c0.1,0,0.2,0.1,0.2,0.2
					S409.7,318.9,409.6,318.9z M401.1,318.9h-3.8c-0.1,0-0.2-0.1-0.2-0.2s0.1-0.2,0.2-0.2h3.8c0.1,0,0.2,0.1,0.2,0.2
					S401.3,318.9,401.1,318.9z M392.7,318.9h-3.8c-0.1,0-0.2-0.1-0.2-0.2s0.1-0.2,0.2-0.2h3.8c0.1,0,0.2,0.1,0.2,0.2
					S392.8,318.9,392.7,318.9z M384.2,318.9h-3.8c-0.1,0-0.2-0.1-0.2-0.2s0.1-0.2,0.2-0.2h3.8c0.1,0,0.2,0.1,0.2,0.2
					S384.4,318.9,384.2,318.9z M375.7,318.9H372c-0.1,0-0.2-0.1-0.2-0.2s0.1-0.2,0.2-0.2h3.8c0.1,0,0.2,0.1,0.2,0.2
					S375.9,318.9,375.7,318.9z M367.3,318.9h-3.8c-0.1,0-0.2-0.1-0.2-0.2s0.1-0.2,0.2-0.2h3.8c0.1,0,0.2,0.1,0.2,0.2
					S367.4,318.9,367.3,318.9z M358.8,318.9H355c-0.1,0-0.2-0.1-0.2-0.2s0.1-0.2,0.2-0.2h3.8c0.1,0,0.2,0.1,0.2,0.2
					S358.9,318.9,358.8,318.9z M350.4,318.9h-3.8c-0.1,0-0.2-0.1-0.2-0.2s0.1-0.2,0.2-0.2h3.8c0.1,0,0.2,0.1,0.2,0.2
					S350.5,318.9,350.4,318.9z M341.9,318.9h-3.8c-0.1,0-0.2-0.1-0.2-0.2s0.1-0.2,0.2-0.2h3.8c0.1,0,0.2,0.1,0.2,0.2
					S342,318.9,341.9,318.9z M333.4,318.9h-3.8c-0.1,0-0.2-0.1-0.2-0.2s0.1-0.2,0.2-0.2h3.8c0.1,0,0.2,0.1,0.2,0.2
					S333.5,318.9,333.4,318.9z M324.9,318.9h-3.8c-0.1,0-0.2-0.1-0.2-0.2s0.1-0.2,0.2-0.2h3.8c0.1,0,0.2,0.1,0.2,0.2
					S325.1,318.9,324.9,318.9z"/>
				<path class="st3" d="M500.9,320.8c-0.1,0-0.2-0.1-0.2-0.2v-1.7H499c-0.1,0-0.2-0.1-0.2-0.2s0.1-0.2,0.2-0.2h1.9
					c0.1,0,0.2,0.1,0.2,0.2v1.9C501.1,320.7,501,320.8,500.9,320.8z"/>
				<path class="st3" d="M500.9,448.7c-0.1,0-0.2-0.1-0.2-0.2v-3.8c0-0.1,0.1-0.2,0.2-0.2s0.2,0.1,0.2,0.2v3.8
					C501.1,448.6,501,448.7,500.9,448.7z M500.9,440.1c-0.1,0-0.2-0.1-0.2-0.2v-3.8c0-0.1,0.1-0.2,0.2-0.2s0.2,0.1,0.2,0.2v3.8
					C501.1,440,501,440.1,500.9,440.1z M500.9,431.7c-0.1,0-0.2-0.1-0.2-0.2v-3.8c0-0.1,0.1-0.2,0.2-0.2s0.2,0.1,0.2,0.2v3.8
					C501.1,431.5,501,431.7,500.9,431.7z M500.9,423.1c-0.1,0-0.2-0.1-0.2-0.2v-3.8c0-0.1,0.1-0.2,0.2-0.2s0.2,0.1,0.2,0.2v3.8
					C501.1,423,501,423.1,500.9,423.1z M500.9,414.6c-0.1,0-0.2-0.1-0.2-0.2v-3.8c0-0.1,0.1-0.2,0.2-0.2s0.2,0.1,0.2,0.2v3.8
					C501.1,414.5,501,414.6,500.9,414.6z M500.9,406.1c-0.1,0-0.2-0.1-0.2-0.2V402c0-0.1,0.1-0.2,0.2-0.2s0.2,0.1,0.2,0.2v3.8
					C501.1,406,501,406.1,500.9,406.1z M500.9,397.5c-0.1,0-0.2-0.1-0.2-0.2v-3.8c0-0.1,0.1-0.2,0.2-0.2s0.2,0.1,0.2,0.2v3.8
					C501.1,397.4,501,397.5,500.9,397.5z M500.9,389c-0.1,0-0.2-0.1-0.2-0.2V385c0-0.1,0.1-0.2,0.2-0.2s0.2,0.1,0.2,0.2v3.8
					C501.1,388.9,501,389,500.9,389z M500.9,380.5c-0.1,0-0.2-0.1-0.2-0.2v-3.8c0-0.1,0.1-0.2,0.2-0.2s0.2,0.1,0.2,0.2v3.8
					C501.1,380.4,501,380.5,500.9,380.5z M500.9,372c-0.1,0-0.2-0.1-0.2-0.2V368c0-0.1,0.1-0.2,0.2-0.2s0.2,0.1,0.2,0.2v3.8
					C501.1,371.9,501,372,500.9,372z M500.9,363.4c-0.1,0-0.2-0.1-0.2-0.2v-3.8c0-0.1,0.1-0.2,0.2-0.2s0.2,0.1,0.2,0.2v3.8
					C501.1,363.3,501,363.4,500.9,363.4z M500.9,354.9c-0.1,0-0.2-0.1-0.2-0.2v-3.8c0-0.1,0.1-0.2,0.2-0.2s0.2,0.1,0.2,0.2v3.8
					C501.1,354.8,501,354.9,500.9,354.9z M500.9,346.4c-0.1,0-0.2-0.1-0.2-0.2v-3.8c0-0.1,0.1-0.2,0.2-0.2s0.2,0.1,0.2,0.2v3.8
					C501.1,346.3,501,346.4,500.9,346.4z M500.9,337.9c-0.1,0-0.2-0.1-0.2-0.2v-3.8c0-0.1,0.1-0.2,0.2-0.2s0.2,0.1,0.2,0.2v3.8
					C501.1,337.8,501,337.9,500.9,337.9z M500.9,329.3c-0.1,0-0.2-0.1-0.2-0.2v-3.8c0-0.1,0.1-0.2,0.2-0.2s0.2,0.1,0.2,0.2v3.8
					C501.1,329.2,501,329.3,500.9,329.3z"/>
			</g>
			<rect x="310" y="314.1" class="st13" width="9.1" height="9.1"/>
			<rect x="310" y="450.5" class="st13" width="9.1" height="9.1"/>
			<g>
				<rect x="403.2" y="314.1" class="st13" width="9.1" height="9.1"/>
				<rect x="403.2" y="450.5" class="st13" width="9.1" height="9.1"/>
			</g>
			<g>
				<rect x="496.3" y="314.1" class="st13" width="9.1" height="9.1"/>
				<rect x="496.3" y="450.5" class="st13" width="9.1" height="9.1"/>
			</g>
			<g>
				<rect x="310" y="382.3" class="st13" width="9.1" height="9.1"/>
				<rect x="498" y="382.3" class="st13" width="9.1" height="9.1"/>
			</g>
		</g>
	</g>
	<g>
		<circle class="st6" cx="632.2" cy="408" r="41.6"/>
		<g>
			<circle class="st3" cx="632.2" cy="408" r="38.1"/>
			<path class="st14" d="M594.2,410.3c0,0.4,0,0.8,0.1,1.3c0,0.2,0,0.3,0,0.5c0,0.6,0.1,1.1,0.2,1.7c0,0.1,0,0.2,0,0.3
				c0.1,0.5,0.1,0.9,0.2,1.3c0,0.2,0.1,0.4,0.1,0.6c0.1,0.4,0.1,0.7,0.2,1c0,0.2,0.1,0.4,0.1,0.6c0.1,0.5,0.3,1,0.4,1.5
				c0,0.2,0.1,0.4,0.2,0.7c0.1,0.3,0.2,0.6,0.3,0.9c0.1,0.2,0.2,0.5,0.3,0.8c0.1,0.2,0.2,0.5,0.3,0.8c0.1,0.2,0.2,0.5,0.3,0.8
				c0.1,0.3,0.3,0.7,0.5,1c0.2,0.4,0.3,0.7,0.5,1.1c0.1,0.2,0.2,0.4,0.3,0.6c0.1,0.3,0.3,0.6,0.5,0.8c0.1,0.2,0.2,0.3,0.3,0.5
				c0.4,0.7,0.8,1.3,1.2,2l31.7-21v-38.1c-21,0-38.1,17-38.1,38.1c0,0.6,0,1.2,0,1.7C594.2,410,594.2,410.2,594.2,410.3z"/>
			<path class="st5" d="M663.9,429.1c4-6,6.3-13.3,6.3-21c0-21-17-38.1-38.1-38.1V408L663.9,429.1z"/>
		</g>
		<path class="st2" d="M632.2,422.6c-8.1,0-14.6-6.6-14.6-14.6c0-8.1,6.6-14.6,14.6-14.6c8.1,0,14.6,6.6,14.6,14.6
			C646.8,416.1,640.3,422.6,632.2,422.6z M632.2,395.8c-6.7,0-12.2,5.5-12.2,12.2c0,6.7,5.5,12.2,12.2,12.2
			c6.7,0,12.2-5.5,12.2-12.2S638.9,395.8,632.2,395.8z"/>
	</g>
	<rect x="308.9" y="509.6" class="st2" width="0.7" height="8.6"/>
	<rect x="312.7" y="509.6" class="st2" width="0.7" height="8.6"/>
	<rect x="314.9" y="509.6" class="st2" width="0.7" height="8.6"/>
	<rect x="306.1" y="523.3" class="st2" width="0.7" height="8.6"/>
	<g>
		<rect x="288.3" y="493.8" class="st6" width="236.5" height="48.9"/>
		<rect x="288.3" y="493.8" class="st12" width="236.5" height="12.2"/>
		<circle class="st2" cx="497.6" cy="500.2" r="1.7"/>
		<circle class="st2" cx="505.1" cy="500.2" r="1.7"/>
		<circle class="st2" cx="512.5" cy="500.2" r="1.7"/>
		
			<linearGradient id="SVGID_1_" gradientUnits="userSpaceOnUse" x1="298.0654" y1="-870.3369" x2="514.9707" y2="-870.3369" gradientTransform="matrix(1 0 0 1 0 1388)">
			<stop  offset="0" style="stop-color:#454492"/>
			<stop  offset="0.341" style="stop-color:#6D63AC"/>
			<stop  offset="0.749" style="stop-color:#E476AD"/>
			<stop  offset="0.9895" style="stop-color:#F06692"/>
		</linearGradient>
		<rect x="298.1" y="513.4" class="st15" width="216.9" height="8.6"/>
		
			<linearGradient id="SVGID_2_" gradientUnits="userSpaceOnUse" x1="-3739.7522" y1="3937.4163" x2="-3522.7998" y2="3937.4163" gradientTransform="matrix(-1 0 0 -1 -3224.7344 4468.8481)">
			<stop  offset="0" style="stop-color:#454492"/>
			<stop  offset="0.341" style="stop-color:#8F55A2"/>
			<stop  offset="0.7113" style="stop-color:#6D63AC"/>
			<stop  offset="0.9895" style="stop-color:#7BCDD5"/>
		</linearGradient>
		<polygon class="st16" points="298.1,527.1 515,527.1 515,535.7 298.1,535.7 		"/>
		<rect x="363.2" y="513.4" class="st2" width="0.7" height="8.6"/>
		<rect x="365.6" y="513.4" class="st2" width="0.7" height="8.6"/>
		<rect x="395.7" y="527.1" class="st2" width="0.7" height="8.6"/>
		<rect x="406.2" y="527.1" class="st2" width="0.7" height="8.6"/>
		<rect x="500.2" y="513.4" class="st2" width="0.7" height="8.6"/>
		<rect x="496.5" y="513.4" class="st2" width="0.7" height="8.6"/>
		<rect x="506.8" y="527.1" class="st2" width="0.7" height="8.6"/>
		<rect x="504.7" y="527.1" class="st2" width="0.7" height="8.6"/>
		<rect x="409.1" y="527.1" class="st2" width="0.7" height="8.6"/>
	</g>
	<g>
		<rect x="155.4" y="286.8" class="st6" width="110.3" height="71.4"/>
		<rect x="155.4" y="286.8" class="st12" width="110.3" height="11.9"/>
		<circle class="st2" cx="245.9" cy="292.9" r="1.3"/>
		<circle class="st2" cx="251.8" cy="292.9" r="1.3"/>
		<circle class="st2" cx="257.8" cy="292.9" r="1.3"/>
		<g>
			<rect x="165.8" y="310" class="st17" width="12.3" height="12.3"/>
			<rect x="185.1" y="310" class="st18" width="12.3" height="12.3"/>
			<rect x="204.5" y="310" class="st17" width="12.3" height="12.3"/>
			<rect x="223.8" y="310" class="st18" width="12.3" height="12.3"/>
			<rect x="243" y="310" class="st17" width="12.3" height="12.3"/>
			<rect x="165.8" y="328.2" class="st18" width="12.3" height="12.3"/>
			<rect x="185.1" y="328.2" class="st17" width="12.3" height="12.3"/>
			<rect x="204.5" y="328.2" class="st18" width="12.3" height="12.3"/>
			<rect x="223.8" y="328.2" class="st17" width="12.3" height="12.3"/>
			<rect x="243" y="328.2" class="st18" width="12.3" height="12.3"/>
		</g>
	</g>
	<path class="st19" d="M567.4,375.1c0,0,2.3,11.1,0,11.8c-2.3,0.8-11.5-4.5-23.6-4.5c-12,0-38.9-5.5-40.6-7.3
		c-1.8-1.8-20.3-39.6-24.1-46.6s1-21.3-6.2-20.8c-7.3,0.5-15,7.5-7.8,17.3s12.3,25.6,17.1,40.4c4.8,14.8,8.3,23.6,15.8,27.8
		c7.5,4.3,47.2,10.8,49.4,18.6s-4.3,16.8-0.2,26.8c4,10,19.9,19.6,17.3,43.4c-2.1,18.9-5.9,100.3-7.7,133.9s-1.3,102.8-4.7,109.6
		c-3.4,6.8-16.9,11.7-26,13.6c-9,1.9-19.2,7.2-13.2,9.4s52.4,3.1,55.6,0c3.2-3.1,7.6-6,2.4-19.2c-5.3-13.2,9-51.5,9.8-72.2
		c0.7-20.7,1.8-30.2,2.9-41.1c1.1-10.9,10-74.7,16.1-77c6-2.3,14.2,70,18.7,79.4c4.5,9.4,46.3,76.8,48.9,85c2.6,8.3,4.9,26.7,0,30.1
		c-4.9,3.4-20.3,15.7-9.8,17.1c10.5,1.3,24.1-5.4,29.7-17.1c5.6-11.7,13.9-25.6,4.1-28.2c-9.8-2.6-10.5-3.4-20.3-26.7
		c-9.8-23.4-22.2-56.4-30.1-67.7c-7.9-11.3,1.1-41-1.9-70.7c-3-29.7-20.3-44.4-26-58.7c-5.6-14.3,3-74.5,1.9-79.4
		c-1.1-4.9-31.2-13.9-31.2-13.9l-3-20.7L567.4,375.1z"/>
	<path class="st20" d="M614.8,401.9c0,0,11.1,6.5,20.6,20c9.5,13.5,26.1,31.3,27.1,38.4c1,7-22.8,47.4-28.6,51.9s-11.3,0-11.3,0
		s24.1-41.9,22.3-50.2c-1.8-8.3-37.3-35.6-37.3-35.6L614.8,401.9z"/>
	
		<linearGradient id="SVGID_3_" gradientUnits="userSpaceOnUse" x1="597.2613" y1="-797.6057" x2="580.8299" y2="-877.2145" gradientTransform="matrix(1 0 0 1 0 1388)">
		<stop  offset="0" style="stop-color:#454492"/>
		<stop  offset="1" style="stop-color:#2F3276"/>
	</linearGradient>
	<path class="st21" d="M638.7,538.7c-0.1-1-0.2-2-0.4-3c0-0.1,0-0.1,0-0.2c-0.2-2.3-0.7-4.5-1.3-6.5c-5.5-22.5-19.2-35.2-24.1-47.7
		c-0.4-1.1-0.8-2.5-1.1-4.2c-13.8,3.2-33.2,1.9-47.2,0.2c0,0-5.4,53.2-15.7,91.1c-2.8,10.3-11.6,29.6-11.6,29.6s16.9,15.2,29.7,12.2
		c12.8-3,21-5.3,28.5,0c7.5,5.3,27.1-0.2,29.3-3.2s12.2-7.3,21.6-1.6c9.4,5.6,14.6-3.7,14.6-3.7S643,566.6,638.7,538.7z"/>
	<path class="st14" d="M537.3,742.7c-5.8,0.5-7.5-2-7.7-4.6c-1.2,0.3-2.5,0.6-3.6,0.9c-9,1.9-19.2,7.2-13.2,9.4
		c6,2.3,52.4,3.1,55.6,0c3-3,7.1-5.7,3.2-17.1c-1.5,0.2-3.3,0.6-5.2,1.1C556.1,735.4,549.1,741.7,537.3,742.7z"/>
	<path class="st14" d="M691.1,705.1c-2.6-0.7-4.6-1.3-6.3-2.2c-0.8,4.4-2.2,11.8-4.1,18.7c-3,10.8-7.7,16-17.2,14.3l0,0
		c-6.2,4.9-14.9,13.4-6.3,14.5c10.5,1.3,24.1-5.4,29.7-17.1C692.7,721.6,700.9,707.8,691.1,705.1z"/>
	
		<linearGradient id="SVGID_4_" gradientUnits="userSpaceOnUse" x1="647.1963" y1="-926.5243" x2="609.3989" y2="-964.2188" gradientTransform="matrix(1 0 0 1 0 1388)">
		<stop  offset="0" style="stop-color:#7BCDD5"/>
		<stop  offset="1" style="stop-color:#4DC4D3"/>
	</linearGradient>
	<path class="st22" d="M644.9,462.1c0.7,3.2-2.5,11.2-6.5,20c3,2.5,7.2,4.9,12.4,5c6.5-11.5,12.2-23.3,11.7-26.8
		c-1-7-17.5-24.9-27.1-38.4c-9.5-13.6-21.9-21.8-21.9-21.8l-5.9,26.3C607.5,426.5,643.1,453.8,644.9,462.1z"/>
	<path class="st19" d="M482.1,365.3c4.8,14.8,8.3,23.6,15.8,27.8c4.4,2.5,19.5,5.7,31.9,9.5l13.4-20.3c-12.3-0.2-38.3-5.5-40-7.3
		c-1.8-1.8-20.3-39.6-24.1-46.6c-3.7-7,1-21.3-6.2-20.8c-7.3,0.5-15,7.5-7.8,17.3C472.3,334.7,477.3,350.5,482.1,365.3z"/>
	
		<linearGradient id="SVGID_5_" gradientUnits="userSpaceOnUse" x1="536.4575" y1="-967.2959" x2="586.5875" y2="-986.7418" gradientTransform="matrix(1 0 0 1 0 1388)">
		<stop  offset="0" style="stop-color:#7BCDD5"/>
		<stop  offset="1" style="stop-color:#4DC4D3"/>
	</linearGradient>
	<path class="st23" d="M614.8,401.9c-0.8-3.6-17-9.3-25.7-12.2l0,0c0,0-0.1,0-0.1,0c-0.1,0-0.2,0-0.3-0.1c-0.2,0-0.3-0.1-0.5-0.2
		c-0.1,0-0.3-0.1-0.4-0.1s-0.3-0.1-0.5-0.1c-0.1,0-0.2,0-0.3-0.1c-0.2,0-0.4-0.1-0.6-0.2c0,0-0.1,0-0.2,0c-0.1,0-0.3-0.1-0.4-0.1
		c0,0,0,0-0.1,0l0,0c-1.3-0.4-2.1-0.6-2.1-0.6l-1.9-13.3c-1.8,0-9.3,0.2-14.2,0.5c0.2,1.2,2.1,11,0,11.6c-0.6,0.2-1.5,0-2.9-0.4l0,0
		c-0.1,0-0.2,0-0.4-0.1c-0.2,0-0.4-0.1-0.6-0.2c-0.2,0-0.4-0.1-0.7-0.2c-0.1,0-0.1,0-0.2-0.1c-1-0.3-2.1-0.6-3.2-1c0,0,0,0-0.1,0
		l0,0c-4.1-1.2-9.5-2.5-15.5-2.5c-12,0-38.9-5.5-40.6-7.3c-1-1-7.5-13.9-13.7-26c-4,2.3-8.2,3.7-11.3,4.5c1.3,3.9,2.6,7.8,3.8,11.7
		c4.8,14.8,8.3,23.6,15.8,27.8c7.5,4.3,47.2,10.8,49.4,18.6c2.3,7.8-4.3,16.8-0.2,26.8c4,10,19.9,19.6,17.3,43.4
		c0,0.5-0.1,1-0.1,1.5c19.5,4.9,38.4,0.9,48.6-2.3C607.3,466.6,615.9,406.8,614.8,401.9z"/>
	<path class="st19" d="M585.4,338c-4.2-2.3-9.2-2.5-13.6-0.7c-3,1.3-6.3,3.4-8.4,6.6c-4.8,7.4-10,28.3-4.2,31.7
		c9.9,5.9,20.9,3.5,27.7-5C592.9,363.2,602.3,347.3,585.4,338z"/>
	
		<linearGradient id="SVGID_6_" gradientUnits="userSpaceOnUse" x1="590.5884" y1="-982.1274" x2="577.2916" y2="-1046.5494" gradientTransform="matrix(1 0 0 1 0 1388)">
		<stop  offset="0" style="stop-color:#454492"/>
		<stop  offset="1" style="stop-color:#2F3276"/>
	</linearGradient>
	<path class="st24" d="M605,375.8c-2.1-2.5-3.7-5.4-5-8.4c0-0.4,0-0.9,0-1.3c0-5.5,0.9-11-0.9-16.3c-3.2-9.4-11.9-15.3-21.5-15.6
		c-2.8,0.1-3.7,0.5-3.7,0.5c-2.1,0.6-4,1.6-5.6,3.1c-5.6,4.4-7.8,12-4.9,18.8c2.5,6,9.5,12.3,10.6,19.1c0,0.3,0,0.6-0.1,0.9
		c-1,5.5-4.5,10.1-6.8,15.2c-1.1,2.5-1.7,5-1.9,7.5c0,0.8-0.1,1.5-0.2,2.3c-1,7.1,2.7,14.2,8.9,18c3.9,2.4,8.7,3.5,13.2,3.2
		c3.6-0.2,5.6-2.1,6.4-4.9c1-1.2,1.5-2.8,1.3-4.7c-0.2-2.4-1.5-4.5-1.7-6.9c-0.2-4.3,4.3-4.4,7.5-5.2c1.7,0.1,3.5,0,5.1-0.7
		c4.4-1.8,7.1-6.4,6.9-11.2C612.5,383.6,608.5,380,605,375.8z M563.1,347.6c0.3-1.8,1-3.6,2-5c-2.8,6.5-0.3,13.6,3.6,19.3
		c2.5,3.7,5.1,7.3,5.4,11.7c-1.4-4.3-4.7-8.4-7.1-12C564.1,357.3,562.1,352.7,563.1,347.6z M591.1,420.9c-1.7,1.5-4.4,1.4-6.5,1.3
		c-4-0.2-7.9-1.5-11.2-3.7c-4.6-3.1-7.5-8.3-7.7-13.7c0.6,2.6,1.7,5,3.3,7.4c0,0.1,0,0.2,0.1,0.3c0.3,0.4,0.7,0.9,1.1,1.3
		c0.1,0.1,0.1,0.2,0.2,0.3c0,0,0.1,0.1,0.2,0.1c4.8,5,13.1,8,19.8,6c0.9-0.3,1.7-0.7,2.4-1.2C592.2,419.7,591.8,420.4,591.1,420.9z
		 M608.9,397.6c-1.7,1.8-3.7,2.6-6,2.9c6.9-3.2,9.2-12.3,4.6-18.6c-1.4-1.9-3.3-3.5-4.7-5.4c-1.5-2.1-2.3-4.4-2.6-6.9
		c0.6,1.2,1.2,2.4,2,3.5c3.4,5.2,9.1,9.1,9.7,15.7C612.2,392.1,611.2,395.3,608.9,397.6z"/>
	<g>
		<path class="st3" d="M621.9,590.5c6.2-2.9,12.8-1.9,19.2-0.4c5,1.2,10.5,2.5,15.9,2.6c-0.5-1.2-1.1-2.4-1.6-3.6
			c-7.8-0.5-16.3-4-23.3-4.3c-5.9-0.2-10.9,1.6-16,4.6c-5.6,3.3-10.9,6.6-17.4,3.5c-4.6-2.3-8.5-6-13.5-7.4
			c-6-1.6-11.8,0.7-17.7,1.6c-8.2,1.4-16.6-0.5-23.5-5c-0.5,1.2-1,2.4-1.5,3.5c3.6,2.3,7.5,3.9,11.7,4.8c4.3,0.9,8.7,1.1,13,0.5
			c5.9-0.9,12-3.6,17.9-1.5c4.6,1.6,8.2,5.2,12.5,7.1c3.9,1.7,8,1.9,12.1,0.4C614.1,595.3,617.8,592.4,621.9,590.5z"/>
		<path class="st3" d="M565.5,582.1c6.2-0.6,12.4-2.1,18.6-1.5c3.4,0.3,6.5,1.2,9.4,3.1c2.3,1.5,4.3,3.3,6.9,4.2
			c5.6,1.9,10.9-1.1,15.6-3.7c6.9-3.9,13.1-4,20.7-2.9c4.9,0.7,10.4,1.4,15.5,0.6c-0.5-1.1-0.9-2.3-1.4-3.4
			c-6.2,0.7-13.5-1.2-19-1.6c-4.9-0.4-9.7,0-14.2,2.2c-5.6,2.7-11.4,8.1-17.8,4.5c-4.1-2.3-7.2-5.1-12-6.1c-4.8-1-9.6-0.6-14.4,0
			c-7.9,1.1-20,3-26.1-3.4c-0.4,1.2-0.9,2.4-1.3,3.6C551,581.8,558.7,582.7,565.5,582.1z"/>
	</g>
	
		<linearGradient id="SVGID_7_" gradientUnits="userSpaceOnUse" x1="186.2507" y1="-771.2997" x2="252.4391" y2="-771.2997" gradientTransform="matrix(1 0 0 1 0 1388)">
		<stop  offset="0" style="stop-color:#F7A1A3"/>
		<stop  offset="1" style="stop-color:#E15C65"/>
	</linearGradient>
	<path class="st25" d="M194.4,487.8c0,0-8.3,24.4-5.9,46.8s9.1,70.7,8.6,82.7c-0.6,12.1-3.9,66.8-4.5,83.9
		c-0.5,17.1,0.6,10.6-2.3,20.3s-7.4,20.9,0,22.7c7.4,1.8,60.4,2.9,62.1-3.2c1.8-6.2-33.6-6.2-36.5-27.7
		c-2.9-21.5,10.9-73.9,12.4-96.6c1.5-22.7,6.2-77.4,6.2-77.4L194.4,487.8z"/>
	<path class="st10" d="M190.3,744.2c7.4,1.8,60.4,2.9,62.1-3.2c1.8-6.2-33.6-6.2-36.5-27.7c-0.1-0.7-0.2-1.5-0.2-2.3l-23.2-1.9
		c0,7.3,0.2,4.7-2.1,12.4C187.3,731.2,182.9,742.4,190.3,744.2z"/>
	
		<linearGradient id="SVGID_8_" gradientUnits="userSpaceOnUse" x1="212.8576" y1="-729.7943" x2="209.329" y2="-825.7936" gradientTransform="matrix(1 0 0 1 0 1388)">
		<stop  offset="0" style="stop-color:#454492"/>
		<stop  offset="1" style="stop-color:#2F3276"/>
	</linearGradient>
	<path class="st26" d="M222.6,708.9c0.1-2.7,0.1-5.5-0.1-8.3c-1.6-22.4,7-62.5,8.4-83.9c1.5-22.7,3.6-77.4,3.6-77.4l-40-51.5l0,0
		c0,0-8.3,24.5-5.9,46.8c2.4,22.4,7.3,70,6.7,82.1c-0.6,12.1-3.3,63.2-5.3,80.2c-0.8,6.9-0.9,13.4-1,15.2c5.4,1.9,24.2,5.1,33.4,2.3
		C222.3,714.2,222.5,711.5,222.6,708.9z"/>
	<path class="st19" d="M236.8,346.1c0,0-2.6,10-2.4,14.7s75.7,15,75.7,15s23-25,27.4-33.8c4.4-8.8,5.3-19.1,9.1-24.1
		s8.8-13,11.2-7.1c2.4,5.9,2.4,24.8-3.2,28.8c-5.6,4.1-22.1,53.9-32.4,58.6c-10.3,4.7-50.7,0.5-53.4,5.2
		c-2.7,4.7-7.8,86.8-4.3,102.5c3.6,15.7,33.4,87.9,33.7,99.3c0.4,11.4-37.4,94.5-40,104c-2.2,8,8.7,22.8,13,24.3
		c4.3,1.6,18.8,7.5,15.7,12.5s-25.3,3.7-32.6,0s-11.6-10.6-19.9-12.7c-8.2-2.2-11.2-20.4,5-33.3c10.6-8.5,22.1-84.8,22.4-90.6
		c0.4-6.7-56.9-56.9-65.3-107.7c-5.8-34.9-7.7-85.9-7.7-85.9l-2-38.5c0,0,20.8-9.4,23.6-16.9c2.7-7.5,6.2-25.2,6.2-25.2L236.8,346.1
		z"/>
	<path class="st19" d="M346.6,317.8c-3.8,5-4.7,15.3-9.1,24.1c-4.4,8.8-27.4,33.8-27.4,33.8s-10.5-1.4-23.6-3.5l-3.6,28.6
		c13.5-0.4,32.6,0.3,39.3-2.7c10.3-4.7,26.8-54.5,32.4-58.6c5.6-4.1,5.6-23,3.2-28.8C355.4,304.9,350.4,312.8,346.6,317.8z"/>
	
		<linearGradient id="SVGID_9_" gradientUnits="userSpaceOnUse" x1="163.488" y1="-961.6052" x2="211.0371" y2="-961.6052" gradientTransform="matrix(1 0 0 1 0 1388)">
		<stop  offset="0" style="stop-color:#F7A1A3"/>
		<stop  offset="1" style="stop-color:#E15C65"/>
	</linearGradient>
	<path class="st27" d="M186.7,377.5c0,0-6.9,1-11.6,14.1c-4.7,13.2-13.7,70.8-11.2,75.6c2.5,4.7,47.1,8,47.1,8L186.7,377.5z"/>
	
		<linearGradient id="SVGID_10_" gradientUnits="userSpaceOnUse" x1="152.5688" y1="-936.6721" x2="194.3768" y2="-959.3287" gradientTransform="matrix(1 0 0 1 0 1388)">
		<stop  offset="0" style="stop-color:#8F55A2"/>
		<stop  offset="1" style="stop-color:#82499B"/>
	</linearGradient>
	<path class="st28" d="M186.7,377.5c0,0-6.9,1-11.6,14.1c-4.7,13.2-13.7,70.8-11.2,75.6c2.5,4.7,47.1,8,47.1,8L186.7,377.5z"/>
	<path class="st19" d="M218.8,302c0,0,17.4-5.4,25.7,13.5c0.5,1.1,0.9,2.2,1.3,3.2c1.9,2.5,7.7,10.4,7.2,11.2
		c-0.6,0.8-2.8,1.7-3.6,2c1.4,9.7-0.5,15.9-2.6,17.2c-3.2,2-29.5,6.8-38.8-12.1C198.5,318,202.2,306.7,218.8,302z"/>
	
		<linearGradient id="SVGID_11_" gradientUnits="userSpaceOnUse" x1="1100.8912" y1="553.2206" x2="1149.5294" y2="553.2206" gradientTransform="matrix(0.9213 -0.3889 0.3889 0.9213 -1023.3535 254.6488)">
		<stop  offset="0" style="stop-color:#454492"/>
		<stop  offset="1" style="stop-color:#2F3276"/>
	</linearGradient>
	<path class="st29" d="M212.6,303.4c4.8-3.6,7.5-4.5,13.5-5.5c1.6-0.3,3.1-0.4,4.7-0.3c0.8,0,1.7-0.2,2.3-0.8l0,0
		c1.9-1.7,4-3.2,6.9-2c3.2,1.3,4.3,6.7,2.5,9.8c-0.1,0.2-0.2,0.5-0.3,0.8c-0.8,3.5-2.3,2.3-5.4,3.4c-2.4,0.8-4.4,1.8-5.7,4.1
		c-1.2,2.1-2,4.7-2.6,7.1c-1.3,5.1-0.8,10.6,3.9,13.7c2.1,1.4,4.7,1.9,7.2,1.5c2.5-0.3,4.4-2,6.8-2.6c1.7-0.5,3-1,3.7,0.7
		c0.9,2.1,0.7,3.4,0.3,5.4c-0.5,2.7-0.8,5.4-1.5,8.1c-0.5,1.8-0.7,2.4-2.4,3.4c-2,1.2-4.2,1.5-6.3,1c-2.5-0.6-3.9-0.3-6.3-1.3
		c-4.2-1.8-8-4.5-10.3-8.5c-1.5-2.5-2.3-5.3-3.4-8c-0.4-0.9-0.9-2.3-1.9-2.5c-1.4-0.4-2.2,1.7-2.4,2.8c-0.7,4.9,2.4,10.1-1.4,14.4
		c-0.7,0.8-2.4,0.8-2.5-0.6c-0.6-6.2-5.9-10.4-7.9-16c-1.9-5.4-3.2-11.7-1.1-17C205.2,309.1,208.1,306.7,212.6,303.4z"/>
	
		<linearGradient id="SVGID_12_" gradientUnits="userSpaceOnUse" x1="235.9379" y1="-908.9736" x2="256.0643" y2="-988.5544" gradientTransform="matrix(1 0 0 1 0 1388)">
		<stop  offset="0" style="stop-color:#8F55A2"/>
		<stop  offset="1" style="stop-color:#82499B"/>
	</linearGradient>
	<path class="st30" d="M322.7,361.5c-6.5,7.6-12.6,14.3-12.6,14.3s-58.3-8-72.5-13.1c1.4-0.9,2.4-2.4,2.4-4.3c0-2.6-2.5-5.6-5.3-5.3
		c-7.5,0.8-14.8,0.1-22-2c-6.5-2-9.3,8.3-2.8,10.2c0,0,0.1,0,0.1,0c-3.8,7.3-23.2,16.1-23.2,16.1l2,38.5c0,0,1.8,44.9,6.7,79.3h68
		c-1.1-27.3,3-87.8,5.3-91.9c2.7-4.7,43.1-0.5,53.4-5.2c4.3-2,9.8-11.9,15-23.1C330.1,371.6,325.1,365.2,322.7,361.5z"/>
	<path class="st10" d="M271.1,733.6c-4.3-1.6-15.1-16.3-13-24.3c0.5-1.9,2.4-6.6,5-13l-17.8-6.8l-0.4,0.4c-1.9,5.1-3.8,8.8-5.7,10.3
		c-16.1,13-13.2,31.1-5,33.3c8.2,2.2,12.6,9,19.9,12.7c7.3,3.7,29.5,5.1,32.6,0C290,741,275.4,735.1,271.1,733.6z"/>
	
		<linearGradient id="SVGID_13_" gradientUnits="userSpaceOnUse" x1="260.9593" y1="-746.2912" x2="237.894" y2="-895.7574" gradientTransform="matrix(1 0 0 1 0 1388)">
		<stop  offset="0" style="stop-color:#454492"/>
		<stop  offset="1" style="stop-color:#2F3276"/>
	</linearGradient>
	<path class="st31" d="M263.2,487.8L263.2,487.8c-28.6,7.7-68.8,0-68.8,0c0.6,4.9,1.3,9.7,2,14.1c8.4,50.8,64.2,100.6,63.8,107.3
		c-0.3,5.6-16.8,76.3-27.3,87.1c5.2,5.9,25.5,16.3,30.7,18.1c0-0.4,4-11.1,4.1-11.5c2.6-9.5,30.8-86.3,30.4-97.6
		c-0.4-11.4-30.2-83.6-33.7-99.3C263.7,502.5,263.3,495.9,263.2,487.8z"/>
</g>
</svg>
