<?xml version="1.0" encoding="utf-8"?>
<!-- Generator: Adobe Illustrator 23.0.3, SVG Export Plug-In . SVG Version: 6.00 Build 0)  -->
<svg version="1.1" id="Layer_1" xmlns="http://www.w3.org/2000/svg" xmlns:xlink="http://www.w3.org/1999/xlink" x="0px" y="0px"
	 viewBox="0 0 800 800" style="enable-background:new 0 0 800 800;" xml:space="preserve">
<style type="text/css">
	.st0{fill:#E0E8F5;}
	.st1{fill:#CFDAF0;}
	.st2{fill:#FFFFFF;}
	.st3{fill:#6D63AC;}
	.st4{fill:#E476AD;}
	.st5{fill:#7BCDD5;}
	.st6{fill:#F4E8F3;}
	.st7{fill:#E6C6DF;}
	.st8{fill:#E775AC;}
	.st9{fill:#ED4A97;}
	.st10{fill:#7D64AA;}
	.st11{fill:#742A7E;}
	.st12{fill:#283C83;}
	.st13{fill:#F0A8CA;}
	.st14{fill:#A28BC1;}
	.st15{fill:#F4C4DC;}
	.st16{fill:#C2B0D6;}
	.st17{fill:#3F2768;}
	.st18{fill:url(#SVGID_1_);}
	.st19{fill:url(#SVGID_2_);}
	.st20{fill:url(#SVGID_3_);}
	.st21{fill:#B32279;}
	.st22{fill:url(#SVGID_4_);}
	.st23{fill:#F4D87E;}
	.st24{fill:url(#SVGID_5_);}
	.st25{fill:url(#SVGID_6_);}
	.st26{fill:url(#SVGID_7_);}
	.st27{fill:#8F55A2;}
	.st28{fill:url(#SVGID_8_);}
	.st29{fill:#7F2989;}
</style>
<g>
	<g>
		<path class="st0" d="M462.7,649.3c-7.9,0.1-15.9,0.7-23.9,1.9c-17.4,2.6-37,7.1-56,7.9c7,2.2,14.1,3.1,21.4,3.1
			C423.7,662.2,443.9,655.7,462.7,649.3 M45.3,602.6c2.3,10.7,6.7,20.9,13.3,29.8C68.4,645.8,82,656,97,663.1
			c20.4,9.6,41.9,13.2,63.7,13.2c16.9,0,33.9-2.1,50.7-5.1c40.1-7.2,80.1-18.2,121.1-18.2c2.3,0,4.6,0,6.9,0.1
			c1.5,0,2.9,0.1,4.3,0.2c-2.1-0.9-4.2-1.9-6.3-3.1c-12.7-4.6-25.7-8.6-39-11c-17.7-3.3-35.6-4.3-53.5-4.3
			c-25.3,0-50.6,2.1-75.8,2.7c-3.4,0.1-6.7,0.1-10.1,0.1c-35.7,0-71.4-5.1-101.7-25.6C53.2,609,49.1,606,45.3,602.6 M736.3,341.9
			c-0.1,0.6-0.3,1.2-0.4,1.8c-4.8,21.3,0.4,43.1,6.4,63.5c6.2,21.2,12.5,42.2,16.1,64c6.8,41.3,5.9,85.4-11,124.2
			c-1.3,3.1-2.8,6.1-4.3,9.2c15.9-18.1,27.3-40.3,33.4-63.5c10.8-41,4.9-84.7-8.1-124.5c-6.9-21-16.3-40.8-25.7-60.7
			C740.4,351.4,738.3,346.7,736.3,341.9 M80.8,122.4c-22,18.1-35.4,44.8-40.7,73.2c-12.3,66,17.5,128.1,30,191.9
			c14.1-81.5-25.7-166.1,2.6-246.4C74.9,134.8,77.7,128.4,80.8,122.4 M659,83.8c-20.7,0-41.7,4.1-61.1,8.7
			c-43.5,10.4-85.8,25.5-129.2,36.3c-18.1,4.5-36.5,8.3-55,10.4c16.3,2.6,32.9,3.7,49.5,3.7c14.4,0,28.9-0.8,43.3-2.1
			c44.6-4,88.6-12.5,133.2-16.1c10-0.8,20.4-1.4,30.9-1.4c29.4,0,59.4,4.8,82.6,23.4c-6.8-19.9-19.6-37.6-37.8-48.7
			C698.2,87.5,678.8,83.8,659,83.8"/>
		<path class="st0" d="M343.7,653.2c10.4,4.4,21.7,6,33.3,6c1.9,0,3.9,0,5.9-0.1c-1.1-0.3-2.1-0.7-3.2-1.1
			C367.7,655.6,355.7,653.8,343.7,653.2 M743.1,604.7c-7.2,8.2-15.3,15.4-24.4,21.6c-15.5,10.5-33.1,16.8-51.7,19.2
			c-7.1,0.9-14.2,1.3-21.3,1.3c-13.2,0-26.5-1.3-39.7-3.1c-21.1-2.7-42-6.4-63.2-7.7c-3.7-0.2-7.4-0.3-11.1-0.3
			c-17.5,0-34.6,2.5-51.6,7.8c-5.6,1.8-11.4,3.7-17.3,5.8c0.5,0,0.9,0,1.5,0c12.6,0,25.2,1.4,37.8,4.1c20.8,4.5,40.9,11.3,61.3,17.3
			c19.6,5.7,39.5,10.5,60,11c1.1,0,2.1,0,3.2,0c17.5,0,34.9-3.5,50.8-11.1C705.9,657.1,728.7,632.7,743.1,604.7 M70.1,387.6
			c-1.1,6.6-2.6,13.2-4.5,19.7c-11.8,40.6-41.8,74.4-49,116.5c-3,17.6-0.9,35.9,7.4,51.9c5.3,10.2,12.7,19.3,21.2,26.9
			c-1.5-6.7-2.1-13.5-2-20.3c0.6-42.7,25.1-80.7,30.5-122.6C77,435.2,74.8,411.3,70.1,387.6 M753.2,146.7c4,11.6,6,24.1,5.9,36.3
			c-0.2,18.4-5.8,35.5-13,52.3c-8.2,18.9-18.2,38-19.6,58.9c-1.2,16.6,3.5,32.5,9.8,47.8c4.9-19.7,17.4-36.5,28-53.4
			c9.7-15.5,17.9-31.5,20.9-49.7c5.4-32.7-4.3-68.9-30.2-90.7C754.4,147.7,753.8,147.2,753.2,146.7 M182.8,60.3
			c-12.7,0-25.4,1.6-37.7,5.5c-29.1,9-50.7,30.4-64.3,56.7c5.8-4.8,12.3-9,19.3-12.4c19.2-9.4,40.4-13,61.7-13c15.9,0,31.8,2,47,5.2
			c43.4,9.2,84.2,28,128,35.8c13.7,2.4,27.5,3.5,41.2,3.5c11.9,0,23.8-0.8,35.6-2.2c-13.2-2.1-26.2-5.2-38.9-9.6
			c-42.1-14.4-79.5-39.2-121-54.9C231.4,66.3,207,60.3,182.8,60.3"/>
		<path class="st1" d="M161.8,97c-21.3,0-42.5,3.7-61.7,13c-7.1,3.4-13.5,7.6-19.3,12.4c-3.1,6-5.8,12.3-8.1,18.7
			c-28.2,80.3,11.5,164.9-2.6,246.4c4.6,23.7,6.9,47.6,3.7,72c-5.5,41.9-29.9,79.9-30.5,122.6c-0.1,6.8,0.6,13.7,2,20.3
			c3.8,3.4,7.8,6.5,12,9.3c30.3,20.5,66,25.6,101.7,25.6c3.4,0,6.7,0,10.1-0.1c25.1-0.6,50.5-2.7,75.8-2.7c17.9,0,35.8,1,53.5,4.3
			c13.3,2.5,26.3,6.4,39,11c2.1,1.2,4.1,2.2,6.3,3.1c12.1,0.6,24.1,2.5,35.9,4.8c1.1,0.4,2.1,0.8,3.2,1.1c19-0.8,38.6-5.2,56-7.9
			c8-1.2,15.9-1.8,23.9-1.9c5.9-2,11.7-4,17.3-5.8c17-5.3,34-7.8,51.6-7.8c3.7,0,7.4,0.1,11.1,0.3c21.2,1.2,42.2,4.9,63.2,7.7
			c13.2,1.7,26.4,3.1,39.7,3.1c7.1,0,14.2-0.4,21.3-1.3c18.5-2.4,36.2-8.7,51.7-19.2c9-6.1,17.2-13.5,24.4-21.6c1.5-3,3-6.1,4.3-9.2
			c17-38.9,17.9-83,11-124.2c-3.6-21.8-9.9-42.8-16.1-64c-6-20.5-11.3-42.2-6.4-63.5c0.1-0.6,0.3-1.2,0.4-1.8
			c-6.3-15.2-11-31.2-9.8-47.8c1.4-20.9,11.5-40,19.6-58.9c7.3-16.8,12.9-33.8,13-52.3c0.1-12.3-1.9-24.6-5.9-36.3
			c-23.2-18.5-53.2-23.4-82.6-23.4c-10.5,0-20.9,0.6-30.9,1.4c-44.6,3.7-88.6,12-133.2,16.1c-14.4,1.3-28.9,2.1-43.3,2.1
			c-16.6,0-33.1-1.1-49.5-3.7c-11.9,1.4-23.7,2.2-35.6,2.2c-13.8,0-27.5-1.1-41.2-3.5c-43.8-7.7-84.6-26.6-128-35.8
			C193.6,99,177.6,97,161.8,97"/>
	</g>
	<path class="st2" d="M667.5,203H143.4c-6.9,0-12.5,5.6-12.5,12.5v347.4c0,6.9,5.6,12.5,12.5,12.5h524.2c6.9,0,12.5-5.6,12.5-12.5
		V215.5C680,208.6,674.4,203,667.5,203z"/>
	<path class="st3" d="M667.3,202.9H143.6c-7,0-12.7,5.7-12.7,12.7v16.2H680v-16.2C680,208.6,674.3,202.9,667.3,202.9z"/>
	<circle class="st2" cx="618" cy="217.3" r="4.2"/>
	<circle class="st4" cx="635" cy="217.3" r="4.2"/>
	<circle class="st5" cx="652" cy="217.3" r="4.2"/>
	<g>
		<path class="st6" d="M263.8,449.1H161.3c-2.5,0-4.6-2.1-4.6-4.6v-96c0-2.5,2.1-4.6,4.6-4.6h102.5c2.5,0,4.6,2.1,4.6,4.6v96
			C268.4,447.1,266.3,449.1,263.8,449.1z"/>
		<path class="st7" d="M259.9,344h-94.8c-4.6,0-8.5,3.8-8.5,8.5v3.7h111.7v-3.7C268.4,347.8,264.6,344,259.9,344z"/>
	</g>
	<path class="st6" d="M417.9,272.7h-223c-10,0-18.2,8.1-18.2,18.2l0,0c0,10,8.1,18.2,18.2,18.2h223c10,0,18.2-8.1,18.2-18.2l0,0
		C436,280.8,427.9,272.7,417.9,272.7z"/>
	<path class="st8" d="M221.4,278.7L221.4,278.7c-6.8,0-12.4,5.5-12.4,12.4l0,0c0,6.8,5.5,12.4,12.4,12.4l0,0
		c6.8,0,12.4-5.5,12.4-12.4l0,0C233.7,284.2,228.2,278.7,221.4,278.7z"/>
	<path class="st9" d="M255.4,278.7L255.4,278.7c-6.8,0-12.4,5.5-12.4,12.4l0,0c0,6.8,5.5,12.4,12.4,12.4l0,0
		c6.8,0,12.4-5.5,12.4-12.4l0,0C267.7,284.2,262.2,278.7,255.4,278.7z"/>
	<path class="st7" d="M289.4,278.7c-6.8,0-12.4,5.5-12.4,12.4l0,0c0,6.8,5.5,12.4,12.4,12.4c6.8,0,12.4-5.5,12.4-12.4l0,0
		C301.7,284.2,296.2,278.7,289.4,278.7z"/>
	<path class="st10" d="M323.4,278.7L323.4,278.7c-6.8,0-12.4,5.5-12.4,12.4l0,0c0,6.8,5.5,12.4,12.4,12.4l0,0
		c6.8,0,12.4-5.5,12.4-12.4l0,0C335.7,284.2,330.2,278.7,323.4,278.7z"/>
	<path class="st11" d="M357.4,278.7c-6.8,0-12.4,5.5-12.4,12.4l0,0c0,6.8,5.5,12.4,12.4,12.4c6.8,0,12.4-5.5,12.4-12.4l0,0
		C369.8,284.2,364.2,278.7,357.4,278.7z"/>
	<path class="st12" d="M391.4,278.7L391.4,278.7c-6.8,0-12.4,5.5-12.4,12.4l0,0c0,6.8,5.5,12.4,12.4,12.4l0,0
		c6.8,0,12.4-5.5,12.4-12.4l0,0C403.8,284.2,398.2,278.7,391.4,278.7z"/>
	<polygon class="st7" points="190.5,291 197.1,296.9 197.1,291 197.1,285.2 	"/>
	<polygon class="st7" points="419.2,291 412.6,285.2 412.6,291 412.6,296.9 	"/>
	<g>
		<rect x="345" y="389" class="st13" width="123.5" height="123.5"/>
		<rect x="516.5" y="389" class="st14" width="123.5" height="123.5"/>
		<g>
			<g>
				<path class="st13" d="M478.4,522.6h-2.1c-0.2,0-0.4-0.2-0.4-0.4s0.2-0.4,0.4-0.4h1.7v-1.7c0-0.2,0.2-0.4,0.4-0.4
					s0.4,0.2,0.4,0.4v2.1C478.8,522.5,478.6,522.6,478.4,522.6z"/>
				<path class="st13" d="M472.1,522.6h-4.2c-0.2,0-0.4-0.2-0.4-0.4s0.2-0.4,0.4-0.4h4.2c0.2,0,0.4,0.2,0.4,0.4
					S472.3,522.6,472.1,522.6z M463.6,522.6h-4.2c-0.2,0-0.4-0.2-0.4-0.4s0.2-0.4,0.4-0.4h4.2c0.2,0,0.4,0.2,0.4,0.4
					S463.8,522.6,463.6,522.6z M455.2,522.6H451c-0.2,0-0.4-0.2-0.4-0.4s0.2-0.4,0.4-0.4h4.2c0.2,0,0.4,0.2,0.4,0.4
					S455.4,522.6,455.2,522.6z M446.8,522.6h-4.2c-0.2,0-0.4-0.2-0.4-0.4s0.2-0.4,0.4-0.4h4.2c0.2,0,0.4,0.2,0.4,0.4
					S447,522.6,446.8,522.6z M438.4,522.6h-4.2c-0.2,0-0.4-0.2-0.4-0.4s0.2-0.4,0.4-0.4h4.2c0.2,0,0.4,0.2,0.4,0.4
					S438.6,522.6,438.4,522.6z M430,522.6h-4.2c-0.2,0-0.4-0.2-0.4-0.4s0.2-0.4,0.4-0.4h4.2c0.2,0,0.4,0.2,0.4,0.4
					S430.2,522.6,430,522.6z M421.5,522.6h-4.2c-0.2,0-0.4-0.2-0.4-0.4s0.2-0.4,0.4-0.4h4.2c0.2,0,0.4,0.2,0.4,0.4
					S421.8,522.6,421.5,522.6z M413.1,522.6h-4.2c-0.2,0-0.4-0.2-0.4-0.4s0.2-0.4,0.4-0.4h4.2c0.2,0,0.4,0.2,0.4,0.4
					S413.3,522.6,413.1,522.6z M404.7,522.6h-4.2c-0.2,0-0.4-0.2-0.4-0.4s0.2-0.4,0.4-0.4h4.2c0.2,0,0.4,0.2,0.4,0.4
					S404.9,522.6,404.7,522.6z M396.3,522.6h-4.2c-0.2,0-0.4-0.2-0.4-0.4s0.2-0.4,0.4-0.4h4.2c0.2,0,0.4,0.2,0.4,0.4
					S396.5,522.6,396.3,522.6z M387.8,522.6h-4.2c-0.2,0-0.4-0.2-0.4-0.4s0.2-0.4,0.4-0.4h4.2c0.2,0,0.4,0.2,0.4,0.4
					S388.1,522.6,387.8,522.6z M379.4,522.6h-4.2c-0.2,0-0.4-0.2-0.4-0.4s0.2-0.4,0.4-0.4h4.2c0.2,0,0.4,0.2,0.4,0.4
					S379.7,522.6,379.4,522.6z M371,522.6h-4.2c-0.2,0-0.4-0.2-0.4-0.4s0.2-0.4,0.4-0.4h4.2c0.2,0,0.4,0.2,0.4,0.4
					S371.2,522.6,371,522.6z M362.6,522.6h-4.2c-0.2,0-0.4-0.2-0.4-0.4s0.2-0.4,0.4-0.4h4.2c0.2,0,0.4,0.2,0.4,0.4
					S362.8,522.6,362.6,522.6z M354.2,522.6h-4.2c-0.2,0-0.4-0.2-0.4-0.4s0.2-0.4,0.4-0.4h4.2c0.2,0,0.4,0.2,0.4,0.4
					S354.4,522.6,354.2,522.6z M345.7,522.6h-4.2c-0.2,0-0.4-0.2-0.4-0.4s0.2-0.4,0.4-0.4h4.2c0.2,0,0.4,0.2,0.4,0.4
					S346,522.6,345.7,522.6z"/>
				<path class="st13" d="M337.4,522.6h-2.1c-0.2,0-0.4-0.2-0.4-0.4v-2.1c0-0.2,0.2-0.4,0.4-0.4c0.2,0,0.4,0.2,0.4,0.4v1.7h1.7
					c0.2,0,0.4,0.2,0.4,0.4S337.6,522.6,337.4,522.6z"/>
				<path class="st13" d="M335.2,516.3c-0.2,0-0.4-0.2-0.4-0.4v-4.2c0-0.2,0.2-0.4,0.4-0.4c0.2,0,0.4,0.2,0.4,0.4v4.2
					C335.6,516.1,335.4,516.3,335.2,516.3z M335.2,507.9c-0.2,0-0.4-0.2-0.4-0.4v-4.2c0-0.2,0.2-0.4,0.4-0.4c0.2,0,0.4,0.2,0.4,0.4
					v4.2C335.6,507.7,335.4,507.9,335.2,507.9z M335.2,499.5c-0.2,0-0.4-0.2-0.4-0.4v-4.2c0-0.2,0.2-0.4,0.4-0.4
					c0.2,0,0.4,0.2,0.4,0.4v4.2C335.6,499.3,335.4,499.5,335.2,499.5z M335.2,491.1c-0.2,0-0.4-0.2-0.4-0.4v-4.2
					c0-0.2,0.2-0.4,0.4-0.4c0.2,0,0.4,0.2,0.4,0.4v4.2C335.6,490.8,335.4,491.1,335.2,491.1z M335.2,482.6c-0.2,0-0.4-0.2-0.4-0.4
					V478c0-0.2,0.2-0.4,0.4-0.4c0.2,0,0.4,0.2,0.4,0.4v4.2C335.6,482.5,335.4,482.6,335.2,482.6z M335.2,474.2
					c-0.2,0-0.4-0.2-0.4-0.4v-4.2c0-0.2,0.2-0.4,0.4-0.4c0.2,0,0.4,0.2,0.4,0.4v4.2C335.6,474.1,335.4,474.2,335.2,474.2z
					 M335.2,465.8c-0.2,0-0.4-0.2-0.4-0.4v-4.2c0-0.2,0.2-0.4,0.4-0.4c0.2,0,0.4,0.2,0.4,0.4v4.2
					C335.6,465.6,335.4,465.8,335.2,465.8z M335.2,457.4c-0.2,0-0.4-0.2-0.4-0.4v-4.2c0-0.2,0.2-0.4,0.4-0.4c0.2,0,0.4,0.2,0.4,0.4
					v4.2C335.6,457.2,335.4,457.4,335.2,457.4z M335.2,449c-0.2,0-0.4-0.2-0.4-0.4v-4.2c0-0.2,0.2-0.4,0.4-0.4
					c0.2,0,0.4,0.2,0.4,0.4v4.2C335.6,448.8,335.4,449,335.2,449z M335.2,440.5c-0.2,0-0.4-0.2-0.4-0.4v-4.2c0-0.2,0.2-0.4,0.4-0.4
					c0.2,0,0.4,0.2,0.4,0.4v4.2C335.6,440.4,335.4,440.5,335.2,440.5z M335.2,432.1c-0.2,0-0.4-0.2-0.4-0.4v-4.2
					c0-0.2,0.2-0.4,0.4-0.4c0.2,0,0.4,0.2,0.4,0.4v4.2C335.6,432,335.4,432.1,335.2,432.1z M335.2,423.7c-0.2,0-0.4-0.2-0.4-0.4
					v-4.2c0-0.2,0.2-0.4,0.4-0.4c0.2,0,0.4,0.2,0.4,0.4v4.2C335.6,423.5,335.4,423.7,335.2,423.7z M335.2,415.3
					c-0.2,0-0.4-0.2-0.4-0.4v-4.2c0-0.2,0.2-0.4,0.4-0.4c0.2,0,0.4,0.2,0.4,0.4v4.2C335.6,415.1,335.4,415.3,335.2,415.3z
					 M335.2,406.9c-0.2,0-0.4-0.2-0.4-0.4v-4.2c0-0.2,0.2-0.4,0.4-0.4c0.2,0,0.4,0.2,0.4,0.4v4.2
					C335.6,406.7,335.4,406.9,335.2,406.9z M335.2,398.5c-0.2,0-0.4-0.2-0.4-0.4v-4.2c0-0.2,0.2-0.4,0.4-0.4c0.2,0,0.4,0.2,0.4,0.4
					v4.2C335.6,398.3,335.4,398.5,335.2,398.5z M335.2,390c-0.2,0-0.4-0.2-0.4-0.4v-4.2c0-0.2,0.2-0.4,0.4-0.4
					c0.2,0,0.4,0.2,0.4,0.4v4.2C335.6,389.9,335.4,390,335.2,390z"/>
				<path class="st13" d="M335.2,381.6c-0.2,0-0.4-0.2-0.4-0.4v-2.1c0-0.2,0.2-0.4,0.4-0.4h2.1c0.2,0,0.4,0.2,0.4,0.4
					c0,0.2-0.2,0.4-0.4,0.4h-1.7v1.7C335.6,381.4,335.4,381.6,335.2,381.6z"/>
				<path class="st13" d="M472.1,379.5h-4.2c-0.2,0-0.4-0.2-0.4-0.4c0-0.2,0.2-0.4,0.4-0.4h4.2c0.2,0,0.4,0.2,0.4,0.4
					S472.3,379.5,472.1,379.5z M463.6,379.5h-4.2c-0.2,0-0.4-0.2-0.4-0.4c0-0.2,0.2-0.4,0.4-0.4h4.2c0.2,0,0.4,0.2,0.4,0.4
					C464,379.3,463.8,379.5,463.6,379.5z M455.2,379.5H451c-0.2,0-0.4-0.2-0.4-0.4c0-0.2,0.2-0.4,0.4-0.4h4.2c0.2,0,0.4,0.2,0.4,0.4
					C455.6,379.3,455.4,379.5,455.2,379.5z M446.8,379.5h-4.2c-0.2,0-0.4-0.2-0.4-0.4c0-0.2,0.2-0.4,0.4-0.4h4.2
					c0.2,0,0.4,0.2,0.4,0.4S447,379.5,446.8,379.5z M438.4,379.5h-4.2c-0.2,0-0.4-0.2-0.4-0.4c0-0.2,0.2-0.4,0.4-0.4h4.2
					c0.2,0,0.4,0.2,0.4,0.4S438.6,379.5,438.4,379.5z M430,379.5h-4.2c-0.2,0-0.4-0.2-0.4-0.4c0-0.2,0.2-0.4,0.4-0.4h4.2
					c0.2,0,0.4,0.2,0.4,0.4S430.2,379.5,430,379.5z M421.5,379.5h-4.2c-0.2,0-0.4-0.2-0.4-0.4c0-0.2,0.2-0.4,0.4-0.4h4.2
					c0.2,0,0.4,0.2,0.4,0.4C421.9,379.3,421.8,379.5,421.5,379.5z M413.1,379.5h-4.2c-0.2,0-0.4-0.2-0.4-0.4c0-0.2,0.2-0.4,0.4-0.4
					h4.2c0.2,0,0.4,0.2,0.4,0.4C413.5,379.3,413.3,379.5,413.1,379.5z M404.7,379.5h-4.2c-0.2,0-0.4-0.2-0.4-0.4
					c0-0.2,0.2-0.4,0.4-0.4h4.2c0.2,0,0.4,0.2,0.4,0.4S404.9,379.5,404.7,379.5z M396.3,379.5h-4.2c-0.2,0-0.4-0.2-0.4-0.4
					c0-0.2,0.2-0.4,0.4-0.4h4.2c0.2,0,0.4,0.2,0.4,0.4C396.7,379.3,396.5,379.5,396.3,379.5z M387.8,379.5h-4.2
					c-0.2,0-0.4-0.2-0.4-0.4c0-0.2,0.2-0.4,0.4-0.4h4.2c0.2,0,0.4,0.2,0.4,0.4C388.2,379.3,388.1,379.5,387.8,379.5z M379.4,379.5
					h-4.2c-0.2,0-0.4-0.2-0.4-0.4c0-0.2,0.2-0.4,0.4-0.4h4.2c0.2,0,0.4,0.2,0.4,0.4C379.9,379.3,379.7,379.5,379.4,379.5z
					 M371,379.5h-4.2c-0.2,0-0.4-0.2-0.4-0.4c0-0.2,0.2-0.4,0.4-0.4h4.2c0.2,0,0.4,0.2,0.4,0.4C371.4,379.3,371.2,379.5,371,379.5z
					 M362.6,379.5h-4.2c-0.2,0-0.4-0.2-0.4-0.4c0-0.2,0.2-0.4,0.4-0.4h4.2c0.2,0,0.4,0.2,0.4,0.4C363,379.3,362.8,379.5,362.6,379.5
					z M354.2,379.5h-4.2c-0.2,0-0.4-0.2-0.4-0.4c0-0.2,0.2-0.4,0.4-0.4h4.2c0.2,0,0.4,0.2,0.4,0.4
					C354.6,379.3,354.4,379.5,354.2,379.5z M345.7,379.5h-4.2c-0.2,0-0.4-0.2-0.4-0.4c0-0.2,0.2-0.4,0.4-0.4h4.2
					c0.2,0,0.4,0.2,0.4,0.4C346.2,379.3,346,379.5,345.7,379.5z"/>
				<path class="st13" d="M478.4,381.6c-0.2,0-0.4-0.2-0.4-0.4v-1.7h-1.7c-0.2,0-0.4-0.2-0.4-0.4c0-0.2,0.2-0.4,0.4-0.4h2.1
					c0.2,0,0.4,0.2,0.4,0.4v2.1C478.8,381.4,478.6,381.6,478.4,381.6z"/>
				<path class="st13" d="M478.4,516.3c-0.2,0-0.4-0.2-0.4-0.4v-4.2c0-0.2,0.2-0.4,0.4-0.4s0.4,0.2,0.4,0.4v4.2
					C478.8,516.1,478.6,516.3,478.4,516.3z M478.4,507.9c-0.2,0-0.4-0.2-0.4-0.4v-4.2c0-0.2,0.2-0.4,0.4-0.4s0.4,0.2,0.4,0.4v4.2
					C478.8,507.7,478.6,507.9,478.4,507.9z M478.4,499.5c-0.2,0-0.4-0.2-0.4-0.4v-4.2c0-0.2,0.2-0.4,0.4-0.4s0.4,0.2,0.4,0.4v4.2
					C478.8,499.3,478.6,499.5,478.4,499.5z M478.4,491.1c-0.2,0-0.4-0.2-0.4-0.4v-4.2c0-0.2,0.2-0.4,0.4-0.4s0.4,0.2,0.4,0.4v4.2
					C478.8,490.8,478.6,491.1,478.4,491.1z M478.4,482.6c-0.2,0-0.4-0.2-0.4-0.4V478c0-0.2,0.2-0.4,0.4-0.4s0.4,0.2,0.4,0.4v4.2
					C478.8,482.5,478.6,482.6,478.4,482.6z M478.4,474.2c-0.2,0-0.4-0.2-0.4-0.4v-4.2c0-0.2,0.2-0.4,0.4-0.4s0.4,0.2,0.4,0.4v4.2
					C478.8,474.1,478.6,474.2,478.4,474.2z M478.4,465.8c-0.2,0-0.4-0.2-0.4-0.4v-4.2c0-0.2,0.2-0.4,0.4-0.4s0.4,0.2,0.4,0.4v4.2
					C478.8,465.6,478.6,465.8,478.4,465.8z M478.4,457.4c-0.2,0-0.4-0.2-0.4-0.4v-4.2c0-0.2,0.2-0.4,0.4-0.4s0.4,0.2,0.4,0.4v4.2
					C478.8,457.2,478.6,457.4,478.4,457.4z M478.4,449c-0.2,0-0.4-0.2-0.4-0.4v-4.2c0-0.2,0.2-0.4,0.4-0.4s0.4,0.2,0.4,0.4v4.2
					C478.8,448.8,478.6,449,478.4,449z M478.4,440.5c-0.2,0-0.4-0.2-0.4-0.4v-4.2c0-0.2,0.2-0.4,0.4-0.4s0.4,0.2,0.4,0.4v4.2
					C478.8,440.4,478.6,440.5,478.4,440.5z M478.4,432.1c-0.2,0-0.4-0.2-0.4-0.4v-4.2c0-0.2,0.2-0.4,0.4-0.4s0.4,0.2,0.4,0.4v4.2
					C478.8,432,478.6,432.1,478.4,432.1z M478.4,423.7c-0.2,0-0.4-0.2-0.4-0.4v-4.2c0-0.2,0.2-0.4,0.4-0.4s0.4,0.2,0.4,0.4v4.2
					C478.8,423.5,478.6,423.7,478.4,423.7z M478.4,415.3c-0.2,0-0.4-0.2-0.4-0.4v-4.2c0-0.2,0.2-0.4,0.4-0.4s0.4,0.2,0.4,0.4v4.2
					C478.8,415.1,478.6,415.3,478.4,415.3z M478.4,406.9c-0.2,0-0.4-0.2-0.4-0.4v-4.2c0-0.2,0.2-0.4,0.4-0.4s0.4,0.2,0.4,0.4v4.2
					C478.8,406.7,478.6,406.9,478.4,406.9z M478.4,398.5c-0.2,0-0.4-0.2-0.4-0.4v-4.2c0-0.2,0.2-0.4,0.4-0.4s0.4,0.2,0.4,0.4v4.2
					C478.8,398.3,478.6,398.5,478.4,398.5z M478.4,390c-0.2,0-0.4-0.2-0.4-0.4v-4.2c0-0.2,0.2-0.4,0.4-0.4s0.4,0.2,0.4,0.4v4.2
					C478.8,389.9,478.6,390,478.4,390z"/>
			</g>
			<rect x="330.9" y="374.8" class="st15" width="8.6" height="8.6"/>
			<rect x="474.1" y="374.8" class="st15" width="8.6" height="8.6"/>
			<rect x="330.9" y="517.9" class="st15" width="8.6" height="8.6"/>
			<g>
				<rect x="402.5" y="374.8" class="st15" width="8.6" height="8.6"/>
				<rect x="402.5" y="517.9" class="st15" width="8.6" height="8.6"/>
			</g>
			<rect x="474.1" y="517.9" class="st15" width="8.6" height="8.6"/>
			<g>
				<rect x="330.9" y="446.4" class="st15" width="8.6" height="8.6"/>
				<rect x="474.1" y="446.4" class="st15" width="8.6" height="8.6"/>
			</g>
		</g>
		<g>
			<path class="st14" d="M649.8,522.6h-2.1c-0.2,0-0.4-0.2-0.4-0.4s0.2-0.4,0.4-0.4h1.7v-1.7c0-0.2,0.2-0.4,0.4-0.4s0.4,0.2,0.4,0.4
				v2.1C650.2,522.5,650,522.6,649.8,522.6z"/>
			<path class="st14" d="M643.5,522.6h-4.2c-0.2,0-0.4-0.2-0.4-0.4s0.2-0.4,0.4-0.4h4.2c0.2,0,0.4,0.2,0.4,0.4
				S643.7,522.6,643.5,522.6z M635.1,522.6h-4.2c-0.2,0-0.4-0.2-0.4-0.4s0.2-0.4,0.4-0.4h4.2c0.2,0,0.4,0.2,0.4,0.4
				S635.3,522.6,635.1,522.6z M626.7,522.6h-4.2c-0.2,0-0.4-0.2-0.4-0.4s0.2-0.4,0.4-0.4h4.2c0.2,0,0.4,0.2,0.4,0.4
				S626.9,522.6,626.7,522.6z M618.2,522.6H614c-0.2,0-0.4-0.2-0.4-0.4s0.2-0.4,0.4-0.4h4.2c0.2,0,0.4,0.2,0.4,0.4
				S618.5,522.6,618.2,522.6z M609.8,522.6h-4.2c-0.2,0-0.4-0.2-0.4-0.4s0.2-0.4,0.4-0.4h4.2c0.2,0,0.4,0.2,0.4,0.4
				S610,522.6,609.8,522.6z M601.4,522.6h-4.2c-0.2,0-0.4-0.2-0.4-0.4s0.2-0.4,0.4-0.4h4.2c0.2,0,0.4,0.2,0.4,0.4
				S601.6,522.6,601.4,522.6z M593,522.6h-4.2c-0.2,0-0.4-0.2-0.4-0.4s0.2-0.4,0.4-0.4h4.2c0.2,0,0.4,0.2,0.4,0.4
				S593.2,522.6,593,522.6z M584.6,522.6h-4.2c-0.2,0-0.4-0.2-0.4-0.4s0.2-0.4,0.4-0.4h4.2c0.2,0,0.4,0.2,0.4,0.4
				S584.8,522.6,584.6,522.6z M576.2,522.6h-4.2c-0.2,0-0.4-0.2-0.4-0.4s0.2-0.4,0.4-0.4h4.2c0.2,0,0.4,0.2,0.4,0.4
				S576.4,522.6,576.2,522.6z M567.7,522.6h-4.2c-0.2,0-0.4-0.2-0.4-0.4s0.2-0.4,0.4-0.4h4.2c0.2,0,0.4,0.2,0.4,0.4
				S567.9,522.6,567.7,522.6z M559.3,522.6h-4.2c-0.2,0-0.4-0.2-0.4-0.4s0.2-0.4,0.4-0.4h4.2c0.2,0,0.4,0.2,0.4,0.4
				S559.6,522.6,559.3,522.6z M550.9,522.6h-4.2c-0.2,0-0.4-0.2-0.4-0.4s0.2-0.4,0.4-0.4h4.2c0.2,0,0.4,0.2,0.4,0.4
				S551.1,522.6,550.9,522.6z M542.5,522.6h-4.2c-0.2,0-0.4-0.2-0.4-0.4s0.2-0.4,0.4-0.4h4.2c0.2,0,0.4,0.2,0.4,0.4
				S542.7,522.6,542.5,522.6z M534.1,522.6h-4.2c-0.2,0-0.4-0.2-0.4-0.4s0.2-0.4,0.4-0.4h4.2c0.2,0,0.4,0.2,0.4,0.4
				S534.3,522.6,534.1,522.6z M525.6,522.6h-4.2c-0.2,0-0.4-0.2-0.4-0.4s0.2-0.4,0.4-0.4h4.2c0.2,0,0.4,0.2,0.4,0.4
				S525.9,522.6,525.6,522.6z M517.2,522.6H513c-0.2,0-0.4-0.2-0.4-0.4s0.2-0.4,0.4-0.4h4.2c0.2,0,0.4,0.2,0.4,0.4
				S517.4,522.6,517.2,522.6z"/>
			<path class="st14" d="M508.8,522.6h-2.1c-0.2,0-0.4-0.2-0.4-0.4v-2.1c0-0.2,0.2-0.4,0.4-0.4c0.2,0,0.4,0.2,0.4,0.4v1.7h1.7
				c0.2,0,0.4,0.2,0.4,0.4S509,522.6,508.8,522.6z"/>
			<path class="st14" d="M506.7,516.3c-0.2,0-0.4-0.2-0.4-0.4v-4.2c0-0.2,0.2-0.4,0.4-0.4c0.2,0,0.4,0.2,0.4,0.4v4.2
				C507.1,516.1,506.9,516.3,506.7,516.3z M506.7,507.9c-0.2,0-0.4-0.2-0.4-0.4v-4.2c0-0.2,0.2-0.4,0.4-0.4c0.2,0,0.4,0.2,0.4,0.4
				v4.2C507.1,507.7,506.9,507.9,506.7,507.9z M506.7,499.5c-0.2,0-0.4-0.2-0.4-0.4v-4.2c0-0.2,0.2-0.4,0.4-0.4
				c0.2,0,0.4,0.2,0.4,0.4v4.2C507.1,499.3,506.9,499.5,506.7,499.5z M506.7,491.1c-0.2,0-0.4-0.2-0.4-0.4v-4.2
				c0-0.2,0.2-0.4,0.4-0.4c0.2,0,0.4,0.2,0.4,0.4v4.2C507.1,490.8,506.9,491.1,506.7,491.1z M506.7,482.6c-0.2,0-0.4-0.2-0.4-0.4
				V478c0-0.2,0.2-0.4,0.4-0.4c0.2,0,0.4,0.2,0.4,0.4v4.2C507.1,482.5,506.9,482.6,506.7,482.6z M506.7,474.2
				c-0.2,0-0.4-0.2-0.4-0.4v-4.2c0-0.2,0.2-0.4,0.4-0.4c0.2,0,0.4,0.2,0.4,0.4v4.2C507.1,474.1,506.9,474.2,506.7,474.2z
				 M506.7,465.8c-0.2,0-0.4-0.2-0.4-0.4v-4.2c0-0.2,0.2-0.4,0.4-0.4c0.2,0,0.4,0.2,0.4,0.4v4.2
				C507.1,465.6,506.9,465.8,506.7,465.8z M506.7,457.4c-0.2,0-0.4-0.2-0.4-0.4v-4.2c0-0.2,0.2-0.4,0.4-0.4c0.2,0,0.4,0.2,0.4,0.4
				v4.2C507.1,457.2,506.9,457.4,506.7,457.4z M506.7,449c-0.2,0-0.4-0.2-0.4-0.4v-4.2c0-0.2,0.2-0.4,0.4-0.4c0.2,0,0.4,0.2,0.4,0.4
				v4.2C507.1,448.8,506.9,449,506.7,449z M506.7,440.5c-0.2,0-0.4-0.2-0.4-0.4v-4.2c0-0.2,0.2-0.4,0.4-0.4c0.2,0,0.4,0.2,0.4,0.4
				v4.2C507.1,440.4,506.9,440.5,506.7,440.5z M506.7,432.1c-0.2,0-0.4-0.2-0.4-0.4v-4.2c0-0.2,0.2-0.4,0.4-0.4
				c0.2,0,0.4,0.2,0.4,0.4v4.2C507.1,432,506.9,432.1,506.7,432.1z M506.7,423.7c-0.2,0-0.4-0.2-0.4-0.4v-4.2c0-0.2,0.2-0.4,0.4-0.4
				c0.2,0,0.4,0.2,0.4,0.4v4.2C507.1,423.5,506.9,423.7,506.7,423.7z M506.7,415.3c-0.2,0-0.4-0.2-0.4-0.4v-4.2
				c0-0.2,0.2-0.4,0.4-0.4c0.2,0,0.4,0.2,0.4,0.4v4.2C507.1,415.1,506.9,415.3,506.7,415.3z M506.7,406.9c-0.2,0-0.4-0.2-0.4-0.4
				v-4.2c0-0.2,0.2-0.4,0.4-0.4c0.2,0,0.4,0.2,0.4,0.4v4.2C507.1,406.7,506.9,406.9,506.7,406.9z M506.7,398.5
				c-0.2,0-0.4-0.2-0.4-0.4v-4.2c0-0.2,0.2-0.4,0.4-0.4c0.2,0,0.4,0.2,0.4,0.4v4.2C507.1,398.3,506.9,398.5,506.7,398.5z M506.7,390
				c-0.2,0-0.4-0.2-0.4-0.4v-4.2c0-0.2,0.2-0.4,0.4-0.4c0.2,0,0.4,0.2,0.4,0.4v4.2C507.1,389.9,506.9,390,506.7,390z"/>
			<path class="st14" d="M506.7,381.6c-0.2,0-0.4-0.2-0.4-0.4v-2.1c0-0.2,0.2-0.4,0.4-0.4h2.1c0.2,0,0.4,0.2,0.4,0.4
				c0,0.2-0.2,0.4-0.4,0.4h-1.7v1.7C507.1,381.4,506.9,381.6,506.7,381.6z"/>
			<path class="st14" d="M643.5,379.5h-4.2c-0.2,0-0.4-0.2-0.4-0.4c0-0.2,0.2-0.4,0.4-0.4h4.2c0.2,0,0.4,0.2,0.4,0.4
				S643.7,379.5,643.5,379.5z M635.1,379.5h-4.2c-0.2,0-0.4-0.2-0.4-0.4c0-0.2,0.2-0.4,0.4-0.4h4.2c0.2,0,0.4,0.2,0.4,0.4
				S635.3,379.5,635.1,379.5z M626.7,379.5h-4.2c-0.2,0-0.4-0.2-0.4-0.4c0-0.2,0.2-0.4,0.4-0.4h4.2c0.2,0,0.4,0.2,0.4,0.4
				S626.9,379.5,626.7,379.5z M618.2,379.5H614c-0.2,0-0.4-0.2-0.4-0.4c0-0.2,0.2-0.4,0.4-0.4h4.2c0.2,0,0.4,0.2,0.4,0.4
				C618.7,379.3,618.5,379.5,618.2,379.5z M609.8,379.5h-4.2c-0.2,0-0.4-0.2-0.4-0.4c0-0.2,0.2-0.4,0.4-0.4h4.2
				c0.2,0,0.4,0.2,0.4,0.4S610,379.5,609.8,379.5z M601.4,379.5h-4.2c-0.2,0-0.4-0.2-0.4-0.4c0-0.2,0.2-0.4,0.4-0.4h4.2
				c0.2,0,0.4,0.2,0.4,0.4S601.6,379.5,601.4,379.5z M593,379.5h-4.2c-0.2,0-0.4-0.2-0.4-0.4c0-0.2,0.2-0.4,0.4-0.4h4.2
				c0.2,0,0.4,0.2,0.4,0.4S593.2,379.5,593,379.5z M584.6,379.5h-4.2c-0.2,0-0.4-0.2-0.4-0.4c0-0.2,0.2-0.4,0.4-0.4h4.2
				c0.2,0,0.4,0.2,0.4,0.4C585,379.3,584.8,379.5,584.6,379.5z M576.2,379.5h-4.2c-0.2,0-0.4-0.2-0.4-0.4c0-0.2,0.2-0.4,0.4-0.4h4.2
				c0.2,0,0.4,0.2,0.4,0.4S576.4,379.5,576.2,379.5z M567.7,379.5h-4.2c-0.2,0-0.4-0.2-0.4-0.4c0-0.2,0.2-0.4,0.4-0.4h4.2
				c0.2,0,0.4,0.2,0.4,0.4S567.9,379.5,567.7,379.5z M559.3,379.5h-4.2c-0.2,0-0.4-0.2-0.4-0.4c0-0.2,0.2-0.4,0.4-0.4h4.2
				c0.2,0,0.4,0.2,0.4,0.4S559.6,379.5,559.3,379.5z M550.9,379.5h-4.2c-0.2,0-0.4-0.2-0.4-0.4c0-0.2,0.2-0.4,0.4-0.4h4.2
				c0.2,0,0.4,0.2,0.4,0.4C551.3,379.3,551.1,379.5,550.9,379.5z M542.5,379.5h-4.2c-0.2,0-0.4-0.2-0.4-0.4c0-0.2,0.2-0.4,0.4-0.4
				h4.2c0.2,0,0.4,0.2,0.4,0.4C542.9,379.3,542.7,379.5,542.5,379.5z M534.1,379.5h-4.2c-0.2,0-0.4-0.2-0.4-0.4
				c0-0.2,0.2-0.4,0.4-0.4h4.2c0.2,0,0.4,0.2,0.4,0.4C534.5,379.3,534.3,379.5,534.1,379.5z M525.6,379.5h-4.2
				c-0.2,0-0.4-0.2-0.4-0.4c0-0.2,0.2-0.4,0.4-0.4h4.2c0.2,0,0.4,0.2,0.4,0.4S525.9,379.5,525.6,379.5z M517.2,379.5H513
				c-0.2,0-0.4-0.2-0.4-0.4c0-0.2,0.2-0.4,0.4-0.4h4.2c0.2,0,0.4,0.2,0.4,0.4C517.6,379.3,517.4,379.5,517.2,379.5z"/>
			<path class="st14" d="M649.8,381.6c-0.2,0-0.4-0.2-0.4-0.4v-1.7h-1.7c-0.2,0-0.4-0.2-0.4-0.4c0-0.2,0.2-0.4,0.4-0.4h2.1
				c0.2,0,0.4,0.2,0.4,0.4v2.1C650.2,381.4,650,381.6,649.8,381.6z"/>
			<path class="st14" d="M649.8,516.3c-0.2,0-0.4-0.2-0.4-0.4v-4.2c0-0.2,0.2-0.4,0.4-0.4s0.4,0.2,0.4,0.4v4.2
				C650.2,516.1,650,516.3,649.8,516.3z M649.8,507.9c-0.2,0-0.4-0.2-0.4-0.4v-4.2c0-0.2,0.2-0.4,0.4-0.4s0.4,0.2,0.4,0.4v4.2
				C650.2,507.7,650,507.9,649.8,507.9z M649.8,499.5c-0.2,0-0.4-0.2-0.4-0.4v-4.2c0-0.2,0.2-0.4,0.4-0.4s0.4,0.2,0.4,0.4v4.2
				C650.2,499.3,650,499.5,649.8,499.5z M649.8,491.1c-0.2,0-0.4-0.2-0.4-0.4v-4.2c0-0.2,0.2-0.4,0.4-0.4s0.4,0.2,0.4,0.4v4.2
				C650.2,490.8,650,491.1,649.8,491.1z M649.8,482.6c-0.2,0-0.4-0.2-0.4-0.4V478c0-0.2,0.2-0.4,0.4-0.4s0.4,0.2,0.4,0.4v4.2
				C650.2,482.5,650,482.6,649.8,482.6z M649.8,474.2c-0.2,0-0.4-0.2-0.4-0.4v-4.2c0-0.2,0.2-0.4,0.4-0.4s0.4,0.2,0.4,0.4v4.2
				C650.2,474.1,650,474.2,649.8,474.2z M649.8,465.8c-0.2,0-0.4-0.2-0.4-0.4v-4.2c0-0.2,0.2-0.4,0.4-0.4s0.4,0.2,0.4,0.4v4.2
				C650.2,465.6,650,465.8,649.8,465.8z M649.8,457.4c-0.2,0-0.4-0.2-0.4-0.4v-4.2c0-0.2,0.2-0.4,0.4-0.4s0.4,0.2,0.4,0.4v4.2
				C650.2,457.2,650,457.4,649.8,457.4z M649.8,449c-0.2,0-0.4-0.2-0.4-0.4v-4.2c0-0.2,0.2-0.4,0.4-0.4s0.4,0.2,0.4,0.4v4.2
				C650.2,448.8,650,449,649.8,449z M649.8,440.5c-0.2,0-0.4-0.2-0.4-0.4v-4.2c0-0.2,0.2-0.4,0.4-0.4s0.4,0.2,0.4,0.4v4.2
				C650.2,440.4,650,440.5,649.8,440.5z M649.8,432.1c-0.2,0-0.4-0.2-0.4-0.4v-4.2c0-0.2,0.2-0.4,0.4-0.4s0.4,0.2,0.4,0.4v4.2
				C650.2,432,650,432.1,649.8,432.1z M649.8,423.7c-0.2,0-0.4-0.2-0.4-0.4v-4.2c0-0.2,0.2-0.4,0.4-0.4s0.4,0.2,0.4,0.4v4.2
				C650.2,423.5,650,423.7,649.8,423.7z M649.8,415.3c-0.2,0-0.4-0.2-0.4-0.4v-4.2c0-0.2,0.2-0.4,0.4-0.4s0.4,0.2,0.4,0.4v4.2
				C650.2,415.1,650,415.3,649.8,415.3z M649.8,406.9c-0.2,0-0.4-0.2-0.4-0.4v-4.2c0-0.2,0.2-0.4,0.4-0.4s0.4,0.2,0.4,0.4v4.2
				C650.2,406.7,650,406.9,649.8,406.9z M649.8,398.5c-0.2,0-0.4-0.2-0.4-0.4v-4.2c0-0.2,0.2-0.4,0.4-0.4s0.4,0.2,0.4,0.4v4.2
				C650.2,398.3,650,398.5,649.8,398.5z M649.8,390c-0.2,0-0.4-0.2-0.4-0.4v-4.2c0-0.2,0.2-0.4,0.4-0.4s0.4,0.2,0.4,0.4v4.2
				C650.2,389.9,650,390,649.8,390z"/>
		</g>
		<rect x="502.4" y="374.8" class="st16" width="8.6" height="8.6"/>
		<rect x="645.6" y="374.8" class="st16" width="8.6" height="8.6"/>
		<rect x="502.4" y="517.9" class="st16" width="8.6" height="8.6"/>
		<g>
			<rect x="574" y="374.8" class="st16" width="8.6" height="8.6"/>
			<rect x="574" y="517.9" class="st16" width="8.6" height="8.6"/>
		</g>
		<rect x="645.6" y="517.9" class="st16" width="8.6" height="8.6"/>
		<g>
			<rect x="502.4" y="446.4" class="st16" width="8.6" height="8.6"/>
			<rect x="645.6" y="446.4" class="st16" width="8.6" height="8.6"/>
		</g>
		<path class="st11" d="M468.6,466.8c-4.2-2.5-8.6-4.8-13-6.9c-5.3-2.5-11.1-4.9-17.1-4.1c-5.8,0.7-9.9,4.6-14.7,7.6
			c-13.3,8.2-26.6-2.5-36.1-11.3c-12.8-11.7-27.1-21.3-42.5-28.4v88.8h123.5L468.6,466.8L468.6,466.8z"/>
		
			<ellipse transform="matrix(0.1602 -0.9871 0.9871 0.1602 -87.6412 778.8124)" class="st8" cx="413.9" cy="440.9" rx="11.4" ry="11.4"/>
		<circle class="st11" cx="537.8" cy="416.6" r="11.4"/>
		<path class="st17" d="M640,411c-5.7,1.2-11,3.7-15.5,7.2c-12.1,9.5-16,24.9-22.2,38.3c-3.4,7.4-7.7,14.8-14.3,19.8
			c-8.1,6.2-18.1,6.3-27.5,3.3c-15.2-4.8-28.2-16.2-44-18.5v51.4H640L640,411L640,411z"/>
	</g>
	<path class="st6" d="M606.8,331.9H363.4c-6.7,0-12.1,5.4-12.1,12.1l0,0c0,6.7,5.4,12.1,12.1,12.1h243.4c6.7,0,12.1-5.4,12.1-12.1
		l0,0C618.9,337.3,613.5,331.9,606.8,331.9z"/>
	<path class="st6" d="M606.8,331.9H363.4c-6.7,0-12.1,5.4-12.1,12.1l0,0c0,6.7,5.4,12.1,12.1,12.1h243.4c6.7,0,12.1-5.4,12.1-12.1
		l0,0C618.9,337.3,613.5,331.9,606.8,331.9z"/>
	<g>
		<circle class="st6" cx="599.3" cy="291" r="16.8"/>
		<circle class="st6" cx="645.8" cy="291" r="16.8"/>
		<circle class="st6" cx="552.8" cy="291" r="16.8"/>
		
			<linearGradient id="SVGID_1_" gradientUnits="userSpaceOnUse" x1="539.4057" y1="-1096.9742" x2="566.0667" y2="-1096.9742" gradientTransform="matrix(1 0 0 1 0 1388)">
			<stop  offset="0" style="stop-color:#ED4A97"/>
			<stop  offset="0.3285" style="stop-color:#B32279"/>
			<stop  offset="0.6381" style="stop-color:#742A7E"/>
			<stop  offset="1" style="stop-color:#7D64AA"/>
		</linearGradient>
		<circle class="st18" cx="552.8" cy="291" r="13.3"/>
		
			<linearGradient id="SVGID_2_" gradientUnits="userSpaceOnUse" x1="585.9729" y1="-1096.9742" x2="612.6339" y2="-1096.9742" gradientTransform="matrix(1 0 0 1 0 1388)">
			<stop  offset="0" style="stop-color:#101A41"/>
			<stop  offset="0.5314" style="stop-color:#742A7E"/>
			<stop  offset="1" style="stop-color:#7D64AA"/>
		</linearGradient>
		<circle class="st19" cx="599.3" cy="291" r="13.3"/>
		
			<linearGradient id="SVGID_3_" gradientUnits="userSpaceOnUse" x1="632.4989" y1="-1096.9742" x2="659.16" y2="-1096.9742" gradientTransform="matrix(1 0 0 1 0 1388)">
			<stop  offset="0" style="stop-color:#EFC9E0"/>
			<stop  offset="0.4414" style="stop-color:#E775AC"/>
			<stop  offset="1" style="stop-color:#B32279"/>
		</linearGradient>
		<circle class="st20" cx="645.8" cy="291" r="13.3"/>
	</g>
	<path class="st21" d="M289.4,243L289.4,243c-6.8,0-12.4,5.5-12.4,12.4l0,0c0,6.8,5.5,12.4,12.4,12.4l0,0c6.8,0,12.4-5.5,12.4-12.4
		l0,0C301.7,248.5,296.2,243,289.4,243z"/>
	
		<linearGradient id="SVGID_4_" gradientUnits="userSpaceOnUse" x1="454.8055" y1="-1098.9851" x2="515.2887" y2="-988.9467" gradientTransform="matrix(1 0 0 1 0 1388)">
		<stop  offset="0" style="stop-color:#ED4A97"/>
		<stop  offset="0.3285" style="stop-color:#B32279"/>
		<stop  offset="0.6381" style="stop-color:#742A7E"/>
		<stop  offset="1" style="stop-color:#7D64AA"/>
	</linearGradient>
	<path class="st22" d="M605,339H365.1c-2.8,0-5,2.3-5,5c0,2.8,2.3,5,5,5H605c2.8,0,5-2.3,5-5C610,341.3,607.8,339,605,339z"/>
	<path class="st23" d="M212,399.2c0,0-8.5,2.8-8.8,21.7s1.4,42.9-1.7,55.5c-3,12.5-9.3,45.3-15.1,59c-5.6,13.4-6.8,19.1-4.7,25.3
		c2,6.1,20.6-0.7,20.6-0.7l19.3-72.4c0,0,10.5-48.8,9.5-51.5C230,433.3,212,399.2,212,399.2z"/>
	
		<linearGradient id="SVGID_5_" gradientUnits="userSpaceOnUse" x1="-3996.8071" y1="-919.067" x2="-4025.0491" y2="-937.2859" gradientTransform="matrix(-1 0 0 1 -3812 1388)">
		<stop  offset="0" style="stop-color:#A28BC1"/>
		<stop  offset="1" style="stop-color:#7D64AA"/>
	</linearGradient>
	<path class="st24" d="M218.3,499.7c-0.4-0.4-0.8-0.7-1.2-1c-5.6-3.5-12.8-6.1-18.8-7.9c1.3-5.8,2.4-10.9,3.3-14.4
		c3-12.5,1.4-36.6,1.7-55.5s8.8-21.7,8.8-21.7s18,34.1,19,36.9c1,2.7-9.5,51.5-9.5,51.5L218.3,499.7z"/>
	<path class="st23" d="M238.7,387.9c0,0,6.1,6.1,18.1-0.9c12-7,21.7-27.1,23.3-31.4c1.6-4.3,13.8-53.4,12.4-69.6
		c-1.4-16.3-5.9-37.5-3.9-36.6s3.6,13.3,5.4,14c1.8,0.7,12.2-0.7,12.9,4.5c0.7,5.2-4.1,14.7-4.1,21.2c0,6.6-1.6,66.2-2.5,71
		c-3.2,17.6-25.3,60.8-25.3,60.8l-26.9-7.7L238.7,387.9z"/>
	<path class="st23" d="M229.5,333.9c7.4-0.5,14.2,4.2,16.6,11.2c2.2,6,4.8,14.5,5,20.4c0.3,9.9-0.9,17.7-8.3,16.8
		c-7.5-0.8-16,2.1-24.8-7.6c-8.9-9.7-16.3-26.6-7.7-33C215.5,337.9,222.4,334.3,229.5,333.9z"/>
	<path class="st23" d="M238.5,382.3c0,0,1.8,8.8,5.9,9.7c4.1,0.9,29.4,24.6,30.7,28.9c1.4,4.3-1.1,19.7-3.9,24.2s-7,21.9-5.4,27.8
		c1.6,5.9,10.4,24.9,12.4,51.3c2,26.4-5.9,72.8-8.6,93.6c-2.7,20.8-20.8,79.1-15.4,89c5.4,9.9,14.7,19.9,24.3,21.7
		c9.6,1.8,16.4,17.6-17.1,8.1c-33.4-9.5-41.1-14-33-23.9s13.1-23.9,11.7-51.5c-1.4-27.6,3.6-58.3,5.9-66.4s-12.2-72.8-12.2-72.8
		s-11.3,68.7-21.2,80.9s-77.3,62.8-83.6,71.4c-6.3,8.6-3.6,25.3-1.8,32.6c1.8,7.2,8.1,18.5,1.4,17.6c-6.8-0.9-14-3.6-19-23.5
		c-5-19.9-17.7-35.2,1.8-39.8c23.9-5.6,28.9-25.8,40.2-39.3c11.3-13.6,33.9-27.1,37.1-36.2c3.2-9.1,1.4-58.7,14-82.7
		c12.7-23.9,14.7-33.2,14.7-42.9s-7-59.9-5.4-60.8c1.6-0.9,14.4-16.7,14.4-21.9C226.5,372.1,238.5,382.3,238.5,382.3z"/>
	
		<linearGradient id="SVGID_6_" gradientUnits="userSpaceOnUse" x1="-4090.8735" y1="-960.758" x2="-4029.23" y2="-999.6293" gradientTransform="matrix(-1 0 0 1 -3812 1388)">
		<stop  offset="0" style="stop-color:#A28BC1"/>
		<stop  offset="1" style="stop-color:#7D64AA"/>
	</linearGradient>
	<path class="st25" d="M217.4,460c0-7.2-3.9-36.9-5.2-52l10.2-8.8l16.2-14.3l0.6,0.5c0.4,1.3,1.1,2.9,1.9,4.1
		c2.9,1.2,8,1.9,15.5-2.5c12-7,21.7-27.1,23.3-31.4c0.6-1.5,2.4-8.4,4.5-17.5c4.7,2.2,10.7,4.3,16.8,4.4c-0.4,9.1-0.7,16.1-1,17.6
		c-3.2,17.6-25.3,60.8-25.3,60.8c1.4,4.3-1.1,19.7-3.9,24.2s-7,21.9-5.4,27.8c0.6,2.1,2,5.8,3.8,10.9l-27.4,6.9l-30.3-6.6
		C216.5,473,217.4,466.6,217.4,460z"/>
	
		<linearGradient id="SVGID_7_" gradientUnits="userSpaceOnUse" x1="-4035.1135" y1="-942.604" x2="-4035.2053" y2="-1031.0457" gradientTransform="matrix(-1 0 0 1 -3812 1388)">
		<stop  offset="0" style="stop-color:#454492"/>
		<stop  offset="1" style="stop-color:#2F3276"/>
	</linearGradient>
	<path class="st26" d="M198.6,419.9c1.7,3.7-0.3,7.8-0.6,11.6c-0.2,2.8,0.3,5.5,2,7.8c3.1,4.2,8.8,5.9,13.8,6c4.1,0,8.1-1,12.1-1.4
		c4.5-0.6,8.4,0.1,12.8,1c6.2,1.3,12.1,0.4,15.3-5.7c1.8-3.4,2-7,1.5-10.5c0-2.2-0.7-4.4-1.5-6.3c-0.1-0.1-0.1-0.3-0.2-0.4
		c-0.3-0.9-0.6-1.8-1-2.7c-0.1-0.4-0.4-0.7-0.7-0.8c-1.5-3.5-2.5-6.7-1.1-11c1.4-4.1,3.7-8.1,3.7-12.6c0.1-8-7-12.9-10.4-19.4
		c-4.8-9.1,4.7-17.6,3.4-27c-1.1-8.4-8-14.3-16.1-15.3c-0.1,0-0.3-0.1-0.4-0.1c-7-0.9-14,0.7-19.5,5.4c-5.6,4.9-8.4,12.1-9.9,19.2
		c-1.6,7.8-1.7,15.8-3.5,23.5c-1.8,7.4-6.9,13.9-7.7,21.6c-0.4,3.5,0.4,6.9,2.3,9.8C194.7,415,197.3,417.1,198.6,419.9z"/>
	<path class="st27" d="M232.7,706.7c8.6,3.7,20.5,18.4,29.8,20.8c4,1,6.5-0.3,8.1-2.2c2.6,1.6,5.2,2.8,7.9,3.3
		c9.6,1.8,16.4,17.6-17.1,8.1c-33.4-9.5-41.1-14-33-23.9C230.1,710.8,231.4,708.9,232.7,706.7z"/>
	<path class="st27" d="M109.6,700.9c-5-19.9-17.7-35.2,1.8-39.8c0.1,0,0.3-0.1,0.4-0.1c1.1,3.7,2,8.1,2.5,13
		c1.4,13.3,2.7,21.3,4.1,27.5c0.8,3.4,5,4.2,8.5,4.2c0.1,0.4,0.2,0.8,0.3,1.1c1.8,7.2,8.1,18.5,1.4,17.6
		C121.8,723.5,114.6,720.8,109.6,700.9z"/>
	
		<linearGradient id="SVGID_8_" gradientUnits="userSpaceOnUse" x1="-4034.4297" y1="-777.7216" x2="-4034.5688" y2="-911.9612" gradientTransform="matrix(-1 0 0 1 -3812 1388)">
		<stop  offset="0" style="stop-color:#742A7E"/>
		<stop  offset="1" style="stop-color:#3F2768"/>
	</linearGradient>
	<path class="st28" d="M192.4,548.1c1.5-16.1,4.3-33.6,10.4-45.2c5.7-10.8,9.2-18.6,11.4-24.8c26.3,10.2,46.4,3.6,53.6,0.4
		c3.2,8.9,8.9,25,10.5,45.6c0.4,5.3,0.4,11.5,0.1,18l0.1-0.1c0,0-1.7,79.7,8,88.5c0,0-8.3,5-20.5,6c-8.4,1.1-16.3,1.4-23.8,1.1
		c-0.6,0-1.1,0-1.7-0.1c-24.8-1.8-52.1-13.1-52.1-13.1c-10.7-5.1-18.9-10.7-24.2-14.9c-3.3-2.5-5.6-9.6-5.6-9.6
		C184.1,593.8,190.8,560.4,192.4,548.1z"/>
	<g>
		<path class="st29" d="M251.1,483c0.7-0.1,1.4-0.2,2-0.3c6,44-1.7,88.4-2.3,132.6c-0.1,7.5,0,15,0.4,22.4c-0.7,0-1.4,0-2,0
			c-2.1-40.4,4.5-80.9,4.2-121.4C253.3,505.3,252.6,494.1,251.1,483z"/>
		<path class="st29" d="M180.4,620.5c9.8-12.2,14.5-28,17.7-43.3c4.5-21.6,9.1-43,15.4-64.2c3.2-10.7,6.5-21.3,9.9-31.9
			c0.7,0.2,1.3,0.3,2,0.5c-6.4,20.3-12.8,40.6-17.9,61.3c-5.1,20.9-7.1,43.2-15.9,63c-2.5,5.6-5.6,10.9-9.4,15.6
			C181.6,621.2,181,620.9,180.4,620.5z"/>
		<path class="st29" d="M233,587.3c2.5-11.4,5.1-22.7,6.6-34.3c1.6-12,2.1-24.1,1.9-36.2c-0.1-11.1-0.8-22.2-1.5-33.3
			c0.7,0,1.4,0,2.1,0c1.4,21.4,2.6,42.9,0.3,64.3c-2.5,23.2-9.6,45.6-12.5,68.7c-0.8,6.5-1.4,13-1.7,19.5c-0.7-0.1-1.3-0.2-1.9-0.4
			C227,619.5,229.5,603.4,233,587.3z"/>
		<path class="st29" d="M259.6,481.4c0.7-0.2,1.3-0.4,1.9-0.6c16.4,43.1,3,90.1,8.6,134.8c0.8,6.7,2.1,13.3,3.9,19.7
			c-0.7,0.1-1.3,0.3-2,0.4c-10.8-38.4-1.2-80.3-4.8-119.8C266.1,504.2,263.8,492.5,259.6,481.4z"/>
		<path class="st29" d="M208.6,583.6c5.4-22.5,13.6-44.3,17.8-67.1c2.1-11.3,3-22.8,2.2-34.2c0.7,0.1,1.4,0.3,2.1,0.4
			c1.4,20.8-3.2,41.5-8.9,61.5c-6.4,22.4-13.2,44.4-16.5,67.5c-0.9,6.1-1.6,12.1-2.1,18.3c-0.7-0.2-1.3-0.4-2-0.6
			C202.5,613.9,205,598.6,208.6,583.6z"/>
	</g>
</g>
</svg>
