<?xml version="1.0" encoding="utf-8"?>
<!-- Generator: Adobe Illustrator 23.0.3, SVG Export Plug-In . SVG Version: 6.00 Build 0)  -->
<svg version="1.1" id="Layer_1" xmlns="http://www.w3.org/2000/svg" xmlns:xlink="http://www.w3.org/1999/xlink" x="0px" y="0px"
	 viewBox="0 0 800 800" style="enable-background:new 0 0 800 800;" xml:space="preserve">
<style type="text/css">
	.st0{fill:#E0E8F5;}
	.st1{fill:#CFDAF0;}
	.st2{fill:#FFFFFF;}
	.st3{fill:#F2C2DB;}
	.st4{fill:#D1ECEF;}
	.st5{fill:#F3F2F9;}
	.st6{fill:#E476AD;}
	.st7{fill:#8F55A2;}
	.st8{fill:#8A519F;}
	.st9{fill:#9057A3;}
	.st10{fill:#87509F;}
	.st11{fill:#E3E1F0;}
	.st12{fill:#E8E8F4;}
	.st13{fill:url(#SVGID_1_);}
	.st14{fill:#C8C6E2;}
	.st15{fill:#6D63AC;}
	.st16{fill:#454492;}
	.st17{fill:#7BCDD5;}
	.st18{fill:#F48FB3;}
	.st19{fill:#CCCAE4;}
	.st20{fill:url(#SVGID_2_);}
	.st21{fill:#E485B5;}
	.st22{fill:#D265A5;}
	.st23{fill:url(#SVGID_3_);}
	.st24{fill:url(#SVGID_4_);}
	.st25{fill:#2F3276;}
	.st26{fill:#F4D87E;}
	.st27{fill:url(#SVGID_5_);}
	.st28{fill:url(#SVGID_6_);}
	.st29{fill:url(#SVGID_7_);}
	.st30{fill:#E386B7;}
	.st31{fill:url(#SVGID_8_);}
	.st32{fill:url(#SVGID_9_);}
	.st33{fill:#94D5DC;}
	.st34{fill:url(#SVGID_10_);}
	.st35{fill:url(#SVGID_11_);}
	.st36{fill:url(#SVGID_12_);}
	.st37{fill:url(#SVGID_13_);}
	.st38{fill:url(#SVGID_14_);}
	.st39{fill:url(#SVGID_15_);}
</style>
<g>
	<g>
		<path class="st0" d="M461.3,646.2c-8.1,0.1-16.2,0.7-24.4,2c-17.8,2.7-37.8,7.2-57.3,8.1c7.1,2.2,14.4,3.2,21.9,3.2
			C421.4,659.4,442.1,652.7,461.3,646.2 M34.2,598.4c2.4,11,6.9,21.4,13.6,30.5c10,13.7,24,24.2,39.3,31.4
			c20.9,9.9,42.8,13.5,65.2,13.5c17.3,0,34.7-2.2,51.9-5.2c41-7.4,82-18.7,123.9-18.7c2.4,0,4.7,0,7.1,0.1c1.5,0,2.9,0.1,4.4,0.2
			c-2.2-0.9-4.3-2-6.4-3.2c-13-4.7-26.3-8.8-39.9-11.3c-18.1-3.4-36.4-4.4-54.7-4.4c-25.9,0-51.8,2.1-77.6,2.7
			c-3.4,0.1-6.9,0.1-10.3,0.1c-36.6,0-73.1-5.2-104.1-26.2C42.2,605,38.1,601.8,34.2,598.4 M741.3,331.6c-0.1,0.6-0.3,1.2-0.4,1.8
			c-4.9,21.8,0.4,44.1,6.6,65c6.4,21.6,12.8,43.2,16.5,65.5c7,42.2,6.1,87.4-11.3,127.1c-1.4,3.2-2.9,6.3-4.4,9.4
			c16.3-18.5,27.9-41.2,34.1-64.9c11.1-41.9,5.1-86.7-8.3-127.4c-7.1-21.5-16.7-41.7-26.3-62.2C745.5,341.3,743.3,336.5,741.3,331.6
			 M70.5,107c-22.5,18.5-36.2,45.8-41.7,74.9C16.3,249.4,46.8,313,59.6,378.3C74,295,33.3,208.4,62.2,126.2
			C64.5,119.6,67.3,113.2,70.5,107 M662.2,67.5c-21.2,0-42.7,4.2-62.6,8.9c-44.5,10.7-87.8,26.1-132.2,37.2
			c-18.5,4.6-37.3,8.4-56.3,10.7c16.7,2.7,33.7,3.8,50.6,3.8c14.8,0,29.6-0.8,44.3-2.2c45.6-4.1,90.7-12.8,136.3-16.5
			c10.3-0.8,20.9-1.5,31.6-1.5c30.1,0,60.8,4.9,84.6,23.9c-7-20.3-20-38.5-38.7-49.8C702.3,71.3,682.4,67.5,662.2,67.5"/>
		<path class="st0" d="M339.5,650.2c10.6,4.5,22.2,6.2,34.1,6.2c2,0,4,0,6-0.1c-1.1-0.4-2.2-0.7-3.3-1.1
			C364.1,652.7,351.9,650.8,339.5,650.2 M748.2,600.5c-7.3,8.4-15.7,15.8-24.9,22.1c-15.8,10.8-33.9,17.2-52.9,19.7
			c-7.3,0.9-14.5,1.3-21.8,1.3c-13.5,0-27.1-1.4-40.6-3.1c-21.6-2.8-43-6.6-64.7-7.8c-3.8-0.2-7.6-0.4-11.4-0.4
			c-17.9,0-35.4,2.5-52.8,8c-5.7,1.8-11.7,3.8-17.7,5.9c0.5,0,1,0,1.5,0c12.9,0,25.8,1.5,38.7,4.2c21.3,4.6,41.9,11.6,62.7,17.7
			c20,5.8,40.5,10.8,61.4,11.3c1.1,0,2.2,0,3.3,0c17.9,0,35.7-3.6,52-11.3C710.2,654.2,733.5,629.2,748.2,600.5 M59.6,378.4
			c-1.1,6.7-2.7,13.5-4.6,20.1C42.9,440,12.2,474.6,4.9,517.7c-3.1,18-0.9,36.8,7.6,53.1c5.5,10.5,13,19.7,21.7,27.5
			c-1.5-6.8-2.2-13.8-2.1-20.8c0.6-43.7,25.6-82.6,31.2-125.5C66.6,427.1,64.3,402.6,59.6,378.4 M758.6,131.8
			c4.1,11.9,6.2,24.6,6,37.2c-0.2,18.9-5.9,36.3-13.3,53.5c-8.4,19.4-18.7,38.9-20.1,60.3c-1.2,17,3.6,33.3,10.1,48.9
			c5.1-20.1,17.8-37.3,28.7-54.7c9.9-15.8,18.3-32.2,21.4-50.8c5.5-33.4-4.4-70.5-30.9-92.8C759.8,132.8,759.2,132.4,758.6,131.8
			 M174.9,43.5c-13,0-26,1.7-38.6,5.6c-29.7,9.2-51.9,31.1-65.8,58c6-4.9,12.5-9.2,19.8-12.7c19.6-9.6,41.3-13.3,63.1-13.3
			c16.2,0,32.6,2.1,48.1,5.4c44.4,9.4,86.2,28.7,131,36.6c14,2.5,28.1,3.6,42.2,3.6c12.2,0,24.4-0.8,36.5-2.3
			c-13.5-2.2-26.8-5.3-39.9-9.8c-43.1-14.7-81.4-40.1-123.8-56.2C224.6,49.6,199.6,43.5,174.9,43.5"/>
		<path class="st1" d="M153.4,81c-21.8,0-43.5,3.7-63.1,13.3c-7.2,3.5-13.8,7.8-19.8,12.7c-3.2,6.2-6,12.6-8.3,19.2
			C33.4,208.4,74,295,59.6,378.4c4.8,24.2,7,48.7,3.8,73.7c-5.6,42.9-30.6,81.7-31.2,125.5c-0.1,7,0.6,14,2.1,20.8
			c3.9,3.4,8,6.6,12.3,9.5c31,21,67.5,26.2,104.1,26.2c3.4,0,6.9,0,10.3-0.1c25.7-0.6,51.7-2.7,77.6-2.7c18.3,0,36.6,1.1,54.7,4.4
			c13.6,2.6,26.9,6.6,39.9,11.3c2.1,1.2,4.2,2.2,6.4,3.2c12.4,0.7,24.6,2.5,36.8,4.9c1.1,0.4,2.2,0.8,3.3,1.1
			c19.5-0.8,39.5-5.4,57.3-8.1c8.2-1.2,16.3-1.9,24.4-2c6.1-2.1,12-4.1,17.7-5.9c17.4-5.5,34.8-8,52.8-8c3.8,0,7.6,0.1,11.4,0.4
			c21.7,1.2,43.2,5.1,64.7,7.8c13.5,1.8,27,3.1,40.6,3.1c7.3,0,14.6-0.4,21.8-1.3c18.9-2.5,37-8.9,52.9-19.7
			c9.2-6.3,17.6-13.8,24.9-22.1c1.6-3.1,3.1-6.2,4.4-9.4c17.4-39.8,18.3-84.9,11.3-127.1c-3.7-22.3-10.1-43.8-16.5-65.5
			c-6.2-21-11.5-43.2-6.6-65c0.1-0.6,0.3-1.2,0.4-1.8c-6.5-15.6-11.2-31.9-10.1-48.9c1.5-21.4,11.7-41,20.1-60.3
			c7.4-17.2,13.2-34.6,13.3-53.5c0.1-12.5-1.9-25.2-6-37.2c-23.8-19-54.4-23.9-84.6-23.9c-10.7,0-21.4,0.6-31.6,1.5
			c-45.7,3.7-90.7,12.3-136.3,16.5c-14.7,1.3-29.6,2.2-44.3,2.2c-17,0-33.9-1.1-50.6-3.8c-12.1,1.5-24.3,2.3-36.5,2.3
			c-14.1,0-28.2-1.1-42.2-3.6c-44.8-7.9-86.6-27.2-131-36.6C185.9,83,169.6,81,153.4,81"/>
	</g>
	<path class="st2" d="M671.4,187.7H135.1c-7.1,0-12.8,5.7-12.8,12.8v355.5c0,7.1,5.7,12.8,12.8,12.8h536.4c7.1,0,12.8-5.7,12.8-12.8
		V200.5C684.3,193.4,678.5,187.7,671.4,187.7z"/>
	<rect x="399.5" y="397.4" class="st3" width="213.4" height="127.2"/>
	<rect x="169.1" y="261.1" class="st4" width="213.4" height="127.2"/>
	<path class="st5" d="M626.4,444.9H524.5c-5,0-9.1-4.1-9.1-9.1V270.6c0-5,4.1-9.1,9.1-9.1h101.9c5,0,9.1,4.1,9.1,9.1v165.3
		C635.4,440.9,631.4,444.9,626.4,444.9z"/>
	<path class="st6" d="M619.8,272.3H532c-3.8,0-6.9,3.1-6.9,6.9v60.7c0,3.8,3.1,6.9,6.9,6.9h87.8c3.8,0,6.9-3.1,6.9-6.9v-60.7
		C626.7,275.3,623.6,272.3,619.8,272.3z"/>
	<g>
		<path class="st7" d="M619.8,360.5H532c-3.8,0-6.9,3.1-6.9,6.9V428c0,3.8,3.1,6.9,6.9,6.9h87.8c3.8,0,6.9-3.1,6.9-6.9v-60.7
			C626.7,363.6,623.6,360.5,619.8,360.5z"/>
		<g>
			<rect x="536.8" y="378.2" class="st8" width="11.1" height="11.1"/>
			<rect x="553.6" y="378.2" class="st9" width="11.1" height="11.1"/>
			<rect x="570.3" y="378.2" class="st8" width="11.1" height="11.1"/>
			<rect x="587.1" y="378.2" class="st9" width="11.1" height="11.1"/>
			<rect x="603.9" y="378.2" class="st8" width="11.1" height="11.1"/>
		</g>
		<path class="st10" d="M619.8,360.5H532c-3.8,0-6.9,3.1-6.9,6.9v2.1h101.5v-2.1C626.7,363.6,623.6,360.5,619.8,360.5z"/>
	</g>
	<g>
		<path class="st5" d="M189.2,240.8h-35.9c-3.1,0-5.5,2.5-5.5,5.5v151.1c0,3.1,2.5,5.5,5.5,5.5h35.9c3.1,0,5.5-2.5,5.5-5.5V246.4
			C194.7,243.3,192.2,240.8,189.2,240.8z"/>
		<path class="st11" d="M188.9,240.8h-35.4c-3.2,0-5.8,2.6-5.8,5.8v6.9h47v-6.9C194.7,243.5,192.1,240.8,188.9,240.8z"/>
		<rect x="152.3" y="259.7" class="st12" width="16.4" height="16.4"/>
		<rect x="172.6" y="278.5" class="st12" width="16.4" height="16.4"/>
		<rect x="152.3" y="295.3" class="st12" width="16.4" height="16.4"/>
		<rect x="172.6" y="314.2" class="st12" width="16.4" height="16.4"/>
		<rect x="152.3" y="331" class="st12" width="16.4" height="16.4"/>
		<rect x="172.6" y="349.9" class="st12" width="16.4" height="16.4"/>
	</g>
	<g>
		<path class="st5" d="M493.4,498.3H304.8c-2.5,0-4.5,2-4.5,4.5v30.1c0,2.5,2,4.5,4.5,4.5h188.6c2.5,0,4.5-2,4.5-4.5v-30.1
			C497.9,500.4,495.8,498.3,493.4,498.3z"/>
		
			<linearGradient id="SVGID_1_" gradientUnits="userSpaceOnUse" x1="345.2297" y1="-819.0008" x2="457.9009" y2="-919.3288" gradientTransform="matrix(1 0 0 1 0 1388)">
			<stop  offset="0" style="stop-color:#E476AD"/>
			<stop  offset="0.4916" style="stop-color:#8F55A2"/>
			<stop  offset="1" style="stop-color:#6D63AC"/>
		</linearGradient>
		<rect x="307.5" y="511.1" class="st13" width="188.2" height="15.5"/>
		<path class="st11" d="M493.3,498.3H304.8c-2.5,0-4.5,2.1-4.5,4.5v2.1h197.6v-2.1C497.9,500.4,495.8,498.3,493.3,498.3z"/>
		<g>
			<polygon class="st14" points="307.5,526.6 305.3,530.8 307.5,530.8 309.7,530.8 			"/>
			<polygon class="st14" points="342.5,526.6 340.2,530.8 342.5,530.8 344.6,530.8 			"/>
			<polygon class="st14" points="391.9,526.6 389.7,530.8 391.9,530.8 394.1,530.8 			"/>
			<polygon class="st14" points="495.7,526.6 493.5,530.8 495.7,530.8 497.9,530.8 			"/>
		</g>
		<rect x="311.3" y="511.1" class="st14" width="0.6" height="15.5"/>
		<rect x="316.9" y="511.1" class="st14" width="0.6" height="15.5"/>
		<rect x="319.9" y="511.1" class="st14" width="0.6" height="15.5"/>
		<rect x="321.9" y="511.1" class="st14" width="0.6" height="15.5"/>
		<rect x="342.2" y="511.1" class="st14" width="0.6" height="15.5"/>
		<rect x="391.6" y="511.1" class="st14" width="0.6" height="15.5"/>
		<rect x="396.1" y="511.1" class="st14" width="0.6" height="15.5"/>
		<rect x="398.6" y="511.1" class="st14" width="0.6" height="15.5"/>
		<rect x="440.5" y="511.1" class="st14" width="0.6" height="15.5"/>
		<rect x="436.8" y="511.1" class="st14" width="0.6" height="15.5"/>
		<rect x="434.8" y="511.1" class="st14" width="0.6" height="15.5"/>
		<rect x="443.6" y="511.1" class="st14" width="0.6" height="15.5"/>
	</g>
	<g>
		<path class="st5" d="M490.5,272.6H250.9c-2.1,0-3.8-1.7-3.8-3.8v-30.6c0-2.1,1.7-3.8,3.8-3.8h239.6c2.1,0,3.8,1.7,3.8,3.8v30.6
			C494.3,270.9,492.6,272.6,490.5,272.6z"/>
		<g>
			<circle class="st6" cx="280.9" cy="253.5" r="12.8"/>
			<circle class="st7" cx="316.8" cy="253.5" r="12.8"/>
			<circle class="st15" cx="352.7" cy="253.5" r="12.8"/>
			<circle class="st16" cx="388.6" cy="253.5" r="12.8"/>
			<circle class="st17" cx="424.5" cy="253.5" r="12.8"/>
			<circle class="st18" cx="460.4" cy="253.5" r="12.8"/>
		</g>
		<polygon class="st19" points="252.5,253.5 257.9,257 257.9,253.5 257.9,250 		"/>
		<polygon class="st19" points="486.4,253.5 480.9,250 480.9,253.5 480.9,257 		"/>
	</g>
	<path class="st15" d="M671.2,187.6H135.3c-7.2,0-13,5.8-13,13v16.6h562v-16.6C684.3,193.4,678.4,187.6,671.2,187.6z"/>
	<circle class="st2" cx="620.8" cy="202.3" r="4.3"/>
	<circle class="st6" cx="638.2" cy="202.3" r="4.3"/>
	<circle class="st17" cx="655.6" cy="202.3" r="4.3"/>
	<g>
		<g>
			<path class="st17" d="M472.5,439.6H269.1c-2.9,0-5.3-2.4-5.3-5.3v-127c0-2.9,2.4-5.3,5.3-5.3h203.4c2.9,0,5.3,2.4,5.3,5.3v127
				C477.7,437.2,475.4,439.6,472.5,439.6z"/>
			<path class="st16" d="M417.1,348.7l-44.5,46.9c-3.3,3.5-8.6,4.1-12.7,1.6l-44.2-28.1c-5-3.1-11.4-2.5-15.7,1.6l-36.3,34.9v26.7
				c0,4.1,3.3,7.4,7.4,7.4h199.2c4.1,0,7.4-3.3,7.4-7.4v-59.5l-44.9-26.2C427.7,343.5,421.2,344.4,417.1,348.7z"/>
			<circle class="st15" cx="291.1" cy="327.9" r="14.5"/>
		</g>
		<g>
			<g>
				<path class="st15" d="M487.9,451h-2.6c-0.1,0-0.2-0.1-0.2-0.2c0-0.1,0.1-0.2,0.2-0.2h2.4v-2.4c0-0.1,0.1-0.2,0.2-0.2
					c0.1,0,0.2,0.1,0.2,0.2v2.6C488.2,450.9,488.1,451,487.9,451z"/>
				<path class="st15" d="M480,451h-5.3c-0.1,0-0.2-0.1-0.2-0.2c0-0.1,0.1-0.2,0.2-0.2h5.3c0.1,0,0.2,0.1,0.2,0.2
					C480.2,450.9,480.1,451,480,451z M469.4,451H464c-0.1,0-0.2-0.1-0.2-0.2c0-0.1,0.1-0.2,0.2-0.2h5.3c0.1,0,0.2,0.1,0.2,0.2
					C469.6,450.9,469.5,451,469.4,451z M458.7,451h-5.3c-0.1,0-0.2-0.1-0.2-0.2c0-0.1,0.1-0.2,0.2-0.2h5.3c0.1,0,0.2,0.1,0.2,0.2
					C458.9,450.9,458.8,451,458.7,451z M448,451h-5.3c-0.1,0-0.2-0.1-0.2-0.2c0-0.1,0.1-0.2,0.2-0.2h5.3c0.1,0,0.2,0.1,0.2,0.2
					C448.2,450.9,448.1,451,448,451z M437.4,451H432c-0.1,0-0.2-0.1-0.2-0.2c0-0.1,0.1-0.2,0.2-0.2h5.3c0.1,0,0.2,0.1,0.2,0.2
					C437.6,450.9,437.5,451,437.4,451z M426.7,451h-5.3c-0.1,0-0.2-0.1-0.2-0.2c0-0.1,0.1-0.2,0.2-0.2h5.3c0.1,0,0.2,0.1,0.2,0.2
					C426.9,450.9,426.9,451,426.7,451z M416.1,451h-5.3c-0.1,0-0.2-0.1-0.2-0.2c0-0.1,0.1-0.2,0.2-0.2h5.3c0.1,0,0.2,0.1,0.2,0.2
					C416.3,450.9,416.2,451,416.1,451z M405.4,451h-5.3c-0.1,0-0.2-0.1-0.2-0.2c0-0.1,0.1-0.2,0.2-0.2h5.3c0.1,0,0.2,0.1,0.2,0.2
					C405.6,450.9,405.5,451,405.4,451z M394.7,451h-5.3c-0.1,0-0.2-0.1-0.2-0.2c0-0.1,0.1-0.2,0.2-0.2h5.3c0.1,0,0.2,0.1,0.2,0.2
					C395,450.9,394.9,451,394.7,451z M384.1,451h-5.3c-0.1,0-0.2-0.1-0.2-0.2c0-0.1,0.1-0.2,0.2-0.2h5.3c0.1,0,0.2,0.1,0.2,0.2
					C384.3,450.9,384.2,451,384.1,451z M373.4,451h-5.3c-0.1,0-0.2-0.1-0.2-0.2c0-0.1,0.1-0.2,0.2-0.2h5.3c0.1,0,0.2,0.1,0.2,0.2
					C373.7,450.9,373.6,451,373.4,451z M362.8,451h-5.4c-0.1,0-0.2-0.1-0.2-0.2c0-0.1,0.1-0.2,0.2-0.2h5.3c0.1,0,0.2,0.1,0.2,0.2
					C363,450.9,362.9,451,362.8,451z M352.1,451h-5.3c-0.1,0-0.2-0.1-0.2-0.2c0-0.1,0.1-0.2,0.2-0.2h5.3c0.1,0,0.2,0.1,0.2,0.2
					C352.3,450.9,352.2,451,352.1,451z M341.5,451h-5.3c-0.1,0-0.2-0.1-0.2-0.2c0-0.1,0.1-0.2,0.2-0.2h5.3c0.1,0,0.2,0.1,0.2,0.2
					C341.7,450.9,341.6,451,341.5,451z M330.8,451h-5.3c-0.1,0-0.2-0.1-0.2-0.2c0-0.1,0.1-0.2,0.2-0.2h5.3c0.1,0,0.2,0.1,0.2,0.2
					C331,450.9,330.9,451,330.8,451z M320.2,451h-5.3c-0.1,0-0.2-0.1-0.2-0.2c0-0.1,0.1-0.2,0.2-0.2h5.3c0.1,0,0.2,0.1,0.2,0.2
					C320.4,450.9,320.2,451,320.2,451z M309.5,451h-5.3c-0.1,0-0.2-0.1-0.2-0.2c0-0.1,0.1-0.2,0.2-0.2h5.3c0.1,0,0.2,0.1,0.2,0.2
					C309.7,450.9,309.6,451,309.5,451z M298.8,451h-5.3c-0.1,0-0.2-0.1-0.2-0.2c0-0.1,0.1-0.2,0.2-0.2h5.3c0.1,0,0.2,0.1,0.2,0.2
					C299,450.9,298.9,451,298.8,451z M288.2,451h-5.3c-0.1,0-0.2-0.1-0.2-0.2c0-0.1,0.1-0.2,0.2-0.2h5.3c0.1,0,0.2,0.1,0.2,0.2
					C288.4,450.9,288.3,451,288.2,451z M277.5,451h-5.3c-0.1,0-0.2-0.1-0.2-0.2c0-0.1,0.1-0.2,0.2-0.2h5.3c0.1,0,0.2,0.1,0.2,0.2
					C277.7,450.9,277.6,451,277.5,451z M266.8,451h-5.3c-0.1,0-0.2-0.1-0.2-0.2c0-0.1,0.1-0.2,0.2-0.2h5.3c0.1,0,0.2,0.1,0.2,0.2
					C267,450.9,267,451,266.8,451z"/>
				<path class="st15" d="M256.2,451h-2.6c-0.1,0-0.2-0.1-0.2-0.2v-2.6c0-0.1,0.1-0.2,0.2-0.2s0.2,0.1,0.2,0.2v2.4h2.4
					c0.1,0,0.2,0.1,0.2,0.2C256.4,450.9,256.3,451,256.2,451z"/>
				<path class="st15" d="M253.6,443c-0.1,0-0.2-0.1-0.2-0.2v-5.3c0-0.1,0.1-0.2,0.2-0.2s0.2,0.1,0.2,0.2v5.3
					C253.8,442.9,253.7,443,253.6,443z M253.6,432.4c-0.1,0-0.2-0.1-0.2-0.2v-5.3c0-0.1,0.1-0.2,0.2-0.2s0.2,0.1,0.2,0.2v5.3
					C253.8,432.3,253.7,432.4,253.6,432.4z M253.6,421.7c-0.1,0-0.2-0.1-0.2-0.2v-5.3c0-0.1,0.1-0.2,0.2-0.2s0.2,0.1,0.2,0.2v5.3
					C253.8,421.6,253.7,421.7,253.6,421.7z M253.6,411c-0.1,0-0.2-0.1-0.2-0.2v-5.3c0-0.1,0.1-0.2,0.2-0.2s0.2,0.1,0.2,0.2v5.3
					C253.8,410.9,253.7,411,253.6,411z M253.6,400.3c-0.1,0-0.2-0.1-0.2-0.2v-5.3c0-0.1,0.1-0.2,0.2-0.2s0.2,0.1,0.2,0.2v5.3
					C253.8,400.2,253.7,400.3,253.6,400.3z M253.6,389.7c-0.1,0-0.2-0.1-0.2-0.2v-5.3c0-0.1,0.1-0.2,0.2-0.2s0.2,0.1,0.2,0.2v5.3
					C253.8,389.6,253.7,389.7,253.6,389.7z M253.6,379c-0.1,0-0.2-0.1-0.2-0.2v-5.3c0-0.1,0.1-0.2,0.2-0.2s0.2,0.1,0.2,0.2v5.3
					C253.8,378.9,253.7,379,253.6,379z M253.6,368.3c-0.1,0-0.2-0.1-0.2-0.2v-5.3c0-0.1,0.1-0.2,0.2-0.2s0.2,0.1,0.2,0.2v5.3
					C253.8,368.3,253.7,368.3,253.6,368.3z M253.6,357.7c-0.1,0-0.2-0.1-0.2-0.2v-5.3c0-0.1,0.1-0.2,0.2-0.2s0.2,0.1,0.2,0.2v5.3
					C253.8,357.6,253.7,357.7,253.6,357.7z M253.6,347c-0.1,0-0.2-0.1-0.2-0.2v-5.3c0-0.1,0.1-0.2,0.2-0.2s0.2,0.1,0.2,0.2v5.3
					C253.8,346.9,253.7,347,253.6,347z M253.6,336.3c-0.1,0-0.2-0.1-0.2-0.2v-5.3c0-0.1,0.1-0.2,0.2-0.2s0.2,0.1,0.2,0.2v5.3
					C253.8,336.2,253.7,336.3,253.6,336.3z M253.6,325.7c-0.1,0-0.2-0.1-0.2-0.2v-5.3c0-0.1,0.1-0.2,0.2-0.2s0.2,0.1,0.2,0.2v5.3
					C253.8,325.6,253.7,325.7,253.6,325.7z M253.6,315c-0.1,0-0.2-0.1-0.2-0.2v-5.3c0-0.1,0.1-0.2,0.2-0.2s0.2,0.1,0.2,0.2v5.3
					C253.8,314.9,253.7,315,253.6,315z M253.6,304.3c-0.1,0-0.2-0.1-0.2-0.2v-5.3c0-0.1,0.1-0.2,0.2-0.2s0.2,0.1,0.2,0.2v5.3
					C253.8,304.2,253.7,304.3,253.6,304.3z"/>
				<path class="st15" d="M253.6,293.6c-0.1,0-0.2-0.1-0.2-0.2v-2.6c0-0.1,0.1-0.2,0.2-0.2h2.6c0.1,0,0.2,0.1,0.2,0.2
					c0,0.1-0.1,0.2-0.2,0.2h-2.4v2.4C253.8,293.6,253.7,293.6,253.6,293.6z"/>
				<path class="st15" d="M480,291h-5.3c-0.1,0-0.2-0.1-0.2-0.2c0-0.1,0.1-0.2,0.2-0.2h5.3c0.1,0,0.2,0.1,0.2,0.2
					C480.2,290.9,480.1,291,480,291z M469.4,291H464c-0.1,0-0.2-0.1-0.2-0.2c0-0.1,0.1-0.2,0.2-0.2h5.3c0.1,0,0.2,0.1,0.2,0.2
					C469.6,290.9,469.5,291,469.4,291z M458.7,291h-5.3c-0.1,0-0.2-0.1-0.2-0.2c0-0.1,0.1-0.2,0.2-0.2h5.3c0.1,0,0.2,0.1,0.2,0.2
					C458.9,290.9,458.8,291,458.7,291z M448,291h-5.3c-0.1,0-0.2-0.1-0.2-0.2c0-0.1,0.1-0.2,0.2-0.2h5.3c0.1,0,0.2,0.1,0.2,0.2
					C448.2,290.9,448.1,291,448,291z M437.4,291H432c-0.1,0-0.2-0.1-0.2-0.2c0-0.1,0.1-0.2,0.2-0.2h5.3c0.1,0,0.2,0.1,0.2,0.2
					C437.6,290.9,437.5,291,437.4,291z M426.7,291h-5.3c-0.1,0-0.2-0.1-0.2-0.2c0-0.1,0.1-0.2,0.2-0.2h5.3c0.1,0,0.2,0.1,0.2,0.2
					C426.9,290.9,426.9,291,426.7,291z M416.1,291h-5.3c-0.1,0-0.2-0.1-0.2-0.2c0-0.1,0.1-0.2,0.2-0.2h5.3c0.1,0,0.2,0.1,0.2,0.2
					C416.3,290.9,416.2,291,416.1,291z M405.4,291h-5.3c-0.1,0-0.2-0.1-0.2-0.2c0-0.1,0.1-0.2,0.2-0.2h5.3c0.1,0,0.2,0.1,0.2,0.2
					C405.6,290.9,405.5,291,405.4,291z M394.7,291h-5.3c-0.1,0-0.2-0.1-0.2-0.2c0-0.1,0.1-0.2,0.2-0.2h5.3c0.1,0,0.2,0.1,0.2,0.2
					C395,290.9,394.9,291,394.7,291z M384.1,291h-5.3c-0.1,0-0.2-0.1-0.2-0.2c0-0.1,0.1-0.2,0.2-0.2h5.3c0.1,0,0.2,0.1,0.2,0.2
					C384.3,290.9,384.2,291,384.1,291z M373.4,291h-5.3c-0.1,0-0.2-0.1-0.2-0.2c0-0.1,0.1-0.2,0.2-0.2h5.3c0.1,0,0.2,0.1,0.2,0.2
					C373.7,290.9,373.6,291,373.4,291z M362.8,291h-5.4c-0.1,0-0.2-0.1-0.2-0.2c0-0.1,0.1-0.2,0.2-0.2h5.3c0.1,0,0.2,0.1,0.2,0.2
					C363,290.9,362.9,291,362.8,291z M352.1,291h-5.3c-0.1,0-0.2-0.1-0.2-0.2c0-0.1,0.1-0.2,0.2-0.2h5.3c0.1,0,0.2,0.1,0.2,0.2
					C352.3,290.9,352.2,291,352.1,291z M341.5,291h-5.3c-0.1,0-0.2-0.1-0.2-0.2c0-0.1,0.1-0.2,0.2-0.2h5.3c0.1,0,0.2,0.1,0.2,0.2
					C341.7,290.9,341.6,291,341.5,291z M330.8,291h-5.3c-0.1,0-0.2-0.1-0.2-0.2c0-0.1,0.1-0.2,0.2-0.2h5.3c0.1,0,0.2,0.1,0.2,0.2
					C331,290.9,330.9,291,330.8,291z M320.2,291h-5.3c-0.1,0-0.2-0.1-0.2-0.2c0-0.1,0.1-0.2,0.2-0.2h5.3c0.1,0,0.2,0.1,0.2,0.2
					C320.4,290.9,320.2,291,320.2,291z M309.5,291h-5.3c-0.1,0-0.2-0.1-0.2-0.2c0-0.1,0.1-0.2,0.2-0.2h5.3c0.1,0,0.2,0.1,0.2,0.2
					C309.7,290.9,309.6,291,309.5,291z M298.8,291h-5.3c-0.1,0-0.2-0.1-0.2-0.2c0-0.1,0.1-0.2,0.2-0.2h5.3c0.1,0,0.2,0.1,0.2,0.2
					C299,290.9,298.9,291,298.8,291z M288.2,291h-5.3c-0.1,0-0.2-0.1-0.2-0.2c0-0.1,0.1-0.2,0.2-0.2h5.3c0.1,0,0.2,0.1,0.2,0.2
					C288.4,290.9,288.3,291,288.2,291z M277.5,291h-5.3c-0.1,0-0.2-0.1-0.2-0.2c0-0.1,0.1-0.2,0.2-0.2h5.3c0.1,0,0.2,0.1,0.2,0.2
					C277.7,290.9,277.6,291,277.5,291z M266.8,291h-5.3c-0.1,0-0.2-0.1-0.2-0.2c0-0.1,0.1-0.2,0.2-0.2h5.3c0.1,0,0.2,0.1,0.2,0.2
					C267,290.9,267,291,266.8,291z"/>
				<path class="st15" d="M487.9,293.6c-0.1,0-0.2-0.1-0.2-0.2V291h-2.4c-0.1,0-0.2-0.1-0.2-0.2c0-0.1,0.1-0.2,0.2-0.2h2.6
					c0.1,0,0.2,0.1,0.2,0.2v2.6C488.2,293.6,488.1,293.6,487.9,293.6z"/>
				<path class="st15" d="M487.9,443c-0.1,0-0.2-0.1-0.2-0.2v-5.3c0-0.1,0.1-0.2,0.2-0.2c0.1,0,0.2,0.1,0.2,0.2v5.3
					C488.2,442.9,488.1,443,487.9,443z M487.9,432.4c-0.1,0-0.2-0.1-0.2-0.2v-5.3c0-0.1,0.1-0.2,0.2-0.2c0.1,0,0.2,0.1,0.2,0.2v5.3
					C488.2,432.3,488.1,432.4,487.9,432.4z M487.9,421.7c-0.1,0-0.2-0.1-0.2-0.2v-5.3c0-0.1,0.1-0.2,0.2-0.2c0.1,0,0.2,0.1,0.2,0.2
					v5.3C488.2,421.6,488.1,421.7,487.9,421.7z M487.9,411c-0.1,0-0.2-0.1-0.2-0.2v-5.3c0-0.1,0.1-0.2,0.2-0.2
					c0.1,0,0.2,0.1,0.2,0.2v5.3C488.2,410.9,488.1,411,487.9,411z M487.9,400.3c-0.1,0-0.2-0.1-0.2-0.2v-5.3c0-0.1,0.1-0.2,0.2-0.2
					c0.1,0,0.2,0.1,0.2,0.2v5.3C488.2,400.2,488.1,400.3,487.9,400.3z M487.9,389.7c-0.1,0-0.2-0.1-0.2-0.2v-5.3
					c0-0.1,0.1-0.2,0.2-0.2c0.1,0,0.2,0.1,0.2,0.2v5.3C488.2,389.6,488.1,389.7,487.9,389.7z M487.9,379c-0.1,0-0.2-0.1-0.2-0.2
					v-5.3c0-0.1,0.1-0.2,0.2-0.2c0.1,0,0.2,0.1,0.2,0.2v5.3C488.2,378.9,488.1,379,487.9,379z M487.9,368.3c-0.1,0-0.2-0.1-0.2-0.2
					v-5.3c0-0.1,0.1-0.2,0.2-0.2c0.1,0,0.2,0.1,0.2,0.2v5.3C488.2,368.3,488.1,368.3,487.9,368.3z M487.9,357.7
					c-0.1,0-0.2-0.1-0.2-0.2v-5.3c0-0.1,0.1-0.2,0.2-0.2c0.1,0,0.2,0.1,0.2,0.2v5.3C488.2,357.6,488.1,357.7,487.9,357.7z
					 M487.9,347c-0.1,0-0.2-0.1-0.2-0.2v-5.3c0-0.1,0.1-0.2,0.2-0.2c0.1,0,0.2,0.1,0.2,0.2v5.3C488.2,346.9,488.1,347,487.9,347z
					 M487.9,336.3c-0.1,0-0.2-0.1-0.2-0.2v-5.3c0-0.1,0.1-0.2,0.2-0.2c0.1,0,0.2,0.1,0.2,0.2v5.3
					C488.2,336.2,488.1,336.3,487.9,336.3z M487.9,325.7c-0.1,0-0.2-0.1-0.2-0.2v-5.3c0-0.1,0.1-0.2,0.2-0.2c0.1,0,0.2,0.1,0.2,0.2
					v5.3C488.2,325.6,488.1,325.7,487.9,325.7z M487.9,315c-0.1,0-0.2-0.1-0.2-0.2v-5.3c0-0.1,0.1-0.2,0.2-0.2
					c0.1,0,0.2,0.1,0.2,0.2v5.3C488.2,314.9,488.1,315,487.9,315z M487.9,304.3c-0.1,0-0.2-0.1-0.2-0.2v-5.3c0-0.1,0.1-0.2,0.2-0.2
					c0.1,0,0.2,0.1,0.2,0.2v5.3C488.2,304.2,488.1,304.3,487.9,304.3z"/>
			</g>
			<rect x="250.3" y="286.7" class="st15" width="8.2" height="8.2"/>
			<rect x="250.3" y="446.7" class="st15" width="8.2" height="8.2"/>
			<rect x="482.8" y="286.7" class="st15" width="8.2" height="8.2"/>
			<rect x="250.3" y="366.7" class="st15" width="8.2" height="8.2"/>
			<rect x="482.8" y="366.7" class="st15" width="8.2" height="8.2"/>
			<rect x="482.8" y="446.7" class="st15" width="8.2" height="8.2"/>
			<g>
				<rect x="366.7" y="286.7" class="st15" width="8.2" height="8.2"/>
				<rect x="366.7" y="446.7" class="st15" width="8.2" height="8.2"/>
			</g>
		</g>
	</g>
	<g>
		<path class="st5" d="M475.2,465.3H265c-1,0-1.9,0.8-1.9,1.9V484c0,1,0.8,1.9,1.9,1.9h210.2c1,0,1.9-0.8,1.9-1.9v-16.9
			C477.1,466.1,476.3,465.3,475.2,465.3z"/>
		
			<linearGradient id="SVGID_2_" gradientUnits="userSpaceOnUse" x1="374.2713" y1="-887.413" x2="365.0595" y2="-933.1319" gradientTransform="matrix(1 0 0 1 0 1388)">
			<stop  offset="0" style="stop-color:#7BCDD5"/>
			<stop  offset="0.4916" style="stop-color:#6D63AC"/>
			<stop  offset="1" style="stop-color:#2F3276"/>
		</linearGradient>
		<rect x="267.1" y="474.6" class="st20" width="205.1" height="6.2"/>
		<path class="st11" d="M475.3,465.3H265c-1,0-1.8,0.8-1.8,1.8v3.6h214v-3.6C477.1,466.1,476.3,465.3,475.3,465.3z"/>
	</g>
	<g>
		<rect x="532.3" y="294.9" class="st21" width="15.2" height="15.2"/>
		<rect x="556.3" y="294.9" class="st22" width="15.2" height="15.2"/>
		<rect x="580.3" y="294.9" class="st21" width="15.2" height="15.2"/>
		<rect x="604.3" y="294.9" class="st22" width="15.2" height="15.2"/>
		<rect x="532.3" y="317.1" class="st22" width="15.2" height="15.2"/>
		<rect x="556.3" y="317.1" class="st21" width="15.2" height="15.2"/>
		<rect x="580.3" y="317.1" class="st22" width="15.2" height="15.2"/>
		<rect x="604.3" y="317.1" class="st21" width="15.2" height="15.2"/>
	</g>
	<path class="st22" d="M619.8,272.3H532c-3.8,0-6.9,3.1-6.9,6.9v1.4h101.5v-1.4C626.7,275.3,623.6,272.3,619.8,272.3z"/>
	
		<linearGradient id="SVGID_3_" gradientUnits="userSpaceOnUse" x1="252.6483" y1="-666.6441" x2="252.6483" y2="-677.4863" gradientTransform="matrix(1 0 0 1 0 1388)">
		<stop  offset="0" style="stop-color:#454492"/>
		<stop  offset="1" style="stop-color:#2F3276"/>
	</linearGradient>
	<path class="st23" d="M247.2,704l2.5,25.1c0,0,2.4,1,5.5,0l2.9-21.1L247.2,704z"/>
	
		<linearGradient id="SVGID_4_" gradientUnits="userSpaceOnUse" x1="182.4337" y1="-666.8631" x2="182.4337" y2="-678.8653" gradientTransform="matrix(1 0 0 1 0 1388)">
		<stop  offset="0" style="stop-color:#454492"/>
		<stop  offset="1" style="stop-color:#2F3276"/>
	</linearGradient>
	<path class="st24" d="M176.5,697.4l3.6,30.4c0,0,4.6,1.2,7,0l1.4-23.1L176.5,697.4z"/>
	<path class="st25" d="M212.3,324.4c-3.1-5.7-9.9-7.2-15.7-8.1c-1.9-0.3-2.7,2.6-0.8,2.9c0.1,0,0.3,0,0.4,0.1
		c0,6.1,0.2,12.6,4.1,17.6c2.6,3.3,8.5,6.9,12,2.8C215.6,336.2,214.4,328.3,212.3,324.4z"/>
	<path class="st26" d="M186.4,386.9c0,0-8.3,11.7-11,25.7c-2.7,14-11.2,38-7.9,44.1c3.4,6.1,59.9,17.6,63.2,20.1
		c3.3,2.4,7.7,7.9,9.3,11c1.7,3.1,12.6,4.3,13.8,0s-4.6-16.4-16.4-20.4c-11.9-4-44.7-19.5-44.7-19.5L186.4,386.9z"/>
	
		<linearGradient id="SVGID_5_" gradientUnits="userSpaceOnUse" x1="145.8355" y1="-945.1766" x2="185.7334" y2="-958.2754" gradientTransform="matrix(1 0 0 1 0 1388)">
		<stop  offset="0" style="stop-color:#E476AD"/>
		<stop  offset="1" style="stop-color:#D0559D"/>
	</linearGradient>
	<path class="st27" d="M206.5,457.6l3.9-1.7c-9.6-4.3-17.6-8.1-17.6-8.1l-6.3-61c0,0-8.3,11.7-11,25.7c-2.7,14-11.2,38-7.9,44.1
		c1.7,3,16.5,7.4,31.4,11.3L206.5,457.6z"/>
	<path class="st26" d="M183.3,472.4c0,0-13,16.2-13,40.9c0,24.8,11.7,64.1,11,76.2c-0.8,12.2-3.8,16.2-4.1,35.7
		c-0.3,19.5,9.4,44.6,6.9,54.9c-2.6,10.6-12.6,15.4-4.5,23.8c7.6,7.8,15.4,13.2,19.1,20.5c3.7,7.3,31.6,5.5,27.1-0.6
		c-4.5-6.1-27.6-21.1-26.8-51.5c0.8-30.4,8.9-143.9,8.9-143.9L183.3,472.4z"/>
	<path class="st26" d="M206.8,360.4c0,0-0.4,18.2,4.6,21.3s12.3,17.3,17.3,23.9s6.2,15.1,2.6,21s-7.5,13.1-8.8,23
		c-1.4,9.9,0.1,29.6,5.3,46.4c5.2,16.8,22.2,96.4,23.4,103.4s11,77.5,14.6,89.4s13.7,25.5,19.5,29.2c5.8,3.7,25.2,7.3,17.9,10.6
		c-7.3,3.4-29.5,2.1-32.2,0c-2.7-2.1-9.4-14.6-16.7-17c-7.3-2.4-9.4-9.7-4.6-19.5c4.8-9.7-6.6-34.6-13.9-53.8
		c-7.3-19.2-4.8-34-11.6-48.3c-6.7-14.3-54.1-63.5-48.4-93.7c5.5-29.2,14.7-29.1,13.2-42.5c-1.5-13.4-11.7-37.9-7.7-53.7
		c4.1-15.8,12-19.2,11.6-31.6c-0.4-12.3,1-15,1-15L206.8,360.4z"/>
	<path class="st26" d="M206.5,388.8c0,0,47.6-15.6,53.8-26.6c6.2-11,20.4-32,18.3-40.1c-2.1-8.1-0.5-16.7,3.5-16.9
		c4-0.3,13.4,6.7,11.4,12.1c-2,5.4-6,2.7-7.9,12.3c-1.9,9.7-8.9,43.6-15.6,47.9c-6.7,4.3-47.9,29.3-47.9,29.3L206.5,388.8z"/>
	<path class="st26" d="M212.4,363.3c4.7-1.8,4-8.4,2-16.4l-2.7-9.4c-0.6-2.1-1.1-4.1-1.7-6.1c-3.4-13.4-16-14.9-16-14.9
		c-27.8,10.1-18.5,30.2-11.9,40.6C189,367.6,206.2,365.7,212.4,363.3z"/>
	
		<linearGradient id="SVGID_6_" gradientUnits="userSpaceOnUse" x1="209.4566" y1="-952.2481" x2="184.1834" y2="-1007.1797" gradientTransform="matrix(1 0 0 1 0 1388)">
		<stop  offset="0" style="stop-color:#E476AD"/>
		<stop  offset="1" style="stop-color:#D0559D"/>
	</linearGradient>
	<path class="st28" d="M228.6,405.6c-5-6.5-12.3-20.8-17.3-23.9c-0.4-0.3-0.8-0.6-1.1-1c2.9-3.3,5.7-10.6-0.3-11.8
		c-1.4-0.3-2.8,0.2-4.1,0.7c-1.7,0.7-2.7,1.7-4.9,1c-0.6-0.2-1.1-0.8-1.8-1c-1.8-0.6-3.4,0.7-5.1,0.3c-1.6-0.3-2.8-1.5-4.5-1.6
		c-7.2-0.1-2.4,9.1,0.2,12.7c-2.6,4.9-6.2,9.9-8.5,19c-4.1,15.8,6.2,40.3,7.7,53.7c0.4,3.6,0,6.2-0.8,8.8
		c12.2,3.4,26.8-0.7,33.9-3.2c0-3.8,0.1-7.2,0.5-9.8c1.4-9.9,5.1-17,8.8-23S233.7,412.2,228.6,405.6z"/>
	
		<linearGradient id="SVGID_7_" gradientUnits="userSpaceOnUse" x1="270.9451" y1="-1000.6731" x2="193.6824" y2="-1033.6969" gradientTransform="matrix(1 0 0 1 0 1388)">
		<stop  offset="0" style="stop-color:#E476AD"/>
		<stop  offset="1" style="stop-color:#D0559D"/>
	</linearGradient>
	<path class="st29" d="M285.3,355.7c-1.3-1.1-2.2-0.6-3.6-0.4c-0.3,0-0.7,0.5-1,0.5c-0.5,0-1-0.9-1.2-1.2c-0.2-0.6,0-1.5-0.2-2.1
		c-0.3-1.3-0.9-2.4-2.2-2.9c-1.2-0.4-2.2,0-3.2,0.7c-0.5,0.3-1.2,1.4-1.8,1.4c-1,0.1-1.3-0.9-1.7-1.6c-1.5-2.1-4-3.8-6.2-1.4
		c-1.4,1.5-1.2,3.9-1.3,5.8c0,1.2-0.1,2.4-0.2,3.5c-0.9,1.5-1.7,3-2.5,4.2c-6.2,11-53.8,26.6-53.8,26.6l15.6,18
		c0,0,41.2-25,47.9-29.3c0.2-0.1,0.3-0.3,0.6-0.4c3.9-1.9,7.2-6.5,9.6-9.3c2.1-2.4,6.3-5.4,6.5-8.9
		C286.7,357.7,286.2,356.4,285.3,355.7z"/>
	<path class="st16" d="M225.8,723.8c-1.2-1.7-3.9-4.1-7.2-7.3c-4.1,0.1-9.5,0-14-1.5c-8.2-2.7-23.5-28-23.5-28l0,0
		c-3.5,6.3-7.9,10.6-1.7,17c7.6,7.8,15.4,13.2,19.1,20.5C202.3,731.7,230.3,729.8,225.8,723.8z"/>
	<path class="st16" d="M286.3,718.5c-8.3,3.6-16-3.5-21.2-10.5c-4.1-5.5-11.5-12-15.7-15.5c-4.6,9.5-2.4,16.6,4.8,19
		c7.3,2.4,14,14.9,16.7,17c2.7,2.1,24.9,3.4,32.2,0C310,725.4,293.1,722,286.3,718.5z"/>
	<g>
		
			<ellipse transform="matrix(0.5701 -0.8216 0.8216 0.5701 -275.1794 327.0513)" class="st30" cx="174.9" cy="426.5" rx="2.4" ry="2.4"/>
		
			<ellipse transform="matrix(0.5701 -0.8216 0.8216 0.5701 -290.4337 339.1858)" class="st30" cx="178.9" cy="447.1" rx="2.4" ry="2.4"/>
		<path class="st30" d="M176.9,413.1c0.8-1.1,0.5-2.6-0.6-3.4c0,0-0.1-0.1-0.2-0.1c-0.3,1-0.5,2-0.7,3c-0.1,0.5-0.2,1-0.3,1.5
			C175.8,414,176.5,413.7,176.9,413.1z"/>
		<path class="st30" d="M169.6,442.5c0.8-1.1,0.5-2.6-0.6-3.4c0,0-0.1,0-0.1,0c-0.3,1.5-0.7,3-1,4.5
			C168.6,443.4,169.2,443.1,169.6,442.5z"/>
		<path class="st30" d="M178.4,461.8c0.8-1.1,0.5-2.6-0.6-3.4c-1.1-0.8-2.6-0.5-3.4,0.6c-0.3,0.4-0.4,0.9-0.4,1.4
			c1.3,0.5,2.7,1,4.3,1.6C178.3,462,178.4,461.9,178.4,461.8z"/>
	</g>
	<g>
		<ellipse class="st30" cx="199.4" cy="429.9" rx="2.4" ry="2.4"/>
		<path class="st30" d="M190.2,447.4c0.8-1.1,0.5-2.6-0.6-3.4c-0.8-0.6-1.8-0.6-2.7-0.1c0.4,1.6,0.7,3.1,1,4.5
			C188.9,448.5,189.7,448.1,190.2,447.4z"/>
		<ellipse class="st30" cx="194.9" cy="396.9" rx="2.4" ry="2.4"/>
		<ellipse class="st30" cx="202.6" cy="446.4" rx="2.4" ry="2.4"/>
		<circle class="st30" cx="188.6" cy="409.2" r="2.4"/>
		<path class="st30" d="M182.1,423.8c1,0.3,2-0.1,2.6-1c0.8-1.1,0.5-2.6-0.6-3.4c-0.9-0.6-2-0.6-2.8,0
			C181.6,420.9,181.8,422.3,182.1,423.8z"/>
		<ellipse class="st30" cx="206.5" cy="410.9" rx="2.4" ry="2.4"/>
		<circle class="st30" cx="201.3" cy="382.5" r="2.4"/>
		<ellipse class="st30" cx="221.6" cy="413.9" rx="2.4" ry="2.4"/>
		<path class="st30" d="M226.6,429.8c-0.8,1.1-0.5,2.6,0.6,3.4c0.1,0,0.1,0.1,0.2,0.1c0.7-1.5,1.5-2.9,2.3-4.3
			C228.7,428.5,227.3,428.8,226.6,429.8z"/>
		<ellipse class="st30" cx="218.4" cy="454.8" rx="2.4" ry="2.4"/>
		<ellipse class="st30" cx="215.3" cy="433.7" rx="2.4" ry="2.4"/>
		<circle class="st30" cx="215.3" cy="401.3" r="2.4"/>
	</g>
	<g>
		<ellipse class="st30" cx="276.3" cy="358.7" rx="2.4" ry="2.4"/>
		<ellipse class="st30" cx="259.2" cy="375.7" rx="2.4" ry="2.4"/>
		<path class="st30" d="M263,360.3c1.4,0.2,2.6-0.7,2.7-2.1c0.2-1.4-0.7-2.6-2.1-2.7c-0.3,0-0.6,0-0.8,0c0,0.8-0.1,1.6-0.1,2.4
			c-0.3,0.6-0.7,1.2-1,1.7C262.1,360,262.5,360.2,263,360.3z"/>
		<path class="st30" d="M277,371.5c-0.5-1.2-1.9-1.7-3.1-1.3c-1.3,0.5-1.9,1.9-1.4,3.1c0.3,0.7,0.7,1.1,1.4,1.4
			C274.9,373.7,276,372.6,277,371.5z"/>
		<path class="st30" d="M229.7,399.2c-1.4,0-2.4,1.1-2.4,2.4c0,0.7,0.3,1.2,0.7,1.7c1.2-0.7,2.6-1.6,4.1-2.5
			C231.6,399.9,230.7,399.2,229.7,399.2z"/>
		<path class="st30" d="M242.9,374.3c0.5,1.3,1.9,1.9,3.1,1.4c1.3-0.5,1.9-1.9,1.4-3.1c-0.1-0.2-0.2-0.3-0.3-0.5
			C245.8,372.8,244.4,373.6,242.9,374.3C242.9,374.3,242.9,374.3,242.9,374.3z"/>
		<path class="st30" d="M247.6,388.1c-1.4,0-2.4,1.1-2.4,2.4c0,0.7,0.3,1.3,0.7,1.7c1.4-0.8,2.7-1.6,4-2.4
			C249.7,388.8,248.7,388.1,247.6,388.1z"/>
		<path class="st30" d="M222.6,385.7c1.4,0,2.4-1.1,2.4-2.4c0-0.4-0.1-0.8-0.3-1.1c-1.6,0.6-3.1,1.2-4.5,1.7
			C220.5,384.9,221.4,385.7,222.6,385.7z"/>
		<ellipse class="st30" cx="236.5" cy="387.2" rx="2.4" ry="2.4"/>
	</g>
	
		<linearGradient id="SVGID_8_" gradientUnits="userSpaceOnUse" x1="191.0006" y1="-997.5546" x2="178.8584" y2="-1074.4557" gradientTransform="matrix(1 0 0 1 0 1388)">
		<stop  offset="0" style="stop-color:#454492"/>
		<stop  offset="1" style="stop-color:#2F3276"/>
	</linearGradient>
	<path class="st31" d="M207.4,323.8c-0.1-0.2-0.2-0.3-0.3-0.3c-2.4-4.6-7.4-7.5-12.7-7.3c-1.1-0.1-2.1,0-2.7,0c-0.1,0-0.2,0-0.3,0
		c-8.3,0.4-14.9,6.2-18.5,13.4c-3.9,7.7-4.7,16.4-6.6,24.7c-2.5,5-5.9,9.7-6.2,15.4c-0.1,2.5,0.4,5.1,1.9,7.1c2.1,2.8,5.8,4.3,7,7.6
		c-0.7,2.8-1.9,5.5-0.8,8.6s3.8,5.5,7,6.2c3,0.6,6.7,0.7,9.9-0.2c3.3,1,7-0.1,9.2-3.4c4.8-7.5-1.3-16.4,0-24.5
		c1.9-3.3,3.9-5.5,3.1-9.6c-0.4-2.4-1.5-4.7-1.4-7.2c0-0.5,0.1-1,0.2-1.4c2.8-4,7.9-7,10.6-10.6C211.5,336.5,209.8,330,207.4,323.8z
		 M167.5,380.2c-3.1-2.8-6.1-4.9-6.2-9.6c-0.1-4.1,1.7-7.9,3.7-11.5c-1.2,3.8-2.6,7.8-1.6,11.8c0.4,1.7,1.2,3.2,2.4,4.5
		c1.5,1.8,3.7,3.3,3.7,5.8c0,0.4,0,0.8,0,1.2C168.9,381.6,168.2,380.9,167.5,380.2z M195,387.1c0.3,3.3-0.3,7-2.9,9.4
		c-1.4,1.3-3.1,1.7-4.7,1.7c0.6-0.3,1.2-0.6,1.7-1c1.8-1.4,3.7-3.3,4.6-5.5c2.5-4.5-0.3-10.1-0.5-15.2
		C193.6,380,194.7,383.4,195,387.1z M200.9,346.6c-1.2,1-2.4,2.1-3.5,3.3c0.4-0.9,0.9-1.7,1.4-2.5c3.4-5.3,8.8-10,9.6-16.3
		c0.4,2.1,0.5,4.3-0.2,6.5C207.1,341.4,203.8,344.1,200.9,346.6z"/>
	
		<linearGradient id="SVGID_9_" gradientUnits="userSpaceOnUse" x1="205.2644" y1="-828.1404" x2="177.1552" y2="-926.2938" gradientTransform="matrix(1 0 0 1 0 1388)">
		<stop  offset="0" style="stop-color:#7BCDD5"/>
		<stop  offset="1" style="stop-color:#4DC4D3"/>
	</linearGradient>
	<path class="st32" d="M227.7,495.9c-4.4-14.1-6.2-30.5-5.8-41.2c-11.9,3.1-24.5,2.1-32.9,0.6c0.3,6.9-2.4,10.1-5.8,17.1
		c-0.9,1.2-12,15.9-12.9,38.2l0,0c0,0,0,0.1,0,0.2c0,0.8,0,1.6,0,2.4c0,0.1,0,0.1,0,0.2c0,4.8,0,14.7,1.2,25.6
		c1.6,15-10,31.3-10,31.3s5.3,5.8,21.3,9.5c0,0,0,0,0.1,0c6.9,1.7,14.1,2.5,21.3,2.7c0,0,3.6,0.8,15.3-0.2
		c11.3-0.7,21.2-2.2,27.4-3.4C241.3,552.4,231.4,507.9,227.7,495.9z"/>
	<g>
		<path class="st33" d="M187.1,512.1c0-4.8,0.1-9.6,0.7-14.4c0.6-4.9,1.9-9.6,3.4-14.3c3-8.7,6.7-17.8,5.4-27.1c-0.2,0-0.4,0-0.6,0
			c1.3,8.8-2.1,17.5-4.9,25.7c-1.6,4.6-3,9.2-3.7,14c-0.7,4.7-1,9.4-1,14.1c0,9.8,0.8,19.5,0.4,29.3c-0.4,9.6-2.2,19.1-5.2,28.1
			c-1.3,3.8-2.9,7.3-4.4,11c0.2,0,0.4,0.1,0.6,0.2c1.4-3.5,3-6.9,4.2-10.4c3-8.6,4.8-17.7,5.3-26.8
			C188.1,531.6,187.2,521.9,187.1,512.1z"/>
		<path class="st33" d="M204.6,486.3c-0.3-9.9,0.2-19.9,2.3-29.6c-0.2,0-0.4,0-0.6,0c-3.9,17.7-2.4,36,0,53.9
			c2.4,19.1,5.6,38.1,4.1,57.4c-0.3,4.9-0.8,10-0.5,15c0.2,0,0.4,0,0.6,0c-0.3-4.5,0-9,0.4-13.4c0.7-9.2,0.6-18.3-0.2-27.4
			C209.1,523.6,205.3,505.1,204.6,486.3z"/>
		<path class="st33" d="M225.5,565.2c-0.3-8.8-1.5-17.5-3.2-26.1c-3.5-17.9-8.8-35.5-10.9-53.7c-1.1-9.6-1.2-19.3,0.3-28.8
			c-0.2,0-0.4,0-0.6,0c-5.7,36.3,12.1,71.1,13.7,107.1c0.3,6.1,0.3,12.5,2.1,18.3c0.2,0,0.4,0,0.6,0
			C226,576.5,225.8,570.7,225.5,565.2z"/>
		<path class="st33" d="M169.2,575.4c3-6.5,5.8-13.2,7.8-20.2c1.1-4.1,2-8.3,2.3-12.6c0.3-4.7,0-9.3-0.3-14
			c-0.7-9.2-1.7-18.2,0.5-27.3c1.9-7.7,5.2-15,8.1-22.4c2.9-7.4,5.3-15,5.3-23c-0.2,0-0.4,0-0.6-0.1c0.1,15.2-8.7,28.6-12.8,42.9
			c-2.4,8.3-2.3,16.6-1.6,25.2c0.8,9.3,1.4,18.2-0.6,27.4c-1.8,8.3-5.1,16.1-8.7,23.8C168.8,575.2,169,575.3,169.2,575.4z"/>
		<path class="st33" d="M238.9,573.4c-2.1-9.6-4.2-19.3-6.3-29c-4.2-19.2-8.7-38.5-12.2-57.9c-1.8-10.1-3.3-20.3-4.1-30.6
			c-0.2,0-0.4,0.1-0.6,0.1c1.5,18.9,5.2,37.5,9.2,55.9c4.3,19.9,8.7,39.7,13,59.6c0.6,2.9,1.3,5.8,2.1,8.8c0.2,0,0.4,0,0.6-0.1
			C239.9,578,239.3,575.7,238.9,573.4z"/>
		<path class="st33" d="M193.7,562.8c1.3-4.1,2.7-8.2,3.6-12.4c0.9-4,1.3-8.1,1.4-12.3c0.2-8.9-0.8-17.8-1-26.7
			c-0.2-9,0.2-18.1,0.8-27.1c0.7-9.3,1.7-18.4,2.7-27.6c-0.2,0-0.4,0-0.6,0c-1.9,17.2-3.7,34.5-3.6,51.8c0.1,8.9,1,17.8,1.1,26.8
			c0,4.7-0.3,9.3-1.2,13.9c-0.9,4.2-2.2,8.3-3.5,12.5c-2.1,6.4-4,13.1-3.7,19.8c0.2,0,0.4,0.1,0.6,0.1
			C190.2,575.2,191.9,568.8,193.7,562.8z"/>
	</g>
	
		<linearGradient id="SVGID_10_" gradientUnits="userSpaceOnUse" x1="-7133.6646" y1="-729.5882" x2="-6994.3218" y2="-729.5882" gradientTransform="matrix(-1 0 0 1 -6424.2827 1388)">
		<stop  offset="0" style="stop-color:#FAC4C5"/>
		<stop  offset="1" style="stop-color:#F7A8B3"/>
	</linearGradient>
	<path class="st34" d="M633,608.4c0,0-7.1,18.9-13.3,32.2c-6.2,13.3-18.2,33.7-14.2,33.7c4,0,71.7-1.9,77-4
		c5.2-2.2,19.5-10.8,23.2-2.8c3.7,8,5.5,42.7,1.6,43.6c-10.6,2.5-29.4,4.6-20.1-7.8c2.7-3.6,6.2-18.2-4.3-14.8
		c-10.5,3.4-77.5,16.7-100.9,12.3c-23.4-4.3-4.8-68.3-4.8-68.3l20.1-28.8L633,608.4z"/>
	<path class="st25" d="M707.2,711.1c3.9-0.9,2.1-35.6-1.6-43.6c-3.7-8-17.9,0.6-23.2,2.8c-0.8,0.3-3.3,0.7-6.9,1v19.1
		c3.3-0.7,5.8-1.4,7.2-1.9c10.5-3.4,7,11.3,4.3,14.8C677.8,715.7,696.5,713.7,707.2,711.1z"/>
	
		<linearGradient id="SVGID_11_" gradientUnits="userSpaceOnUse" x1="641.8998" y1="-635.6044" x2="619.394" y2="-747.3018" gradientTransform="matrix(1 0 0 1 0 1388)">
		<stop  offset="0" style="stop-color:#454492"/>
		<stop  offset="1" style="stop-color:#2F3276"/>
	</linearGradient>
	<path class="st35" d="M605.5,674.3c-4,0,8-20.4,14.2-33.7c6.2-13.3,13.3-32.2,13.3-32.2l-35.9-4.6l-20.1,28.8c0,0-18.5,64,4.8,68.3
		c23.4,4.3,80.6-0.6,91.6-2.1c3.1-0.4,10.2-1.3,10.6-1.4c0-6.7-0.7-23.7-1-27.4c-0.2,0.1-0.3,0.2-0.5,0.2
		C677.2,672.5,609.5,674.3,605.5,674.3z"/>
	<path class="st26" d="M561.3,509.5c0,0,6.8,6.9,7.6,9.7c0.8,2.8-11.2,26.5-11.2,26.5s13,33,15.9,41c2.9,8-6.4,9.1-18.2,9.7
		c-11.7,0.6-44.1-2.3-51.6,5.8c-7.2,7.8,11.1,94.6,9.3,99.2c-1.8,4.6-9.3,6.8-18.9,11.4c-9.6,4.6-30.3,12.7-13.3,13.3
		c17,0.6,52.8,0.7,53.2-4.6c1-14.2-5.9-22.6-6.2-28.8c-0.3-6.2-0.3-59,4-60.6c4.3-1.5,24.4,5.6,49.1,1.9
		c24.7-3.7,47.6-11.4,51.9-25.7c4.3-14.2-10.2-60.3-18.5-73c-8.3-12.7-40.8-36.2-40.8-36.2L561.3,509.5z"/>
	<path class="st25" d="M480.9,726.2c17,0.6,52.8,0.7,53.2-4.6c1-14.2-5.9-22.6-6.2-28.8c0,0,0-0.1,0-0.2c-5,0.2-10.6,0.4-15.4,0.6
		c0.6,4.5,0.8,7.5,0.5,8.2c-1.9,4.6-9.3,6.8-18.9,11.4C484.6,717.5,463.9,725.6,480.9,726.2z"/>
	<path class="st26" d="M580.7,517.2c0,0-8.2-2.8-17.5,5.5c-9.3,8.2-27.4,32.8-32.6,34.2c-5.1,1.4-42.9-8.9-47.6-14
		c-4.8-5.1-7.6-9.3-11.5-9.5c-3.9-0.2-11.1,11.3-4.1,15.5c7,4.1,10.3,3.9,24.7,12.3c7.3,4.3,40.8,20.2,45.9,18.3
		c11.4-4.3,31-26.2,31-26.2l12.9-36.6"/>
	<path class="st26" d="M559.3,464c0,0-16.4,1.7-16.6,20.2c0,1.1,0,2.1,0,3.1c-0.7,2.8-2.8,11.3-2.1,11.8c0.7,0.5,3,0.4,3.7,0.4
		c2.2,8.5,5.9,13,8.2,13.4c3.4,0.5,26.8-4.7,28-23.7C581.8,470.2,574.8,462.1,559.3,464z"/>
	
		<linearGradient id="SVGID_12_" gradientUnits="userSpaceOnUse" x1="-7006.1514" y1="-900.0931" x2="-6962.2793" y2="-900.0931" gradientTransform="matrix(-1 0 0 1 -6424.2827 1388)">
		<stop  offset="0" style="stop-color:#454492"/>
		<stop  offset="1" style="stop-color:#2F3276"/>
	</linearGradient>
	<path class="st36" d="M565,463c-5.2-1.3-7.9-1-13.2,0.2c-1.4,0.3-2.7,0.8-4,1.4c-0.7,0.3-1.5,0.4-2.2,0.2l0,0
		c-2.2-0.7-4.5-1.3-6.5,0.7c-2.2,2.2-1.2,7.1,1.3,9c0.2,0.1,0.4,0.3,0.5,0.5c1.9,2.6,2.7,1.1,5.6,0.9c2.3-0.1,4.3,0,6.2,1.4
		c1.8,1.4,3.3,3.2,4.6,4.9c2.9,3.8,4.4,8.5,1.6,12.7c-1.3,1.9-3.2,3.2-5.4,3.8c-2.2,0.6-4.4-0.1-6.6,0.2c-1.6,0.2-2.8,0.2-2.8,1.9
		c0,2.1,0.6,3.1,1.7,4.6c1.4,2.1,2.5,4.2,4.1,6.2c1,1.4,1.4,1.7,3.2,2c2.1,0.3,4-0.2,5.6-1.4c1.9-1.4,3.1-1.7,4.8-3.4
		c2.9-2.9,5.1-6.5,5.6-10.6c0.3-2.6,0-5.2,0-7.9c0-0.9,0-2.2,0.7-2.7c1.1-0.8,2.4,0.6,2.9,1.5c2.3,3.8,1.6,9.3,6.2,11.5
		c0.9,0.4,2.2-0.2,1.9-1.4c-1.7-5.4,1.3-10.7,1-16c-0.3-5.1-1.4-10.9-5.1-14.4C573.1,465.1,569.9,464.2,565,463z"/>
	
		<linearGradient id="SVGID_13_" gradientUnits="userSpaceOnUse" x1="499.4834" y1="-743.9" x2="633.5267" y2="-743.9" gradientTransform="matrix(1 0 0 1 0 1388)">
		<stop  offset="0" style="stop-color:#454492"/>
		<stop  offset="1" style="stop-color:#2F3276"/>
	</linearGradient>
	<path class="st37" d="M633,608.4c0.2-0.8,0.4-1.6,0.5-2.6c-11.8-3.6-43.6-13.4-59.9-18.7c2.4,7.7-6.7,8.7-18.3,9.3
		c-11.7,0.6-44.1-5.8-53.8,6.1c-7.2,8.9,6.3,68.1,5.5,98.4c6.4-0.3,22.9-2.3,26-3.2c-0.4-2-0.6-4.1-0.7-5.8
		c-0.3-6.2-4.9-58.2-0.6-59.8c4.3-1.5,24.4,5.6,49.1,1.9C605.8,630.4,628.7,622.7,633,608.4z"/>
	
		<linearGradient id="SVGID_14_" gradientUnits="userSpaceOnUse" x1="571.0235" y1="-799.463" x2="626.6411" y2="-851.4285" gradientTransform="matrix(1 0 0 1 0 1388)">
		<stop  offset="0" style="stop-color:#7BCDD5"/>
		<stop  offset="1" style="stop-color:#4DC4D3"/>
	</linearGradient>
	<path class="st38" d="M614.5,535.5c-4.9-7.5-18.2-18.7-28.3-26.7l0,0c3.6-5.1-4.8-10-8.4-4.9c-3.1,4.5-7.7,7.4-12.9,8.7
		c-6.1,1.6-3.5,11,2.6,9.4c0.3-0.1,0.7-0.2,1-0.3c-2.1,6.8-10.8,24-10.8,24s13,33,15.9,41c1.3,3.7,0.1,5.8-2.7,7.2
		c13,15.7,44.2,20.6,59.3,21.9c1.4-2.2,2.1-4.9,2.9-7.5C637.3,594.2,622.8,548.2,614.5,535.5z"/>
	
		<linearGradient id="SVGID_15_" gradientUnits="userSpaceOnUse" x1="517.0955" y1="-822.296" x2="606.4067" y2="-901.8231" gradientTransform="matrix(1 0 0 1 0 1388)">
		<stop  offset="0" style="stop-color:#7BCDD5"/>
		<stop  offset="1" style="stop-color:#4DC4D3"/>
	</linearGradient>
	<path class="st39" d="M580.7,517.2c0,0-8.2-2.8-17.5,5.5c-9.3,8.2-27.4,32.8-32.6,34.2c-3.5,1-21.8-3.4-34.7-7.9
		c-0.6,3.4-5.1,12.8-7.9,15.9c0.3,0.2,4.2,2.5,4.6,2.7c7.3,4.3,40.4,13.9,45.4,12c11.4-4.3,31-26.2,31-26.2l12.9-36.6L580.7,517.2z"
		/>
</g>
</svg>
