<?xml version="1.0" encoding="utf-8"?>
<!-- Generator: Adobe Illustrator 23.0.3, SVG Export Plug-In . SVG Version: 6.00 Build 0)  -->
<svg version="1.1" id="Layer_1" xmlns="http://www.w3.org/2000/svg" xmlns:xlink="http://www.w3.org/1999/xlink" x="0px" y="0px"
	 viewBox="0 0 720 720" style="enable-background:new 0 0 720 720;" xml:space="preserve">
<style type="text/css">
	.st0{fill:#21536E;}
	.st1{fill:none;stroke:#608A9A;stroke-width:48.2843;stroke-linecap:round;stroke-miterlimit:10;}
	.st2{fill:#103952;}
	.st3{fill:none;stroke:#0E3852;stroke-width:33.2505;stroke-linecap:round;stroke-miterlimit:10;}
</style>
<g>
	<circle class="st0" cx="359" cy="359.7" r="206.1"/>
	<path class="st1" d="M223,355.1c0-8.8,0.8-60.2,42.8-99.8c45-42.5,101.3-37.3,109.3-36.4"/>
	<path class="st2" d="M312.8,511.5h92.5v159.9c0,9.1-7.4,16.5-16.5,16.5h-59.5c-9.1,0-16.5-7.4-16.5-16.5V511.5z"/>
	<rect x="279.6" y="500.8" class="st0" width="158.9" height="97.8"/>
	<path class="st2" d="M279.6,576.5v60c0,10.2,9.4,18.5,21,18.5h116.9c11.6,0,21-8.3,21-18.5v-60H279.6z"/>
	<line class="st3" x1="359" y1="107.6" x2="359" y2="32.7"/>
	<line class="st3" x1="162.1" y1="143" x2="109.2" y2="90"/>
	<line class="st3" x1="563.6" y1="143" x2="616.5" y2="90"/>
	<line class="st3" x1="162.1" y1="566.6" x2="109.2" y2="619.5"/>
	<line class="st3" x1="563.6" y1="566.6" x2="616.5" y2="619.5"/>
	<line class="st3" x1="98.5" y1="359.7" x2="23.6" y2="359.7"/>
	<line class="st3" x1="697" y1="359.7" x2="622.1" y2="359.7"/>
</g>
</svg>
