<?xml version="1.0" encoding="utf-8"?>
<!-- Generator: Adobe Illustrator 23.0.3, SVG Export Plug-In . SVG Version: 6.00 Build 0)  -->
<svg version="1.1" id="Layer_1" xmlns="http://www.w3.org/2000/svg" xmlns:xlink="http://www.w3.org/1999/xlink" x="0px" y="0px"
	 viewBox="0 0 336 235.2" style="enable-background:new 0 0 336 235.2;" xml:space="preserve">
<style type="text/css">
	.st0{fill:#F9DC4D;}
	.st1{clip-path:url(#SVGID_3_);}
	.st2{clip-path:url(#SVGID_4_);fill:url(#shadow_24_);}
	.st3{fill:url(#shadow_25_);}
	.st4{fill:#368172;}
	.st5{fill:#68C4A5;}
	.st6{fill:#414042;}
	.st7{fill:#F8F2BD;}
	.st8{clip-path:url(#SVGID_7_);}
	.st9{clip-path:url(#SVGID_8_);fill:url(#shadow_26_);}
	.st10{fill:url(#shadow_27_);}
	.st11{fill:#FFFFFF;}
	.st12{fill:#BCBEC0;}
	.st13{fill:#FFD36C;}
	.st14{clip-path:url(#SVGID_11_);}
	.st15{clip-path:url(#SVGID_12_);fill:url(#shadow_28_);}
	.st16{fill:url(#shadow_29_);}
	.st17{clip-path:url(#SVGID_15_);}
	.st18{clip-path:url(#SVGID_16_);fill:url(#shadow_30_);}
	.st19{fill:url(#shadow_31_);}
	.st20{fill:#E6E7E8;}
	.st21{fill:#65C6BC;}
	.st22{fill:#F8962A;}
	.st23{clip-path:url(#SVGID_19_);}
	.st24{clip-path:url(#SVGID_20_);fill:url(#shadow_32_);}
	.st25{fill:url(#shadow_33_);}
	.st26{clip-path:url(#SVGID_23_);}
	.st27{clip-path:url(#SVGID_24_);fill:url(#SVGID_25_);}
	.st28{fill:url(#SVGID_26_);}
	.st29{clip-path:url(#SVGID_29_);}
	.st30{clip-path:url(#SVGID_30_);fill:url(#SVGID_31_);}
	.st31{fill:url(#SVGID_32_);}
	.st32{clip-path:url(#SVGID_35_);}
	.st33{clip-path:url(#SVGID_36_);fill:url(#shadow_34_);}
	.st34{fill:url(#shadow_35_);}
	.st35{clip-path:url(#SVGID_39_);}
	.st36{clip-path:url(#SVGID_40_);fill:url(#shadow_36_);}
	.st37{fill:url(#shadow_37_);}
	.st38{fill:#C0E0BA;}
	.st39{clip-path:url(#SVGID_43_);}
	.st40{clip-path:url(#SVGID_44_);fill:url(#shadow_38_);}
	.st41{fill:url(#shadow_39_);}
	.st42{clip-path:url(#SVGID_47_);}
	.st43{clip-path:url(#SVGID_48_);fill:url(#shadow_40_);}
	.st44{fill:url(#shadow_41_);}
	.st45{fill:#F1F2F2;}
	.st46{clip-path:url(#SVGID_51_);}
	.st47{clip-path:url(#SVGID_52_);fill:url(#shadow_42_);}
	.st48{fill:url(#shadow_43_);}
	.st49{clip-path:url(#SVGID_55_);}
	.st50{clip-path:url(#SVGID_56_);fill-rule:evenodd;clip-rule:evenodd;fill:url(#shadow_44_);}
	.st51{fill-rule:evenodd;clip-rule:evenodd;fill:url(#shadow_45_);}
	.st52{opacity:0.5;fill-rule:evenodd;clip-rule:evenodd;fill:#FFFFFF;enable-background:new    ;}
	.st53{fill-rule:evenodd;clip-rule:evenodd;fill:#414042;}
	.st54{clip-path:url(#SVGID_59_);}
	.st55{clip-path:url(#SVGID_60_);fill:url(#shadow_46_);}
	.st56{fill:url(#shadow_47_);}
</style>
<rect class="st0" width="336" height="235.2"/>
<g id="items_1_">
	<g id="pencil">
		<g>
			<g>
				<defs>
					<polygon id="SVGID_1_" points="1,1 2,1 1,2 					"/>
				</defs>
				<defs>
					<polygon id="SVGID_2_" points="-1,-1 -2,-1 -1,-2 					"/>
				</defs>
				<clipPath id="SVGID_3_">
					<use xlink:href="#SVGID_1_"  style="overflow:visible;"/>
				</clipPath>
				<clipPath id="SVGID_4_" class="st1">
					<use xlink:href="#SVGID_2_"  style="overflow:visible;"/>
				</clipPath>
				
					<linearGradient id="shadow_24_" gradientUnits="userSpaceOnUse" x1="185.6" y1="36" x2="131.6" y2="36" gradientTransform="matrix(1 0 0 -1 0 238)">
					<stop  offset="0" style="stop-color:#1A1A1A"/>
					<stop  offset="0.9993" style="stop-color:#808080"/>
				</linearGradient>
				<polygon id="shadow_23_" class="st2" points="183.3,176.3 176.3,180.5 131.6,225.2 133.5,227.1 135.3,229 180,184.3 
					184.2,177.3 185.6,175 				"/>
			</g>
		</g>
		
			<linearGradient id="shadow_25_" gradientUnits="userSpaceOnUse" x1="185.6" y1="36" x2="131.6" y2="36" gradientTransform="matrix(1 0 0 -1 0 238)">
			<stop  offset="0" style="stop-color:#231F20"/>
			<stop  offset="0.9993" style="stop-color:#231F20"/>
		</linearGradient>
		<polygon id="shadow_11_" class="st3" points="183.3,176.3 176.3,180.5 131.6,225.2 133.5,227.1 135.3,229 180,184.3 184.2,177.3 
			185.6,175 		"/>
		<g id="pencil_1_">
			<polygon class="st4" points="178.2,178.2 135.3,221 133.5,222.8 135.3,224.7 180,180 			"/>
			<polygon class="st5" points="178.2,178.2 176.3,176.3 131.6,221 133.5,222.8 135.3,221 			"/>
			<polygon class="st6" points="185.6,170.7 183.3,172.1 184.2,173 			"/>
			<polygon class="st7" points="183.3,172.1 176.3,176.3 180,180 184.2,173 			"/>
			<g>
				
					<rect x="132.7" y="218.3" transform="matrix(0.7074 -0.7068 0.7068 0.7074 -116.5789 160.3341)" class="st7" width="5.3" height="5.3"/>
			</g>
		</g>
	</g>
	<g id="ruler">
		<g>
			<g>
				<defs>
					<polygon id="SVGID_5_" points="1,1 2,1 1,2 					"/>
				</defs>
				<defs>
					<polygon id="SVGID_6_" points="-1,-1 -2,-1 -1,-2 					"/>
				</defs>
				<clipPath id="SVGID_7_">
					<use xlink:href="#SVGID_5_"  style="overflow:visible;"/>
				</clipPath>
				<clipPath id="SVGID_8_" class="st8">
					<use xlink:href="#SVGID_6_"  style="overflow:visible;"/>
				</clipPath>
				
					<linearGradient id="shadow_26_" gradientUnits="userSpaceOnUse" x1="327.6" y1="173.85" x2="223.3" y2="173.85" gradientTransform="matrix(1 0 0 -1 0 238)">
					<stop  offset="0" style="stop-color:#1A1A1A"/>
					<stop  offset="0.9993" style="stop-color:#808080"/>
				</linearGradient>
				<polygon id="shadow_22_" class="st9" points="327.6,101.8 324,98.5 324,98.5 322.6,97.2 322.6,97.2 314.9,89.9 314.5,89.6 
					314.5,89.6 302.2,78.1 302.1,78 302.1,78 296.8,73.1 296.1,72.4 296.1,72.4 293.3,69.8 293.3,69.8 292.9,69.5 284.8,61.8 
					284.8,61.8 283.4,60.5 283.4,60.5 268.2,46.4 268.2,46.4 267.4,45.7 255.6,34.6 255.6,34.6 255,34.1 251.5,30.8 250.1,29.5 
					250.1,29.5 247.3,26.9 247.3,26.9 245.9,25.6 245.9,25.6 243.3,23.1 243.3,23.1 242.1,22.1 239.1,19.2 239.1,19.2 238.2,18.4 
					234.3,14.7 223.3,26.6 316.5,113.6 316.5,113.6 316.5,113.6 				"/>
			</g>
		</g>
		
			<linearGradient id="shadow_27_" gradientUnits="userSpaceOnUse" x1="327.6" y1="173.85" x2="223.3" y2="173.85" gradientTransform="matrix(1 0 0 -1 0 238)">
			<stop  offset="0" style="stop-color:#231F20"/>
			<stop  offset="0.9993" style="stop-color:#231F20"/>
		</linearGradient>
		<polygon id="shadow_10_" class="st10" points="327.6,101.8 324,98.5 324,98.5 322.6,97.2 322.6,97.2 314.9,89.9 314.5,89.6 
			314.5,89.6 302.2,78.1 302.1,78 302.1,78 296.8,73.1 296.1,72.4 296.1,72.4 293.3,69.8 293.3,69.8 292.9,69.5 284.8,61.8 
			284.8,61.8 283.4,60.5 283.4,60.5 268.2,46.4 268.2,46.4 267.4,45.7 255.6,34.6 255.6,34.6 255,34.1 251.5,30.8 250.1,29.5 
			250.1,29.5 247.3,26.9 247.3,26.9 245.9,25.6 245.9,25.6 243.3,23.1 243.3,23.1 242.1,22.1 239.1,19.2 239.1,19.2 238.2,18.4 
			234.3,14.7 223.3,26.6 316.5,113.6 316.5,113.6 316.5,113.6 		"/>
		<g id="ruler_1_">
			
				<rect x="267.3" y="-5.9" transform="matrix(0.682 -0.7313 0.7313 0.682 45.2104 219.8041)" class="st11" width="16.2" height="127.6"/>
			<g>
				<g>
					
						<rect x="231.3" y="14.5" transform="matrix(0.6825 -0.7309 0.7309 0.6825 63.4979 177.0571)" class="st12" width="8.4" height="1.9"/>
				</g>
				<g>
					
						<rect x="247.8" y="29.8" transform="matrix(0.6819 -0.7315 0.7315 0.6819 57.6725 194.0998)" class="st12" width="8.4" height="1.9"/>
				</g>
				<g>
					
						<rect x="256.2" y="37.7" transform="matrix(0.6822 -0.7312 0.7312 0.6822 54.4851 202.6932)" class="st12" width="8.4" height="1.9"/>
				</g>
				<g>
					
						<rect x="264.8" y="45.7" transform="matrix(0.6824 -0.731 0.731 0.6824 51.3187 211.4631)" class="st12" width="8.4" height="1.9"/>
				</g>
				<g>
					
						<rect x="272.8" y="53.7" transform="matrix(0.682 -0.7314 0.7314 0.682 48.2382 220.1453)" class="st12" width="8.9" height="1.9"/>
				</g>
				<g>
					
						<rect x="280.6" y="61" transform="matrix(0.6825 -0.7309 0.7309 0.6825 45.2061 228.0147)" class="st12" width="8.9" height="1.9"/>
				</g>
				<g>
					
						<rect x="289.3" y="69.1" transform="matrix(0.6822 -0.7312 0.7312 0.6822 42.1125 237.0397)" class="st12" width="8.9" height="1.9"/>
				</g>
				<g>
					
						<rect x="239.5" y="22.1" transform="matrix(0.6819 -0.7314 0.7314 0.6819 60.6159 185.5836)" class="st12" width="8.4" height="1.9"/>
				</g>
				<g>
					
						<rect x="239" y="16.8" transform="matrix(0.6819 -0.7315 0.7315 0.6819 63.6947 182.0138)" class="st12" width="4.2" height="1.9"/>
				</g>
				<g>
					
						<rect x="247.3" y="24.5" transform="matrix(0.6818 -0.7315 0.7315 0.6818 60.7283 190.5217)" class="st12" width="4.2" height="1.9"/>
				</g>
				<g>
					<polygon class="st12" points="256.7,35.2 259.6,32.1 258.2,30.8 255.3,33.9 					"/>
				</g>
				<g>
					
						<rect x="264" y="40.1" transform="matrix(0.6822 -0.7312 0.7312 0.6822 54.5218 207.5873)" class="st12" width="4.2" height="1.9"/>
				</g>
				<g>
					
						<rect x="272.2" y="47.7" transform="matrix(0.6824 -0.731 0.731 0.6824 51.5462 215.9385)" class="st12" width="4.2" height="1.9"/>
				</g>
				<g>
					
						<rect x="280.5" y="55.5" transform="matrix(0.6824 -0.731 0.731 0.6824 48.4612 224.5188)" class="st12" width="4.2" height="1.9"/>
				</g>
				<g>
					
						<rect x="289.1" y="63.5" transform="matrix(0.6822 -0.7312 0.7312 0.6822 45.4048 233.3971)" class="st12" width="4.2" height="1.9"/>
				</g>
			</g>
			<g>
				<g>
					
						<rect x="295.7" y="74.5" transform="matrix(0.6823 -0.731 0.731 0.6823 40.076 243.1857)" class="st12" width="8.4" height="1.9"/>
				</g>
				<g>
					
						<rect x="312.2" y="89.9" transform="matrix(0.6821 -0.7313 0.7313 0.6821 34.16 260.2458)" class="st12" width="8.4" height="1.9"/>
				</g>
				<g>
					
						<rect x="303.9" y="82.2" transform="matrix(0.682 -0.7313 0.7313 0.682 37.124 251.7629)" class="st12" width="8.4" height="1.9"/>
				</g>
				<g>
					
						<rect x="303.4" y="76.9" transform="matrix(0.6825 -0.7309 0.7309 0.6825 40.0775 248.0212)" class="st12" width="4.2" height="1.9"/>
				</g>
				<g>
					
						<rect x="311.7" y="84.6" transform="matrix(0.6822 -0.7312 0.7312 0.6822 37.1855 256.6324)" class="st12" width="4.2" height="1.9"/>
				</g>
				<g>
					
						<rect x="319.8" y="92.2" transform="matrix(0.6816 -0.7317 0.7317 0.6816 34.354 265.203)" class="st12" width="4.2" height="1.9"/>
				</g>
			</g>
			
				<rect x="269.6" y="-0.5" transform="matrix(0.6824 -0.731 0.731 0.6824 39.605 217.729)" class="st13" width="1.5" height="127.5"/>
		</g>
	</g>
	<g id="post_it_4_">
		<g>
			<g>
				<defs>
					<polygon id="SVGID_9_" points="1,1 2,1 1,2 					"/>
				</defs>
				<defs>
					<polygon id="SVGID_10_" points="-1,-1 -2,-1 -1,-2 					"/>
				</defs>
				<clipPath id="SVGID_11_">
					<use xlink:href="#SVGID_9_"  style="overflow:visible;"/>
				</clipPath>
				<clipPath id="SVGID_12_" class="st14">
					<use xlink:href="#SVGID_10_"  style="overflow:visible;"/>
				</clipPath>
				
					<linearGradient id="shadow_28_" gradientUnits="userSpaceOnUse" x1="193.0527" y1="202.35" x2="151.9527" y2="202.35" gradientTransform="matrix(1 0 0 -1 0 238)">
					<stop  offset="0" style="stop-color:#1A1A1A"/>
					<stop  offset="0.9993" style="stop-color:#808080"/>
				</linearGradient>
				<rect id="shadow_21_" x="151.9" y="15.1" class="st15" width="41.1" height="41.1"/>
			</g>
		</g>
		
			<linearGradient id="shadow_29_" gradientUnits="userSpaceOnUse" x1="193.0527" y1="202.35" x2="151.9527" y2="202.35" gradientTransform="matrix(1 0 0 -1 0 238)">
			<stop  offset="0" style="stop-color:#231F20"/>
			<stop  offset="0.9993" style="stop-color:#231F20"/>
		</linearGradient>
		<rect id="shadow_8_" x="151.9" y="15.1" class="st16" width="41.1" height="41.1"/>
		<rect id="post_it_5_" x="151.9" y="10.6" class="st12" width="41.1" height="41.1"/>
	</g>
	<g id="diagram_paper">
		<g>
			<g>
				<defs>
					<polygon id="SVGID_13_" points="1,1 2,1 1,2 					"/>
				</defs>
				<defs>
					<polygon id="SVGID_14_" points="-1,-1 -2,-1 -1,-2 					"/>
				</defs>
				<clipPath id="SVGID_15_">
					<use xlink:href="#SVGID_13_"  style="overflow:visible;"/>
				</clipPath>
				<clipPath id="SVGID_16_" class="st17">
					<use xlink:href="#SVGID_14_"  style="overflow:visible;"/>
				</clipPath>
				
					<linearGradient id="shadow_30_" gradientUnits="userSpaceOnUse" x1="180.4" y1="89.05" x2="0.2" y2="89.05" gradientTransform="matrix(1 0 0 -1 0 238)">
					<stop  offset="0" style="stop-color:#1A1A1A"/>
					<stop  offset="0.9993" style="stop-color:#808080"/>
				</linearGradient>
				<polygon id="shadow_20_" class="st18" points="113.7,234.9 180.4,168.2 75.1,63 0.2,137.9 97.2,234.9 				"/>
			</g>
		</g>
		
			<linearGradient id="shadow_31_" gradientUnits="userSpaceOnUse" x1="180.4" y1="89.05" x2="0.2" y2="89.05" gradientTransform="matrix(1 0 0 -1 0 238)">
			<stop  offset="0" style="stop-color:#231F20"/>
			<stop  offset="0.9993" style="stop-color:#231F20"/>
		</linearGradient>
		<polygon id="shadow_7_" class="st19" points="113.7,234.9 180.4,168.2 75.1,63 0.2,137.9 97.2,234.9 		"/>
		<g>
			
				<rect x="37.3" y="70.1" transform="matrix(0.7071 -0.7071 0.7071 0.7071 -75.785 106.1705)" class="st20" width="105.9" height="148.9"/>
			<g id="graph">
				<path class="st6" d="M81,113c-4.9,4.9-12.8,4.9-17.6,0c-4.9-4.9-4.9-12.7,0-17.6s12.8-4.9,17.6,0C85.9,100.3,85.9,108.2,81,113z
					"/>
				<g>
					<path class="st21" d="M80.6,95.1c-5-5-13.2-5-18.2,0s-5,13.2,0,18.3c5,5,13.2,5,18.3,0l-9.2-9.2L80.6,95.1z"/>
				</g>
			</g>
			<g id="graph_1_">
				<path class="st6" d="M109,141.8c-4.9,4.9-12.8,4.9-17.6,0c-4.9-4.9-4.9-12.8,0-17.6c4.9-4.9,12.8-4.9,17.6,0
					C113.9,129,113.9,136.9,109,141.8z"/>
				<g>
					<path class="st22" d="M109.1,124.1l-8.9,8.9H87.6c0,3.2,1.2,6.4,3.7,8.9c4.9,4.9,12.9,4.9,17.8,0
						C114.1,137,114.1,129,109.1,124.1z"/>
				</g>
			</g>
			<g id="graph_2_">
				<path class="st6" d="M139,171.8c-4.9,4.9-12.8,4.9-17.6,0c-4.9-4.9-4.9-12.8,0-17.6c4.9-4.9,12.8-4.9,17.6,0
					C143.9,159.1,143.9,167,139,171.8z"/>
				<g>
					<path class="st4" d="M139,154.2l-8.8,8.8v-12.5c-3.2,0-6.4,1.2-8.8,3.7c-4.9,4.9-4.9,12.8,0,17.6c4.9,4.9,12.8,4.9,17.6,0
						C143.9,166.9,143.9,159,139,154.2z"/>
				</g>
			</g>
			<g>
				
					<rect x="55.9" y="106.2" transform="matrix(0.7071 -0.7071 0.7071 0.7071 -68.1659 75.466)" class="st12" width="2.2" height="27.7"/>
				
					<rect x="51.8" y="114.7" transform="matrix(0.7071 -0.7071 0.7071 0.7071 -72.2496 73.714)" class="st12" width="2.2" height="18.8"/>
			</g>
			<g>
				
					<rect x="114.9" y="165.2" transform="matrix(0.7071 -0.7071 0.7071 0.7071 -92.595 134.4655)" class="st12" width="2.2" height="27.7"/>
				
					<rect x="110.7" y="173.7" transform="matrix(0.7071 -0.7071 0.7071 0.7071 -96.7571 132.6851)" class="st12" width="2.2" height="18.8"/>
			</g>
			<g>
				
					<rect x="73.4" y="106.3" transform="matrix(0.7071 -0.7071 0.7071 0.7071 -94.2907 100.6588)" class="st12" width="1.9" height="115.7"/>
				
					<rect x="65.6" y="114.1" transform="matrix(0.7071 -0.7071 0.7071 0.7071 -102.0904 97.4041)" class="st12" width="1.9" height="115.7"/>
				
					<rect x="69.4" y="110.3" transform="matrix(0.7071 -0.7071 0.7071 0.7071 -98.2907 98.9853)" class="st12" width="1.9" height="115.7"/>
			</g>
		</g>
	</g>
	<g>
		<g>
			<defs>
				<polygon id="SVGID_17_" points="1,1 2,1 1,2 				"/>
			</defs>
			<defs>
				<polygon id="SVGID_18_" points="-1,-1 -2,-1 -1,-2 				"/>
			</defs>
			<clipPath id="SVGID_19_">
				<use xlink:href="#SVGID_17_"  style="overflow:visible;"/>
			</clipPath>
			<clipPath id="SVGID_20_" class="st23">
				<use xlink:href="#SVGID_18_"  style="overflow:visible;"/>
			</clipPath>
			
				<linearGradient id="shadow_32_" gradientUnits="userSpaceOnUse" x1="102.5157" y1="61.1" x2="0.3" y2="61.1" gradientTransform="matrix(1 0 0 -1 0 238)">
				<stop  offset="0" style="stop-color:#1A1A1A"/>
				<stop  offset="0.9993" style="stop-color:#808080"/>
			</linearGradient>
			<path id="shadow_19_" class="st24" d="M102.4,161.1l-1.4-15.9l-0.1,0.1c-0.3-0.7-0.9-1.4-1.6-1.8c-2.1-1.4-5-0.8-6.4,1.3
				c-0.7,1.1-0.9,2.3-0.7,3.5l0.7,11.7l-9.4,13.1c0,0-4.4,2.9-8.2,0.7l9.8-21l0,0l2.8-5.9l0,0l1.5-7.3l0,0l0.6-3.1l-6.7,8.3l0,0
				l-0.9,2c-1.8,0.1-4.1,1.1-6.1,2.6c-3.7,2.7-25.1,13.6-25.1,13.6s-6.5,3.7-8,10.9l-2.6-7L0.3,181.8v35.5l52.3-18.9l-5.3-14.3
				l3.3,8.9c5.4-1.4,9-2.4,11.7-3.2L53.8,208l0,0l-2,4.3l4.5,2.1l2-4.3l0,0l10.4-22.3c2.4-0.8,5.1-1.6,9.5-2.9
				c12.8-3.8,10.1-2.4,17.9-12.1C103.9,163.3,102.4,161.1,102.4,161.1z M71.5,168.4c0-0.1,0-0.1-0.1-0.2c0-0.2-0.1-0.3-0.1-0.5
				c0-0.1,0-0.2,0-0.3s0-0.3,0-0.4c0-0.1,0-0.2,0-0.3c0-0.2,0-0.3,0-0.5c0-0.1,0-0.1,0-0.2c0-0.2,0.1-0.4,0.1-0.7
				c0-0.1,0-0.1,0.1-0.2c0.1-0.2,0.1-0.3,0.2-0.5c0-0.1,0.1-0.2,0.1-0.3c0.1-0.1,0.1-0.3,0.2-0.4c0.1-0.1,0.1-0.2,0.2-0.3
				s0.2-0.3,0.3-0.4c0.1-0.1,0.1-0.2,0.2-0.2c0.2-0.2,0.3-0.4,0.5-0.6l0.1-0.1c0.2-0.2,0.5-0.5,0.7-0.7c0.1-0.1,0.2-0.1,0.2-0.2
				c0.2-0.2,0.4-0.3,0.6-0.5c0.1-0.1,0.2-0.2,0.3-0.3c0.2-0.2,0.4-0.3,0.7-0.5c0.1,0,0.1-0.1,0.2-0.1l-4.3,9.2
				C71.7,169,71.6,168.7,71.5,168.4z"/>
		</g>
	</g>
	
		<linearGradient id="shadow_33_" gradientUnits="userSpaceOnUse" x1="102.5157" y1="61.1" x2="0.3" y2="61.1" gradientTransform="matrix(1 0 0 -1 0 238)">
		<stop  offset="0" style="stop-color:#231F20"/>
		<stop  offset="0.9993" style="stop-color:#231F20"/>
	</linearGradient>
	<path id="shadow_9_" class="st25" d="M102.4,161.1l-1.4-15.9l-0.1,0.1c-0.3-0.7-0.9-1.4-1.6-1.8c-2.1-1.4-5-0.8-6.4,1.3
		c-0.7,1.1-0.9,2.3-0.7,3.5l0.7,11.7l-9.4,13.1c0,0-4.4,2.9-8.2,0.7l9.8-21l0,0l2.8-5.9l0,0l1.5-7.3l0,0l0.6-3.1l-6.7,8.3l0,0
		l-0.9,2c-1.8,0.1-4.1,1.1-6.1,2.6c-3.7,2.7-25.1,13.6-25.1,13.6s-6.5,3.7-8,10.9l-2.6-7L0.3,181.8v35.5l52.3-18.9l-5.3-14.3
		l3.3,8.9c5.4-1.4,9-2.4,11.7-3.2L53.8,208l0,0l-2,4.3l4.5,2.1l2-4.3l0,0l10.4-22.3c2.4-0.8,5.1-1.6,9.5-2.9
		c12.8-3.8,10.1-2.4,17.9-12.1C103.9,163.3,102.4,161.1,102.4,161.1z M71.5,168.4c0-0.1,0-0.1-0.1-0.2c0-0.2-0.1-0.3-0.1-0.5
		c0-0.1,0-0.2,0-0.3s0-0.3,0-0.4c0-0.1,0-0.2,0-0.3c0-0.2,0-0.3,0-0.5c0-0.1,0-0.1,0-0.2c0-0.2,0.1-0.4,0.1-0.7c0-0.1,0-0.1,0.1-0.2
		c0.1-0.2,0.1-0.3,0.2-0.5c0-0.1,0.1-0.2,0.1-0.3c0.1-0.1,0.1-0.3,0.2-0.4c0.1-0.1,0.1-0.2,0.2-0.3s0.2-0.3,0.3-0.4
		c0.1-0.1,0.1-0.2,0.2-0.2c0.2-0.2,0.3-0.4,0.5-0.6l0.1-0.1c0.2-0.2,0.5-0.5,0.7-0.7c0.1-0.1,0.2-0.1,0.2-0.2
		c0.2-0.2,0.4-0.3,0.6-0.5c0.1-0.1,0.2-0.2,0.3-0.3c0.2-0.2,0.4-0.3,0.7-0.5c0.1,0,0.1-0.1,0.2-0.1l-4.3,9.2
		C71.7,169,71.6,168.7,71.5,168.4z"/>
	<g id="right_hand_1_">
		<g>
			<g>
				<defs>
					<polygon id="SVGID_21_" points="1,1 2,1 1,2 					"/>
				</defs>
				<defs>
					<polygon id="SVGID_22_" points="-1,-1 -2,-1 -1,-2 					"/>
				</defs>
				<clipPath id="SVGID_23_">
					<use xlink:href="#SVGID_21_"  style="overflow:visible;"/>
				</clipPath>
				<clipPath id="SVGID_24_" class="st26">
					<use xlink:href="#SVGID_22_"  style="overflow:visible;"/>
				</clipPath>
				
					<linearGradient id="SVGID_25_" gradientUnits="userSpaceOnUse" x1="56.2641" y1="23.1804" x2="50.5737" y2="23.1804" gradientTransform="matrix(1 0 0 -1 0 238)">
					<stop  offset="0" style="stop-color:#1A1A1A"/>
					<stop  offset="0.9993" style="stop-color:#808080"/>
				</linearGradient>
				<path class="st27" d="M50.6,214.9c-0.1,0.3,0,0.6,0.3,0.7l3.5,1.6c0.3,0.1,0.6,0,0.7-0.2l1.2-2.5l-4.4-2.1L50.6,214.9z"/>
			</g>
		</g>
		
			<linearGradient id="SVGID_26_" gradientUnits="userSpaceOnUse" x1="56.2641" y1="23.1804" x2="50.5737" y2="23.1804" gradientTransform="matrix(1 0 0 -1 0 238)">
			<stop  offset="0" style="stop-color:#231F20"/>
			<stop  offset="0.9993" style="stop-color:#231F20"/>
		</linearGradient>
		<path class="st28" d="M50.6,214.9c-0.1,0.3,0,0.6,0.3,0.7l3.5,1.6c0.3,0.1,0.6,0,0.7-0.2l1.2-2.5l-4.4-2.1L50.6,214.9z"/>
		<polygon class="st5" points="0,177.6 0,213 52.3,194.2 40.5,162.4 		"/>
		<path class="st13" d="M50.3,188.8c16-4.1,15.3-4.4,27.7-8.1c12.8-3.8,10.1-2.4,17.9-12.1c7.7-9.6,6.3-11.8,6.3-11.8l-1.4-15.9
			l-0.1,0.1c-0.3-0.7-0.9-1.4-1.6-1.8c-2.1-1.4-5-0.8-6.4,1.3c-0.7,1.1-0.9,2.3-0.7,3.5l0.7,11.7l-9.4,13.1c0,0-7.3,4.7-11.1-2.5
			c-2.2-4.1-1.7-7.6,6.5-11.9c3.5-1.9,7.7-5.4,6.8-9.4c-0.8-4-5.6-2.7-9.3,0c-3.7,2.7-25.1,13.6-25.1,13.6s-6.5,3.7-8,10.9
			L50.3,188.8z"/>
		<g>
			<path class="st13" d="M54.8,212.7l1.2-2.5l-4.4-2.1l-1.2,2.5c-0.1,0.3,0,0.6,0.3,0.7l3.5,1.6C54.3,213.1,54.7,213,54.8,212.7z"/>
		</g>
		<path class="st6" d="M87.7,142.6c-0.6-0.2-1.2,0-1.5,0.5l0,0l0,0c0.2-0.6-0.1-1.3-0.8-1.6c-0.6-0.3-1.4-0.1-1.7,0.4l0,0l0,0
			c0.2-0.5-0.1-1.2-0.6-1.5l-29.7,63.4l1,0.5l2.5,1.2l1,0.5L87.7,142.6z"/>
		<path class="st11" d="M83.2,140.4c0.5,0.3,0.7,1,0.6,1.5l0,0l0,0l0,0c0.3-0.5,1.1-0.7,1.7-0.4s0.9,1,0.8,1.6l0,0l0,0l0,0
			c0.3-0.5,0.9-0.7,1.5-0.5l2.1-10.4L83.2,140.4z"/>
		<g>
			
				<rect x="52.4" y="204.5" transform="matrix(0.4278 -0.9039 0.9039 0.4278 -155.7391 167.952)" class="st21" width="4.8" height="5"/>
		</g>
		<path class="st6" d="M87.9,134.6c0.2,0.1,0.4,0.3,0.6,0.4c0.2,0.1,0.5,0.2,0.8,0.3l0.6-3.1L87.9,134.6z"/>
		<path class="st13" d="M50.3,188.8l-7.2-19.4c1.5-7.2,8-10.9,8-10.9s21.4-10.8,25.1-13.6c3.7-2.7,8.4-4.1,9.3,0
			c0.8,4-3.3,7.5-6.8,9.4c-6.7,3.6-8.3,6.6-7.4,9.9C71.3,164.2,60,167.7,50.3,188.8z"/>
	</g>
	<g>
		<g>
			<defs>
				<polygon id="SVGID_27_" points="1,1 2,1 1,2 				"/>
			</defs>
			<defs>
				<polygon id="SVGID_28_" points="-1,-1 -2,-1 -1,-2 				"/>
			</defs>
			<clipPath id="SVGID_29_">
				<use xlink:href="#SVGID_27_"  style="overflow:visible;"/>
			</clipPath>
			<clipPath id="SVGID_30_" class="st29">
				<use xlink:href="#SVGID_28_"  style="overflow:visible;"/>
			</clipPath>
			
				<linearGradient id="SVGID_31_" gradientUnits="userSpaceOnUse" x1="83.7516" y1="177.1024" x2="9.094947e-13" y2="177.1024" gradientTransform="matrix(1 0 0 -1 0 238)">
				<stop  offset="0" style="stop-color:#1A1A1A"/>
				<stop  offset="0.9993" style="stop-color:#808080"/>
			</linearGradient>
			<path class="st30" d="M82.9,99c-0.2-0.2-0.4-0.4-0.6-0.6L64.1,79.7l12.4,8.6c1.2,1.2,2.9,1.5,4.1,0.6c1.3-1,1.3-3,0.2-4.5
				c-0.2-0.3-0.5-0.6-0.8-0.8c-2.2-2.1-8.5-8.1-12-10.9c0,0-6.5-5.3-8.8-8.5c-2.3-3.2-8.3-8.3-14.3-7.9c-1.3-1.7-2.3-3-2.6-3.3
				l3.1-3.1L0,4.5v47.8l21.4,21.4l2.8-2.8l0.6,0.8c0,0-3.1,6.2,4.8,16.4c3.3,4.2,5,7.1,6.4,11.7s2.7,11.3,6.7,10.4
				c1.5-0.4,7.7-3.4-1.1-19.8c4.9,6.2,19.9,25.4,19.9,25.4l0.2,0.3c1.2,1.3,3,1.6,4.2,0.6c1-0.8,1.3-2.2,0.7-3.6L55.4,94.6l17.1,18
				l0.1,0.1c1.2,0.9,2.7,1.1,3.8,0.3c1.1-0.9,1.3-2.5,0.6-3.9l-0.4-0.6L62.3,89.2l16.1,13.5c1.2,1.5,3.2,1.9,4.4,0.9
				C84,102.6,84.1,100.5,82.9,99z"/>
		</g>
	</g>
	
		<linearGradient id="SVGID_32_" gradientUnits="userSpaceOnUse" x1="83.7516" y1="177.1024" x2="9.094947e-13" y2="177.1024" gradientTransform="matrix(1 0 0 -1 0 238)">
		<stop  offset="0" style="stop-color:#231F20"/>
		<stop  offset="0.9993" style="stop-color:#231F20"/>
	</linearGradient>
	<path class="st31" d="M82.9,99c-0.2-0.2-0.4-0.4-0.6-0.6L64.1,79.7l12.4,8.6c1.2,1.2,2.9,1.5,4.1,0.6c1.3-1,1.3-3,0.2-4.5
		c-0.2-0.3-0.5-0.6-0.8-0.8c-2.2-2.1-8.5-8.1-12-10.9c0,0-6.5-5.3-8.8-8.5c-2.3-3.2-8.3-8.3-14.3-7.9c-1.3-1.7-2.3-3-2.6-3.3
		l3.1-3.1L0,4.5v47.8l21.4,21.4l2.8-2.8l0.6,0.8c0,0-3.1,6.2,4.8,16.4c3.3,4.2,5,7.1,6.4,11.7s2.7,11.3,6.7,10.4
		c1.5-0.4,7.7-3.4-1.1-19.8c4.9,6.2,19.9,25.4,19.9,25.4l0.2,0.3c1.2,1.3,3,1.6,4.2,0.6c1-0.8,1.3-2.2,0.7-3.6L55.4,94.6l17.1,18
		l0.1,0.1c1.2,0.9,2.7,1.1,3.8,0.3c1.1-0.9,1.3-2.5,0.6-3.9l-0.4-0.6L62.3,89.2l16.1,13.5c1.2,1.5,3.2,1.9,4.4,0.9
		C84,102.6,84.1,100.5,82.9,99z"/>
	<g>
		<polygon class="st5" points="0,-0.3 0,47.5 21.4,68.9 45.4,45 		"/>
		<path class="st13" d="M42.3,48.1l-18,18l0.6,0.8c0,0-3.1,6.2,4.8,16.4c3.3,4.2,5,7.1,6.4,11.7s2.7,11.3,6.7,10.4
			c1.5-0.4,7.7-3.4-1.1-19.8c4.9,6.2,19.9,25.4,19.9,25.4l0.2,0.3c1.2,1.3,3,1.6,4.2,0.6c1-0.8,1.3-2.2,0.7-3.6L55.4,89.7l17.1,18
			l0.1,0.1c1.2,0.9,2.7,1.1,3.8,0.3c1.1-0.9,1.3-2.5,0.6-3.9l-0.4-0.6L62.3,84.4l16.1,13.5c1.2,1.5,3.2,1.9,4.4,0.9
			c1.3-1,1.3-3,0.2-4.5c-0.2-0.2-0.4-0.4-0.6-0.6L64.1,74.8l12.4,8.6c1.2,1.2,2.9,1.5,4.1,0.6c1.3-1,1.3-3,0.2-4.5
			c-0.2-0.3-0.5-0.6-0.8-0.8c-2.2-2.1-8.5-8.1-12-10.9c0,0-6.5-5.3-8.8-8.5s-8.3-8.3-14.3-7.9C43.5,49.7,42.6,48.4,42.3,48.1z"/>
	</g>
	<g id="paper_3_">
		<g>
			<g>
				<defs>
					<polygon id="SVGID_33_" points="1,1 2,1 1,2 					"/>
				</defs>
				<defs>
					<polygon id="SVGID_34_" points="-1,-1 -2,-1 -1,-2 					"/>
				</defs>
				<clipPath id="SVGID_35_">
					<use xlink:href="#SVGID_33_"  style="overflow:visible;"/>
				</clipPath>
				<clipPath id="SVGID_36_" class="st32">
					<use xlink:href="#SVGID_34_"  style="overflow:visible;"/>
				</clipPath>
				
					<linearGradient id="shadow_34_" gradientUnits="userSpaceOnUse" x1="324.2" y1="107.2" x2="182.1" y2="107.2" gradientTransform="matrix(1 0 0 -1 0 238)">
					<stop  offset="0" style="stop-color:#1A1A1A"/>
					<stop  offset="0.9993" style="stop-color:#808080"/>
				</linearGradient>
				<polygon id="shadow_18_" class="st33" points="250.1,65.2 231.5,64.5 182.1,115.2 266,197.1 324.2,137.4 				"/>
			</g>
		</g>
		
			<linearGradient id="shadow_35_" gradientUnits="userSpaceOnUse" x1="324.2" y1="107.2" x2="182.1" y2="107.2" gradientTransform="matrix(1 0 0 -1 0 238)">
			<stop  offset="0" style="stop-color:#231F20"/>
			<stop  offset="0.9993" style="stop-color:#231F20"/>
		</linearGradient>
		<polygon id="shadow_6_" class="st34" points="250.1,65.2 231.5,64.5 182.1,115.2 266,197.1 324.2,137.4 		"/>
		<g id="paper">
			<polygon class="st7" points="324.2,130.6 266,190.3 182.1,108.4 231.5,57.7 240.9,67 250.1,58.4 			"/>
			<polygon class="st13" points="231.5,57.7 250.1,58.4 240.9,67 			"/>
		</g>
		<g id="A_letter">
			<g>
				<path class="st21" d="M263,118.8L250.1,131l5.7,13l-4.2,3.9l-20.5-48.2l1.9-1.8l47.1,23l-4.4,4.2L263,118.8z M248.1,126.1
					l10.3-9.7l-14-7l-6.3-4.1l-0.1,0.1l3.9,6.6L248.1,126.1z"/>
			</g>
		</g>
	</g>
	<g id="higlighter">
		<g>
			<g>
				<defs>
					<polygon id="SVGID_37_" points="1,1 2,1 1,2 					"/>
				</defs>
				<defs>
					<polygon id="SVGID_38_" points="-1,-1 -2,-1 -1,-2 					"/>
				</defs>
				<clipPath id="SVGID_39_">
					<use xlink:href="#SVGID_37_"  style="overflow:visible;"/>
				</clipPath>
				<clipPath id="SVGID_40_" class="st35">
					<use xlink:href="#SVGID_38_"  style="overflow:visible;"/>
				</clipPath>
				
					<linearGradient id="shadow_36_" gradientUnits="userSpaceOnUse" x1="139.1414" y1="162.3047" x2="98.7069" y2="162.3047" gradientTransform="matrix(1 0 0 -1 0 238)">
					<stop  offset="0" style="stop-color:#1A1A1A"/>
					<stop  offset="0.9993" style="stop-color:#808080"/>
				</linearGradient>
				<path id="shadow_17_" class="st36" d="M139,93.1l-1-0.9l0.1-0.1l-1.5-1.4l-2.4-8.3l-0.1,0.2c0.1-0.1,0.1-0.3,0-0.4l-27-26.6
					c-0.1-0.1-0.3-0.1-0.4,0l-8,8.3c-0.1,0.1-0.1,0.3,0,0.4l27.5,26c0.1,0.1,0.3,0.1,0.4,0l-0.1,0.2l8.3,2.1l0,0l1.5,1.4l1.1-1.1
					l-1,1l1.9,1.9c0.1,0.1,0.2,0.1,0.3-0.1l0.5-2.1C139.2,93.4,139.1,93.2,139,93.1z"/>
			</g>
		</g>
		
			<linearGradient id="shadow_37_" gradientUnits="userSpaceOnUse" x1="139.1414" y1="162.3047" x2="98.7069" y2="162.3047" gradientTransform="matrix(1 0 0 -1 0 238)">
			<stop  offset="0" style="stop-color:#231F20"/>
			<stop  offset="0.9993" style="stop-color:#231F20"/>
		</linearGradient>
		<path id="shadow_5_" class="st37" d="M139,93.1l-1-0.9l0.1-0.1l-1.5-1.4l-2.4-8.3l-0.1,0.2c0.1-0.1,0.1-0.3,0-0.4l-27-26.6
			c-0.1-0.1-0.3-0.1-0.4,0l-8,8.3c-0.1,0.1-0.1,0.3,0,0.4l27.5,26c0.1,0.1,0.3,0.1,0.4,0l-0.1,0.2l8.3,2.1l0,0l1.5,1.4l1.1-1.1l-1,1
			l1.9,1.9c0.1,0.1,0.2,0.1,0.3-0.1l0.5-2.1C139.2,93.4,139.1,93.2,139,93.1z"/>
		<g id="higlighter_1_">
			<path class="st38" d="M106.8,51.4c0.1-0.1,0.3-0.1,0.4,0l27,26.6c0.1,0.1,0.1,0.3,0,0.4l-7.4,7.7c-0.1,0.1-0.3,0.1-0.4,0
				l-27.5-26c-0.1-0.1-0.1-0.3,0-0.4L106.8,51.4z"/>
			<polygon class="st6" points="134.3,78.2 126.6,86.2 134.9,88.3 134.9,88.3 136.4,89.7 138.2,87.9 136.7,86.4 			"/>
			<path class="st38" d="M138.1,88l1,0.9c0.1,0.1,0.2,0.3,0.1,0.5l-0.5,2.1c0,0.1-0.2,0.2-0.3,0.1l-1.9-1.9"/>
		</g>
	</g>
	<g id="post_it_3_">
		<g>
			<g>
				<defs>
					<polygon id="SVGID_41_" points="1,1 2,1 1,2 					"/>
				</defs>
				<defs>
					<polygon id="SVGID_42_" points="-1,-1 -2,-1 -1,-2 					"/>
				</defs>
				<clipPath id="SVGID_43_">
					<use xlink:href="#SVGID_41_"  style="overflow:visible;"/>
				</clipPath>
				<clipPath id="SVGID_44_" class="st39">
					<use xlink:href="#SVGID_42_"  style="overflow:visible;"/>
				</clipPath>
				
					<linearGradient id="shadow_38_" gradientUnits="userSpaceOnUse" x1="327.9" y1="195.15" x2="272.775" y2="195.15" gradientTransform="matrix(1 0 0 -1 0 238)">
					<stop  offset="0" style="stop-color:#1A1A1A"/>
					<stop  offset="0.9993" style="stop-color:#808080"/>
				</linearGradient>
				<polygon id="shadow_16_" class="st40" points="301.2,70.4 272.7,43.8 299.4,15.3 327.9,42 				"/>
			</g>
		</g>
		
			<linearGradient id="shadow_39_" gradientUnits="userSpaceOnUse" x1="327.9" y1="195.15" x2="272.775" y2="195.15" gradientTransform="matrix(1 0 0 -1 0 238)">
			<stop  offset="0" style="stop-color:#231F20"/>
			<stop  offset="0.9993" style="stop-color:#231F20"/>
		</linearGradient>
		<polygon id="shadow_4_" class="st41" points="301.2,70.4 272.7,43.8 299.4,15.3 327.9,42 		"/>
		
			<rect id="post_it_2_" x="280.8" y="16.6" transform="matrix(0.6837 -0.7297 0.7297 0.6837 68.6373 230.5684)" class="st38" width="39" height="39"/>
		<g id="text_1_">
			
				<rect x="277.5" y="28.2" transform="matrix(0.6741 -0.7386 0.7386 0.6741 73.5451 225.4205)" class="st6" width="29.5" height="2.4"/>
			
				<rect x="283.2" y="35.5" transform="matrix(0.6741 -0.7387 0.7387 0.6741 68.326 228.2505)" class="st6" width="19.3" height="2.4"/>
		</g>
	</g>
	<g id="post_it_1_">
		<g>
			<g>
				<defs>
					<polygon id="SVGID_45_" points="1,1 2,1 1,2 					"/>
				</defs>
				<defs>
					<polygon id="SVGID_46_" points="-1,-1 -2,-1 -1,-2 					"/>
				</defs>
				<clipPath id="SVGID_47_">
					<use xlink:href="#SVGID_45_"  style="overflow:visible;"/>
				</clipPath>
				<clipPath id="SVGID_48_" class="st42">
					<use xlink:href="#SVGID_46_"  style="overflow:visible;"/>
				</clipPath>
				
					<linearGradient id="shadow_40_" gradientUnits="userSpaceOnUse" x1="200.1" y1="164.8" x2="144.9" y2="164.8" gradientTransform="matrix(1 0 0 -1 0 238)">
					<stop  offset="0" style="stop-color:#1A1A1A"/>
					<stop  offset="0.9993" style="stop-color:#808080"/>
				</linearGradient>
				<polygon id="shadow_15_" class="st43" points="172.6,45.6 144.9,73.1 172.4,100.8 200.1,73.3 				"/>
			</g>
		</g>
		
			<linearGradient id="shadow_41_" gradientUnits="userSpaceOnUse" x1="200.1" y1="164.8" x2="144.9" y2="164.8" gradientTransform="matrix(1 0 0 -1 0 238)">
			<stop  offset="0" style="stop-color:#231F20"/>
			<stop  offset="0.9993" style="stop-color:#231F20"/>
		</linearGradient>
		<polygon id="shadow_3_" class="st44" points="172.6,45.6 144.9,73.1 172.4,100.8 200.1,73.3 		"/>
		
			<rect id="post_it" x="153" y="47.4" transform="matrix(0.7101 -0.7041 0.7041 0.7101 2.8852 140.836)" class="st13" width="39" height="39"/>
		<g id="text">
			
				<rect x="150" y="57.1" transform="matrix(0.7195 -0.6945 0.6945 0.7195 5.7078 130.8071)" class="st45" width="29.5" height="2.4"/>
			
				<rect x="157.5" y="64.5" transform="matrix(0.7195 -0.6945 0.6945 0.7195 2.6949 138.0524)" class="st45" width="29.5" height="2.4"/>
			
				<rect x="158.7" y="61.1" transform="matrix(0.7194 -0.6946 0.6946 0.7194 3.9974 134.4033)" class="st45" width="19.3" height="2.4"/>
		</g>
	</g>
	<g id="phone">
		<g>
			<g>
				<defs>
					<polygon id="SVGID_49_" points="1,1 2,1 1,2 					"/>
				</defs>
				<defs>
					<polygon id="SVGID_50_" points="-1,-1 -2,-1 -1,-2 					"/>
				</defs>
				<clipPath id="SVGID_51_">
					<use xlink:href="#SVGID_49_"  style="overflow:visible;"/>
				</clipPath>
				<clipPath id="SVGID_52_" class="st46">
					<use xlink:href="#SVGID_50_"  style="overflow:visible;"/>
				</clipPath>
				
					<linearGradient id="shadow_42_" gradientUnits="userSpaceOnUse" x1="125" y1="207.5" x2="62.1" y2="207.5" gradientTransform="matrix(1 0 0 -1 0 238)">
					<stop  offset="0" style="stop-color:#1A1A1A"/>
					<stop  offset="0.9993" style="stop-color:#808080"/>
				</linearGradient>
				<path id="shadow_14_" class="st47" d="M120.7,14.8H66.4c-2.4,0-4.3,2.1-4.3,4.6v22.2c0,2.5,1.9,4.6,4.3,4.6h54.3
					c2.4,0,4.3-2.1,4.3-4.6V19.4C125,16.9,123.1,14.8,120.7,14.8z"/>
			</g>
		</g>
		
			<linearGradient id="shadow_43_" gradientUnits="userSpaceOnUse" x1="125" y1="207.5" x2="62.1" y2="207.5" gradientTransform="matrix(1 0 0 -1 0 238)">
			<stop  offset="0" style="stop-color:#231F20"/>
			<stop  offset="0.9993" style="stop-color:#231F20"/>
		</linearGradient>
		<path id="shadow" class="st48" d="M120.7,14.8H66.4c-2.4,0-4.3,2.1-4.3,4.6v22.2c0,2.5,1.9,4.6,4.3,4.6h54.3
			c2.4,0,4.3-2.1,4.3-4.6V19.4C125,16.9,123.1,14.8,120.7,14.8z"/>
		<g id="phone_1_">
			<path class="st6" d="M125,37.4c0,2.5-1.9,4.6-4.3,4.6H66.4c-2.4,0-4.3-2.1-4.3-4.6V15.2c0-2.5,1.9-4.6,4.3-4.6h54.3
				c2.4,0,4.3,2.1,4.3,4.6V37.4z"/>
			<path class="st12" d="M66.9,24v4.5c0,0.4,0.3,0.7,0.6,0.7c0.4,0,0.6-0.3,0.6-0.7V24c0-0.4-0.3-0.7-0.6-0.7
				C67.2,23.3,66.9,23.6,66.9,24"/>
			<path class="st12" d="M117.8,26.3c0,1.7,1.3,3,2.9,3s2.9-1.4,2.9-3c0-1.7-1.3-3-2.9-3C119.1,23.2,117.8,24.6,117.8,26.3"/>
			<rect x="70.9" y="12.8" class="st21" width="45.5" height="27.1"/>
		</g>
	</g>
	<g id="eyeglass_2_">
		<g>
			<g>
				<defs>
					<polygon id="SVGID_53_" points="1,1 2,1 1,2 					"/>
				</defs>
				<defs>
					<polygon id="SVGID_54_" points="-1,-1 -2,-1 -1,-2 					"/>
				</defs>
				<clipPath id="SVGID_55_">
					<use xlink:href="#SVGID_53_"  style="overflow:visible;"/>
				</clipPath>
				<clipPath id="SVGID_56_" class="st49">
					<use xlink:href="#SVGID_54_"  style="overflow:visible;"/>
				</clipPath>
				
					<linearGradient id="shadow_44_" gradientUnits="userSpaceOnUse" x1="219.3742" y1="131.0415" x2="164.7189" y2="131.0415" gradientTransform="matrix(1 0 0 -1 0 238)">
					<stop  offset="0" style="stop-color:#1A1A1A"/>
					<stop  offset="0.9993" style="stop-color:#808080"/>
				</linearGradient>
				<path id="shadow_13_" class="st50" d="M219.2,85.4c-0.6-0.8-1.5-0.8-3-0.5c-0.2,0-0.7,0.2-1.3,0.4l-4.4-4.3
					c-0.5-0.5-0.6-1.4-0.3-1.9c0.3-0.3,0.2-0.8-0.1-1.1l-1.1-1c-0.3-0.3-0.8-0.2-1.1,0.1c0,0-0.8,1.2-4.2,3.9
					c-3.4,2.7-7.3,8.1-9,10.1c-1.5,1.7-3.1,4.7-3.5,8.3c-1.1,1.4-2.2,2.9-3.2,4.2c-1.1,1.1-2.3,2.3-3.5,3.5
					c-3.5,0.8-6.2,2.9-7.7,4.6c-1.8,2-6.5,6.6-8.7,10.4c-2.2,3.7-3.2,4.7-3.2,4.7c-0.3,0.3-0.2,0.8,0.1,1.1l1.1,1
					c0.3,0.3,0.8,0.2,1.1-0.1c0.5-0.4,1.4-0.4,2,0l4.7,3.6c-0.2,0.8-0.3,1.4-0.3,1.7c-0.1,1.5,0,2.4,0.9,2.9c0.9,0.4,3.1-0.4,3-2.8
					c0-0.1,0-0.1,0-0.2c2.8,0.2,5.3-1.3,5.3-1.3c7.4-4.2,11.1-12.4,11.1-12.4c2.6-4.8-2.1-9.2-2.5-9.5c-2.1-2.1-0.8-3.3-0.8-3.3
					l0.9-1.1l0.9-1.1c0,0,1-1.4,3.4,0.3c0.4,0.3,5.4,4.3,9.8,1.1c0,0,7.5-4.9,10.6-12.8c0,0,1.1-2.6,0.5-5.3
					C219.2,88.5,219.7,86.2,219.2,85.4z"/>
			</g>
		</g>
		
			<linearGradient id="shadow_45_" gradientUnits="userSpaceOnUse" x1="219.3742" y1="131.0415" x2="164.7189" y2="131.0415" gradientTransform="matrix(1 0 0 -1 0 238)">
			<stop  offset="0" style="stop-color:#231F20"/>
			<stop  offset="0.9993" style="stop-color:#231F20"/>
		</linearGradient>
		<path id="shadow_1_" class="st51" d="M219.2,85.4c-0.6-0.8-1.5-0.8-3-0.5c-0.2,0-0.7,0.2-1.3,0.4l-4.4-4.3
			c-0.5-0.5-0.6-1.4-0.3-1.9c0.3-0.3,0.2-0.8-0.1-1.1l-1.1-1c-0.3-0.3-0.8-0.2-1.1,0.1c0,0-0.8,1.2-4.2,3.9c-3.4,2.7-7.3,8.1-9,10.1
			c-1.5,1.7-3.1,4.7-3.5,8.3c-1.1,1.4-2.2,2.9-3.2,4.2c-1.1,1.1-2.3,2.3-3.5,3.5c-3.5,0.8-6.2,2.9-7.7,4.6c-1.8,2-6.5,6.6-8.7,10.4
			c-2.2,3.7-3.2,4.7-3.2,4.7c-0.3,0.3-0.2,0.8,0.1,1.1l1.1,1c0.3,0.3,0.8,0.2,1.1-0.1c0.5-0.4,1.4-0.4,2,0l4.7,3.6
			c-0.2,0.8-0.3,1.4-0.3,1.7c-0.1,1.5,0,2.4,0.9,2.9c0.9,0.4,3.1-0.4,3-2.8c0-0.1,0-0.1,0-0.2c2.8,0.2,5.3-1.3,5.3-1.3
			c7.4-4.2,11.1-12.4,11.1-12.4c2.6-4.8-2.1-9.2-2.5-9.5c-2.1-2.1-0.8-3.3-0.8-3.3l0.9-1.1l0.9-1.1c0,0,1-1.4,3.4,0.3
			c0.4,0.3,5.4,4.3,9.8,1.1c0,0,7.5-4.9,10.6-12.8c0,0,1.1-2.6,0.5-5.3C219.2,88.5,219.7,86.2,219.2,85.4z"/>
		<g id="eyeglass_1_">
			<path class="st12" d="M216.2,79.8c-1.2,0.2-10,3.6-15.9,7.5c5.2-6.4,9.4-11.6,9.4-11.6l-2.5-2.1c0,0-11.1,14.2-19.2,25
				c-9.5,9.6-22,22.6-22,22.6l2.5,2.2c0,0,4.5-4.9,10.1-11c-3,6.4-5,15.6-5.1,16.8c-0.1,1.5,0,2.4,0.9,2.9c0.9,0.4,3.1-0.4,3-2.8
				c-0.1-2.5-0.4-12.8,4.7-19.4c1.5-1.9,4.3-5.5,7.7-9.6c3.6-3.9,6.8-7.3,8.4-9c5.8-6,16-7.3,18.5-7.5s3-2.5,2.4-3.3
				C218.6,79.5,217.6,79.5,216.2,79.8z"/>
			<path class="st52" d="M187.8,121.7c-4.5,4.9-9.6,7.4-14,3.9c-8.4-6.6-3.5-9.1,1.1-14.9c5.7-7.2,11.4-6.9,15-3.8
				C193.3,109.8,195.4,113.4,187.8,121.7z"/>
			<path class="st52" d="M213,80.4c4.2,3.9,2.4,9.3-1.8,14.4c-7.2,8.7-11,7.1-14.3,4.3c-3.6-3.1-4.7-8.7,1.6-15.4
				C203.5,78.2,205.2,73,213,80.4z"/>
			<path class="st53" d="M207.9,72.1c0,0-0.8,1.2-4.2,3.9c-3.4,2.7-7.3,8.1-9,10.1s-3.7,5.7-3.5,10c-1.5,1.8-2.5,2.9-2.5,2.9
				s-1,1.1-2.5,2.9c-4.2,0.5-7.6,3-9.4,5c-1.8,2-6.5,6.6-8.7,10.4c-2.2,3.7-3.2,4.7-3.2,4.7c-0.3,0.3-0.2,0.8,0.1,1.1l1.1,1
				c0.3,0.3,0.8,0.2,1.1-0.1c0.5-0.4,1.4-0.4,2,0l5.2,4c3.8,2.7,8.5-0.2,8.5-0.2c7.4-4.2,11.1-12.4,11.1-12.4
				c2.6-4.8-2.1-9.2-2.5-9.5c-2.1-2.1-0.8-3.3-0.8-3.3l0.9-1.1l0.9-1.1c0,0,1-1.4,3.4,0.3c0.4,0.3,5.4,4.3,9.8,1.1
				c0,0,7.5-4.9,10.6-12.8c0,0,2.2-5-1.1-8.4l-4.7-4.6c-0.5-0.5-0.6-1.4-0.3-1.9c0.3-0.3,0.2-0.8-0.1-1.1l-1.1-1
				C208.7,71.7,208.2,71.7,207.9,72.1z M187.8,121.7c-4.5,4.9-9.6,7.4-14,3.9c-8.4-6.6-3.5-9.1,1.1-14.9c5.7-7.2,11.4-6.9,15-3.8
				C193.3,109.8,195.4,113.4,187.8,121.7z M213,80.4c4.2,3.9,2.4,9.3-1.8,14.4c-7.2,8.7-11,7.1-14.3,4.3c-3.6-3.1-4.7-8.7,1.6-15.4
				C203.5,78.2,205.2,73,213,80.4z"/>
		</g>
	</g>
	<g id="paper_2_">
		<g>
			<g>
				<defs>
					<polygon id="SVGID_57_" points="1,1 2,1 1,2 					"/>
				</defs>
				<defs>
					<polygon id="SVGID_58_" points="-1,-1 -2,-1 -1,-2 					"/>
				</defs>
				<clipPath id="SVGID_59_">
					<use xlink:href="#SVGID_57_"  style="overflow:visible;"/>
				</clipPath>
				<clipPath id="SVGID_60_" class="st54">
					<use xlink:href="#SVGID_58_"  style="overflow:visible;"/>
				</clipPath>
				
					<linearGradient id="shadow_46_" gradientUnits="userSpaceOnUse" x1="313.3" y1="49.9" x2="192.7" y2="49.9" gradientTransform="matrix(1 0 0 -1 0 238)">
					<stop  offset="0" style="stop-color:#1A1A1A"/>
					<stop  offset="0.9993" style="stop-color:#808080"/>
				</linearGradient>
				<polygon id="shadow_12_" class="st55" points="192.7,146.5 192.9,229.6 313.2,229.8 313.3,146.4 				"/>
			</g>
		</g>
		
			<linearGradient id="shadow_47_" gradientUnits="userSpaceOnUse" x1="313.3" y1="49.9" x2="192.7" y2="49.9" gradientTransform="matrix(1 0 0 -1 0 238)">
			<stop  offset="0" style="stop-color:#231F20"/>
			<stop  offset="0.9993" style="stop-color:#231F20"/>
		</linearGradient>
		<polygon id="shadow_2_" class="st56" points="192.7,146.5 192.9,229.6 313.2,229.8 313.3,146.4 		"/>
		<g>
			<polygon class="st45" points="313.3,141.6 313.2,225 192.9,224.8 192.7,141.7 			"/>
			<g id="Bg_1_">
				<path class="st4" d="M221.7,150.5l-0.1,65.6c0,0.8,0.6,1.4,1.4,1.4h9.8c0.8,0,1.4-0.6,1.4-1.4l0.1-61.9l4-5.1h-5.4h-2.8h-7
					C222.3,149.1,221.7,149.7,221.7,150.5z"/>
				<path class="st5" d="M239.7,150.5l-0.1,65.6c0,0.8,0.6,1.4,1.4,1.4h6.6h3.2h5l-3.6-4.7l0.1-62.4c0-0.8-0.6-1.4-1.4-1.4h-9.8
					C240.3,149.2,239.7,149.8,239.7,150.5z"/>
				
					<rect x="202.2" y="189.3" transform="matrix(1.306800e-03 -1 1 1.306800e-03 34.6191 414.7572)" class="st45" width="45.6" height="1.4"/>
				
					<rect x="208.1" y="189.4" transform="matrix(1.350682e-03 -1 1 1.350682e-03 40.586 420.7447)" class="st45" width="45.6" height="1.4"/>
				<polygon class="st45" points="228.6,198.1 228.6,212.9 227.2,212.8 227.2,198.1 				"/>
				
					<rect x="218.3" y="186.2" transform="matrix(1.205792e-03 -1 1 1.205792e-03 40.748 414.6913)" class="st45" width="19.4" height="1.4"/>
				
					<rect x="217.2" y="164.1" transform="matrix(1.262907e-03 -1 1 1.262907e-03 62.9176 392.6652)" class="st45" width="21.6" height="1.4"/>
				
					<rect x="219.1" y="159.3" transform="matrix(1.232021e-03 -1 1 1.232021e-03 64.7882 384.8405)" class="st45" width="11.9" height="1.4"/>
				
					<rect x="213.9" y="182.7" transform="matrix(1.295513e-03 -1 1 1.295513e-03 59.5643 426.527)" class="st45" width="58.8" height="1.4"/>
				
					<rect x="225.4" y="188.5" transform="matrix(1.295105e-03 -1 1 1.295105e-03 59.6596 438.045)" class="st45" width="47.5" height="1.4"/>
				
					<rect x="244.4" y="158.1" transform="matrix(1.327977e-03 -1 1 1.327977e-03 89.9948 407.8105)" class="st45" width="9.6" height="1.4"/>
				
					<rect x="228.4" y="194.4" transform="matrix(1.318695e-03 -1 1 1.318695e-03 50.7907 441.0783)" class="st45" width="35.6" height="1.4"/>
				
					<rect x="235.5" y="164.2" transform="matrix(1.262029e-03 -1 1 1.262029e-03 81.0477 411.0041)" class="st45" width="21.6" height="1.4"/>
			</g>
			<g>
				<g id="Element_5_">
					
						<rect x="274.7" y="214.4" transform="matrix(1.214611e-03 -1 1 1.214611e-03 59.6413 492.4005)" class="st13" width="3.2" height="3.8"/>
					
						<rect x="274.7" y="210.2" transform="matrix(1.245755e-03 -1 1 1.245755e-03 63.9259 488.1126)" class="st13" width="3.2" height="3.8"/>
					
						<rect x="274.7" y="205.8" transform="matrix(1.525098e-03 -1 1 1.525098e-03 68.1927 483.6263)" class="st13" width="3.2" height="3.8"/>
					
						<rect x="274.7" y="201.5" transform="matrix(1.524624e-03 -1 1 1.524624e-03 72.4871 479.3461)" class="st13" width="3.2" height="3.8"/>
					
						<rect x="274.7" y="197" transform="matrix(1.526476e-03 -1 1 1.526476e-03 76.9397 474.892)" class="st13" width="3.2" height="3.8"/>
					
						<rect x="274.7" y="192.7" transform="matrix(1.220562e-03 -1 1 1.220562e-03 81.3211 470.6714)" class="st13" width="3.2" height="3.8"/>
					
						<rect x="274.7" y="188.3" transform="matrix(1.245367e-03 -1 1 1.245367e-03 85.7533 466.3394)" class="st13" width="3.2" height="3.8"/>
					
						<rect x="274.7" y="184" transform="matrix(1.525573e-03 -1 1 1.525573e-03 89.9738 462.0069)" class="st13" width="3.2" height="3.8"/>
					
						<rect x="274.7" y="179.3" transform="matrix(1.524624e-03 -1 1 1.524624e-03 94.6235 457.2617)" class="st12" width="3.2" height="3.8"/>
					
						<rect x="274.7" y="175.1" transform="matrix(1.214951e-03 -1 1 1.214951e-03 99.003 453.0374)" class="st12" width="3.2" height="3.8"/>
					
						<rect x="274.7" y="170.7" transform="matrix(1.208622e-03 -1 1 1.208622e-03 103.4449 448.7087)" class="st12" width="3.2" height="3.8"/>
					
						<rect x="274.8" y="166.4" transform="matrix(1.526048e-03 -1 1 1.526048e-03 107.6539 444.3749)" class="st12" width="3.2" height="3.8"/>
					
						<rect x="274.7" y="161.9" transform="matrix(1.805779e-03 -1 1 1.805779e-03 112.0291 439.8743)" class="st12" width="3.2" height="3.8"/>
					
						<rect x="274.8" y="157.6" transform="matrix(1.526476e-03 -1 1 1.526476e-03 116.4018 435.6395)" class="st12" width="3.2" height="3.8"/>
					
						<rect x="274.7" y="153.2" transform="matrix(1.838000e-03 -1 1 1.838000e-03 120.6563 431.1644)" class="st12" width="3.2" height="3.8"/>
					
						<rect x="274.7" y="149" transform="matrix(1.836341e-03 -1 1 1.836341e-03 124.9538 426.8867)" class="st12" width="3.2" height="3.8"/>
				</g>
				<g id="Element_4_">
					
						<rect x="282.7" y="214.5" transform="matrix(1.842925e-03 -1 1 1.842925e-03 67.4266 500.307)" class="st6" width="3.2" height="3.8"/>
					
						<rect x="282.7" y="210.2" transform="matrix(1.214611e-03 -1 1 1.214611e-03 71.9004 496.1612)" class="st6" width="3.2" height="3.8"/>
					
						<rect x="282.7" y="205.8" transform="matrix(1.805217e-03 -1 1 1.805217e-03 76.0754 491.6104)" class="st6" width="3.2" height="3.8"/>
					
						<rect x="282.7" y="201.5" transform="matrix(1.213477e-03 -1 1 1.213477e-03 80.5367 487.4529)" class="st6" width="3.2" height="3.8"/>
					
						<rect x="282.7" y="197.1" transform="matrix(1.526001e-03 -1 1 1.526001e-03 84.9031 482.934)" class="st6" width="3.2" height="3.8"/>
					
						<rect x="282.7" y="192.8" transform="matrix(1.806341e-03 -1 1 1.806341e-03 89.1206 478.5988)" class="st6" width="3.2" height="3.8"/>
					
						<rect x="282.7" y="188.4" transform="matrix(1.520460e-03 -1 1 1.520460e-03 93.6405 474.3259)" class="st6" width="3.2" height="3.8"/>
					
						<rect x="282.8" y="184.1" transform="matrix(2.117711e-03 -1 1 2.117711e-03 97.77 469.9362)" class="st6" width="3.2" height="3.8"/>
					
						<rect x="282.8" y="179.4" transform="matrix(1.836913e-03 -1 1 1.836913e-03 102.5955 465.3494)" class="st6" width="3.2" height="3.8"/>
					
						<rect x="282.8" y="175.1" transform="matrix(2.144175e-03 -1 1 2.144175e-03 106.8047 461.0168)" class="st12" width="3.2" height="3.8"/>
					
						<rect x="282.8" y="170.7" transform="matrix(1.838057e-03 -1 1 1.838057e-03 111.2294 456.6446)" class="st12" width="3.2" height="3.8"/>
					
						<rect x="282.8" y="166.4" transform="matrix(1.214233e-03 -1 1 1.214233e-03 115.7043 452.4706)" class="st12" width="3.2" height="3.8"/>
					
						<rect x="282.8" y="161.9" transform="matrix(1.214233e-03 -1 1 1.214233e-03 120.2576 447.9147)" class="st12" width="3.2" height="3.8"/>
					
						<rect x="282.8" y="157.6" transform="matrix(1.526048e-03 -1 1 1.526048e-03 124.4642 443.5841)" class="st12" width="3.2" height="3.8"/>
					
						<rect x="282.7" y="153.3" transform="matrix(1.807411e-03 -1 1 1.807411e-03 128.6253 439.2114)" class="st12" width="3.2" height="3.8"/>
					
						<rect x="282.7" y="149" transform="matrix(1.836341e-03 -1 1 1.836341e-03 132.9142 434.9285)" class="st12" width="3.2" height="3.8"/>
				</g>
				<g id="Element_3_">
					<rect x="290" y="214.8" class="st38" width="3.8" height="3.2"/>
					
						<rect x="290.3" y="210.2" transform="matrix(1.837428e-03 -1 1 1.837428e-03 79.286 503.6187)" class="st38" width="3.2" height="3.8"/>
					
						<rect x="290.3" y="205.8" transform="matrix(1.531168e-03 -1 1 1.531168e-03 83.7199 499.2574)" class="st38" width="3.2" height="3.8"/>
					<rect x="290" y="201.8" class="st38" width="3.8" height="3.2"/>
					
						<rect x="290.4" y="197.1" transform="matrix(1.526476e-03 -1 1 1.526476e-03 92.5673 490.6215)" class="st38" width="3.2" height="3.8"/>
					
						<rect x="290.4" y="192.8" transform="matrix(1.525573e-03 -1 1 1.525573e-03 96.8618 486.3434)" class="st38" width="3.2" height="3.8"/>
					
						<rect x="290.3" y="188.4" transform="matrix(1.836913e-03 -1 1 1.836913e-03 101.113 481.8564)" class="st38" width="3.2" height="3.8"/>
					
						<rect x="290.3" y="184.1" transform="matrix(1.526476e-03 -1 1 1.526476e-03 105.5004 477.6353)" class="st38" width="3.2" height="3.8"/>
					
						<rect x="290.4" y="179.4" transform="matrix(1.213855e-03 -1 1 1.213855e-03 110.3386 473.0506)" class="st38" width="3.2" height="3.8"/>
					
						<rect x="290.4" y="175.1" transform="matrix(1.806848e-03 -1 1 1.806848e-03 114.4606 468.6647)" class="st38" width="3.2" height="3.8"/>
					
						<rect x="290.3" y="170.7" transform="matrix(1.811851e-03 -1 1 1.811851e-03 118.8006 464.2395)" class="st38" width="3.2" height="3.8"/>
					
						<rect x="290.3" y="166.4" transform="matrix(1.519501e-03 -1 1 1.519501e-03 123.1833 460.0089)" class="st38" width="3.2" height="3.8"/>
					<rect x="290.1" y="162.2" class="st12" width="3.8" height="3.2"/>
					
						<rect x="290.3" y="157.6" transform="matrix(1.525573e-03 -1 1 1.525573e-03 132.0285 451.1708)" class="st12" width="3.2" height="3.8"/>
					
						<rect x="290.4" y="153.3" transform="matrix(1.526048e-03 -1 1 1.526048e-03 136.3693 446.9455)" class="st12" width="3.2" height="3.8"/>
					
						<rect x="290.4" y="149" transform="matrix(1.836913e-03 -1 1 1.836913e-03 140.5736 442.6201)" class="st12" width="3.2" height="3.8"/>
				</g>
			</g>
			
				<rect x="228.5" y="182.7" transform="matrix(1.570728e-03 -1 1 1.570728e-03 78.914 445.884)" class="st12" width="68.4" height="1.4"/>
			
				<rect x="265.3" y="182.7" transform="matrix(1.585055e-03 -1 1 1.585055e-03 115.6355 482.625)" class="st12" width="68.4" height="1.4"/>
			
				<rect x="247.9" y="182.7" transform="matrix(1.630738e-03 -1 1 1.630738e-03 82.937 449.8314)" class="st12" width="37.7" height="1.4"/>
			
				<rect x="196.2" y="182.6" transform="matrix(1.630781e-03 -1 1 1.630781e-03 31.3844 398.019)" class="st12" width="37.7" height="1.4"/>
			
				<rect x="191.6" y="182.5" transform="matrix(1.603717e-03 -1 1 1.603717e-03 26.9113 393.3654)" class="st12" width="37.7" height="1.4"/>
		</g>
	</g>
</g>
</svg>
