<?xml version="1.0" encoding="utf-8"?>
<!-- Generator: Adobe Illustrator 23.0.3, SVG Export Plug-In . SVG Version: 6.00 Build 0)  -->
<svg version="1.1" id="Layer_1" xmlns="http://www.w3.org/2000/svg" xmlns:xlink="http://www.w3.org/1999/xlink" x="0px" y="0px"
	 viewBox="0 0 432 432" style="enable-background:new 0 0 432 432;" xml:space="preserve">
<style type="text/css">
	.st0{fill:#EAEEF3;}
	.st1{fill:#859CB1;}
	.st2{fill:#6C829B;}
	.st3{fill:#FFB73C;}
	.st4{fill:#9CAECA;}
</style>
<g id="Group_723">
	<g id="Group_722" transform="translate(-1477.052 2274.816)">
		<path id="Rectangle_885" class="st0" d="M1586.8-2230.8h226.5c11.2,0,20.3,9.1,20.3,20.3v280.4c0,11.2-9.1,20.3-20.3,20.3h-226.5
			c-11.2,0-20.3-9.1-20.3-20.3v-280.4C1566.5-2221.7,1575.6-2230.8,1586.8-2230.8z"/>
		<path id="Path_1111" class="st1" d="M1712.4-2167.1l-85,147.1h195.2l-85-147.1c-4.1-6.9-12.9-9.4-19.9-5.3
			C1715.6-2171.1,1713.6-2169.3,1712.4-2167.1z"/>
		<path id="Path_1112" class="st2" d="M1643.4-2128.8l-62.9,108.9h144.6l-62.9-108.9c-3-5.1-9.6-6.9-14.7-4
			C1645.7-2131.9,1644.3-2130.5,1643.4-2128.8z"/>
		<circle id="Ellipse_344" class="st3" cx="1609.4" cy="-2186" r="20.6"/>
		<path id="Rectangle_886" class="st4" d="M1583.1-2035.2h237.1c1.4,0,2.5,1.1,2.5,2.5v12.4c0,1.4-1.1,2.5-2.5,2.5h-237.1
			c-1.4,0-2.5-1.1-2.5-2.5v-12.4C1580.5-2034.1,1581.7-2035.2,1583.1-2035.2z"/>
		<path id="Rectangle_887" class="st4" d="M1588.4-2003.4h103.8c0.6,0,1.2,0.5,1.2,1.2v5.9c0,0.6-0.5,1.2-1.2,1.2h-103.8
			c-0.6,0-1.2-0.5-1.2-1.2v-5.9C1587.2-2002.8,1587.7-2003.4,1588.4-2003.4z"/>
		<path id="Rectangle_888" class="st4" d="M1709.2-2003.4H1813c0.6,0,1.2,0.5,1.2,1.2v5.9c0,0.6-0.5,1.2-1.2,1.2h-103.8
			c-0.6,0-1.2-0.5-1.2-1.2v-5.9C1708-2002.8,1708.5-2003.4,1709.2-2003.4z"/>
		<path id="Rectangle_889" class="st4" d="M1588.4-1986.2h103.8c0.6,0,1.2,0.5,1.2,1.2v5.9c0,0.6-0.5,1.2-1.2,1.2h-103.8
			c-0.6,0-1.2-0.5-1.2-1.2v-5.9C1587.2-1985.6,1587.7-1986.2,1588.4-1986.2z"/>
		<path id="Rectangle_890" class="st4" d="M1709.2-1986.2H1813c0.6,0,1.2,0.5,1.2,1.2v5.9c0,0.6-0.5,1.2-1.2,1.2h-103.8
			c-0.6,0-1.2-0.5-1.2-1.2v-5.9C1708-1985.6,1708.5-1986.2,1709.2-1986.2z"/>
		<path id="Rectangle_891" class="st4" d="M1588.4-1969.5h103.8c0.6,0,1.2,0.5,1.2,1.2v5.9c0,0.6-0.5,1.2-1.2,1.2h-103.8
			c-0.6,0-1.2-0.5-1.2-1.2v-5.9C1587.2-1969.1,1587.7-1969.5,1588.4-1969.5z"/>
		<path id="Rectangle_892" class="st4" d="M1709.2-1969.5H1813c0.6,0,1.2,0.5,1.2,1.2v5.9c0,0.6-0.5,1.2-1.2,1.2h-103.8
			c-0.6,0-1.2-0.5-1.2-1.2v-5.9C1708-1969.1,1708.5-1969.5,1709.2-1969.5z"/>
	</g>
</g>
</svg>
