<?xml version="1.0" encoding="utf-8"?>
<!-- Generator: Adobe Illustrator 23.0.3, SVG Export Plug-In . SVG Version: 6.00 Build 0)  -->
<svg version="1.1" id="Layer_1" xmlns="http://www.w3.org/2000/svg" xmlns:xlink="http://www.w3.org/1999/xlink" x="0px" y="0px"
	 viewBox="0 0 432 432" style="enable-background:new 0 0 432 432;" xml:space="preserve">
<style type="text/css">
	.st0{fill:#FDFDFD;}
	.st1{fill:#EAEEF3;}
	.st2{fill:#859CB1;}
	.st3{fill:#6C829B;}
	.st4{fill:#FFB73C;}
	.st5{fill:#9CAECA;}
</style>
<g id="Group_726" transform="translate(-37 -2433)">
	<g transform="matrix(1, 0, 0, 1, 37, 2433)">
		<path id="Rectangle_479-2" class="st0" d="M98,22h234c13.8,0,25,11.2,25,25v338c0,13.8-11.2,25-25,25H98c-13.8,0-25-11.2-25-25V47
			C73,33.2,84.2,22,98,22z"/>
	</g>
	<g id="Group_723">
		<g id="Group_722" transform="translate(-1477.052 2274.816)">
			<path id="Rectangle_885" class="st1" d="M1622.5,202.2h212.1c10.5,0,19,8.5,19,19v262.6c0,10.5-8.5,19-19,19h-212.1
				c-10.5,0-19-8.5-19-19V221.2C1603.5,210.7,1612,202.2,1622.5,202.2z"/>
			<path id="Path_1111" class="st2" d="M1740.1,261.9l-79.6,137.8h182.8l-79.6-137.8c-3.8-6.5-12.1-8.8-18.6-5
				C1743.1,258.1,1741.3,259.8,1740.1,261.9z"/>
			<path id="Path_1112" class="st3" d="M1675.5,297.7l-58.9,102H1752l-58.9-102c-2.8-4.8-9-6.5-13.8-3.7
				C1677.7,294.8,1676.4,296.1,1675.5,297.7z"/>
			<circle id="Ellipse_344" class="st4" cx="1643.7" cy="244.2" r="19.3"/>
			<path id="Rectangle_886" class="st5" d="M1619,385.4h222c1.3,0,2.3,1,2.3,2.3v11.6c0,1.3-1,2.3-2.3,2.3h-222
				c-1.3,0-2.3-1-2.3-2.3v-11.6C1616.6,386.4,1617.7,385.4,1619,385.4z"/>
			<path id="Rectangle_887" class="st5" d="M1624,415.2h97.2c0.6,0,1.1,0.5,1.1,1.1v5.5c0,0.6-0.5,1.1-1.1,1.1H1624
				c-0.6,0-1.1-0.5-1.1-1.1v-5.5C1622.9,415.7,1623.4,415.2,1624,415.2z"/>
			<path id="Rectangle_888" class="st5" d="M1737.1,415.2h97.2c0.6,0,1.1,0.5,1.1,1.1v5.5c0,0.6-0.5,1.1-1.1,1.1h-97.2
				c-0.6,0-1.1-0.5-1.1-1.1v-5.5C1736,415.7,1736.5,415.2,1737.1,415.2z"/>
			<path id="Rectangle_889" class="st5" d="M1624,431.3h97.2c0.6,0,1.1,0.5,1.1,1.1v5.5c0,0.6-0.5,1.1-1.1,1.1H1624
				c-0.6,0-1.1-0.5-1.1-1.1v-5.5C1622.9,431.8,1623.4,431.3,1624,431.3z"/>
			<path id="Rectangle_890" class="st5" d="M1737.1,431.3h97.2c0.6,0,1.1,0.5,1.1,1.1v5.5c0,0.6-0.5,1.1-1.1,1.1h-97.2
				c-0.6,0-1.1-0.5-1.1-1.1v-5.5C1736,431.8,1736.5,431.3,1737.1,431.3z"/>
			<path id="Rectangle_891" class="st5" d="M1624,446.9h97.2c0.6,0,1.1,0.5,1.1,1.1v5.5c0,0.6-0.5,1.1-1.1,1.1H1624
				c-0.6,0-1.1-0.5-1.1-1.1V448C1622.9,447.3,1623.4,446.9,1624,446.9z"/>
			<path id="Rectangle_892" class="st5" d="M1737.1,446.9h97.2c0.6,0,1.1,0.5,1.1,1.1v5.5c0,0.6-0.5,1.1-1.1,1.1h-97.2
				c-0.6,0-1.1-0.5-1.1-1.1V448C1736,447.3,1736.5,446.9,1737.1,446.9z"/>
		</g>
	</g>
</g>
</svg>
